<svg xmlns="http://www.w3.org/2000/svg" width="435" height="220" class="main-svg"><path fill="none" d="M0 0h435v220H0z" style="fill:#000;fill-opacity:0"/><defs><clipPath id="a" class="plotclip"><path d="M0 0h411v168H0z"/></clipPath></defs><g class="bglayer"><path fill="none" d="M0 0h411v168H0z" class="bg" style="fill:#000;fill-opacity:0;stroke-width:0"/></g><g class="cartesianlayer"><g class="subplot xy"><g class="zerolinelayer"><path d="M0 0h411" class="yzl zl crisp" style="stroke:#fff;stroke-opacity:1;stroke-width:2px" transform="translate(0 159.6)"/></g><g class="plot" clip-path="url(#a)"><g class="scatterlayer mlayer"><g class="trace scatter tracead9a0d" style="stroke-miterlimit:2;opacity:1"><g class="lines"><path d="M0 91.22q6.97-2.51 9.79-5.78c4.27-4.95 6.43-23.99 9.78-24.07 3.18-.07 5.76 16.41 9.79 21.19 2.87 3.41 6.72 3.86 9.78 6.74 3.54 3.33 6.08 11.33 9.79 12.52 2.97.95 6.81-3.84 9.78-2.89 3.71 1.19 6.3 12.1 9.79 12.52 3.09.37 6.41-7.36 9.79-7.71 3.16-.33 6.88 5.72 9.78 4.82 3.92-1.21 6.05-16.6 9.79-17.34 2.96-.58 7.02 3.55 9.78 7.71 4.75 7.16 5.32 34.54 9.79 35.63 2.79.68 6.87-6.02 9.78-10.59 3.9-6.14 6.86-24.32 9.79-24.08 3.83.31 4.41 41.02 9.79 43.34 2.72 1.17 6.48-5.65 9.78-5.78 3.23-.12 6.95 5.82 9.79 4.81 4.16-1.47 6.38-21.04 9.78-21.18 3.14-.13 6.7 17.51 9.79 17.33 3.47-.2 5.39-19.19 9.78-23.11 2.8-2.5 6.64-3.39 9.79-2.89 3.4.54 6.45 4.78 9.79 6.74 3.19 1.87 6.52 4.82 9.78 4.82s6.63-2.83 9.79-4.82c3.38-2.13 6.37-5.74 9.78-7.7 3.14-1.8 6.77-4.62 9.79-3.86 3.62.91 6.52 7.71 9.78 11.56 3.26 3.85 6.53 11.56 9.79 11.56 3.26 0 6.4-11.32 9.79-11.56 3.15-.23 6.25 7.33 9.78 8.67 3.06 1.16 6.64-.86 9.79 0 3.39.93 6.55 3.72 9.78 5.78 3.3 2.11 6.45 6.5 9.79 6.74 3.19.23 6.72-5.39 9.78-4.82 3.52.65 6.44 10.43 9.79 10.6 3.19.16 6.37-6.37 9.79-8.67 3.13-2.1 6.65-2.72 9.78-4.82 3.42-2.3 6.33-8.05 9.79-8.66 3.1-.55 6.65 4.31 9.78 3.85 3.41-.5 6.73-4.53 9.79-7.71 3.53-3.68 6.79-8.19 9.78-13.48q3.67-6.5 9.79-23.11" class="js-line" style="vector-effect:none;fill:none;stroke:#f47738;stroke-opacity:1;stroke-width:2px;opacity:1"/></g></g><g class="trace scatter traceca1c6a" style="stroke-miterlimit:2;opacity:1"><g class="lines"><path d="M0 87.37q6.49 16.33 9.79 16.37c3.23.04 6.7-9.75 9.78-15.41 3.49-6.4 6.15-15.22 9.79-21.18 3-4.92 7.06-13.23 9.78-12.52 5.43 1.41 6.11 62.45 9.79 62.6 2.98.12 5.94-40.11 9.78-40.45 2.93-.26 5.85 21.29 9.79 22.15 2.9.63 6.49-8.57 9.79-8.67 3.22-.09 7.07 8.84 9.78 7.7 7.28-3.06 6.15-89.47 9.79-89.56 3-.08 6.33 41.54 9.78 60.67 3.11 17.27 5.74 48.71 9.79 49.12 2.87.29 5.31-20.15 9.78-23.11 2.79-1.85 7.07-2.12 9.79 0 5.54 4.33 5.93 39.11 9.79 39.48 2.92.28 6.92-21.51 9.78-21.19 4.07.46 3.84 41.41 9.79 46.23 2.7 2.19 6.95 1.74 9.78 0 4.21-2.58 6.46-13.04 9.79-19.26 3.2-5.97 5.71-14.69 9.78-17.34 2.86-1.87 6.86.72 9.79-.96 3.82-2.19 6.89-13.92 9.79-13.48 3.92.6 5.98 28.43 9.78 28.89 2.94.35 5.85-12.98 9.79-15.41 2.89-1.78 6.55-1.27 9.78-.96 3.29.31 6.88 3.98 9.79 2.89 3.89-1.46 6.87-15.79 9.78-15.41 3.88.5 6.45 30.77 9.79 30.82 3.19.05 5.14-25.8 9.79-27.93 2.77-1.27 7.04.87 9.78 3.85 4.95 5.38 6.34 32.62 9.79 32.74 3.11.11 5.12-22.77 9.78-26 2.77-1.92 7.02-1.92 9.79 0 4.66 3.23 5.4 24.46 9.78 26 2.8.99 6.4-4.67 9.79-5.78 3.15-1.03 6.94-2.48 9.79-.96 4.14 2.21 5.64 15.82 9.78 18.3 2.85 1.71 6.84 1.44 9.79 0 3.76-1.84 6.29-12.1 9.78-12.52 3.09-.37 6.98 8.52 9.79 7.7 4.33-1.26 6.44-27.86 9.78-27.92q3.19-.06 9.79 25.04" class="js-line" style="vector-effect:none;fill:none;stroke:#f47738;stroke-opacity:1;stroke-dasharray:9px,9px;stroke-width:2px;opacity:1"/></g></g><g class="trace scatter traceb9739a" style="stroke-miterlimit:2;opacity:1"><g class="lines"><path d="M0 128.78q5.81-17.02 9.79-18.3c2.88-.93 6.82 2.24 9.78 4.82 3.74 3.26 6.56 9.53 9.79 14.45 3.3 5.03 6.4 15.23 9.78 15.4 3.16.15 6.25-9.19 9.79-12.52 3.06-2.88 6.69-7.15 9.78-6.74 3.49.46 6.17 8.97 9.79 11.56 3.02 2.16 6.69 4.4 9.79 3.85 3.46-.61 6.84-9.23 9.78-8.67 3.79.72 5.65 15.83 9.79 19.27 2.85 2.37 6.63 3.38 9.78 2.88 3.4-.54 6.36-5.49 9.79-6.74 3.12-1.14 6.69-1.86 9.78-.96 3.48 1.02 6.45 7.48 9.79 7.7 3.19.21 6.53-5.77 9.79-5.77 3.26 0 6.48 5.64 9.78 5.77 3.23.12 6.53-4.81 9.79-4.81 3.26 0 6.62 5.14 9.78 4.81 3.38-.35 6.53-7.7 9.79-7.7 3.26 0 6.34 7.04 9.78 7.7 3.12.6 6.58-1.63 9.79-2.88 3.32-1.29 6.47-3.52 9.79-4.82 3.21-1.25 6.81-3.84 9.78-2.89 3.71 1.19 6.44 12.38 9.79 12.52 3.19.13 6.3-7.78 9.78-10.59 3.09-2.49 6.76-6.35 9.79-5.78 3.58.68 6.15 11.69 9.78 12.52 3.01.69 6.47-4.54 9.79-4.82 3.21-.27 6.53 1.93 9.79 2.89 3.26.96 6.67 3.49 9.78 2.89 3.44-.66 6.33-6.87 9.79-7.7 3.1-.75 6.51 1.44 9.78 1.92 3.25.48 6.61 1.55 9.79.97 3.35-.61 6.69-5.32 9.78-4.82 3.47.56 6.28 7.35 9.79 9.63 3.07 2 6.75 4.55 9.79 3.85 3.56-.82 6.52-10.59 9.78-10.59s6.23 9.78 9.79 10.59c3.04.7 6.52-3.85 9.78-3.85s6.75 4.55 9.79 3.85c3.56-.82 6.16-8.56 9.78-10.59q3.01-1.68 9.79-1.93" class="js-line" style="vector-effect:none;fill:none;stroke:#00703c;stroke-opacity:1;stroke-width:2px;opacity:1"/></g></g><g class="trace scatter trace189c41" style="stroke-miterlimit:2;opacity:1"><g class="lines"><path d="M0 147.08q5.57-20.62 9.79-22.15c2.83-1.03 6.43 4.04 9.78 4.82 3.18.74 6.53 0 9.79 0 3.26 0 6.83 1.44 9.78 0 3.76-1.83 6.63-12.67 9.79-12.52 3.38.17 6.4 10.61 9.78 15.4 3.16 4.47 6.05 10.22 9.79 12.52 2.96 1.82 6.51 1.61 9.79 1.93 3.25.32 6.75 1.24 9.78 0 3.59-1.47 6.75-5.77 9.79-9.63 3.58-4.55 6.86-16.72 9.78-16.37 3.86.46 5.51 30.81 9.79 31.78 2.82.64 6.63-10.79 9.78-10.6 3.39.2 6.4 13.29 9.79 13.49 3.15.19 6.4-10.33 9.79-10.6 3.15-.25 6.3 6.69 9.78 7.71 3.09.91 6.52-.8 9.79-.96 3.26-.16 6.6.74 9.78 0 3.36-.78 6.44-3.86 9.79-4.82 3.18-.91 6.72-1.95 9.78-.96 3.53 1.14 6.37 8.2 9.79 8.66 3.13.42 6.59-5.04 9.79-4.81 3.33.25 6.56 6.84 9.78 6.74 3.3-.1 6.53-7.7 9.79-7.7 3.26 0 6.34 7.04 9.78 7.7 3.12.6 6.64-1.39 9.79-2.89 3.4-1.62 6.56-6.84 9.78-6.74 3.3.1 6.38 7.2 9.79 7.7 3.14.46 6.47-3.05 9.79-3.85 3.21-.77 6.52-.8 9.78-.96 3.26-.16 6.56-.47 9.79 0 3.3.48 6.54 1.78 9.78 2.89 3.29 1.13 6.59 4.11 9.79 3.85 3.33-.27 6.41-5.2 9.78-5.78 3.16-.54 6.57 2.22 9.79 1.93 3.31-.3 6.77-1.69 9.79-3.85 3.62-2.59 6.76-11.91 9.78-11.56 3.61.42 5.7 17.71 9.79 19.26 2.86 1.08 6.55-2.42 9.78-3.85 3.29-1.46 6.5-4.69 9.79-4.82 3.23-.13 6.79 4.67 9.78 3.86q3.67-1 9.79-12.52" class="js-line" style="vector-effect:none;fill:none;stroke:#4c2c92;stroke-opacity:1;stroke-dasharray:9px,9px;stroke-width:2px;opacity:1"/></g></g><g class="trace scatter tracef214d2" style="stroke-miterlimit:2;opacity:1"><g class="lines"><path d="M0 140.34q6.75-1.77 9.79-3.85c3.56-2.44 6.48-10.52 9.78-10.6 3.22-.08 6.28 8.91 9.79 9.63 3.07.63 6.47-2.88 9.78-3.85 3.22-.94 6.89.06 9.79-1.92 3.92-2.68 6.93-15.85 9.78-15.41 4.11.63 4.69 34.27 9.79 36.59 2.74 1.24 6.85-2.17 9.79-4.81 3.8-3.41 5.84-12.98 9.78-15.41 2.9-1.78 7-2.62 9.79-.96 4.46 2.65 6.11 22.69 9.78 23.11 2.99.34 6.56-13.53 9.79-13.48 3.3.05 5.95 11.64 9.78 14.44 2.93 2.14 6.49 2.41 9.79 2.89 3.23.47 6.79 1.31 9.79 0 3.64-1.59 6.39-7.46 9.78-10.59 3.15-2.91 6.83-8.3 9.79-7.71 3.74.74 6.21 16.92 9.78 17.34 3.04.35 6.17-8.58 9.79-10.6 3.01-1.68 6.65-2.57 9.78-1.92 3.42.71 6.45 4.79 9.79 6.74 3.2 1.87 6.44 3.85 9.79 4.81 3.18.91 6.63 1.67 9.78.97 3.39-.75 6.6-5.99 9.79-5.78 3.34.22 6.52 7.7 9.78 7.7s6.45-7.48 9.79-7.7c3.19-.21 6.45 5.51 9.78 5.78 3.2.26 6.69-1.95 9.79-3.85 3.46-2.12 6.53-8.67 9.79-8.67 3.26 0 6.25 7.13 9.78 8.67 3.06 1.34 6.64 1.66 9.79.96 3.39-.75 6.41-5.2 9.78-5.78 3.16-.54 6.6.85 9.79 1.93 3.34 1.13 6.55 4.93 9.78 4.81 3.3-.13 6.43-5.36 9.79-5.78 3.18-.39 6.67 1.28 9.79 2.89 3.44 1.78 6.4 7.35 9.78 7.71 3.16.33 6.56-3.07 9.79-4.82 3.3-1.78 6.41-4.5 9.78-5.78 3.16-1.2 6.63-2.46 9.79-1.92 3.37.58 6.63 6.08 9.78 5.78q3.38-.32 9.79-8.67" class="js-line" style="vector-effect:none;fill:none;stroke:#003078;stroke-opacity:1;stroke-width:2px;opacity:1"/></g></g></g></g><g class="xaxislayer-above"><path d="M0 169v5" class="xtick ticks crisp" style="stroke:#444;stroke-opacity:1;stroke-width:1px" transform="translate(41.94)"/><path d="M0 169v5" class="xtick ticks crisp" style="stroke:#444;stroke-opacity:1;stroke-width:1px" transform="translate(83.88)"/><path d="M0 169v5" class="xtick ticks crisp" style="stroke:#444;stroke-opacity:1;stroke-width:1px" transform="translate(127.21)"/><path d="M0 169v5" class="xtick ticks crisp" style="stroke:#444;stroke-opacity:1;stroke-width:1px" transform="translate(170.55)"/><path d="M0 169v5" class="xtick ticks crisp" style="stroke:#444;stroke-opacity:1;stroke-width:1px" transform="translate(212.49)"/><path d="M0 169v5" class="xtick ticks crisp" style="stroke:#444;stroke-opacity:1;stroke-width:1px" transform="translate(255.83)"/><path d="M0 169v5" class="xtick ticks crisp" style="stroke:#444;stroke-opacity:1;stroke-width:1px" transform="translate(297.77)"/><path d="M0 169v5" class="xtick ticks crisp" style="stroke:#444;stroke-opacity:1;stroke-width:1px" transform="translate(341.1)"/><path d="M0 169v5" class="xtick ticks crisp" style="stroke:#444;stroke-opacity:1;stroke-width:1px" transform="translate(384.44)"/><text y="188.4" class="xtick" style="font-family:Arial;font-size:12px;fill:#0b0c0c;fill-opacity:1;white-space:pre;opacity:1" transform="rotate(30 20.97 260.661)">Jun 2022</text><text y="188.4" class="xtick" style="font-family:Arial;font-size:12px;fill:#0b0c0c;fill-opacity:1;white-space:pre;opacity:1" transform="rotate(30 41.94 338.922)">Jul 2022</text><text y="188.4" class="xtick" style="font-family:Arial;font-size:12px;fill:#0b0c0c;fill-opacity:1;white-space:pre;opacity:1" transform="rotate(30 63.605 419.777)">Aug 2022</text><text y="188.4" class="xtick" style="font-family:Arial;font-size:12px;fill:#0b0c0c;fill-opacity:1;white-space:pre;opacity:1" transform="rotate(30 85.275 500.65)">Sep 2022</text><text y="188.4" class="xtick" style="font-family:Arial;font-size:12px;fill:#0b0c0c;fill-opacity:1;white-space:pre;opacity:1" transform="rotate(30 106.245 578.912)">Oct 2022</text><text y="188.4" class="xtick" style="font-family:Arial;font-size:12px;fill:#0b0c0c;fill-opacity:1;white-space:pre;opacity:1" transform="rotate(30 127.915 659.785)">Nov 2022</text><text y="188.4" class="xtick" style="font-family:Arial;font-size:12px;fill:#0b0c0c;fill-opacity:1;white-space:pre;opacity:1" transform="rotate(30 148.885 738.046)">Dec 2022</text><text y="188.4" class="xtick" style="font-family:Arial;font-size:12px;fill:#0b0c0c;fill-opacity:1;white-space:pre;opacity:1" transform="rotate(30 170.55 818.901)">Jan 2023</text></g></g></g><defs><clipPath id="b"><path d="M0 0h155v105H0z"/></clipPath></defs><g class="infolayer"><g class="legend" pointer-events="all"><path fill="none" d="M0 0h155v105H0z" class="bg" shape-rendering="crispEdges" style="stroke:#444;stroke-opacity:1;fill:#000;fill-opacity:0;stroke-width:0"/><g class="scrollbox" clip-path="url(#b)"><g class="groups"><g class="traces" style="opacity:1"><text x="40" y="4.68" class="legendtext" style="font-family:&quot;Open Sans&quot;,verdana,arial,sans-serif;font-size:12px;fill:#2a3f5f;fill-opacity:1;white-space:pre" transform="translate(0 14.5)">0 to 4 years</text><g class="layers" style="opacity:1"><g class="legendlines"><path d="M5 0h30" class="js-line" style="fill:none;stroke:#f47738;stroke-opacity:1;stroke-width:2px" transform="translate(0 14.5)"/></g></g><path fill="none" d="M0-9.5h149.141v19H0z" class="legendtoggle" style="fill:#000;fill-opacity:0" transform="translate(0 14.5)"/></g><g class="traces" style="opacity:1"><text x="40" y="4.68" class="legendtext" style="font-family:&quot;Open Sans&quot;,verdana,arial,sans-serif;font-size:12px;fill:#2a3f5f;fill-opacity:1;white-space:pre" transform="translate(0 33.5)">5 to 14 years</text><g class="layers" style="opacity:1"><g class="legendlines"><path d="M5 0h30" class="js-line" style="fill:none;stroke:#f47738;stroke-opacity:1;stroke-dasharray:9px,9px;stroke-width:2px" transform="translate(0 33.5)"/></g></g><path fill="none" d="M0-9.5h149.141v19H0z" class="legendtoggle" style="fill:#000;fill-opacity:0" transform="translate(0 33.5)"/></g><g class="traces" style="opacity:1"><text x="40" y="4.68" class="legendtext" style="font-family:&quot;Open Sans&quot;,verdana,arial,sans-serif;font-size:12px;fill:#2a3f5f;fill-opacity:1;white-space:pre" transform="translate(0 52.5)">15 to 44 years</text><g class="layers" style="opacity:1"><g class="legendlines"><path d="M5 0h30" class="js-line" style="fill:none;stroke:#00703c;stroke-opacity:1;stroke-width:2px" transform="translate(0 52.5)"/></g></g><path fill="none" d="M0-9.5h149.141v19H0z" class="legendtoggle" style="fill:#000;fill-opacity:0" transform="translate(0 52.5)"/></g><g class="traces" style="opacity:1"><text x="40" y="4.68" class="legendtext" style="font-family:&quot;Open Sans&quot;,verdana,arial,sans-serif;font-size:12px;fill:#2a3f5f;fill-opacity:1;white-space:pre" transform="translate(0 71.5)">45 to 64 years</text><g class="layers" style="opacity:1"><g class="legendlines"><path d="M5 0h30" class="js-line" style="fill:none;stroke:#4c2c92;stroke-opacity:1;stroke-dasharray:9px,9px;stroke-width:2px" transform="translate(0 71.5)"/></g></g><path fill="none" d="M0-9.5h149.141v19H0z" class="legendtoggle" style="fill:#000;fill-opacity:0" transform="translate(0 71.5)"/></g><g class="traces" style="opacity:1"><text x="40" y="4.68" class="legendtext" style="font-family:&quot;Open Sans&quot;,verdana,arial,sans-serif;font-size:12px;fill:#2a3f5f;fill-opacity:1;white-space:pre" transform="translate(0 90.5)">65 years and over</text><g class="layers" style="opacity:1"><g class="legendlines"><path d="M5 0h30" class="js-line" style="fill:none;stroke:#003078;stroke-opacity:1;stroke-width:2px" transform="translate(0 90.5)"/></g></g><path fill="none" d="M0-9.5h149.141v19H0z" class="legendtoggle" style="fill:#000;fill-opacity:0" transform="translate(0 90.5)"/></g></g></g></g></g></svg>