<svg xmlns="http://www.w3.org/2000/svg" width="700" height="350" class="main-svg"><path fill="none" d="M0 0h700v350H0z" style="fill:#000;fill-opacity:0"/><defs><clipPath id="a" class="plotclip"><path d="M0 0h662v330H0z"/></clipPath></defs><g class="bglayer"><path fill="none" d="M26 0h662v330H26z" class="bg" style="fill:#000;fill-opacity:0;stroke-width:0"/></g><g class="cartesianlayer"><g class="subplot xy"><g class="zerolinelayer"><path d="M26 0h662" class="yzl zl crisp" style="stroke:#fff;stroke-opacity:1;stroke-width:2px" transform="translate(0 330)"/></g><g class="plot" clip-path="url(#a)" transform="translate(26)"><g class="barlayer mlayer"><g class="trace bars" style="opacity:1"><g class="points"><path d="M.21 330V203.82h1.71V330ZM2.35 330V200.53h1.71V330ZM4.48 330V190.37h1.71V330ZM6.62 330V193.5h1.71V330ZM8.76 330V208.51h1.7V330ZM10.89 330V217.27h1.71V330ZM13.03 330v-94.91h1.7V330ZM15.16 330V225.4h1.71V330ZM17.3 330V215.7h1.71V330ZM19.43 330V216.48h1.71V330ZM21.57 330V225.08h1.71V330ZM23.7 330V223.68h1.71V330ZM25.84 330v-84.75h1.71V330ZM27.97 330v-86.47h1.71V330ZM30.11 330v-88.5h1.71V330ZM32.25 330v-92.1h1.7V330ZM34.38 330v-90.06h1.71V330ZM36.52 330v-97.88h1.71V330ZM38.65 330v-89.59h1.71V330ZM40.79 330v-70.36h1.71V330ZM42.92 330v-60.51h1.71V330ZM45.06 330v-72.39h1.71V330ZM47.19 330v-78.96h1.71V330ZM49.33 330v-72.08h1.71V330ZM51.47 330v-74.27h1.7V330ZM53.6 330v-65.83h1.71V330ZM55.74 330v-69.11h1.7V330ZM57.87 330v-59.73h1.71V330ZM60.01 330v-66.92h1.71V330ZM62.14 330v-72.71h1.71V330ZM64.28 330v-78.49h1.71V330ZM66.41 330v-75.05h1.71V330ZM68.55 330v-64.42h1.71V330ZM70.68 330v-63.17h1.71V330ZM72.82 330v-69.27h1.71V330ZM74.96 330v-83.03h1.7V330ZM77.09 330v-94.75h1.71V330ZM79.23 330v-90.22h1.7V330ZM81.36 330V226.18h1.71V330ZM83.5 330v-98.04h1.71V330ZM85.63 330v-92.1h1.71V330ZM87.77 330v-91.16h1.71V330ZM89.9 330V226.96h1.71V330ZM92.04 330V217.11h1.71V330ZM94.17 330V210.7h1.71V330ZM96.31 330V198.35h1.71V330ZM98.45 330V201.47h1.7V330ZM100.58 330V200.38h1.71V330ZM102.72 330V205.38h1.71V330ZM104.85 330V182.71h1.71V330ZM106.99 330V165.04h1.71V330ZM109.12 330V149.41h1.71V330ZM111.26 330V152.85h1.71V330ZM113.39 330V140.81h1.71V330ZM115.53 330V162.38h1.71V330ZM117.67 330V171.92h1.7V330ZM119.8 330V130.49h1.71V330ZM121.94 330V105.16h1.7V330ZM124.07 330V102.65h1.71V330ZM126.21 330V84.2h1.71V330ZM128.34 330V80.45h1.71V330ZM130.48 330V122.67h1.71V330ZM132.61 330V115.16h1.71V330ZM134.75 330V49.34h1.71V330ZM136.88 330V31.2h1.71V330ZM139.02 330V28.85h1.71V330ZM141.16 330V25.88h1.7V330ZM143.29 330V22.44H145V330ZM145.43 330V64.81h1.7V330ZM147.56 330V79.67h1.71V330ZM149.7 330V34.64h1.71V330ZM151.83 330V16.5h1.71V330ZM153.97 330V25.88h1.71V330ZM156.1 330V25.73h1.71V330ZM158.24 330V42.46h1.71V330ZM160.37 330V97.49h1.71V330ZM162.51 330V115.32h1.71V330ZM164.65 330V65.13h1.7V330ZM166.78 330V55.75h1.71V330ZM168.92 330V43.24h1.71V330ZM171.05 330V61.84h1.71V330ZM173.19 330V87.64h1.71V330ZM175.32 330V137.52h1.71V330ZM177.46 330V151.91h1.71V330ZM179.59 330V125.64h1.71V330ZM181.73 330V119.7h1.71V330ZM183.87 330V123.92h1.7V330ZM186 330V142.84h1.71V330ZM188.14 330V147.84h1.7V330ZM190.27 330V174.27h1.71V330ZM192.41 330V183.65h1.71V330ZM194.54 330V152.06h1.71V330ZM196.68 330V154.88h1.71V330ZM198.81 330V163.95h1.71V330ZM200.95 330V164.42h1.71V330ZM203.08 330V170.98h1.71V330ZM205.22 330V187.71h1.71V330ZM207.36 330V208.82h1.7V330ZM209.49 330V189.43h1.71V330ZM211.63 330V177.55h1.7V330ZM213.76 330V177.86h1.71V330ZM215.9 330V172.23h1.71V330ZM218.03 330V189.12h1.71V330ZM220.17 330V214.29h1.71V330ZM222.3 330V210.85h1.71V330ZM224.44 330V211.32h1.71V330ZM226.57 330V195.37h1.71V330ZM228.71 330V202.1h1.71V330ZM230.85 330V206.79h1.7V330ZM232.98 330V221.8h1.71V330ZM235.12 330V228.68h1.71V330ZM237.25 330v-91.47h1.71V330ZM239.39 330v-94.6h1.71V330ZM241.52 330V225.24h1.71V330ZM243.66 330V219.45h1.71V330ZM245.79 330V229.46h1.71V330ZM247.93 330V228.99h1.71V330ZM250.07 330v-80.06h1.7V330ZM252.2 330v-74.27h1.71V330ZM254.34 330v-84.28h1.7V330ZM256.47 330v-94.13h1.71V330ZM258.61 330v-95.69h1.71V330ZM260.74 330v-90.69h1.71V330ZM262.88 330v-83.5h1.71V330ZM265.01 330v-72.86h1.71V330ZM267.15 330v-68.64h1.71V330ZM269.28 330v-73.65h1.71V330ZM271.42 330v-82.24h1.71V330ZM273.56 330v-83.96h1.7V330ZM275.69 330v-84.59h1.71V330ZM277.83 330v-79.43h1.7V330ZM279.96 330v-65.98h1.71V330ZM282.1 330v-63.79h1.71V330ZM284.23 330v-78.02h1.71V330ZM286.37 330v-81.15h1.71V330ZM288.5 330v-90.69h1.71V330ZM290.64 330v-91.63h1.71V330ZM292.77 330v-86.47h1.71V330ZM294.91 330v-74.43h1.71V330ZM297.05 330v-75.68h1.7V330ZM299.18 330v-86.78h1.71V330ZM301.32 330V207.88h1.71V330ZM303.45 330V200.85h1.71V330ZM305.59 330V195.84h1.71V330ZM307.72 330V197.72h1.71V330ZM309.86 330V219.92h1.71V330ZM311.99 330V216.33h1.71V330ZM314.13 330V178.18h1.71V330ZM316.27 330V173.95h1.7V330ZM318.4 330V166.6h1.71V330ZM320.54 330V152.69h1.7V330ZM322.67 330V148.94h1.71V330ZM324.81 330V193.97h1.71V330ZM326.94 330V159.41h1.71V330ZM329.08 330V132.67h1.71V330ZM331.21 330V119.85h1.71V330ZM333.35 330V108.28h1.71V330ZM335.48 330V133.14h1.71V330ZM337.62 330V148.15h1.71V330ZM339.76 330V182.08h1.7V330ZM341.89 330V191.62h1.71V330ZM344.03 330V134.24h1.7V330ZM346.16 330V130.64h1.71V330ZM348.3 330V141.27h1.71V330ZM350.43 330V150.19h1.71V330ZM352.57 330V135.02h1.71V330ZM354.7 330V177.08h1.71V330ZM356.84 330V189.28h1.71V330ZM358.97 330V141.43h1.71V330ZM361.11 330V154.72h1.71V330ZM363.25 330V157.85h1.7V330ZM365.38 330V163.63h1.71V330ZM367.52 330V165.35h1.71V330ZM369.65 330V200.07h1.71V330ZM371.79 330V207.26h1.71V330ZM373.92 330V191.78h1.71V330ZM376.06 330V193.97h1.71V330ZM378.19 330V195.06h1.71V330ZM380.33 330V196h1.71v134ZM382.47 330V209.13h1.7V330ZM384.6 330v-87.25h1.71V330ZM386.74 330v-80.99h1.7V330ZM388.87 330V229.93h1.71V330ZM391.01 330v-98.51h1.71V330ZM393.14 330V222.27h1.71V330ZM395.28 330v-89.28h1.71V330ZM397.41 330v-88.81h1.71V330ZM399.55 330v-64.11h1.71V330ZM401.68 330v-61.92h1.71V330ZM403.82 330v-78.18h1.71V330ZM405.96 330v-93.5h1.7V330ZM408.09 330v-86h1.71v86ZM410.23 330v-83.65h1.7V330ZM412.36 330v-86h1.71v86ZM414.5 330v-68.02h1.71V330ZM416.63 330v-57.85h1.71V330ZM418.77 330v-69.58h1.71V330ZM420.9 330v-81.62h1.71V330ZM423.04 330v-77.24h1.71V330ZM425.17 330v-84.75h1.71V330ZM427.31 330v-80.68h1.71V330ZM429.45 330v-68.33h1.7V330ZM431.58 330v-61.76h1.71V330ZM433.72 330v-67.86h1.71V330ZM435.85 330v-78.65h1.71V330ZM437.99 330v-85.53h1.71V330ZM440.12 330v-83.81h1.71V330ZM442.26 330v-81.62h1.71V330ZM444.39 330v-69.27h1.71V330ZM446.53 330v-68.49h1.71V330ZM448.67 330v-87.09h1.7V330ZM450.8 330v-99.91h1.71V330ZM452.94 330V226.65h1.7V330ZM455.07 330v-92.25h1.71V330ZM457.21 330v-91.16h1.71V330ZM459.34 330v-73.18h1.71V330ZM461.48 330v-77.87h1.71V330ZM463.61 330v-92.1h1.71V330ZM465.75 330V216.8h1.71V330ZM467.88 330V208.2h1.71V330ZM470.02 330V213.04h1.71V330ZM472.16 330V221.02h1.7V330ZM474.29 330v-94.91H476V330ZM476.43 330v-91h1.7v91ZM478.56 330V193.65h1.71V330ZM480.7 330V179.11h1.71V330ZM482.83 330V169.58h1.71V330ZM484.97 330V179.43h1.71V330ZM487.1 330V163.63h1.71V330ZM489.24 330V199.6h1.71V330ZM491.37 330V205.07h1.71V330ZM493.51 330V146.12h1.71V330ZM495.65 330V127.36h1.7V330ZM497.78 330V114.85h1.71V330ZM499.92 330V127.83h1.71V330ZM502.05 330V136.74h1.71V330ZM504.19 330V189.43h1.71V330ZM506.32 330V208.04h1.71V330ZM508.46 330V198.03h1.71V330ZM510.59 330V175.52h1.71V330ZM512.73 330V152.69h1.71V330ZM514.87 330V135.33h1.7V330ZM517 330V138.46h1.71V330ZM519.14 330V183.02h1.7V330ZM521.27 330V216.95h1.71V330ZM523.41 330V207.41h1.71V330ZM525.54 330V186.78h1.71V330ZM527.68 330V174.89h1.71V330ZM529.81 330V185.84h1.71V330ZM531.95 330V189.43h1.71V330ZM534.08 330V219.77h1.71V330ZM536.22 330v-98.19h1.71V330ZM538.36 330V208.67h1.7V330ZM540.49 330V214.76h1.71V330ZM542.63 330V226.65h1.7V330ZM544.76 330V221.8h1.71V330ZM546.9 330V226.18h1.71V330ZM549.03 330v-79.74h1.71V330ZM551.17 330v-65.2h1.71V330ZM553.3 330v-88.66h1.71V330ZM555.44 330v-93.66h1.71V330ZM557.57 330v-88.34h1.71V330ZM559.71 330v-93.03h1.71V330ZM561.85 330v-96.63h1.7V330ZM563.98 330v-69.89h1.71V330ZM566.12 330v-77.09h1.71V330ZM568.25 330v-92.25h1.71V330ZM570.39 330v-96.47h1.71V330ZM572.52 330V221.33h1.71V330ZM574.66 330V219.61h1.71V330ZM576.79 330V227.74h1.71V330ZM578.93 330v-87.25h1.71V330ZM581.07 330v-87.87h1.7V330ZM583.2 330V219.77h1.71V330ZM585.34 330V214.14h1.7V330ZM587.47 330V212.42h1.71V330ZM589.61 330V208.04h1.71V330ZM591.74 330V218.52h1.71V330ZM593.88 330v-89.59h1.71V330ZM596.01 330V225.55h1.71V330ZM598.15 330V213.2h1.71V330ZM600.28 330V201h1.71v129ZM602.42 330V202.25h1.71V330ZM604.56 330V209.92h1.7V330ZM606.69 330V202.1h1.71V330ZM608.83 330V229.46h1.7V330ZM610.96 330V213.83h1.71V330ZM613.1 330V194.59h1.71V330ZM615.23 330V181.62h1.71V330ZM617.37 330V187.4h1.71V330ZM619.5 330V177.08h1.71V330ZM621.64 330V180.05h1.71V330ZM623.77 330V207.26h1.71V330ZM625.91 330V212.89h1.71V330ZM628.05 330V187.4h1.7V330ZM630.18 330V176.3h1.71V330ZM632.32 330V178.8h1.71V330ZM634.45 330V192.56h1.71V330ZM636.59 330V197.88h1.71V330ZM638.72 330V226.02h1.71V330ZM640.86 330V216.01h1.71V330ZM642.99 330V190.37h1.71V330ZM645.13 330V184.12h1.71V330ZM647.27 330V182.71h1.7V330ZM649.4 330V174.74h1.71V330ZM651.54 330V181.93h1.7V330ZM653.67 330V212.73h1.71V330ZM655.81 330V213.83h1.71V330ZM657.94 330V193.34h1.71V330ZM660.08 330V167.54h1.71V330Z" class="point" style="vector-effect:none;opacity:1;stroke-width:.5px;fill:#5694ca;fill-opacity:1;stroke:#e5ecf6;stroke-opacity:1"/></g></g></g></g><g class="xaxislayer-above"><path d="M0 331v5" class="xtick ticks crisp" style="stroke:#444;stroke-opacity:1;stroke-width:1px" transform="translate(27.07)"/><path d="M0 331v5" class="xtick ticks crisp" style="stroke:#444;stroke-opacity:1;stroke-width:1px" transform="translate(157.33)"/><path d="M0 331v5" class="xtick ticks crisp" style="stroke:#444;stroke-opacity:1;stroke-width:1px" transform="translate(289.73)"/><path d="M0 331v5" class="xtick ticks crisp" style="stroke:#444;stroke-opacity:1;stroke-width:1px" transform="translate(420)"/><path d="M0 331v5" class="xtick ticks crisp" style="stroke:#444;stroke-opacity:1;stroke-width:1px" transform="translate(550.26)"/><path d="M0 331v5" class="xtick ticks crisp" style="stroke:#444;stroke-opacity:1;stroke-width:1px" transform="translate(676.25)"/><text y="348" class="xtick" style="font-family:&quot;GDS Transport&quot;,Arial,sans-serif;font-size:10px;fill:#6b7276;fill-opacity:1;white-space:pre;opacity:1" text-anchor="middle" transform="translate(27.07)">May 2022</text><text y="348" class="xtick" style="font-family:&quot;GDS Transport&quot;,Arial,sans-serif;font-size:10px;fill:#6b7276;fill-opacity:1;white-space:pre;opacity:1" text-anchor="middle" transform="translate(157.33)">Jul 2022</text><text y="348" class="xtick" style="font-family:&quot;GDS Transport&quot;,Arial,sans-serif;font-size:10px;fill:#6b7276;fill-opacity:1;white-space:pre;opacity:1" text-anchor="middle" transform="translate(289.73)">Sep 2022</text><text y="348" class="xtick" style="font-family:&quot;GDS Transport&quot;,Arial,sans-serif;font-size:10px;fill:#6b7276;fill-opacity:1;white-space:pre;opacity:1" text-anchor="middle" transform="translate(420)">Nov 2022</text><text y="348" class="xtick" style="font-family:&quot;GDS Transport&quot;,Arial,sans-serif;font-size:10px;fill:#6b7276;fill-opacity:1;white-space:pre;opacity:1" text-anchor="middle" transform="translate(550.26)">Jan 2023</text><text y="348" class="xtick" style="font-family:&quot;GDS Transport&quot;,Arial,sans-serif;font-size:10px;fill:#6b7276;fill-opacity:1;white-space:pre;opacity:1" text-anchor="middle" transform="translate(676.25)">Mar 2023</text></g><g class="yaxislayer-above"><text x="25" y="3.5" class="ytick" style="font-family:&quot;GDS Transport&quot;,Arial,sans-serif;font-size:10px;fill:#6b7276;fill-opacity:1;white-space:pre;opacity:1" text-anchor="end" transform="translate(0 330)">0</text><text x="25" y="3.5" class="ytick" style="font-family:&quot;GDS Transport&quot;,Arial,sans-serif;font-size:10px;fill:#6b7276;fill-opacity:1;white-space:pre;opacity:1" text-anchor="end" transform="translate(0 251.82)">500</text><text x="25" y="3.5" class="ytick" style="font-family:&quot;GDS Transport&quot;,Arial,sans-serif;font-size:10px;fill:#6b7276;fill-opacity:1;white-space:pre;opacity:1" text-anchor="end" transform="translate(0 173.64)">1000</text><text x="25" y="3.5" class="ytick" style="font-family:&quot;GDS Transport&quot;,Arial,sans-serif;font-size:10px;fill:#6b7276;fill-opacity:1;white-space:pre;opacity:1" text-anchor="end" transform="translate(0 95.46)">1500</text><text x="25" y="3.5" class="ytick" style="font-family:&quot;GDS Transport&quot;,Arial,sans-serif;font-size:10px;fill:#6b7276;fill-opacity:1;white-space:pre;opacity:1" text-anchor="end" transform="translate(0 17.28)">2000</text></g></g></g></svg>