<svg xmlns="http://www.w3.org/2000/svg" width="435" height="220" class="main-svg"><path fill="none" d="M0 0h435v220H0z" style="fill:#000;fill-opacity:0"/><defs><clipPath id="a" class="plotclip"><path d="M0 0h357v168H0z"/></clipPath></defs><g class="bglayer"><path fill="none" d="M33 0h357v168H33z" class="bg" style="fill:#000;fill-opacity:0;stroke-width:0"/></g><g class="cartesianlayer"><g class="subplot xy"><g class="zerolinelayer"><path d="M33 0h357" class="yzl zl crisp" style="stroke:#fff;stroke-opacity:1;stroke-width:2px" transform="translate(0 168)"/></g><g class="plot" clip-path="url(#a)" transform="translate(33)"><g class="barlayer mlayer"><g class="trace bars" style="opacity:1"><g class="points"><path d="M.12 168v-64.24h.92V168ZM1.27 168v-65.91h.92V168ZM2.42 168V96.92h.92V168ZM3.57 168V98.51h.92V168ZM4.72 168v-61.85h.92V168ZM5.87 168v-57.39h.92V168ZM7.02 168v-48.32h.93V168ZM8.18 168v-53.25h.92V168ZM9.33 168v-58.19h.92V168ZM10.48 168v-57.79h.92V168ZM11.63 168v-53.41h.92V168ZM12.78 168v-54.13h.92V168ZM13.93 168v-43.14h.93V168ZM15.09 168v-44.02h.92V168ZM16.24 168v-45.05h.92V168ZM17.39 168v-46.88h.92V168ZM18.54 168v-45.85h.92V168ZM19.69 168v-49.83h.92V168ZM20.84 168v-45.61h.93V168ZM22 168v-35.82h.92V168ZM23.15 168v-30.81h.92V168ZM24.3 168v-36.86h.92V168ZM25.45 168v-40.2h.92V168ZM26.6 168v-36.7h.92V168ZM27.75 168v-37.81h.93V168ZM28.91 168v-33.51h.92V168ZM30.06 168v-35.18h.92V168ZM31.21 168v-30.41h.92V168ZM32.36 168v-34.07h.92V168ZM33.51 168v-37.01h.92V168ZM34.66 168v-39.96h.92V168ZM35.82 168v-38.21h.92V168ZM36.97 168v-32.8h.92V168ZM38.12 168v-32.16h.92V168ZM39.27 168v-35.26h.92V168ZM40.42 168v-42.27h.92V168ZM41.57 168v-48.24h.92V168ZM42.72 168v-45.93h.93V168ZM43.88 168v-52.86h.92V168ZM45.03 168v-49.91h.92V168ZM46.18 168v-46.88h.92V168ZM47.33 168v-46.41h.92V168ZM48.48 168v-52.46h.92V168ZM49.63 168v-57.47h.93V168ZM50.79 168v-60.74h.92V168ZM51.94 168v-67.02h.92V168ZM53.09 168v-65.43h.92V168ZM54.24 168v-65.99h.92V168ZM55.39 168v-63.44h.92V168ZM56.54 168V93.02h.93V168ZM57.7 168V84.02h.92V168ZM58.85 168V76.06h.92V168ZM60 168V77.81h.92V168ZM61.15 168V71.68h.92V168ZM62.3 168V82.67h.92V168ZM63.45 168V87.52h.93V168ZM64.61 168V66.43h.92V168ZM65.76 168V53.53h.92V168ZM66.91 168V52.26h.92V168ZM68.06 168V42.87h.92V168ZM69.21 168V40.96h.92V168ZM70.36 168V62.45h.92V168ZM71.52 168V58.63h.92V168ZM72.67 168V25.12h.92V168ZM73.82 168V15.88h.92V168ZM74.97 168V14.69h.92V168ZM76.12 168V13.18h.92V168ZM77.27 168V11.42h.92V168ZM78.42 168V33h.93v135ZM79.58 168V40.56h.92V168ZM80.73 168V17.63h.92V168ZM81.88 168V8.4h.92V168ZM83.03 168V13.18h.92V168ZM84.18 168V13.1h.92V168ZM85.33 168V21.61h.93V168ZM86.49 168V49.63h.92V168ZM87.64 168V58.71h.92V168ZM88.79 168V33.16h.92V168ZM89.94 168V28.38h.92V168ZM91.09 168V22.01h.92V168ZM92.24 168V31.48h.93V168ZM93.4 168V44.62h.92V168ZM94.55 168V70.01h.92V168ZM95.7 168V77.33h.92V168ZM96.85 168V63.96h.92V168ZM98 168V60.94h.92V168ZM99.15 168V63.09h.93V168ZM100.31 168V72.72h.92V168ZM101.46 168V75.26h.92V168ZM102.61 168V88.72h.92V168ZM103.76 168V93.49h.92V168ZM104.91 168V77.41h.92V168ZM106.06 168V78.85h.92V168ZM107.22 168V83.46h.92V168ZM108.37 168V83.7h.92V168ZM109.52 168V87.05h.92V168ZM110.67 168V95.56h.92V168ZM111.82 168v-61.69h.92V168ZM112.97 168V96.44h.92V168ZM114.12 168V90.39h.93V168ZM115.28 168V90.55h.92V168ZM116.43 168V87.68h.92V168ZM117.58 168V96.28h.92V168ZM118.73 168v-58.9h.92V168ZM119.88 168v-60.66h.92V168ZM121.03 168v-60.42h.93V168ZM122.19 168V99.46h.92V168ZM123.34 168v-65.11h.92V168ZM124.49 168v-62.73h.92V168ZM125.64 168v-55.08h.92V168ZM126.79 168v-51.58h.92V168ZM127.94 168v-46.57h.93V168ZM129.1 168v-48.16h.92V168ZM130.25 168v-53.33h.92V168ZM131.4 168v-56.28h.92V168ZM132.55 168v-51.18h.92V168ZM133.7 168v-51.42h.92V168ZM134.85 168v-40.76h.93V168ZM136.01 168v-37.81h.92V168ZM137.16 168v-42.9h.92V168ZM138.31 168v-47.92h.92V168ZM139.46 168v-48.72h.92V168ZM140.61 168v-46.17h.92V168ZM141.76 168v-42.51h.92V168ZM142.92 168v-37.09h.92V168ZM144.07 168v-34.94h.92V168ZM145.22 168v-37.49h.92V168ZM146.37 168v-41.87h.92V168ZM147.52 168v-42.75h.92V168ZM148.67 168v-43.06h.92V168ZM149.82 168v-40.44h.93V168ZM150.98 168v-33.59h.92V168ZM152.13 168v-32.48h.92V168ZM153.28 168v-39.72h.92V168ZM154.43 168v-41.31h.92V168ZM155.58 168v-46.17h.92V168ZM156.73 168v-46.65h.93V168ZM157.89 168v-44.02h.92V168ZM159.04 168v-37.89h.92V168ZM160.19 168v-38.53h.92V168ZM161.34 168v-44.18h.92V168ZM162.49 168v-62.17h.92V168ZM163.64 168v-65.75h.93V168ZM164.8 168V99.7h.92V168ZM165.95 168v-67.34h.92V168ZM167.1 168v-56.04h.92V168ZM168.25 168v-57.87h.92V168ZM169.4 168V90.71h.92V168ZM170.55 168V88.56h.93V168ZM171.71 168V84.82h.92V168ZM172.86 168V77.73h.92V168ZM174.01 168V75.82h.92V168ZM175.16 168V98.75h.92V168ZM176.31 168V81.16h.92V168ZM177.46 168V67.54h.92V168ZM178.62 168V61.02h.92V168ZM179.77 168V55.13h.92V168ZM180.92 168V67.78h.92V168ZM182.07 168V75.42h.92V168ZM183.22 168V92.7h.92V168ZM184.37 168V97.55h.92V168ZM185.52 168V68.34h.93V168ZM186.68 168V66.51h.92V168ZM187.83 168V71.92h.92V168ZM188.98 168V76.46h.92V168ZM190.13 168V68.74h.92V168ZM191.28 168V90.15h.92V168ZM192.43 168V96.36h.93V168ZM193.59 168V72h.92v96ZM194.74 168V78.77h.92V168ZM195.89 168V80.36h.92V168ZM197.04 168V83.3h.92V168ZM198.19 168V84.18h.92V168ZM199.34 168v-66.15h.93V168ZM200.5 168v-62.49h.92V168ZM201.65 168V97.63h.92V168ZM202.8 168V98.75h.92V168ZM203.95 168V99.3h.92V168ZM205.1 168V99.78h.92V168ZM206.25 168v-61.53h.93V168ZM207.41 168v-44.42h.92V168ZM208.56 168v-41.23h.92V168ZM209.71 168v-50.94h.92V168ZM210.86 168v-50.15h.92V168ZM212.01 168v-54.85h.92V168ZM213.16 168v-45.45h.92V168ZM214.32 168v-45.21h.92V168ZM215.47 168v-32.64h.92V168ZM216.62 168v-31.52h.92V168ZM217.77 168v-39.8h.92V168ZM218.92 168v-47.6h.92V168ZM220.07 168v-43.78h.92V168ZM221.22 168v-42.59h.93V168ZM222.38 168v-43.78h.92V168ZM223.53 168v-34.63h.92V168ZM224.68 168v-29.45h.92V168ZM225.83 168v-35.42h.92V168ZM226.98 168v-41.55h.92V168ZM228.13 168v-39.32h.93V168ZM229.29 168v-43.14h.92V168ZM230.44 168v-41.07h.92V168ZM231.59 168v-34.79h.92V168ZM232.74 168v-31.44h.92V168ZM233.89 168v-34.55h.92V168ZM235.04 168v-40.04h.93V168ZM236.2 168v-43.54h.92V168ZM237.35 168v-42.67h.92V168ZM238.5 168v-41.55h.92V168ZM239.65 168v-35.26h.92V168ZM240.8 168v-34.87h.92V168ZM241.95 168v-44.34h.93V168ZM243.11 168v-50.87h.92V168ZM244.26 168v-52.62h.92V168ZM245.41 168v-46.96h.92V168ZM246.56 168v-46.41h.92V168ZM247.71 168v-37.25h.92V168ZM248.86 168v-39.64h.92V168ZM250.02 168v-46.88h.92V168ZM251.17 168v-57.63h.92V168ZM252.32 168v-62.01h.92V168ZM253.47 168v-59.54h.92V168ZM254.62 168v-55.48h.92V168ZM255.77 168v-48.32h.92V168ZM256.92 168v-46.33h.93V168ZM258.08 168V98.59h.92V168ZM259.23 168V91.19h.92V168ZM260.38 168V86.33h.92V168ZM261.53 168V91.34h.92V168ZM262.68 168V83.3h.92V168ZM263.83 168v-66.39h.93V168ZM264.99 168v-63.6h.92V168ZM266.14 168V74.39h.92V168ZM267.29 168V64.84h.92V168ZM268.44 168V58.47h.92V168ZM269.59 168V65.08h.92V168ZM270.74 168V69.61h.93V168ZM271.9 168V96.44h.92V168ZM273.05 168v-62.09h.92V168ZM274.2 168v-67.18h.92V168ZM275.35 168V89.35h.92V168ZM276.5 168V77.73h.92V168ZM277.65 168V68.9h.93V168ZM278.81 168V70.49h.92V168ZM279.96 168V93.18h.92V168ZM281.11 168v-57.55h.92V168ZM282.26 168v-62.41h.92V168ZM283.41 168V95.09h.92V168ZM284.56 168V89.04h.92V168ZM285.72 168V94.61h.92V168ZM286.87 168V96.44h.92V168ZM288.02 168v-56.12h.92V168ZM289.17 168v-49.99h.92V168ZM290.32 168v-61.77h.92V168ZM291.47 168v-58.67h.92V168ZM292.62 168v-52.62h.93V168ZM293.78 168v-55.08h.92V168ZM294.93 168v-52.86h.92V168ZM296.08 168v-40.6h.92V168ZM297.23 168v-33.19h.92V168ZM298.38 168v-45.13h.92V168ZM299.53 168v-47.68h.93V168ZM300.69 168v-44.97h.92V168ZM301.84 168v-47.36h.92V168ZM302.99 168v-49.19h.92V168ZM304.14 168v-35.58h.92V168ZM305.29 168v-39.24h.92V168ZM306.44 168v-46.96h.93V168ZM307.6 168v-49.11h.92V168ZM308.75 168v-55.32h.92V168ZM309.9 168v-56.2h.92V168ZM311.05 168v-52.06h.92V168ZM312.2 168v-44.42h.92V168ZM313.35 168v-44.74h.93V168ZM314.51 168v-56.12h.92V168ZM315.66 168v-58.98h.92V168ZM316.81 168v-59.86h.92V168ZM317.96 168v-62.09h.92V168ZM319.11 168v-56.76h.92V168ZM320.26 168v-45.61h.92V168ZM321.42 168v-53.17h.92V168ZM322.57 168v-59.46h.92V168ZM323.72 168v-65.67h.92V168ZM324.87 168v-65.03h.92V168ZM326.02 168v-61.13h.92V168ZM327.17 168v-65.11h.92V168ZM328.32 168v-51.18h.93V168ZM329.48 168v-59.14h.92V168ZM330.63 168V99.07h.92V168ZM331.78 168V92.46h.92V168ZM332.93 168V95.4h.92V168ZM334.08 168V90.15h.92V168ZM335.23 168V91.66h.93V168ZM336.39 168v-62.49h.92V168ZM337.54 168v-59.62h.92V168ZM338.69 168V95.4h.92V168ZM339.84 168V89.75h.92V168ZM340.99 168V91.03h.92V168ZM342.14 168V98.03h.93V168ZM343.3 168v-67.26h.92V168ZM344.45 168v-52.93h.92V168ZM345.6 168v-58.03h.92V168ZM346.75 168V96.92h.92V168ZM347.9 168V93.73h.92V168ZM349.05 168V93.02h.93V168ZM350.21 168V88.96h.92V168ZM351.36 168V92.62h.92V168ZM352.51 168v-59.7h.92V168ZM353.66 168v-59.14h.92V168ZM354.81 168V98.43h.92V168ZM355.96 168V85.29h.92V168Z" class="point" style="vector-effect:none;opacity:1;stroke-width:1px;fill:#5694ca;fill-opacity:1;stroke:#5694ca;stroke-opacity:1"/></g></g></g></g><g class="xaxislayer-above"><path d="M0 169v5" class="xtick ticks crisp" style="stroke:#444;stroke-opacity:1;stroke-width:1px" transform="translate(33.58)"/><path d="M0 169v5" class="xtick ticks crisp" style="stroke:#444;stroke-opacity:1;stroke-width:1px" transform="translate(69.28)"/><path d="M0 169v5" class="xtick ticks crisp" style="stroke:#444;stroke-opacity:1;stroke-width:1px" transform="translate(103.82)"/><path d="M0 169v5" class="xtick ticks crisp" style="stroke:#444;stroke-opacity:1;stroke-width:1px" transform="translate(139.52)"/><path d="M0 169v5" class="xtick ticks crisp" style="stroke:#444;stroke-opacity:1;stroke-width:1px" transform="translate(175.22)"/><path d="M0 169v5" class="xtick ticks crisp" style="stroke:#444;stroke-opacity:1;stroke-width:1px" transform="translate(209.77)"/><path d="M0 169v5" class="xtick ticks crisp" style="stroke:#444;stroke-opacity:1;stroke-width:1px" transform="translate(245.47)"/><path d="M0 169v5" class="xtick ticks crisp" style="stroke:#444;stroke-opacity:1;stroke-width:1px" transform="translate(280.02)"/><path d="M0 169v5" class="xtick ticks crisp" style="stroke:#444;stroke-opacity:1;stroke-width:1px" transform="translate(315.72)"/><path d="M0 169v5" class="xtick ticks crisp" style="stroke:#444;stroke-opacity:1;stroke-width:1px" transform="translate(351.42)"/><path d="M0 169v5" class="xtick ticks crisp" style="stroke:#444;stroke-opacity:1;stroke-width:1px" transform="translate(383.67)"/><text y="188.4" class="xtick" style="font-family:Arial;font-size:12px;fill:#6b7276;fill-opacity:1;white-space:pre;opacity:1" transform="rotate(30 16.79 245.061)">May 2022</text><text y="188.4" class="xtick" style="font-family:Arial;font-size:12px;fill:#6b7276;fill-opacity:1;white-space:pre;opacity:1" transform="rotate(30 34.64 311.678)">Jun 2022</text><text y="188.4" class="xtick" style="font-family:Arial;font-size:12px;fill:#6b7276;fill-opacity:1;white-space:pre;opacity:1" transform="rotate(30 51.91 376.13)">Jul 2022</text><text y="188.4" class="xtick" style="font-family:Arial;font-size:12px;fill:#6b7276;fill-opacity:1;white-space:pre;opacity:1" transform="rotate(30 69.76 442.748)">Aug 2022</text><text y="188.4" class="xtick" style="font-family:Arial;font-size:12px;fill:#6b7276;fill-opacity:1;white-space:pre;opacity:1" transform="rotate(30 87.61 509.365)">Sep 2022</text><text y="188.4" class="xtick" style="font-family:Arial;font-size:12px;fill:#6b7276;fill-opacity:1;white-space:pre;opacity:1" transform="rotate(30 104.885 573.836)">Oct 2022</text><text y="188.4" class="xtick" style="font-family:Arial;font-size:12px;fill:#6b7276;fill-opacity:1;white-space:pre;opacity:1" transform="rotate(30 122.735 640.453)">Nov 2022</text><text y="188.4" class="xtick" style="font-family:Arial;font-size:12px;fill:#6b7276;fill-opacity:1;white-space:pre;opacity:1" transform="rotate(30 140.01 704.924)">Dec 2022</text><text y="188.4" class="xtick" style="font-family:Arial;font-size:12px;fill:#6b7276;fill-opacity:1;white-space:pre;opacity:1" transform="rotate(30 157.86 771.542)">Jan 2023</text><text y="188.4" class="xtick" style="font-family:Arial;font-size:12px;fill:#6b7276;fill-opacity:1;white-space:pre;opacity:1" transform="rotate(30 175.71 838.159)">Feb 2023</text></g><g class="yaxislayer-above"><text x="32" y="4.2" class="ytick" style="font-family:Arial;font-size:12px;fill:#6b7276;fill-opacity:1;white-space:pre;opacity:1" text-anchor="end" transform="translate(0 168)">0</text><text x="32" y="4.2" class="ytick" style="font-family:Arial;font-size:12px;fill:#6b7276;fill-opacity:1;white-space:pre;opacity:1" text-anchor="end" transform="translate(0 128.2)">500</text><text x="32" y="4.2" class="ytick" style="font-family:Arial;font-size:12px;fill:#6b7276;fill-opacity:1;white-space:pre;opacity:1" text-anchor="end" transform="translate(0 88.4)">1000</text><text x="32" y="4.2" class="ytick" style="font-family:Arial;font-size:12px;fill:#6b7276;fill-opacity:1;white-space:pre;opacity:1" text-anchor="end" transform="translate(0 48.6)">1500</text><text x="32" y="4.2" class="ytick" style="font-family:Arial;font-size:12px;fill:#6b7276;fill-opacity:1;white-space:pre;opacity:1" text-anchor="end" transform="translate(0 8.8)">2000</text></g></g></g></svg>