<svg xmlns="http://www.w3.org/2000/svg" width="435" height="220" class="main-svg"><path fill="none" d="M0 0h435v220H0z" style="fill:#000;fill-opacity:0"/><defs><clipPath id="a" class="plotclip"><path d="M0 0h360v168H0z"/></clipPath></defs><g class="bglayer"><path fill="none" d="M32 0h360v168H32z" class="bg" style="fill:#000;fill-opacity:0;stroke-width:0"/></g><g class="cartesianlayer"><g class="subplot xy"><g class="zerolinelayer"><path d="M32 0h360" class="yzl zl crisp" style="stroke:#fff;stroke-opacity:1;stroke-width:2px" transform="translate(0 168)"/></g><g class="plot" clip-path="url(#a)" transform="translate(32)"><g class="barlayer mlayer"><g class="trace bars" style="opacity:1"><g class="points"><path d="M.12 168V58.59h.92V168ZM1.27 168V44.91h.92V168ZM2.42 168V8.4h.93V168ZM3.58 168V10.57h.92V168ZM4.73 168V28.36h.92V168ZM5.88 168V18.56h.93V168ZM7.04 168V44.07h.92V168ZM8.19 168V57.79h.93V168ZM9.35 168V10h.92v158ZM10.5 168V25.11h.92V168ZM11.65 168V65.24h.93V168ZM12.81 168v-65.13h.92V168ZM13.96 168V76.95h.92V168ZM15.12 168V69.6h.92V168ZM16.27 168V66.16h.92V168ZM17.42 168V24.71h.93V168ZM18.58 168V34.48h.92V168ZM19.73 168V51.62h.92V168ZM20.88 168V62.46h.93V168ZM22.04 168V38.34h.92V168ZM23.19 168V61.16h.93V168ZM24.35 168V71.08h.92V168ZM25.5 168V32.95h.92V168ZM26.65 168V32.07h.93V168ZM27.81 168V34.36h.92V168ZM28.96 168V41.98h.92V168ZM30.12 168V35.89h.92V168ZM31.27 168V64.02h.92V168ZM32.42 168V82.38h.93V168ZM33.58 168V47.5h.92V168ZM34.73 168V54.15h.92V168ZM35.88 168V55.02h.93V168ZM37.04 168V76.66h.92V168ZM38.19 168V74.13h.93V168ZM39.35 168V78.09h.92V168ZM40.5 168V81.84h.92V168ZM41.65 168V46.42h.93V168ZM42.81 168V52.43h.92V168ZM43.96 168V57.13h.92V168ZM45.12 168V54.22h.92V168ZM46.27 168V57.14h.92V168ZM47.42 168V76.04h.93V168ZM48.58 168V89.97h.92V168ZM49.73 168V57.6h.92V168ZM50.88 168V60.09h.93V168ZM52.04 168V63.31h.92V168ZM53.19 168V64.69h.93V168ZM54.35 168V63.7h.92V168ZM55.5 168V88.54h.92V168ZM56.65 168V95.27h.93V168ZM57.81 168V61.18h.92V168ZM58.96 168V59.31h.92V168ZM60.12 168V64.29h.92V168ZM61.27 168V57.01h.92V168ZM62.42 168V66.74h.93V168ZM63.58 168V80.02h.92V168ZM64.73 168V88.36h.92V168ZM65.88 168V56.77h.93V168ZM67.04 168V41.01h.92V168ZM68.19 168V49.81h.93V168ZM69.35 168V54h.92v114ZM70.5 168V43.04h.92V168ZM71.65 168V75.38h.93V168ZM72.81 168V87.26h.92V168ZM73.96 168V58h.92v110ZM75.12 168V44.43h.92V168ZM76.27 168V48.13h.92V168ZM77.42 168V26.25h.93V168ZM78.58 168V74.88h.92V168ZM79.73 168V72.56h.92V168ZM80.88 168V59.45h.93V168ZM82.04 168V59.97h.92V168ZM83.19 168V44.9h.93V168ZM84.35 168V24.9h.92V168ZM85.5 168V50.51h.92V168ZM86.65 168V39.08h.93V168ZM87.81 168V71.28h.92V168ZM88.96 168V71.73h.92V168ZM90.12 168V58.9h.92V168ZM91.27 168V68.45h.92V168ZM92.42 168V46.57h.93V168ZM93.58 168V62.13h.92V168ZM94.73 168V58.58h.92V168ZM95.88 168V83.39h.93V168ZM97.04 168V97.04h.92V168ZM98.19 168V66.85h.93V168ZM99.35 168V55.82h.92V168ZM100.5 168V58.13h.92V168ZM101.65 168V68.25h.93V168ZM102.81 168V70.24h.92V168ZM103.96 168V88.11h.92V168ZM105.12 168v-63.95h.92V168ZM106.27 168V76.01h.92V168ZM107.42 168V53.57h.93V168ZM108.58 168V71.2h.92V168ZM109.73 168V74.88h.92V168ZM110.88 168V67.01h.93V168ZM112.04 168V85.27h.92V168ZM113.19 168v-64.4h.93V168ZM114.35 168V82.31h.92V168ZM115.5 168V72.26h.92V168ZM116.65 168V76.95h.93V168ZM117.81 168V78.03h.92V168ZM118.96 168V83.36h.92V168ZM120.12 168V98.57h.92V168ZM121.27 168v-57.27h.92V168ZM122.42 168V86.55h.93V168ZM123.58 168V81.6h.92V168ZM124.73 168V83.29h.92V168ZM125.88 168V86.86h.93V168ZM127.04 168V98.72h.92V168ZM128.19 168v-66.14h.93V168ZM129.35 168v-56.68h.92V168ZM130.5 168V85.93h.92V168ZM131.65 168V92.02h.93V168ZM132.81 168V85.96h.92V168ZM133.96 168V85.09h.92V168ZM135.12 168v-64.82h.92V168ZM136.27 168v-61.96h.92V168ZM137.42 168v-51.22h.93V168ZM138.58 168v-60.94h.92V168ZM139.73 168V93.23h.92V168ZM140.88 168V98.15h.93V168ZM142.04 168v-64.46h.92V168ZM143.19 168v-63.21h.93V168ZM144.35 168v-53.02h.92V168ZM145.5 168v-43.72h.92V168ZM146.65 168v-61.17h.93V168ZM147.81 168v-60.58h.92V168ZM148.96 168v-50.6h.92V168ZM150.12 168v-49.49h.92V168ZM151.27 168v-50.37h.92V168ZM152.42 168v-40.97h.93V168ZM153.58 168v-34.69h.92V168ZM154.73 168v-55.75h.92V168ZM155.88 168v-54.82h.93V168ZM157.04 168v-53.24h.92V168ZM158.19 168v-52.7h.93V168ZM159.35 168v-49.2h.92V168ZM160.5 168v-37.86h.92V168ZM161.65 168v-33.78h.93V168ZM162.81 168v-43.55h.92V168ZM163.96 168v-49.36h.92V168ZM165.12 168v-52.13h.92V168ZM166.27 168v-55.35h.92V168ZM167.42 168v-49.96h.93V168ZM168.58 168v-36.76h.92V168ZM169.73 168v-33.3h.92V168ZM170.88 168v-48.1h.93V168ZM172.04 168v-51.23h.92V168ZM173.19 168v-52.38h.93V168ZM174.35 168v-53.51h.92V168ZM175.5 168v-47.14h.92V168ZM176.65 168v-38.02h.93V168ZM177.81 168v-33.46h.92V168ZM178.96 168v-46.85h.92V168ZM180.12 168v-57.37h.92V168ZM181.27 168v-55.56h.92V168ZM182.42 168v-55.4h.93V168ZM183.58 168v-50.39h.92V168ZM184.73 168v-42.57h.92V168ZM185.88 168v-35.98h.93V168ZM187.04 168v-48.53h.92V168ZM188.19 168v-63.03h.93V168ZM189.35 168v-59.77h.92V168ZM190.5 168v-56.47h.92V168ZM191.65 168v-58.15h.93V168ZM192.81 168v-50.1h.92V168ZM193.96 168v-37.88h.92V168ZM195.12 168v-50h.92v50ZM196.27 168v-67.64h.92V168ZM197.42 168v-66.49h.93V168ZM198.58 168v-56.67h.92V168ZM199.73 168v-50.15h.92V168ZM200.88 168v-41.83h.93V168ZM202.04 168v-34.56h.92V168ZM203.19 168v-42.84h.93V168ZM204.35 168v-57.84h.92V168ZM205.5 168v-52.29h.92V168ZM206.65 168v-48.24h.93V168ZM207.81 168v-44.55h.92V168ZM208.96 168v-36.01h.92V168ZM210.12 168v-28.03h.92V168ZM211.27 168v-40.42h.92V168ZM212.42 168v-51.68h.93V168ZM213.58 168v-44.66h.92V168ZM214.73 168v-45.71h.92V168ZM215.88 168v-42.33h.93V168ZM217.04 168v-31.68h.92V168ZM218.19 168v-25.8h.93V168ZM219.35 168v-41.61h.92V168ZM220.5 168v-48.01h.92V168ZM221.65 168v-43.88h.93V168ZM222.81 168v-40.07h.92V168ZM223.96 168v-36.91h.92V168ZM225.12 168v-31.16h.92V168ZM226.27 168v-25.13h.92V168ZM227.42 168v-40.48h.93V168ZM228.58 168v-46.17h.92V168ZM229.73 168v-41.82h.92V168ZM230.88 168v-37.22h.93V168ZM232.04 168v-36.92h.92V168ZM233.19 168v-27.84h.93V168ZM234.35 168v-26.28h.92V168ZM235.5 168v-39.48h.92V168ZM236.65 168v-41.1h.93V168ZM237.81 168v-41.36h.92V168ZM238.96 168v-36.84h.92V168ZM240.12 168v-31.73h.92V168ZM241.27 168v-29.87h.92V168ZM242.42 168v-26.76h.93V168ZM243.58 168v-37.89h.92V168ZM244.73 168v-44.66h.92V168ZM245.88 168v-43.68h.93V168ZM247.04 168v-40.9h.92V168ZM248.19 168v-36.49h.93V168ZM249.35 168v-33.49h.92V168ZM250.5 168v-29.38h.92V168ZM251.65 168v-40.89h.93V168ZM252.81 168v-49.36h.92V168ZM253.96 168v-47h.92v47ZM255.12 168v-45.23h.92V168ZM256.27 168v-44.1h.92V168ZM257.42 168v-35.86h.93V168ZM258.58 168v-29.91h.92V168ZM259.73 168v-46.99h.92V168ZM260.88 168v-53.69h.93V168ZM262.04 168v-55.66h.92V168ZM263.19 168v-49.16h.93V168ZM264.35 168v-57.02h.92V168ZM265.5 168v-42.26h.92V168ZM266.65 168v-37.56h.93V168ZM267.81 168v-53.86h.92V168ZM268.96 168V99.88h.92V168ZM270.12 168v-66.14h.92V168ZM271.27 168v-63.14h.92V168ZM272.42 168v-54.33h.93V168ZM273.58 168v-44.2h.92V168ZM274.73 168v-32.79h.92V168ZM275.88 168v-35.88h.93V168ZM277.04 168v-38.69h.92V168ZM278.19 168v-54.2h.93V168ZM279.35 168v-58.91h.92V168ZM280.5 168V98.65h.92V168ZM281.65 168v-45.4h.93V168ZM282.81 168v-33.64h.92V168ZM283.96 168v-37.25h.92V168ZM285.12 168v-52.98h.92V168ZM286.27 168v-56.72h.92V168ZM287.42 168v-62.16h.93V168ZM288.58 168v-48.77h.92V168ZM289.73 168v-42.89h.92V168ZM290.88 168v-34.39h.93V168ZM292.04 168v-40.04h.92V168ZM293.19 168v-53.3h.93V168ZM294.35 168v-51.29h.92V168ZM295.5 168v-46.93h.92V168ZM296.65 168v-61.52h.93V168ZM297.81 168v-57.37h.92V168ZM298.96 168v-32.8h.92V168ZM300.12 168v-36.27h.92V168ZM301.27 168v-43.65h.92V168ZM302.42 168v-42.25h.93V168ZM303.58 168v-40.16h.92V168ZM304.73 168v-34.61h.92V168ZM305.88 168v-27.91h.93V168ZM307.04 168v-24.54h.92V168ZM308.19 168v-32.8h.93V168ZM309.35 168v-38.09h.92V168ZM310.5 168v-38.04h.92V168ZM311.65 168v-38.93h.93V168ZM312.81 168v-32.31h.92V168ZM313.96 168v-26.33h.92V168ZM315.12 168v-22.81h.92V168ZM316.27 168v-33.74h.92V168ZM317.42 168v-41.83h.93V168ZM318.58 168v-36.94h.92V168ZM319.73 168v-37.86h.92V168ZM320.88 168v-34.24h.93V168ZM322.04 168v-29.69h.92V168ZM323.19 168v-23.57h.93V168ZM324.35 168v-35h.92v35ZM325.5 168v-47.3h.92V168ZM326.65 168v-43.48h.93V168ZM327.81 168v-44.57h.92V168ZM328.96 168v-38.38h.92V168ZM330.12 168v-33.49h.92V168ZM331.27 168v-26.2h.92V168ZM332.42 168v-36.29h.93V168ZM333.58 168v-47.76h.92V168ZM334.73 168v-46.92h.92V168ZM335.88 168v-40.57h.93V168ZM337.04 168v-37.43h.92V168ZM338.19 168v-33.29h.93V168ZM339.35 168v-25.26h.92V168ZM340.5 168v-32.69h.92V168ZM341.65 168v-44.79h.93V168ZM342.81 168v-43.81h.92V168ZM343.96 168v-39h.92v39ZM345.12 168v-38.02h.92V168ZM346.27 168v-30.47h.92V168ZM347.42 168v-23.69h.93V168ZM348.58 168v-31.17h.92V168ZM349.73 168v-45.1h.92V168ZM350.88 168v-40.36h.93V168ZM352.04 168v-40.18h.92V168ZM353.19 168v-37.97h.93V168ZM354.35 168v-30.98h.92V168ZM355.5 168v-24.86h.92V168ZM356.65 168v-30.94h.93V168ZM357.81 168v-47h.92v47ZM358.96 168v-45.01h.92V168Z" class="point" style="vector-effect:none;opacity:1;stroke-width:1px;fill:#5694ca;fill-opacity:1;stroke:#5694ca;stroke-opacity:1"/></g></g></g></g><g class="xaxislayer-above"><path d="M0 169v5" class="xtick ticks crisp" style="stroke:#444;stroke-opacity:1;stroke-width:1px" transform="translate(32.58)"/><path d="M0 169v5" class="xtick ticks crisp" style="stroke:#444;stroke-opacity:1;stroke-width:1px" transform="translate(68.35)"/><path d="M0 169v5" class="xtick ticks crisp" style="stroke:#444;stroke-opacity:1;stroke-width:1px" transform="translate(102.96)"/><path d="M0 169v5" class="xtick ticks crisp" style="stroke:#444;stroke-opacity:1;stroke-width:1px" transform="translate(138.73)"/><path d="M0 169v5" class="xtick ticks crisp" style="stroke:#444;stroke-opacity:1;stroke-width:1px" transform="translate(174.5)"/><path d="M0 169v5" class="xtick ticks crisp" style="stroke:#444;stroke-opacity:1;stroke-width:1px" transform="translate(209.12)"/><path d="M0 169v5" class="xtick ticks crisp" style="stroke:#444;stroke-opacity:1;stroke-width:1px" transform="translate(244.88)"/><path d="M0 169v5" class="xtick ticks crisp" style="stroke:#444;stroke-opacity:1;stroke-width:1px" transform="translate(279.5)"/><path d="M0 169v5" class="xtick ticks crisp" style="stroke:#444;stroke-opacity:1;stroke-width:1px" transform="translate(315.27)"/><path d="M0 169v5" class="xtick ticks crisp" style="stroke:#444;stroke-opacity:1;stroke-width:1px" transform="translate(351.04)"/><path d="M0 169v5" class="xtick ticks crisp" style="stroke:#444;stroke-opacity:1;stroke-width:1px" transform="translate(383.35)"/><text y="188.4" class="xtick" style="font-family:Arial;font-size:12px;fill:#6b7276;fill-opacity:1;white-space:pre;opacity:1" transform="rotate(30 16.29 243.195)">May 2022</text><text y="188.4" class="xtick" style="font-family:Arial;font-size:12px;fill:#6b7276;fill-opacity:1;white-space:pre;opacity:1" transform="rotate(30 34.175 309.943)">Jun 2022</text><text y="188.4" class="xtick" style="font-family:Arial;font-size:12px;fill:#6b7276;fill-opacity:1;white-space:pre;opacity:1" transform="rotate(30 51.48 374.526)">Jul 2022</text><text y="188.4" class="xtick" style="font-family:Arial;font-size:12px;fill:#6b7276;fill-opacity:1;white-space:pre;opacity:1" transform="rotate(30 69.365 441.274)">Aug 2022</text><text y="188.4" class="xtick" style="font-family:Arial;font-size:12px;fill:#6b7276;fill-opacity:1;white-space:pre;opacity:1" transform="rotate(30 87.25 508.021)">Sep 2022</text><text y="188.4" class="xtick" style="font-family:Arial;font-size:12px;fill:#6b7276;fill-opacity:1;white-space:pre;opacity:1" transform="rotate(30 104.56 572.623)">Oct 2022</text><text y="188.4" class="xtick" style="font-family:Arial;font-size:12px;fill:#6b7276;fill-opacity:1;white-space:pre;opacity:1" transform="rotate(30 122.44 639.352)">Nov 2022</text><text y="188.4" class="xtick" style="font-family:Arial;font-size:12px;fill:#6b7276;fill-opacity:1;white-space:pre;opacity:1" transform="rotate(30 139.75 703.954)">Dec 2022</text><text y="188.4" class="xtick" style="font-family:Arial;font-size:12px;fill:#6b7276;fill-opacity:1;white-space:pre;opacity:1" transform="rotate(30 157.635 770.702)">Jan 2023</text><text y="188.4" class="xtick" style="font-family:Arial;font-size:12px;fill:#6b7276;fill-opacity:1;white-space:pre;opacity:1" transform="rotate(30 175.52 837.45)">Feb 2023</text></g><g class="yaxislayer-above"><text x="31" y="4.2" class="ytick" style="font-family:Arial;font-size:12px;fill:#6b7276;fill-opacity:1;white-space:pre;opacity:1" text-anchor="end" transform="translate(0 168)">0</text><text x="31" y="4.2" class="ytick" style="font-family:Arial;font-size:12px;fill:#6b7276;fill-opacity:1;white-space:pre;opacity:1" text-anchor="end" transform="translate(0 88.98)">50k</text><text x="31" y="4.2" class="ytick" style="font-family:Arial;font-size:12px;fill:#6b7276;fill-opacity:1;white-space:pre;opacity:1" text-anchor="end" transform="translate(0 9.96)">100k</text></g></g></g></svg>