<svg xmlns="http://www.w3.org/2000/svg" width="435" height="220" class="main-svg"><path fill="none" d="M0 0h435v220H0z" style="fill:#000;fill-opacity:0"/><defs><clipPath id="a" class="plotclip"><path d="M0 0h411v168H0z"/></clipPath></defs><g class="bglayer"><path fill="none" d="M0 0h411v168H0z" class="bg" style="fill:#000;fill-opacity:0;stroke-width:0"/></g><g class="cartesianlayer"><g class="subplot xy"><g class="zerolinelayer"><path d="M0 0h411" class="yzl zl crisp" style="stroke:#fff;stroke-opacity:1;stroke-width:2px" transform="translate(0 159.6)"/></g><g class="plot" clip-path="url(#a)"><g class="scatterlayer mlayer"><g class="trace scatter tracec04c81" style="stroke-miterlimit:2;opacity:1"><g class="lines"><path d="M0 144.73q6.58-8.79 9.79-8.68c3.31.11 6.25 7.62 9.78 9.92 3.06 2 6.53 3.72 9.79 3.72 3.26 0 6.56-2.3 9.78-3.72 3.3-1.46 6.43-4.16 9.79-4.96 3.17-.76 6.72-1.16 9.78 0 3.54 1.34 6.47 5.96 9.79 8.68 3.21 2.64 6.62 7.66 9.79 7.43 3.37-.24 6.25-9.14 9.78-9.91 3.06-.67 6.65 4.16 9.79 3.71 3.4-.49 6.31-6.26 9.78-7.43 3.1-1.04 6.83-1.43 9.79 0 3.75 1.82 6.16 11.59 9.78 12.39 3.02.66 6.44-3.93 9.79-4.96 3.18-.97 6.76-2.28 9.79-1.23 3.59 1.25 6.52 9.91 9.78 9.91s6.42-6.95 9.79-9.91c3.17-2.78 6.34-5.78 9.78-7.44 3.12-1.5 7.03.06 9.79-2.48 4.77-4.39 5.8-27.82 9.78-28.5 2.88-.49 6.57 8.12 9.79 12.39 3.31 4.4 6 11.05 9.79 13.63 2.94 2 6.62 1.12 9.78 2.48 3.38 1.46 6.91 7.01 9.79 6.2 3.98-1.12 6.12-14.36 9.78-19.83 3-4.48 6.12-9.21 9.79-11.16 2.99-1.59 7.01.95 9.78-1.24 4.65-3.67 6.45-17.59 9.79-26.02 3.2-8.07 5.95-22.92 9.79-23.55 2.93-.48 6.57 11.23 9.78 11.15 3.31-.09 6.36-12.09 9.79-12.39 3.12-.28 7.08 9.65 9.78 8.68 5.98-2.15 5.19-62.56 9.79-63.21 2.77-.39 6.89 12.66 9.78 21.07 3.95 11.47 5.31 32.25 9.79 42.14 2.79 6.16 6.48 13.55 9.79 13.63 3.21.07 6.72-7.68 9.78-12.39 3.53-5.43 6.91-18.94 9.79-18.59 4.01.49 4.25 35.85 9.78 39.65 2.72 1.87 6.95.74 9.79-1.23 4.15-2.87 6.56-12.27 9.78-18.59q3.3-6.48 9.79-19.83" class="js-line" style="vector-effect:none;fill:none;stroke:#f47738;stroke-opacity:1;stroke-width:2px;opacity:1"/></g></g><g class="trace scatter tracee9f543" style="stroke-miterlimit:2;opacity:1"><g class="lines"><path d="M0 150.92q6.25 7.34 9.79 8.68c3.06 1.16 6.52 0 9.78 0s6.95 1.72 9.79 0c4.16-2.51 6.52-18.59 9.78-18.59s6.48 18.54 9.79 18.59c3.22.05 6.1-16.73 9.78-17.35 2.99-.5 6.53 5.78 9.79 8.67 3.26 2.89 6.48 8.56 9.79 8.68 3.21.12 6.52-7.44 9.78-7.44s6.32 6.27 9.79 7.44c3.1 1.04 6.52 0 9.78 0h19.57c3.26 0 6.77 1.26 9.79 0 3.61-1.51 6.53-9.91 9.79-9.91 3.26 0 6.61 10.08 9.78 9.91 3.37-.19 6.53-12.39 9.79-12.39 3.26 0 6.83 12.8 9.78 12.39 3.76-.52 5.87-22.79 9.79-23.55 2.9-.56 6.66 6.22 9.78 9.92 3.43 4.07 6.36 13.36 9.79 13.63 3.13.24 6.48-6.77 9.79-9.91 3.21-3.04 6.57-8.79 9.78-8.68 3.31.11 6.94 10.54 9.79 9.91 4.11-.91 5.57-26.18 9.78-27.26 2.83-.73 6.48 5.95 9.79 8.67 3.21 2.64 6.7 7.83 9.78 7.44 3.49-.44 6.36-8.76 9.79-12.39 3.12-3.31 6.29-6.83 9.79-8.68 3.08-1.63 6.7-.85 9.78-2.48 3.5-1.85 6.29-6.82 9.79-8.67 3.08-1.63 6.84-3.55 9.78-2.48 3.79 1.38 6.3 13.24 9.79 13.63 3.08.34 6.62-8.87 9.78-8.67 3.37.21 6.73 6.84 9.79 11.15 3.54 4.99 6.68 17.51 9.79 17.35 3.44-.17 6-16.38 9.78-22.31 2.95-4.63 6.24-8.4 9.79-11.15 3.05-2.37 6.99-6.05 9.78-4.96 4.45 1.73 6.14 18.53 9.79 26.03 3 6.17 5.83 14.49 9.78 16.11q2.89 1.18 9.79-2.48" class="js-line" style="vector-effect:none;fill:none;stroke:#f47738;stroke-opacity:1;stroke-dasharray:9px,9px;stroke-width:2px;opacity:1"/></g></g><g class="trace scatter tracea15dae" style="stroke-miterlimit:2;opacity:1"><g class="lines"><path d="M0 154.64q6.56-3.89 9.79-3.72c3.3.18 6.48 3.5 9.78 4.96 3.23 1.43 6.47 3.11 9.79 3.72 3.21.59 6.68 1.04 9.78 0 3.47-1.17 6.53-7.44 9.79-7.44 3.26 0 6.31 6.27 9.78 7.44 3.1 1.04 6.53 0 9.79 0h29.36c3.26 0 6.61.76 9.78 0 3.36-.8 6.53-4.96 9.79-4.96 3.26 0 6.42 4.16 9.78 4.96 3.17.76 6.53 0 9.79 0h19.57c3.26 0 6.69 1.04 9.79 0 3.47-1.17 6.61-4.66 9.78-7.44 3.37-2.96 6.58-10.01 9.79-9.91 3.31.1 6.29 8.17 9.78 11.15 3.08 2.64 6.78 6.78 9.79 6.2 3.63-.7 6.53-13.63 9.79-13.63 3.26 0 6.16 12.93 9.78 13.63 3.01.59 6.53-6.2 9.79-6.2 3.26 0 6.43 5.86 9.78 6.2 3.18.32 6.5-2.68 9.79-3.72 3.23-1.02 6.55-2.67 9.78-2.48 3.29.19 6.97 4.9 9.79 3.72 4.3-1.8 6.09-16.15 9.79-22.31 2.98-4.96 6.04-10.27 9.78-12.39 2.96-1.67 6.83-2.45 9.79-1.24 3.74 1.53 6.61 12.53 9.78 12.39 3.37-.14 6.1-14.08 9.79-14.87 2.98-.64 6.43 4.52 9.78 6.2 3.18 1.59 6.61 4.04 9.79 3.72 3.35-.34 6.53-6.2 9.79-6.2 3.26 0 6.8 3.27 9.78 6.2 3.69 3.63 6.65 15.02 9.79 14.87 3.41-.17 5.67-15.35 9.78-18.59 2.85-2.25 6.53-1.65 9.79-2.48 3.26-.83 6.87-3.61 9.78-2.48q3.87 1.5 9.79 14.87" class="js-line" style="vector-effect:none;fill:none;stroke:#00703c;stroke-opacity:1;stroke-width:2px;opacity:1"/></g></g><g class="trace scatter trace337c8c" style="stroke-miterlimit:2;opacity:1"><g class="lines"><path d="M0 155.88q6.53 3.72 9.79 3.72c3.26 0 6.46-3.11 9.78-3.72 3.21-.59 6.58-.59 9.79 0 3.32.61 6.46 3.11 9.78 3.72 3.21.59 6.53 0 9.79 0h9.78c3.26 0 6.58.59 9.79 0 3.32-.61 6.53-3.72 9.79-3.72 3.26 0 6.46 3.11 9.78 3.72 3.21.59 6.53 0 9.79 0h58.71c3.26 0 6.62.76 9.79 0 3.36-.8 6.48-3.5 9.78-4.96 3.23-1.43 6.48-3.33 9.79-3.72 3.21-.38 6.68-.03 9.78 1.24 3.46 1.42 6.38 6.95 9.79 7.44 3.14.45 6.53-3.72 9.79-3.72 3.26 0 6.6 4.04 9.78 3.72 3.35-.34 6.53-6.2 9.79-6.2 3.26 0 6.37 5.21 9.78 6.2 3.14.91 6.95 1.72 9.79 0 4.16-2.51 5.63-15.71 9.78-18.59 2.84-1.97 6.61-.26 9.79-1.24 3.35-1.03 6.53-4.96 9.79-4.96 3.26 0 6.85 5.79 9.78 4.96 3.84-1.09 6.1-15.41 9.79-16.11 2.98-.56 6.77 7.95 9.78 7.44 3.62-.62 6.75-9.28 9.79-14.88 3.56-6.55 6-21.73 9.78-22.31 2.95-.46 6.24 8.41 9.79 11.16 3.05 2.37 6.86 2.25 9.79 4.96 3.84 3.55 6.09 12.01 9.78 16.11 2.98 3.31 6.48 5.13 9.79 7.43 3.21 2.23 6.96 7.12 9.78 6.2 4.28-1.39 5.22-22.09 9.79-24.79 2.78-1.64 6.82-.43 9.78 1.24q3.75 2.12 9.79 12.4" class="js-line" style="vector-effect:none;fill:none;stroke:#4c2c92;stroke-opacity:1;stroke-dasharray:9px,9px;stroke-width:2px;opacity:1"/></g></g><g class="trace scatter tracee4bdc5" style="stroke-miterlimit:2;opacity:1"><g class="lines"><path d="M0 155.88q6.47 3.11 9.79 3.72c3.21.59 6.52 0 9.78 0s6.73 1.16 9.79 0c3.53-1.34 6.28-7.83 9.78-8.68 3.08-.75 6.53 1.65 9.79 2.48 3.26.83 6.49 2.07 9.78 2.48 3.24.4 6.58-.59 9.79 0 3.32.61 6.47 3.11 9.79 3.72 3.21.59 6.57.59 9.78 0 3.32-.61 6.47-3.11 9.79-3.72 3.21-.59 6.52 0 9.78 0h19.57c3.26 0 6.58-.59 9.79 0 3.32.61 6.47 3.11 9.79 3.72 3.21.59 6.52 0 9.78 0h19.57c3.26 0 6.91 1.62 9.79 0 4-2.25 6.52-16.11 9.78-16.11s5.89 14.77 9.79 16.11c2.91 1 6.5-2.68 9.79-3.72 3.23-1.02 6.55-2.67 9.78-2.48 3.29.19 6.61 4.04 9.79 3.72 3.35-.34 6.43-4.53 9.78-6.2 3.18-1.59 6.73-4.38 9.79-3.71 3.53.77 6.41 9.67 9.78 9.91 3.17.23 6.62-4.65 9.79-7.43 3.37-2.96 6.47-6.78 9.79-9.92 3.21-3.04 6.25-7.58 9.78-8.67 3.06-.95 6.93 2.67 9.79 1.23 4.07-2.05 6.17-12.57 9.78-17.35 3.02-4 6.19-8.13 9.79-9.91 3.02-1.49 6.52-.83 9.78-1.24 3.26-.41 6.94-2.72 9.79-1.24 4.15 2.16 5.73 17.06 9.79 18.59 2.86 1.08 6.76-4.47 9.78-3.72 3.6.89 6.3 10.66 9.79 11.16 3.08.44 6.73-3.46 9.78-6.2 3.56-3.21 6.66-12.58 9.79-12.39 3.42.21 6.23 15.69 9.78 16.11q3.05.36 9.79-9.92" class="js-line" style="vector-effect:none;fill:none;stroke:#003078;stroke-opacity:1;stroke-width:2px;opacity:1"/></g></g></g></g><g class="xaxislayer-above"><path d="M0 169v5" class="xtick ticks crisp" style="stroke:#444;stroke-opacity:1;stroke-width:1px" transform="translate(41.94)"/><path d="M0 169v5" class="xtick ticks crisp" style="stroke:#444;stroke-opacity:1;stroke-width:1px" transform="translate(83.88)"/><path d="M0 169v5" class="xtick ticks crisp" style="stroke:#444;stroke-opacity:1;stroke-width:1px" transform="translate(127.21)"/><path d="M0 169v5" class="xtick ticks crisp" style="stroke:#444;stroke-opacity:1;stroke-width:1px" transform="translate(170.55)"/><path d="M0 169v5" class="xtick ticks crisp" style="stroke:#444;stroke-opacity:1;stroke-width:1px" transform="translate(212.49)"/><path d="M0 169v5" class="xtick ticks crisp" style="stroke:#444;stroke-opacity:1;stroke-width:1px" transform="translate(255.83)"/><path d="M0 169v5" class="xtick ticks crisp" style="stroke:#444;stroke-opacity:1;stroke-width:1px" transform="translate(297.77)"/><path d="M0 169v5" class="xtick ticks crisp" style="stroke:#444;stroke-opacity:1;stroke-width:1px" transform="translate(341.1)"/><path d="M0 169v5" class="xtick ticks crisp" style="stroke:#444;stroke-opacity:1;stroke-width:1px" transform="translate(384.44)"/><text y="188.4" class="xtick" style="font-family:Arial;font-size:12px;fill:#0b0c0c;fill-opacity:1;white-space:pre;opacity:1" transform="rotate(30 20.97 260.661)">Jun 2022</text><text y="188.4" class="xtick" style="font-family:Arial;font-size:12px;fill:#0b0c0c;fill-opacity:1;white-space:pre;opacity:1" transform="rotate(30 41.94 338.922)">Jul 2022</text><text y="188.4" class="xtick" style="font-family:Arial;font-size:12px;fill:#0b0c0c;fill-opacity:1;white-space:pre;opacity:1" transform="rotate(30 63.605 419.777)">Aug 2022</text><text y="188.4" class="xtick" style="font-family:Arial;font-size:12px;fill:#0b0c0c;fill-opacity:1;white-space:pre;opacity:1" transform="rotate(30 85.275 500.65)">Sep 2022</text><text y="188.4" class="xtick" style="font-family:Arial;font-size:12px;fill:#0b0c0c;fill-opacity:1;white-space:pre;opacity:1" transform="rotate(30 106.245 578.912)">Oct 2022</text><text y="188.4" class="xtick" style="font-family:Arial;font-size:12px;fill:#0b0c0c;fill-opacity:1;white-space:pre;opacity:1" transform="rotate(30 127.915 659.785)">Nov 2022</text><text y="188.4" class="xtick" style="font-family:Arial;font-size:12px;fill:#0b0c0c;fill-opacity:1;white-space:pre;opacity:1" transform="rotate(30 148.885 738.046)">Dec 2022</text><text y="188.4" class="xtick" style="font-family:Arial;font-size:12px;fill:#0b0c0c;fill-opacity:1;white-space:pre;opacity:1" transform="rotate(30 170.55 818.901)">Jan 2023</text></g></g></g><defs><clipPath id="b"><path d="M0 0h155v105H0z"/></clipPath></defs><g class="infolayer"><g class="legend" pointer-events="all"><path fill="none" d="M0 0h155v105H0z" class="bg" shape-rendering="crispEdges" style="stroke:#444;stroke-opacity:1;fill:#000;fill-opacity:0;stroke-width:0"/><g class="scrollbox" clip-path="url(#b)"><g class="groups"><g class="traces" style="opacity:1"><text x="40" y="4.68" class="legendtext" style="font-family:&quot;Open Sans&quot;,verdana,arial,sans-serif;font-size:12px;fill:#2a3f5f;fill-opacity:1;white-space:pre" transform="translate(0 14.5)">0 to 4 years</text><g class="layers" style="opacity:1"><g class="legendlines"><path d="M5 0h30" class="js-line" style="fill:none;stroke:#f47738;stroke-opacity:1;stroke-width:2px" transform="translate(0 14.5)"/></g></g><path fill="none" d="M0-9.5h149.141v19H0z" class="legendtoggle" style="fill:#000;fill-opacity:0" transform="translate(0 14.5)"/></g><g class="traces" style="opacity:1"><text x="40" y="4.68" class="legendtext" style="font-family:&quot;Open Sans&quot;,verdana,arial,sans-serif;font-size:12px;fill:#2a3f5f;fill-opacity:1;white-space:pre" transform="translate(0 33.5)">5 to 14 years</text><g class="layers" style="opacity:1"><g class="legendlines"><path d="M5 0h30" class="js-line" style="fill:none;stroke:#f47738;stroke-opacity:1;stroke-dasharray:9px,9px;stroke-width:2px" transform="translate(0 33.5)"/></g></g><path fill="none" d="M0-9.5h149.141v19H0z" class="legendtoggle" style="fill:#000;fill-opacity:0" transform="translate(0 33.5)"/></g><g class="traces" style="opacity:1"><text x="40" y="4.68" class="legendtext" style="font-family:&quot;Open Sans&quot;,verdana,arial,sans-serif;font-size:12px;fill:#2a3f5f;fill-opacity:1;white-space:pre" transform="translate(0 52.5)">15 to 44 years</text><g class="layers" style="opacity:1"><g class="legendlines"><path d="M5 0h30" class="js-line" style="fill:none;stroke:#00703c;stroke-opacity:1;stroke-width:2px" transform="translate(0 52.5)"/></g></g><path fill="none" d="M0-9.5h149.141v19H0z" class="legendtoggle" style="fill:#000;fill-opacity:0" transform="translate(0 52.5)"/></g><g class="traces" style="opacity:1"><text x="40" y="4.68" class="legendtext" style="font-family:&quot;Open Sans&quot;,verdana,arial,sans-serif;font-size:12px;fill:#2a3f5f;fill-opacity:1;white-space:pre" transform="translate(0 71.5)">45 to 64 years</text><g class="layers" style="opacity:1"><g class="legendlines"><path d="M5 0h30" class="js-line" style="fill:none;stroke:#4c2c92;stroke-opacity:1;stroke-dasharray:9px,9px;stroke-width:2px" transform="translate(0 71.5)"/></g></g><path fill="none" d="M0-9.5h149.141v19H0z" class="legendtoggle" style="fill:#000;fill-opacity:0" transform="translate(0 71.5)"/></g><g class="traces" style="opacity:1"><text x="40" y="4.68" class="legendtext" style="font-family:&quot;Open Sans&quot;,verdana,arial,sans-serif;font-size:12px;fill:#2a3f5f;fill-opacity:1;white-space:pre" transform="translate(0 90.5)">65 years and over</text><g class="layers" style="opacity:1"><g class="legendlines"><path d="M5 0h30" class="js-line" style="fill:none;stroke:#003078;stroke-opacity:1;stroke-width:2px" transform="translate(0 90.5)"/></g></g><path fill="none" d="M0-9.5h149.141v19H0z" class="legendtoggle" style="fill:#000;fill-opacity:0" transform="translate(0 90.5)"/></g></g></g></g></g></svg>