<svg class="main-svg" xmlns="http://www.w3.org/2000/svg" xmlns:xlink="http://www.w3.org/1999/xlink" width="700" height="350" style="" viewBox="0 0 700 350">
  <rect x="0" y="0" width="700" height="350" style="fill: rgb(0, 0, 0); fill-opacity: 0;"/>
  <defs id="defs-a62bde">
    <g class="clips">
      <clipPath id="clipa62bdexyplot" class="plotclip">
        <rect width="700" height="330"/>
      </clipPath>
      <clipPath class="axesclip" id="clipa62bdex">
        <rect x="0" y="0" width="700" height="350"/>
      </clipPath>
      <clipPath class="axesclip" id="clipa62bdey">
        <rect x="0" y="0" width="700" height="330"/>
      </clipPath>
      <clipPath class="axesclip" id="clipa62bdexy">
        <rect x="0" y="0" width="700" height="330"/>
      </clipPath>
    </g>
    <g class="gradients"/>
    <g class="patterns"/>
  </defs>
  <g class="bglayer">
    <rect class="bg" x="0" y="0" width="700" height="330" style="fill: rgb(0, 0, 0); fill-opacity: 0; stroke-width: 0;"/>
  </g>
  <g class="layer-below">
    <g class="imagelayer"/>
    <g class="shapelayer"/>
  </g>
  <g class="cartesianlayer">
    <g class="subplot xy">
      <g class="layer-subplot">
        <g class="shapelayer"/>
        <g class="imagelayer"/>
      </g>
      <g class="minor-gridlayer">
        <g class="x"/>
        <g class="y"/>
      </g>
      <g class="gridlayer">
        <g class="x"/>
        <g class="y"/>
      </g>
      <g class="zerolinelayer">
        <path class="yzl zl crisp" transform="translate(0,313.5)" d="M0,0h700" style="stroke: rgb(255, 255, 255); stroke-opacity: 1; stroke-width: 2px;"/>
      </g>
      <path class="xlines-below"/>
      <path class="ylines-below"/>
      <g class="overlines-below"/>
      <g class="xaxislayer-below"/>
      <g class="yaxislayer-below"/>
      <g class="overaxes-below"/>
      <g class="plot" transform="" clip-path="url(#clipa62bdexyplot)">
        <g class="scatterlayer mlayer">
          <g class="trace scatter tracefb2e85" style="stroke-miterlimit: 2; opacity: 1;">
            <g class="fills"/>
            <g class="errorbars"/>
            <g class="lines">
              <path class="js-line" d="M0,313.5Q0,313.14 0,313.14C0,313.14 0,313.5 0,313.5C0,313.5 0,313.14 0,313.14C0,313.14 0,313.5 0,313.5C0,313.5 0,313.14 0,313.14C0,313.14 0,313.5 0,313.5C0,313.5 0,313.5 0,313.5C0,313.5 -0.09,313.23 0,313.14C0.3,312.84 3.8,313.14 3.8,313.14C3.8,313.14 3.8,313.14 3.8,313.14C3.8,313.14 3.8,313.14 3.8,313.14C3.8,313.14 3.8,313.5 3.8,313.5C3.8,313.5 3.8,313.29 3.8,313.14C3.8,312.88 3.8,312.07 3.8,312.07C3.8,312.07 3.8,312.55 3.8,312.79C3.8,313.03 3.8,313.5 3.8,313.5C3.8,313.5 3.8,313.5 3.8,313.5C3.8,313.5 7.61,313.14 7.61,313.14C7.61,313.14 7.61,313.14 7.61,313.14C7.61,313.14 7.61,310.65 7.61,310.65C7.61,310.65 7.61,312.38 7.61,312.79C7.61,312.96 7.61,313.14 7.61,313.14C7.61,313.14 7.61,312.43 7.61,312.43C7.61,312.43 7.61,313.14 7.61,313.14C7.61,313.14 7.61,313.14 7.61,313.14C7.61,313.14 7.38,312.24 7.61,312.07C8.04,311.74 10.75,313.64 11.41,313.14C12.12,312.6 11.41,308.51 11.41,308.51C11.41,308.51 11.41,310.94 11.41,311.72C11.41,312.17 11.41,312.53 11.41,312.79C11.41,312.94 11.41,313.14 11.41,313.14C11.41,313.14 11.41,313.14 11.41,313.14C11.41,313.14 11.41,311 11.41,311C11.41,311 11.41,312.04 11.41,312.43C11.41,312.71 11.25,313.03 11.41,313.14C11.78,313.4 14.84,312.26 15.22,311.72C15.38,311.49 15.22,311.26 15.22,311C15.22,310.68 15.22,309.93 15.22,309.93C15.22,309.93 15.22,311.85 15.22,312.43C15.22,312.74 15.22,313.14 15.22,313.14C15.22,313.14 15.22,312.79 15.22,312.79C15.22,312.79 15.22,313.14 15.22,313.14C15.22,313.14 15.22,313.14 15.22,313.14C15.22,313.14 14.64,307.25 15.22,307.08C15.83,306.89 18.78,312.86 19.02,312.79C19.07,312.77 19.02,312.43 19.02,312.43C19.02,312.43 19.02,312.79 19.02,312.79C19.02,312.79 19.02,308.86 19.02,308.86C19.02,308.86 19.02,309.93 19.02,309.93C19.02,309.93 19.02,306.01 19.02,306.01C19.02,306.01 19.02,309.75 19.02,311C19.02,311.75 19.02,312.42 19.02,312.79C19.02,312.95 18.93,313.05 19.02,313.14C19.32,313.44 22.45,313.52 22.83,313.14C23,312.97 22.83,312.63 22.83,312.43C22.83,312.29 22.83,312.24 22.83,312.07C22.83,311.61 22.83,309.58 22.83,309.58C22.83,309.58 22.83,312.79 22.83,312.79C22.83,312.79 22.83,312.79 22.83,312.79C22.83,312.79 22.83,309.79 22.83,308.51C22.83,307.46 22.83,305.66 22.83,305.66C22.83,305.66 22.06,309.8 22.83,310.65C23.51,311.39 25.85,311.71 26.63,311C27.9,309.85 26.63,302.66 26.63,301.02C26.63,300.48 26.63,299.95 26.63,299.95C26.63,299.95 26.63,302.07 26.63,303.52C26.63,305.76 26.63,312.07 26.63,312.07C26.63,312.07 26.63,301.02 26.63,301.02C26.63,301.02 26.63,311.28 26.63,312.43C26.63,312.63 26.63,312.79 26.63,312.79C26.63,312.79 26.54,312.56 26.63,312.43C26.92,312.01 29.56,312.25 30.43,311C32.3,308.3 30.43,292.11 30.43,292.11C30.43,292.11 30.43,306.56 30.43,309.58C30.43,310.64 30.43,311.72 30.43,311.72C30.43,311.72 30.43,299.72 30.43,296.39C30.43,294.78 30.43,292.82 30.43,292.82C30.43,292.82 30.43,310.53 30.43,312.07C30.43,312.28 30.43,312.43 30.43,312.43C30.43,312.43 29.8,292.52 30.43,292.46C31.06,292.4 33.54,312.14 34.24,312.07C35.09,311.99 34.24,282.48 34.24,282.48C34.24,282.48 34.24,284.11 34.24,285.69C34.24,290.16 34.24,311.36 34.24,311.36C34.24,311.36 34.24,283.91 34.24,283.91C34.24,283.91 34.24,286.2 34.24,288.19C34.24,292.79 34.24,311 34.24,311C34.24,311 34.24,307.44 34.24,307.44C34.24,307.44 33.99,309.5 34.24,309.58C34.69,309.72 37.4,303.68 38.04,303.87C38.69,304.07 38.04,311 38.04,311C38.04,311 38.04,286.87 38.04,280.34C38.04,277.27 38.04,273.57 38.04,273.57C38.04,273.57 38.04,307.44 38.04,307.44C38.04,307.44 38.04,282.84 38.04,278.2C38.04,276.75 38.04,275.35 38.04,275.35C38.04,275.35 38.04,311.72 38.04,311.72C38.04,311.72 37.81,310.93 38.04,310.65C38.48,310.12 40.89,311.09 41.85,309.93C44.89,306.26 41.85,271.43 41.85,271.43C41.85,271.43 41.85,310.65 41.85,310.65C41.85,310.65 41.85,304.04 41.85,299.24C41.85,291.01 41.85,265.72 41.85,265.72C41.85,265.72 41.85,311 41.85,311C41.85,311 41.85,272.85 41.85,272.85C41.85,272.85 41.85,304.59 41.85,304.59C41.85,304.59 41.28,267.89 41.85,267.86C42.46,267.83 45.5,309.59 45.65,309.58C45.67,309.58 45.65,309.29 45.65,308.86C45.65,305.44 45.65,270.14 45.65,262.51C45.65,260.01 45.65,257.52 45.65,257.52C45.65,257.52 45.65,300.31 45.65,300.31C45.65,300.31 45.65,296.13 45.65,292.82C45.65,286.32 45.65,263.94 45.65,263.94C45.65,263.94 45.65,310.65 45.65,310.65C45.65,310.65 44.99,253.98 45.65,253.96C46.29,253.94 49.28,303.1 49.46,308.15C49.49,308.97 49.46,309.58 49.46,309.58C49.46,309.58 49.46,262.01 49.46,253.96C49.46,251.73 49.46,249.68 49.46,249.68C49.46,249.68 49.46,256.19 49.46,261.09C49.46,269.97 49.46,289.57 49.46,298.53C49.46,303.55 49.46,310.29 49.46,310.29C49.46,310.29 49.46,258.59 49.46,258.59C49.46,258.59 48.91,289.94 49.46,289.97C50.06,290 52.87,252.51 53.26,252.53C53.43,252.54 53.26,256.44 53.26,260.02C53.26,269.1 53.26,308.15 53.26,308.15C53.26,308.15 53.26,257.17 53.26,257.17C53.26,257.17 53.26,279.04 53.26,288.54C53.26,296.45 53.26,310.29 53.26,310.29C53.26,310.29 53.26,309.85 53.26,309.22C53.26,304.48 53.26,248.61 53.26,248.61C53.26,248.61 52.58,297.43 53.26,297.46C53.91,297.49 56.45,253.21 57.07,253.24C57.66,253.27 57.07,293.53 57.07,293.53C57.07,293.53 57.07,245.4 57.07,245.4C57.07,245.4 57.07,309.58 57.07,309.58C57.07,309.58 57.07,291.94 57.07,282.48C57.07,272.07 57.07,257.17 57.07,249.68C57.07,245.78 57.07,240.77 57.07,240.77C57.07,240.77 57.07,301.78 57.07,307.44C57.07,308.27 57.05,308.86 57.07,308.86C57.22,308.86 60.5,233.62 60.87,233.63C61.02,233.63 60.87,240.37 60.87,246.11C60.87,258.87 60.87,307.8 60.87,307.8C60.87,307.8 60.87,242.55 60.87,242.55C60.87,242.55 60.87,306.37 60.87,306.37C60.87,306.37 60.87,275.71 60.87,275.71C60.87,275.71 60.87,284.31 60.87,289.26C60.87,295.27 60.87,309.22 60.87,309.22C60.87,309.22 59.7,238.34 60.87,238.27C61.63,238.22 64,257.85 64.67,268.58C65.42,280.62 64.67,302.93 64.67,307.08C64.67,307.88 64.67,308.51 64.67,308.51C64.67,308.51 64.67,294.02 64.67,284.62C64.67,271.08 64.67,235.06 64.67,235.06C64.67,235.06 64.67,236.88 64.67,238.98C64.67,247.6 64.67,304.94 64.67,304.94C64.67,304.94 64.67,226.15 64.67,226.15C64.67,226.15 64.53,228.56 64.67,230.78C65.02,236.55 67.86,261.84 68.48,261.8C69.08,261.76 68.48,232.92 68.48,232.92C68.48,232.92 68.48,299.42 68.48,306.01C68.48,307.04 68.48,307.8 68.48,307.8C68.48,307.8 68.48,220.09 68.48,220.09C68.48,220.09 68.48,223.56 68.48,225.08C68.48,226.37 68.48,226.69 68.48,228.64C68.48,237.6 68.48,303.87 68.48,303.87C68.48,303.87 67.87,280.03 68.48,279.98C69.11,279.93 71.47,304.65 72.28,304.59C73.74,304.48 72.28,236.33 72.28,224.01C72.28,220.35 72.28,216.88 72.28,216.88C72.28,216.88 72.28,306.73 72.28,306.73C72.28,306.73 72.28,251.46 72.28,251.46C72.28,251.46 72.28,272.5 72.28,272.5C72.28,272.5 72.28,207.61 72.28,207.61C72.28,207.61 72.28,210.09 72.28,212.95C72.28,224.61 68.29,291.26 72.28,301.73C73.29,304.39 75.18,306.36 76.09,306.01C78.38,305.14 76.09,269.65 76.09,269.65C76.09,269.65 76.09,301.02 76.09,301.02C76.09,301.02 76.09,263.34 76.09,247.54C76.09,234.97 76.09,218.99 76.09,213.67C76.09,212.03 76.09,210.46 76.09,210.46C76.09,210.46 76.09,304.23 76.09,304.23C76.09,304.23 76.09,239.06 76.09,221.87C76.09,214.03 74.79,208.61 76.09,204.75C76.88,202.41 79.2,199.53 79.89,199.76C80.71,200.04 79.89,204.13 79.89,208.68C79.89,223.48 79.89,303.16 79.89,303.16C79.89,303.16 79.89,265.01 79.89,265.01C79.89,265.01 79.89,305.66 79.89,305.66C79.89,305.66 79.89,302.65 79.89,299.59C79.89,290.16 79.89,257.17 79.89,241.83C79.89,231.68 79.89,223.23 79.89,216.52C79.89,212.08 79.78,205.47 79.89,205.47C80.22,205.46 83.43,284.68 83.7,297.81C83.77,301.37 83.7,304.59 83.7,304.59C83.7,304.59 83.7,303.54 83.7,302.09C83.7,292.58 83.7,194.06 83.7,194.06C83.7,194.06 83.7,199.86 83.7,202.62C83.7,205.2 83.7,210.1 83.7,210.1C83.7,210.1 83.7,199.41 83.7,199.41C83.7,199.41 83.7,259.66 83.7,259.66C83.7,259.66 83.41,235.07 83.7,235.06C84.18,235.05 87.28,293.1 87.5,300.66C87.55,302.24 87.5,303.52 87.5,303.52C87.5,303.52 87.5,193.35 87.5,193.35C87.5,193.35 87.5,296.03 87.5,296.03C87.5,296.03 87.5,188 87.5,188C87.5,188 87.5,197.91 87.5,203.68C87.5,210.81 87.5,219.41 87.5,227.57C87.5,236.15 87.5,253.96 87.5,253.96C87.5,253.96 86.32,196.29 87.5,196.2C88.27,196.14 90.49,210 91.3,220.44C92.76,239.14 91.3,299.24 91.3,299.24C91.3,299.24 91.3,296.34 91.3,293.53C91.3,285.54 91.3,263.93 91.3,247.54C91.3,228.73 91.3,186.93 91.3,186.93C91.3,186.93 91.3,188.37 91.3,189.42C91.3,191.25 91.3,192.97 91.3,196.91C91.3,211.71 91.3,302.45 91.3,302.45C91.3,302.45 88.01,182.19 91.3,181.58C92.28,181.4 94.15,186.33 95.11,191.56C98.14,208.02 95.11,297.46 95.11,297.46C95.11,297.46 95.11,184.08 95.11,184.08C95.11,184.08 95.11,301.38 95.11,301.38C95.11,301.38 95.11,176.23 95.11,176.23C95.11,176.23 95.11,213.67 95.11,213.67C95.11,213.67 95.11,181.58 95.11,181.58C95.11,181.58 95.11,222.73 95.11,241.83C95.11,259.16 94.56,291.37 95.11,291.39C95.71,291.41 98.29,231.48 98.91,231.5C99.51,231.52 98.91,287.47 98.91,287.47C98.91,287.47 98.91,171.24 98.91,171.24C98.91,171.24 98.91,294.6 98.91,294.6C98.91,294.6 98.91,169.46 98.91,169.46C98.91,169.46 98.91,200.83 98.91,200.83C98.91,200.83 98.91,182.29 98.91,182.29C98.91,182.29 98.91,299.24 98.91,299.24C98.91,299.24 93.64,165.54 98.91,163.4C99.97,162.97 101.95,165.42 102.72,167.32C103.92,170.28 102.72,180.51 102.72,180.51C102.72,180.51 102.72,168.39 102.72,168.39C102.72,168.39 102.72,185.01 102.72,197.27C102.72,218.77 102.72,269.91 102.72,286.05C102.72,292.1 102.72,298.53 102.72,298.53C102.72,298.53 102.72,296.5 102.72,293.89C102.72,279.94 102.72,160.9 102.72,160.9C102.72,160.9 101.96,228.26 102.72,228.29C103.39,228.31 105.76,175.84 106.52,175.87C107.68,175.91 106.52,297.46 106.52,297.46C106.52,297.46 106.52,179.11 106.52,163.04C106.52,159.53 106.52,156.62 106.52,156.62C106.52,156.62 106.52,283.91 106.52,283.91C106.52,283.91 106.52,223.29 106.52,223.29C106.52,223.29 106.52,292.11 106.52,292.11C106.52,292.11 106.52,214.97 106.52,191.92C106.52,179.78 106.14,164.12 106.52,164.11C107.05,164.09 109.67,198.96 110.33,217.59C111.05,237.91 110.33,269.84 110.33,281.41C110.33,285.73 110.33,290.32 110.33,290.32C110.33,290.32 110.33,158.05 110.33,158.05C110.33,158.05 110.33,296.03 110.33,296.03C110.33,296.03 110.33,151.63 110.33,151.63C110.33,151.63 110.33,170.53 110.33,170.53C110.33,170.53 110.33,158.76 110.33,158.76C110.33,158.76 109.85,185.84 110.33,185.86C110.9,185.89 113.53,146.61 114.13,146.64C114.68,146.67 114.13,179.08 114.13,179.08C114.13,179.08 114.13,153.41 114.13,153.41C114.13,153.41 114.13,288.54 114.13,288.54C114.13,288.54 114.13,235.47 114.13,211.53C114.13,190.6 114.13,152.7 114.13,152.7C114.13,152.7 114.13,278.56 114.13,278.56C114.13,278.56 114.13,164.47 114.13,164.47C114.13,164.47 113.55,294.59 114.13,294.6C114.74,294.61 117.3,148.05 117.93,148.06C118.56,148.07 117.93,293.18 117.93,293.18C117.93,293.18 117.93,205.47 117.93,205.47C117.93,205.47 117.93,286.4 117.93,286.4C117.93,286.4 117.93,158.76 117.93,158.76C117.93,158.76 117.93,165.89 117.93,172.67C117.93,191.13 117.93,275.71 117.93,275.71C117.93,275.71 117.93,162.24 117.93,147.35C117.93,144.21 117.32,143.36 117.93,141.65C118.56,139.9 121.09,136.78 121.74,137.01C122.41,137.25 121.74,139.93 121.74,143.43C121.74,159.15 121.74,272.85 121.74,272.85C121.74,272.85 121.74,142.72 121.74,142.72C121.74,142.72 121.74,284.26 121.74,284.26C121.74,284.26 121.74,166.96 121.74,166.96C121.74,166.96 121.74,291.39 121.74,291.39C121.74,291.39 121.74,153.77 121.74,153.77C121.74,153.77 121.36,182.19 121.74,200.12C122.27,224.95 124.81,288.92 125.54,288.9C126.53,288.88 125.54,124.53 125.54,124.53C125.54,124.53 125.54,127.43 125.54,130.95C125.54,147.2 125.54,267.86 125.54,267.86C125.54,267.86 125.54,214.01 125.54,189.78C125.54,168.69 125.54,130.59 125.54,130.59C125.54,130.59 125.54,154.84 125.54,154.84C125.54,154.84 125.54,144.86 125.54,144.86C125.54,144.86 124.96,280.69 125.54,280.7C126.16,280.71 128.71,128.44 129.35,128.45C130.01,128.46 129.35,287.83 129.35,287.83C129.35,287.83 129.35,143.07 129.35,143.07C129.35,143.07 129.35,186.93 129.35,186.93C129.35,186.93 129.35,138.48 129.35,128.81C129.35,125.6 129.35,122.39 129.35,122.39C129.35,122.39 129.35,138.68 129.35,151.63C129.35,177.25 129.35,246.55 129.35,266.08C129.35,272.8 129.22,279.63 129.35,279.63C129.69,279.64 132.55,182.28 133.15,182.29C133.7,182.3 133.15,263.58 133.15,263.58C133.15,263.58 133.15,163.28 133.15,146.99C133.15,142.67 133.15,142.13 133.15,138.79C133.15,133.53 133.15,118.47 133.15,118.47C133.15,118.47 133.15,286.76 133.15,286.76C133.15,286.76 133.15,124.18 133.15,124.18C133.15,124.18 133.15,277.85 133.15,277.85C133.15,277.85 128.2,141.22 133.15,124.89C134.2,121.43 135.9,118.86 136.96,119.18C142.15,120.75 136.96,285.33 136.96,285.33C136.96,285.33 136.96,260.73 136.96,260.73C136.96,260.73 136.96,275.71 136.96,275.71C136.96,275.71 136.96,201.95 136.96,177.3C136.96,162.46 136.96,152.8 136.96,141.65C136.96,131.81 136.96,113.84 136.96,113.84C136.96,113.84 136.96,133.45 136.96,133.45C136.96,133.45 136.25,124.13 136.96,119.9C137.62,115.97 139.77,108.67 140.76,108.84C144.29,109.43 140.76,228.28 140.76,257.52C140.76,269.75 140.76,283.55 140.76,283.55C140.76,283.55 140.76,114.55 140.76,114.55C140.76,114.55 140.76,127.38 140.76,127.38C140.76,127.38 140.76,114.55 140.76,114.55C140.76,114.55 140.76,171.95 140.76,171.95C140.76,171.95 140.76,135.94 140.76,135.94C140.76,135.94 136.9,255.41 140.76,273.57C141.77,278.31 143.55,282.34 144.57,282.12C148.8,281.22 144.57,122.04 144.57,122.04C144.57,122.04 144.57,130.59 144.57,130.59C144.57,130.59 144.57,109.56 144.57,109.56C144.57,109.56 144.57,144.72 144.57,166.6C144.57,196.27 144.57,271.43 144.57,271.43C144.57,271.43 144.57,104.21 144.57,104.21C144.57,104.21 144.57,106.57 144.57,109.56C144.57,125.12 143.95,254.3 144.57,254.31C145.2,254.32 147.72,105.27 148.37,105.28C149.05,105.29 148.37,268.58 148.37,268.58C148.37,268.58 148.37,125.96 148.37,125.96C148.37,125.96 148.37,147.3 148.37,161.97C148.37,185 148.37,250.75 148.37,250.75C148.37,250.75 148.37,141.35 148.37,117.76C148.37,109.21 148.37,100.29 148.37,100.29C148.37,100.29 148.37,102.6 148.37,105.64C148.37,122.97 147.76,279.97 148.37,279.98C149,279.99 151.98,114.72 152.17,96.37C152.2,93.13 152.17,90.66 152.17,90.66C152.17,90.66 152.17,92.81 152.17,95.65C152.17,112.07 152.17,262.87 152.17,262.87C152.17,262.87 152.17,115.26 152.17,115.26C152.17,115.26 152.17,275.71 152.17,275.71C152.17,275.71 152.17,110.63 152.17,110.63C152.17,110.63 152.17,242.9 152.17,242.9C152.17,242.9 151.02,176.64 152.17,152.7C152.93,136.81 155.47,123.79 155.98,113.12C156.33,105.91 155.98,99.29 155.98,94.94C155.98,92.5 155.98,89.23 155.98,89.23C155.98,89.23 155.98,208.03 155.98,240.41C155.98,255.74 155.98,274.28 155.98,274.28C155.98,274.28 155.98,93.51 155.98,93.51C155.98,93.51 155.98,260.73 155.98,260.73C155.98,260.73 155.98,109.2 155.98,109.2C155.98,109.2 155.68,133.06 155.98,149.85C156.46,177.24 159.39,257.89 159.78,257.88C159.95,257.88 159.78,246.64 159.78,236.49C159.78,211.42 159.78,105.99 159.78,105.99C159.78,105.99 159.78,129.13 159.78,146.28C159.78,176.6 159.78,272.14 159.78,272.14C159.78,272.14 159.78,86.03 159.78,86.03C159.78,86.03 159.78,89.66 159.78,90.66C159.78,91.14 159.78,91.16 159.78,91.73C159.78,94.07 158.74,109.33 159.78,109.56C160.52,109.72 162.57,101.13 163.59,101.36C167.79,102.29 163.59,229.57 163.59,254.31C163.59,262.23 163.59,270 163.59,270C163.59,270 163.59,87.81 163.59,87.81C163.59,87.81 163.59,98.65 163.59,105.64C163.59,115.62 163.59,127.18 163.59,142C163.59,165.29 163.59,231.85 163.59,231.85C163.59,231.85 163.59,82.46 163.59,82.46C163.59,82.46 162.99,86.82 163.59,87.1C164.21,87.39 166.56,83.51 167.39,83.89C168.94,84.61 167.39,101.36 167.39,101.36C167.39,101.36 167.39,97.08 167.39,97.08C167.39,97.08 167.39,250.75 167.39,250.75C167.39,250.75 167.39,78.89 167.39,78.89C167.39,78.89 167.39,81.14 167.39,83.53C167.39,91.68 167.39,117.17 167.39,137.37C167.39,163.36 167.39,202.42 167.39,226.5C167.39,242.9 167.14,267.86 167.39,267.86C167.84,267.87 170.57,133.08 171.2,133.09C171.83,133.1 171.2,265.37 171.2,265.37C171.2,265.37 171.2,75.69 171.2,75.69C171.2,75.69 171.2,77.51 171.2,79.96C171.2,95.28 171.2,246.47 171.2,246.47C171.2,246.47 171.2,232.39 171.2,220.44C171.2,194.02 171.2,93.16 171.2,93.16C171.2,93.16 171.2,97.44 171.2,97.44C171.2,97.44 170.11,84.69 171.2,80.32C171.95,77.31 174.08,72.96 175,73.19C177.43,73.8 175,129.52 175,129.52C175,129.52 175,77.47 175,77.47C175,77.47 175,86.29 175,94.58C175,116.61 175,215.45 175,215.45C175,215.45 175,89.95 175,89.95C175,89.95 175,262.51 175,262.51C175,262.51 175,77.47 175,77.47C175,77.47 173.16,242.45 175,242.55C175.86,242.6 177.97,222.39 178.8,206.54C180.41,176.01 178.8,86.15 178.8,72.12C178.8,69.52 178.8,67.49 178.8,67.49C178.8,67.49 178.8,77.93 178.8,87.81C178.8,114.44 178.8,235.42 178.8,235.42C178.8,235.42 178.8,71.41 178.8,71.41C178.8,71.41 178.8,257.52 178.8,257.52C178.8,257.52 178.8,153.66 178.8,122.75C178.8,106.54 175.87,89.54 178.8,85.67C179.76,84.41 181.74,85.74 182.61,84.6C184.47,82.15 182.61,66.42 182.61,66.42C182.61,66.42 182.61,69.56 182.61,70.34C182.61,70.67 182.61,70.66 182.61,71.05C182.61,72.86 182.61,78.66 182.61,86.38C182.61,110.26 182.61,232.92 182.61,232.92C182.61,232.92 182.61,121.32 182.61,121.32C182.61,121.32 182.61,256.1 182.61,256.1C182.61,256.1 181.95,203.7 182.61,203.68C183.25,203.66 185.58,253.63 186.41,253.6C188.01,253.54 186.41,68.2 186.41,68.2C186.41,68.2 186.41,100 186.41,118.83C186.41,142.58 186.41,199.41 186.41,199.41C186.41,199.41 186.41,104.83 186.41,82.82C186.41,74.13 186.41,64.63 186.41,64.63C186.41,64.63 186.41,229.71 186.41,229.71C186.41,229.71 186.41,69.27 186.41,69.27C186.41,69.27 186.28,76.95 186.41,84.24C186.75,104.02 189.78,168.75 190.22,194.41C190.46,208.18 190.22,226.15 190.22,226.15C190.22,226.15 190.22,102.47 190.22,79.96C190.22,73.2 190.22,69.96 190.22,66.77C190.22,64.95 190.22,62.49 190.22,62.49C190.22,62.49 190.22,74.43 190.22,81.75C190.22,91.46 190.22,100.57 190.22,115.62C190.22,145.73 190.22,251.11 190.22,251.11C190.22,251.11 188.55,66.13 190.22,66.06C191.06,66.03 193.38,113.15 194.02,113.12C194.67,113.09 194.02,72.03 194.02,64.63C194.02,62.43 194.02,60.35 194.02,60.35C194.02,60.35 194.02,248.97 194.02,248.97C194.02,248.97 194.02,88.73 194.02,79.25C194.02,78.38 194.02,77.83 194.02,77.83C194.02,77.83 194.02,222.58 194.02,222.58C194.02,222.58 194.02,63.92 194.02,63.92C194.02,63.92 193.39,190.13 194.02,190.14C194.65,190.15 197.51,62.14 197.83,62.14C197.94,62.14 197.83,76.76 197.83,76.76C197.83,76.76 197.83,61.78 197.83,61.78C197.83,61.78 197.83,218.66 197.83,218.66C197.83,218.66 197.83,58.22 197.83,58.22C197.83,58.22 197.83,88.84 197.83,110.27C197.83,144.89 197.83,246.11 197.83,246.11C197.83,246.11 197.83,75.33 197.83,75.33C197.83,75.33 197.2,185.85 197.83,185.86C198.46,185.87 200.93,74.96 201.63,74.97C202.49,74.98 201.63,243.26 201.63,243.26C201.63,243.26 201.63,59.64 201.63,59.64C201.63,59.64 201.63,107.77 201.63,107.77C201.63,107.77 201.63,56.43 201.63,56.43C201.63,56.43 201.63,58.67 201.63,60.35C201.63,63.4 201.63,66.61 201.63,73.19C201.63,95.03 201.63,214.74 201.63,214.74C201.63,214.74 199.87,188.33 201.63,181.58C202.48,178.31 204.43,178.61 205.43,174.8C209.08,160.83 205.43,70.34 205.43,70.34C205.43,70.34 205.43,103.5 205.43,103.5C205.43,103.5 205.43,56.08 205.43,56.08C205.43,56.08 205.43,177.01 205.43,208.32C205.43,222.29 205.43,238.63 205.43,238.63C205.43,238.63 205.43,52.87 205.43,52.87C205.43,52.87 205.43,70.69 205.43,70.69C205.43,70.69 205.32,57.15 205.43,57.15C205.75,57.14 208.6,172.68 209.24,172.67C209.88,172.66 209.24,56.08 209.24,56.08C209.24,56.08 209.24,69.98 209.24,69.98C209.24,69.98 209.24,69.62 209.24,69.62C209.24,69.62 209.24,102.43 209.24,102.43C209.24,102.43 209.24,52.15 209.24,52.15C209.24,52.15 209.24,236.84 209.24,236.84C209.24,236.84 209.24,55.36 209.24,55.36C209.24,55.36 207.22,175.75 209.24,206.18C210.12,219.47 212.39,234.74 213.04,234.7C213.72,234.65 213.04,217.43 213.04,202.97C213.04,171.7 213.04,69.01 213.04,54.65C213.04,52.21 213.04,50.37 213.04,50.37C213.04,50.37 213.04,100.64 213.04,100.64C213.04,100.64 213.04,53.58 213.04,53.58C213.04,53.58 213.04,169.1 213.04,169.1C213.04,169.1 213.04,71.99 213.04,68.2C213.04,67.97 213.02,68.05 213.04,67.84C213.2,66.44 216.23,51.73 216.85,51.8C217.43,51.87 216.85,66.42 216.85,66.42C216.85,66.42 216.85,55.73 216.85,52.51C216.85,50.8 216.85,48.59 216.85,48.59C216.85,48.59 216.85,199.76 216.85,199.76C216.85,199.76 216.85,65.7 216.85,65.7C216.85,65.7 216.85,232.21 216.85,232.21C216.85,232.21 216.85,98.5 216.85,98.5C216.85,98.5 213.19,163.83 216.85,165.53C217.85,165.99 219.6,164.58 220.65,162.33C225.63,151.63 220.65,50.02 220.65,50.02C220.65,50.02 220.65,64.99 220.65,64.99C220.65,64.99 220.65,50.73 220.65,50.73C220.65,50.73 220.65,196.55 220.65,196.55C220.65,196.55 220.65,63.56 220.65,63.56C220.65,63.56 220.65,229.71 220.65,229.71C220.65,229.71 220.65,46.81 220.65,46.81C220.65,46.81 220.03,96.35 220.65,96.37C221.28,96.39 223.83,45.36 224.46,45.38C225.08,45.4 224.46,75.35 224.46,94.58C224.46,121.82 224.46,193.35 224.46,193.35C224.46,193.35 224.46,53.53 224.46,48.95C224.46,48.72 224.46,48.59 224.46,48.59C224.46,48.59 224.46,227.22 224.46,227.22C224.46,227.22 224.46,61.78 224.46,61.78C224.46,61.78 224.46,62.36 224.46,63.21C224.46,70.15 223.63,158.74 224.46,158.76C225.15,158.78 227.64,92.78 228.26,92.8C228.87,92.82 228.26,155.2 228.26,155.2C228.26,155.2 228.26,47.16 228.26,47.16C228.26,47.16 228.26,224.01 228.26,224.01C228.26,224.01 228.26,43.95 228.26,43.95C228.26,43.95 228.26,61.78 228.26,61.78C228.26,61.78 228.26,60.86 228.26,60C228.26,57.72 228.26,47.52 228.26,47.52C228.26,47.52 227.44,189.76 228.26,189.78C228.95,189.79 231.52,89.22 232.07,89.23C232.49,89.24 232.07,148.78 232.07,148.78C232.07,148.78 232.07,57.86 232.07,57.86C232.07,57.86 232.07,219.02 232.07,219.02C232.07,219.02 232.07,44.31 232.07,44.31C232.07,44.31 232.07,44.63 232.07,45.02C232.07,46.7 232.07,58.57 232.07,58.57C232.07,58.57 232.07,41.46 232.07,41.46C232.07,41.46 231.38,183.71 232.07,183.72C232.72,183.73 235.45,57.85 235.87,57.86C236.07,57.86 235.87,75.29 235.87,88.17C235.87,110.83 235.87,158.17 235.87,181.94C235.87,196.52 235.87,217.23 235.87,217.23C235.87,217.23 235.87,43.6 235.87,43.6C235.87,43.6 235.87,50.85 235.87,57.5C235.87,74.37 235.87,146.99 235.87,146.99C235.87,146.99 235.87,55.07 235.87,44.31C235.87,42.3 235.27,41.46 235.87,40.74C236.49,39.99 238.61,39.15 239.67,40.03C245.19,44.62 239.67,144.5 239.67,144.5C239.67,144.5 239.67,87.1 239.67,87.1C239.67,87.1 239.67,179.44 239.67,179.44C239.67,179.44 239.67,62.57 239.67,56.79C239.67,56.35 239.67,56.08 239.67,56.08C239.67,56.08 239.67,215.45 239.67,215.45C239.67,215.45 239.67,50.17 239.67,43.24C239.67,42.8 239.66,42.53 239.67,42.53C239.76,42.53 242.86,176.95 243.48,176.94C244.07,176.93 243.48,74.81 243.48,54.65C243.48,48.03 243.48,44.25 243.48,41.46C243.48,40.16 243.48,38.61 243.48,38.61C243.48,38.61 243.48,141.29 243.48,141.29C243.48,141.29 243.48,42.17 243.48,42.17C243.48,42.17 243.48,67.12 243.48,85.31C243.48,116.59 243.48,212.95 243.48,212.95C243.48,212.95 240.4,80.02 243.48,55.36C244.44,47.64 246.68,40.32 247.28,40.39C247.82,40.46 247.28,46.37 247.28,52.87C247.28,76.01 247.28,211.17 247.28,211.17C247.28,211.17 247.28,40.74 247.28,40.74C247.28,40.74 247.28,174.45 247.28,174.45C247.28,174.45 247.28,37.54 247.28,37.54C247.28,37.54 247.28,138.79 247.28,138.79C247.28,138.79 247.28,99.39 247.28,83.89C247.28,72.51 247.07,54.29 247.28,54.29C247.7,54.28 250.64,172.32 251.09,172.31C251.34,172.31 251.09,151.22 251.09,136.3C251.09,111.82 251.09,48.78 251.09,39.32C251.09,37.7 251.09,36.47 251.09,36.47C251.09,36.47 251.09,209.03 251.09,209.03C251.09,209.03 251.09,38.96 251.09,38.96C251.09,38.96 251.09,52.87 251.09,52.87C251.09,52.87 251.09,51.44 251.09,51.44C251.09,51.44 250.61,82.44 251.09,82.46C251.67,82.48 254.44,37.87 254.89,37.89C255.14,37.9 254.89,51.44 254.89,51.44C254.89,51.44 254.89,50.02 254.89,50.02C254.89,50.02 254.89,106.83 254.89,133.8C254.89,158.99 254.89,206.89 254.89,206.89C254.89,206.89 254.89,38.25 254.89,38.25C254.89,38.25 254.89,169.81 254.89,169.81C254.89,169.81 254.89,35.4 254.89,35.4C254.89,35.4 254.25,81 254.89,81.03C255.53,81.06 258.26,36.09 258.7,36.11C258.93,36.12 258.7,46.99 258.7,48.59C258.7,48.97 258.7,48.89 258.7,49.3C258.7,51.93 258.7,78.54 258.7,78.54C258.7,78.54 258.7,33.97 258.7,33.97C258.7,33.97 258.7,203.33 258.7,203.33C258.7,203.33 258.7,155.52 258.7,129.52C258.7,100.38 258.7,36.82 258.7,36.82C258.7,36.82 258.02,165.52 258.7,165.53C259.35,165.54 261.93,48.22 262.5,48.23C262.97,48.24 262.5,128.45 262.5,128.45C262.5,128.45 262.5,35.75 262.5,35.75C262.5,35.75 262.5,78.18 262.5,78.18C262.5,78.18 262.5,33.61 262.5,33.61C262.5,33.61 262.5,164.47 262.5,164.47C262.5,164.47 262.5,36.47 262.5,36.47C262.5,36.47 262.5,202.62 262.5,202.62C262.5,202.62 261.71,48.96 262.5,48.95C263.18,48.94 265.67,163.05 266.3,163.04C266.94,163.03 266.3,68.71 266.3,48.23C266.3,40.75 266.3,32.9 266.3,32.9C266.3,32.9 266.3,33.97 266.3,35.4C266.3,44.06 266.3,127.03 266.3,127.03C266.3,127.03 266.3,35.04 266.3,35.04C266.3,35.04 266.3,59.38 266.3,77.11C266.3,107.55 266.3,201.19 266.3,201.19C266.3,201.19 262.98,70.39 266.3,47.52C267.28,40.77 269.12,34.54 270.11,34.68C273.58,35.18 270.11,199.41 270.11,199.41C270.11,199.41 270.11,31.83 270.11,31.83C270.11,31.83 270.11,161.26 270.11,161.26C270.11,161.26 270.11,139.98 270.11,125.25C270.11,101.84 270.11,34.33 270.11,34.33C270.11,34.33 270.11,41.27 270.11,46.09C270.11,53.78 270.11,76.04 270.11,76.04C270.11,76.04 267.76,51.18 270.11,47.16C271.02,45.6 273.13,46.36 273.91,45.02C275.18,42.85 273.91,36.03 273.91,33.61C273.91,32.48 273.91,31.12 273.91,31.12C273.91,31.12 273.91,159.83 273.91,159.83C273.91,159.83 273.91,95.73 273.91,74.97C273.91,62.93 273.91,54.15 273.91,46.45C273.91,41.22 273.91,33.26 273.91,33.26C273.91,33.26 273.91,197.98 273.91,197.98C273.91,197.98 273.3,148.88 273.91,123.82C274.54,98.03 277.33,61.28 277.72,45.38C277.89,38.44 277.72,30.41 277.72,30.41C277.72,30.41 277.72,196.2 277.72,196.2C277.72,196.2 277.72,32.54 277.72,32.54C277.72,32.54 277.72,38.24 277.72,43.6C277.72,57.88 277.72,122.04 277.72,122.04C277.72,122.04 277.72,32.54 277.72,32.54C277.72,32.54 277.72,57.69 277.72,73.9C277.72,97.02 277.26,158.04 277.72,158.05C278.29,158.06 281.52,31.83 281.52,31.83C281.52,31.83 281.52,31.83 281.52,31.83C281.52,31.83 281.52,38.05 281.52,44.67C281.52,67.31 281.52,194.77 281.52,194.77C281.52,194.77 281.52,120.61 281.52,120.61C281.52,120.61 281.52,156.62 281.52,156.62C281.52,156.62 281.52,29.69 281.52,29.69C281.52,29.69 281.52,37.58 281.52,42.88C281.52,50.91 280.88,73.15 281.52,73.19C282.16,73.23 285.1,46.82 285.33,43.24C285.38,42.46 285.33,41.81 285.33,41.81C285.33,41.81 285.33,191.56 285.33,191.56C285.33,191.56 285.33,30.76 285.33,30.76C285.33,30.76 285.33,71.41 285.33,71.41C285.33,71.41 285.33,30.76 285.33,30.76C285.33,30.76 285.33,118.11 285.33,118.11C285.33,118.11 285.33,28.27 285.33,28.27C285.33,28.27 284.47,153.39 285.33,153.41C286.03,153.43 288.59,71.04 289.13,71.05C289.54,71.06 289.13,102.96 289.13,117.4C289.13,130.06 289.13,153.06 289.13,153.06C289.13,153.06 289.13,30.41 289.13,30.41C289.13,30.41 289.13,36.44 289.13,42.88C289.13,65.11 289.13,191.21 289.13,191.21C289.13,191.21 289.13,28.27 289.13,28.27C289.13,28.27 289.13,29.63 289.13,30.76C289.13,33.13 287.78,40.69 289.13,41.81C289.93,42.47 292.13,42.06 292.93,41.1C294.28,39.48 292.93,30.05 292.93,30.05C292.93,30.05 292.93,190.14 292.93,190.14C292.93,190.14 292.93,100.14 292.93,70.34C292.93,52.61 292.93,27.91 292.93,27.91C292.93,27.91 292.93,151.63 292.93,151.63C292.93,151.63 292.93,130.24 292.93,116.33C292.93,96.21 292.93,56.87 292.93,42.53C292.93,36.63 291.47,31.81 292.93,30.05C293.75,29.07 295.77,28.53 296.74,29.34C299.86,31.94 296.74,69.62 296.74,69.62C296.74,69.62 296.74,41.81 296.74,41.81C296.74,41.81 296.74,90.78 296.74,115.26C296.74,139.74 296.74,188.71 296.74,188.71C296.74,188.71 296.74,29.34 296.74,29.34C296.74,29.34 296.74,150.56 296.74,150.56C296.74,150.56 296.74,58.76 296.74,40.03C296.74,33.65 296.49,27.21 296.74,27.2C297.19,27.18 299.97,68.94 300.54,68.91C301,68.89 300.54,48.89 300.54,41.1C300.54,35.45 300.54,26.48 300.54,26.48C300.54,26.48 300.54,149.49 300.54,149.49C300.54,149.49 300.54,56.22 300.54,38.96C300.54,33.68 300.54,28.62 300.54,28.62C300.54,28.62 300.54,28.62 300.54,28.62C300.54,28.62 300.54,187.64 300.54,187.64C300.54,187.64 296.1,120.05 300.54,114.19C301.57,112.83 303.4,112.4 304.35,113.12C307.17,115.26 304.35,148.06 304.35,148.06C304.35,148.06 304.35,55.44 304.35,38.25C304.35,32.98 304.35,27.91 304.35,27.91C304.35,27.91 304.35,186.57 304.35,186.57C304.35,186.57 304.35,97.67 304.35,68.2C304.35,50.63 304.35,26.13 304.35,26.13C304.35,26.13 304.35,40.74 304.35,40.74C304.35,40.74 302.91,30.17 304.35,28.27C305.16,27.2 307.18,26.47 308.15,27.2C311.25,29.55 308.15,54.01 308.15,67.84C308.15,82.27 308.15,112.05 308.15,112.05C308.15,112.05 308.15,51.82 308.15,37.54C308.15,31.78 308.15,25.41 308.15,25.41C308.15,25.41 308.15,26.29 308.15,27.55C308.15,36.95 308.15,146.99 308.15,146.99C308.15,146.99 308.15,40.39 308.15,40.39C308.15,40.39 307.52,185.13 308.15,185.14C308.78,185.15 311.67,61.57 311.96,39.32C312.05,32.72 311.96,26.48 311.96,26.48C311.96,26.48 311.96,66.77 311.96,66.77C311.96,66.77 311.96,24.7 311.96,24.7C311.96,24.7 311.96,31.07 311.96,36.82C311.96,50.97 311.96,110.27 311.96,110.27C311.96,110.27 311.96,26.84 311.96,26.84C311.96,26.84 311.96,183.36 311.96,183.36C311.96,183.36 311.67,160.86 311.96,144.86C312.44,118.36 315.59,48.71 315.76,39.32C315.79,37.88 315.76,36.82 315.76,36.82C315.76,36.82 315.76,182.65 315.76,182.65C315.76,182.65 315.76,26.48 315.76,26.48C315.76,26.48 315.76,26.84 315.76,26.84C315.76,26.84 315.76,24.7 315.76,24.7C315.76,24.7 315.76,52.37 315.76,66.42C315.76,80.77 315.76,96.24 315.76,109.91C315.76,122.1 315.52,144.5 315.76,144.5C316.2,144.51 319.42,24.34 319.57,24.34C319.59,24.34 319.57,25.32 319.57,26.48C319.57,31.46 319.57,52.58 319.57,66.06C319.57,80.13 319.57,95.61 319.57,109.2C319.57,121.37 319.57,143.79 319.57,143.79C319.57,143.79 319.57,26.13 319.57,26.13C319.57,26.13 319.57,32.38 319.57,38.96C319.57,60.93 319.57,181.94 319.57,181.94C319.57,181.94 315.89,56.14 319.57,36.11C320.57,30.69 322.44,25.96 323.37,26.13C325.96,26.61 323.37,86.9 323.37,108.49C323.37,122.48 323.37,143.07 323.37,143.07C323.37,143.07 323.37,38.61 323.37,38.61C323.37,38.61 323.37,180.87 323.37,180.87C323.37,180.87 323.37,34.45 323.37,25.41C323.37,24.55 323.37,23.99 323.37,23.99C323.37,23.99 323.37,65.7 323.37,65.7C323.37,65.7 322.18,43.16 323.37,35.4C324.14,30.37 326.26,23.13 327.17,23.27C329.52,23.63 327.17,107.77 327.17,107.77C327.17,107.77 327.17,64.99 327.17,64.99C327.17,64.99 327.17,180.15 327.17,180.15C327.17,180.15 327.17,158.18 327.17,142C327.17,113.72 327.17,29.45 327.17,25.41C327.17,25.19 327.17,25.06 327.17,25.06C327.17,25.06 327.17,37.89 327.17,37.89C327.17,37.89 326.7,34.91 327.17,34.68C327.74,34.39 329.91,35.39 330.98,37.54C336.84,49.26 330.98,179.44 330.98,179.44C330.98,179.44 330.98,92.94 330.98,64.63C330.98,48.01 330.98,25.06 330.98,25.06C330.98,25.06 330.98,33.97 330.98,33.97C330.98,33.97 330.98,24.7 330.98,24.7C330.98,24.7 330.98,141.29 330.98,141.29C330.98,141.29 330.98,120.99 330.98,107.06C330.98,85.22 326.34,25.87 330.98,22.92C332.02,22.26 334.49,24.88 334.78,24.7C334.86,24.65 334.78,24.34 334.78,24.34C334.78,24.34 334.78,29.05 334.78,33.61C334.78,46.41 334.78,106.71 334.78,106.71C334.78,106.71 334.78,22.92 334.78,22.92C334.78,22.92 334.78,29.97 334.78,37.18C334.78,59.88 334.78,178.37 334.78,178.37C334.78,178.37 334.78,155.62 334.78,140.93C334.78,119.91 334.31,64.29 334.78,64.28C335.35,64.27 337.91,177.31 338.59,177.3C339.39,177.29 338.59,33.96 338.59,23.99C338.59,22.91 338.59,22.2 338.59,22.2C338.59,22.2 338.59,139.86 338.59,139.86C338.59,139.86 338.59,24.34 338.59,24.34C338.59,24.34 338.59,63.92 338.59,63.92C338.59,63.92 338.59,36.82 338.59,36.82C338.59,36.82 338.59,105.64 338.59,105.64C338.59,105.64 336.06,45.67 338.59,33.26C339.52,28.72 341.38,24.13 342.39,24.34C346.4,25.16 342.39,176.94 342.39,176.94C342.39,176.94 342.39,52.96 342.39,33.26C342.39,28.16 342.39,23.63 342.39,23.63C342.39,23.63 342.39,139.51 342.39,139.51C342.39,139.51 342.39,36.82 342.39,36.82C342.39,36.82 342.39,105.64 342.39,105.64C342.39,105.64 342.39,22.2 342.39,22.2C342.39,22.2 339.18,60.35 342.39,63.56C343.36,64.53 345.23,64.53 346.2,63.56C349.32,60.44 346.2,23.99 346.2,23.99C346.2,23.99 346.2,104.92 346.2,104.92C346.2,104.92 346.2,50.26 346.2,36.47C346.2,30.5 346.2,23.63 346.2,23.63C346.2,23.63 346.2,111.21 346.2,139.15C346.2,155.06 346.2,176.59 346.2,176.59C346.2,176.59 346.2,22.2 346.2,22.2C346.2,22.2 345.1,30.52 346.2,32.9C346.95,34.52 348.93,33.81 350,36.11C355.65,48.28 350,175.87 350,175.87C350,175.87 350,150.6 350,138.44C350,126.87 350,116.42 350,104.57C350,91.47 350,76.85 350,63.21C350,49.87 350,28.25 350,23.63C350,22.65 350,21.85 350,21.85C350,21.85 350,22.39 350,22.92C350,24.49 349.39,32.07 350,32.19C350.63,32.32 353.6,24.26 353.8,23.27C353.84,23.08 353.8,22.92 353.8,22.92C353.8,22.92 353.8,31.83 353.8,31.83C353.8,31.83 353.8,21.49 353.8,21.49C353.8,21.49 353.8,103.85 353.8,103.85C353.8,103.85 353.8,36.11 353.8,36.11C353.8,36.11 353.8,112.51 353.8,138.08C353.8,153.5 353.8,175.16 353.8,175.16C353.8,175.16 352.94,62.87 353.8,62.85C354.5,62.83 356.92,137.39 357.61,137.37C358.43,137.35 357.61,31.47 357.61,31.47C357.61,31.47 357.61,33.71 357.61,35.75C357.61,40.84 357.61,50.51 357.61,62.49C357.61,87.04 357.61,174.8 357.61,174.8C357.61,174.8 357.61,21.14 357.61,21.14C357.61,21.14 357.61,103.5 357.61,103.5C357.61,103.5 357.61,27.87 357.61,23.27C357.61,22.84 357.53,22.58 357.61,22.56C357.88,22.5 360.78,31.25 361.41,31.12C362.02,30.99 361.41,23.9 361.41,22.2C361.41,21.52 361.41,20.78 361.41,20.78C361.41,20.78 361.41,76.4 361.41,102.78C361.41,127.38 361.41,174.09 361.41,174.09C361.41,174.09 361.41,152.17 361.41,136.65C361.41,111.13 361.41,52.94 361.41,35.4C361.41,29.24 361.41,22.92 361.41,22.92C361.41,22.92 360.78,62.11 361.41,62.14C362.04,62.17 364.38,22.52 365.22,22.56C366.85,22.64 365.22,173.38 365.22,173.38C365.22,173.38 365.22,126.62 365.22,102.07C365.22,75.86 365.22,20.78 365.22,20.78C365.22,20.78 365.22,61.78 365.22,61.78C365.22,61.78 365.22,37.98 365.22,30.76C365.22,26.89 365.22,21.85 365.22,21.85C365.22,21.85 365.22,28.79 365.22,35.4C365.22,53.4 364.61,135.93 365.22,135.94C365.85,135.95 368.72,47.27 369.02,30.76C369.11,25.67 369.02,20.78 369.02,20.78C369.02,20.78 369.02,102.07 369.02,102.07C369.02,102.07 369.02,48.96 369.02,35.4C369.02,29.45 369.02,24.19 369.02,22.56C369.02,22.18 369.02,21.85 369.02,21.85C369.02,21.85 369.02,173.38 369.02,173.38C369.02,173.38 369.02,150.53 369.02,135.94C369.02,115.4 364.46,66.79 369.02,61.78C370.05,60.64 371.8,60.48 372.83,61.42C377.37,65.55 372.83,135.23 372.83,135.23C372.83,135.23 372.83,115.07 372.83,101.36C372.83,80.16 372.83,20.42 372.83,20.42C372.83,20.42 372.83,173.02 372.83,173.02C372.83,173.02 372.83,49.43 372.83,30.41C372.83,25.65 372.83,21.49 372.83,21.49C372.83,21.49 372.83,35.04 372.83,35.04C372.83,35.04 372.68,22.2 372.83,22.2C373.19,22.19 376.01,101.01 376.63,101C377.21,100.99 376.63,30.05 376.63,30.05C376.63,30.05 376.63,134.87 376.63,134.87C376.63,134.87 376.63,79.77 376.63,61.42C376.63,50.42 376.63,42.38 376.63,35.04C376.63,29.78 376.63,21.49 376.63,21.49C376.63,21.49 376.63,172.31 376.63,172.31C376.63,172.31 376.63,20.07 376.63,20.07C376.63,20.07 376.57,21.05 376.63,22.2C376.87,27.12 379.79,61.1 380.43,61.07C381.07,61.04 380.43,21.14 380.43,21.14C380.43,21.14 380.43,100.64 380.43,100.64C380.43,100.64 380.43,41.49 380.43,29.69C380.43,25.77 380.43,23.54 380.43,21.85C380.43,21.05 380.43,20.07 380.43,20.07C380.43,20.07 380.43,134.52 380.43,134.52C380.43,134.52 380.43,34.68 380.43,34.68C380.43,34.68 373.91,166 380.43,171.95C381.52,172.94 383.15,172.8 384.24,171.6C390.89,164.31 384.24,29.34 384.24,29.34C384.24,29.34 384.24,48.06 384.24,60.71C384.24,80.06 384.24,134.16 384.24,134.16C384.24,134.16 384.24,20.78 384.24,20.78C384.24,20.78 384.24,28.33 384.24,34.68C384.24,48.47 384.24,100.29 384.24,100.29C384.24,100.29 384.24,19.71 384.24,19.71C384.24,19.71 384.02,20.96 384.24,21.85C384.67,23.57 387.47,26.71 388.04,28.98C388.5,30.83 388.04,34.33 388.04,34.33C388.04,34.33 388.04,23.12 388.04,21.49C388.04,21.11 388.04,20.78 388.04,20.78C388.04,20.78 388.04,99.93 388.04,99.93C388.04,99.93 388.04,73.93 388.04,60.71C388.04,47.19 388.04,19.71 388.04,19.71C388.04,19.71 388.04,170.88 388.04,170.88C388.04,170.88 387.78,149.52 388.04,133.8C388.5,106.3 391.27,20.41 391.85,20.42C392.33,20.43 391.85,99.57 391.85,99.57C391.85,99.57 391.85,34.33 391.85,34.33C391.85,34.33 391.85,133.09 391.85,133.09C391.85,133.09 391.85,21.49 391.85,21.49C391.85,21.49 391.85,25.63 391.85,28.98C391.85,35.84 391.85,46.71 391.85,60.35C391.85,85.91 391.85,170.53 391.85,170.53C391.85,170.53 388.81,20.1 391.85,19.71C392.81,19.59 394.74,27.21 395.65,34.33C397.98,52.54 395.65,108 395.65,133.09C395.65,148.54 395.65,170.53 395.65,170.53C395.65,170.53 395.65,123.79 395.65,99.57C395.65,74.17 395.65,21.49 395.65,21.49C395.65,21.49 395.65,28.98 395.65,28.98C395.65,28.98 395.65,20.42 395.65,20.42C395.65,20.42 395.65,60.35 395.65,60.35C395.65,60.35 394.35,19.52 395.65,19.35C396.44,19.25 398.83,34.05 399.46,33.97C400.08,33.89 399.46,19.35 399.46,19.35C399.46,19.35 399.46,60.35 399.46,60.35C399.46,60.35 399.46,28.62 399.46,28.62C399.46,28.62 399.46,169.81 399.46,169.81C399.46,169.81 399.46,20.42 399.46,20.42C399.46,20.42 399.46,132.73 399.46,132.73C399.46,132.73 399.46,21.14 399.46,21.14C399.46,21.14 398.78,73.89 399.46,99.22C400.11,123.26 402.56,169.48 403.26,169.46C404.14,169.44 403.26,60 403.26,60C403.26,60 403.26,132.38 403.26,132.38C403.26,132.38 403.26,44.54 403.26,28.62C403.26,23.86 403.26,19.35 403.26,19.35C403.26,19.35 403.26,98.86 403.26,98.86C403.26,98.86 403.26,47.29 403.26,33.97C403.26,28.05 403.26,23.06 403.26,21.14C403.26,20.59 403.03,20.3 403.26,20.07C403.7,19.63 405.98,18.98 407.07,20.07C413.92,26.92 407.07,169.1 407.07,169.1C407.07,169.1 407.07,85.48 407.07,60C407.07,46.26 407.07,28.27 407.07,28.27C407.07,28.27 407.07,132.02 407.07,132.02C407.07,132.02 407.07,51.51 407.07,33.97C407.07,27.54 407.07,23.14 407.07,20.78C407.07,19.91 407.07,19 407.07,19C407.07,19 406.44,98.48 407.07,98.5C407.7,98.52 410.55,18.99 410.87,19C410.98,19 410.87,27.91 410.87,27.91C410.87,27.91 410.87,21.92 410.87,20.78C410.87,20.42 410.87,20.07 410.87,20.07C410.87,20.07 410.87,168.74 410.87,168.74C410.87,168.74 410.87,60 410.87,60C410.87,60 410.87,86.11 410.87,98.5C410.87,110.06 410.87,132.02 410.87,132.02C410.87,132.02 405.48,39 410.87,33.61C411.93,32.55 413.61,32.55 414.67,33.61C420.05,38.99 414.67,131.66 414.67,131.66C414.67,131.66 414.67,109.99 414.67,98.5C414.67,86.06 414.67,72.74 414.67,59.64C414.67,46.25 414.67,19 414.67,19C414.67,19 414.67,168.74 414.67,168.74C414.67,168.74 414.67,28.51 414.67,20.78C414.67,20.12 414.67,19.71 414.67,19.71C414.67,19.71 413.94,25.52 414.67,27.91C415.33,30.1 417.87,33.79 418.48,33.61C419.03,33.44 418.48,30.02 418.48,27.91C418.48,25.27 418.48,19 418.48,19C418.48,19 418.48,59.64 418.48,59.64C418.48,59.64 418.48,19.71 418.48,19.71C418.48,19.71 418.48,77.83 418.48,98.5C418.48,111.91 418.48,131.66 418.48,131.66C418.48,131.66 418.48,20.78 418.48,20.78C418.48,20.78 417.85,168.73 418.48,168.74C419.11,168.75 421.99,20.78 422.28,20.78C422.36,20.78 422.28,27.07 422.28,33.61C422.28,54.83 422.28,168.74 422.28,168.74C422.28,168.74 422.28,27.91 422.28,27.91C422.28,27.91 422.28,131.66 422.28,131.66C422.28,131.66 422.28,19.71 422.28,19.71C422.28,19.71 422.28,98.5 422.28,98.5C422.28,98.5 422.28,72.74 422.28,59.64C422.28,46.25 421.99,19 422.28,19C422.76,18.99 425.46,131.67 426.09,131.66C426.72,131.65 426.09,19.71 426.09,19.71C426.09,19.71 426.09,28.26 426.09,33.61C426.09,40.94 426.09,50.1 426.09,59.64C426.09,71.3 426.09,98.5 426.09,98.5C426.09,98.5 426.09,27.59 426.09,20.78C426.09,19.75 426.09,19 426.09,19C426.09,19 426.09,168.74 426.09,168.74C426.09,168.74 421.82,44.99 426.09,27.91C427.11,23.82 428.93,20.54 429.89,20.78C432.86,21.52 429.89,98.5 429.89,98.5C429.89,98.5 429.89,19.71 429.89,19.71C429.89,19.71 429.89,131.66 429.89,131.66C429.89,131.66 429.89,27.91 429.89,27.91C429.89,27.91 429.89,168.74 429.89,168.74C429.89,168.74 429.89,83.51 429.89,59.64C429.89,47.98 429.89,41.04 429.89,33.61C429.89,28.04 428.24,20.65 429.89,19C430.73,18.16 432.86,18.16 433.7,19C435.35,20.65 433.7,27.01 433.7,33.61C433.7,47.48 433.7,98.15 433.7,98.15C433.7,98.15 433.7,72.51 433.7,59.64C433.7,46.72 433.7,24.47 433.7,20.78C433.7,20.17 433.7,19.71 433.7,19.71C433.7,19.71 433.7,131.66 433.7,131.66C433.7,131.66 433.7,27.91 433.7,27.91C433.7,27.91 432.08,168.31 433.7,168.39C434.54,168.43 436.71,146.8 437.5,131.31C438.82,105.52 437.5,27.91 437.5,27.91C437.5,27.91 437.5,98.15 437.5,98.15C437.5,98.15 437.5,18.64 437.5,18.64C437.5,18.64 437.5,168.39 437.5,168.39C437.5,168.39 437.5,83.46 437.5,59.64C437.5,47.99 437.5,40.94 437.5,33.61C437.5,28.26 437.5,19.71 437.5,19.71C437.5,19.71 437.49,20.13 437.5,20.78C437.61,27.38 440.84,104.36 441.3,131.31C441.57,146.84 441.3,168.03 441.3,168.03C441.3,168.03 441.3,121.9 441.3,97.79C441.3,72.19 441.3,18.64 441.3,18.64C441.3,18.64 441.3,27.91 441.3,27.91C441.3,27.91 441.3,22.11 441.3,20.78C441.3,20.27 441.3,19.71 441.3,19.71C441.3,19.71 441.3,59.64 441.3,59.64C441.3,59.64 440.67,33.66 441.3,33.61C441.93,33.56 444.48,59.69 445.11,59.64C445.74,59.59 445.11,40.83 445.11,33.61C445.11,28.47 445.11,22.78 445.11,20.42C445.11,19.55 445.11,18.64 445.11,18.64C445.11,18.64 445.11,97.79 445.11,97.79C445.11,97.79 445.11,19.71 445.11,19.71C445.11,19.71 445.11,131.31 445.11,131.31C445.11,131.31 445.11,27.91 445.11,27.91C445.11,27.91 444.48,168.02 445.11,168.03C445.74,168.04 448.28,27.9 448.91,27.91C449.54,27.92 448.91,168.03 448.91,168.03C448.91,168.03 448.91,20.42 448.91,20.42C448.91,20.42 448.91,59.64 448.91,59.64C448.91,59.64 448.91,19.71 448.91,19.71C448.91,19.71 448.91,131.31 448.91,131.31C448.91,131.31 448.91,18.64 448.91,18.64C448.91,18.64 448.91,97.79 448.91,97.79C448.91,97.79 448.45,33.62 448.91,33.61C449.48,33.6 452.24,106.55 452.72,131.31C453.02,146.48 452.72,168.03 452.72,168.03C452.72,168.03 452.72,19.71 452.72,19.71C452.72,19.71 452.72,25.42 452.72,27.91C452.72,29.98 452.72,33.61 452.72,33.61C452.72,33.61 452.72,18.64 452.72,18.64C452.72,18.64 452.72,97.79 452.72,97.79C452.72,97.79 452.72,20.42 452.72,20.42C452.72,20.42 452.32,44.63 452.72,59.64C453.26,79.89 455.82,130.97 456.52,130.95C457.39,130.93 456.52,20.42 456.52,20.42C456.52,20.42 456.52,43.32 456.52,59.64C456.52,86.72 456.52,167.67 456.52,167.67C456.52,167.67 456.52,121.81 456.52,97.79C456.52,72.23 456.52,18.64 456.52,18.64C456.52,18.64 456.52,19.19 456.52,19.71C456.52,21.12 456.52,25.14 456.52,27.55C456.52,29.6 455.66,32.4 456.52,33.26C457.22,33.96 459.41,32.34 460.33,33.26C462.73,35.66 460.33,59.29 460.33,59.29C460.33,59.29 460.33,24.99 460.33,20.42C460.33,19.44 460.33,18.64 460.33,18.64C460.33,18.64 460.33,18.91 460.33,19.35C460.33,24.84 460.33,130.59 460.33,130.59C460.33,130.59 460.33,27.55 460.33,27.55C460.33,27.55 460.33,167.32 460.33,167.32C460.33,167.32 459.7,97.46 460.33,97.44C460.96,97.42 463.38,167.34 464.13,167.32C465.22,167.29 464.13,20.42 464.13,20.42C464.13,20.42 464.13,46.39 464.13,59.29C464.13,72.07 464.13,97.44 464.13,97.44C464.13,97.44 464.13,39.44 464.13,27.55C464.13,23.48 464.13,19.35 464.13,19.35C464.13,19.35 464.13,26.53 464.13,33.26C464.13,51.06 464.13,130.59 464.13,130.59C464.13,130.59 463.62,18.65 464.13,18.64C464.72,18.63 467.3,166.97 467.93,166.96C468.56,166.95 467.93,19.35 467.93,19.35C467.93,19.35 467.93,19.63 467.93,20.07C467.93,24.6 467.93,97.08 467.93,97.08C467.93,97.08 467.93,18.28 467.93,18.28C467.93,18.28 467.93,33.26 467.93,33.26C467.93,33.26 467.93,27.2 467.93,27.2C467.93,27.2 467.93,130.24 467.93,130.24C467.93,130.24 463.49,64.17 467.93,59.29C468.96,58.16 470.67,57.96 471.74,58.93C477.4,64.08 471.74,166.25 471.74,166.25C471.74,166.25 471.74,48.13 471.74,32.9C471.74,29.75 471.74,27.2 471.74,27.2C471.74,27.2 471.74,129.88 471.74,129.88C471.74,129.88 471.74,25.95 471.74,19.35C471.74,18.7 471.74,18.28 471.74,18.28C471.74,18.28 471.74,19.03 471.74,20.07C471.74,26.84 471.06,96.7 471.74,96.72C472.39,96.74 475.23,38.44 475.54,27.2C475.64,23.6 475.54,21.4 475.54,20.07C475.54,19.56 475.54,19 475.54,19C475.54,19 475.54,129.88 475.54,129.88C475.54,129.88 475.54,110.12 475.54,96.72C475.54,76.12 475.54,18.28 475.54,18.28C475.54,18.28 475.54,58.93 475.54,58.93C475.54,58.93 475.54,32.9 475.54,32.9C475.54,32.9 474.52,166.22 475.54,166.25C476.28,166.27 478.81,116.4 479.35,96.72C479.75,82.22 479.35,71.61 479.35,58.93C479.35,46.07 479.35,24.65 479.35,20.07C479.35,19.09 479.35,18.28 479.35,18.28C479.35,18.28 479.35,24.56 479.35,27.2C479.35,29.31 479.35,29.84 479.35,32.9C479.35,45.52 479.35,129.88 479.35,129.88C479.35,129.88 479.35,19 479.35,19C479.35,19 477.66,166.16 479.35,166.25C480.19,166.29 482.37,144.69 483.15,129.52C484.42,104.98 483.15,32.9 483.15,32.9C483.15,32.9 483.15,96.72 483.15,96.72C483.15,96.72 483.15,37.9 483.15,26.84C483.15,23.4 483.15,21.35 483.15,20.07C483.15,19.56 483.15,19 483.15,19C483.15,19 483.15,165.89 483.15,165.89C483.15,165.89 483.15,86.12 483.15,58.93C483.15,42.17 481.36,18.66 483.15,18.28C484.01,18.1 486.14,22.97 486.96,26.84C488.47,33.97 486.96,44.87 486.96,58.57C486.96,83.77 486.96,165.89 486.96,165.89C486.96,165.89 486.96,141.36 486.96,129.52C486.96,118.21 486.96,109.2 486.96,96.37C486.96,78.62 486.96,46.15 486.96,32.9C486.96,26.86 486.96,22.07 486.96,19.71C486.96,18.84 486.96,17.93 486.96,17.93C486.96,17.93 486.88,18.45 486.96,19C487.23,20.99 490.27,32.61 490.76,32.54C491.07,32.5 490.76,28.85 490.76,26.84C490.76,24.6 490.76,19.71 490.76,19.71C490.76,19.71 490.76,96.37 490.76,96.37C490.76,96.37 490.76,18.64 490.76,18.64C490.76,18.64 490.76,43.38 490.76,58.57C490.76,78.77 490.76,129.17 490.76,129.17C490.76,129.17 490.76,17.93 490.76,17.93C490.76,17.93 490.09,165.52 490.76,165.53C491.4,165.54 493.98,26.83 494.57,26.84C495.07,26.85 494.57,129.17 494.57,129.17C494.57,129.17 494.57,24.11 494.57,18.64C494.57,18.2 494.57,17.93 494.57,17.93C494.57,17.93 494.57,25.22 494.57,32.54C494.57,54.61 494.57,165.53 494.57,165.53C494.57,165.53 494.57,85.39 494.57,58.57C494.57,42.41 494.57,19.71 494.57,19.71C494.57,19.71 493.95,95.99 494.57,96.01C495.2,96.03 497.99,17.92 498.37,17.93C498.54,17.93 498.37,25.53 498.37,32.54C498.37,50.53 498.37,128.81 498.37,128.81C498.37,128.81 498.37,26.48 498.37,26.48C498.37,26.48 498.37,44.76 498.37,58.57C498.37,83.75 498.37,165.18 498.37,165.18C498.37,165.18 498.37,19.71 498.37,19.71C498.37,19.71 498.37,96.01 498.37,96.01C498.37,96.01 497.89,18.65 498.37,18.64C498.95,18.63 501.54,128.82 502.17,128.81C502.8,128.8 502.17,26.26 502.17,19.71C502.17,19.06 502.17,18.64 502.17,18.64C502.17,18.64 502.17,165.18 502.17,165.18C502.17,165.18 502.17,26.48 502.17,26.48C502.17,26.48 502.17,58.57 502.17,58.57C502.17,58.57 502.17,32.54 502.17,32.54C502.17,32.54 502.17,96.01 502.17,96.01C502.17,96.01 497.46,22.64 502.17,17.93C503.21,16.89 504.94,16.89 505.98,17.93C510.69,22.64 505.98,96.01 505.98,96.01C505.98,96.01 505.98,19.71 505.98,19.71C505.98,19.71 505.98,43.45 505.98,58.22C505.98,78.21 505.98,128.81 505.98,128.81C505.98,128.81 505.98,32.54 505.98,32.54C505.98,32.54 505.98,164.82 505.98,164.82C505.98,164.82 505.98,18.64 505.98,18.64C505.98,18.64 505.9,22.39 505.98,26.48C506.25,41.27 509.13,128.82 509.78,128.81C510.45,128.8 509.78,17.57 509.78,17.57C509.78,17.57 509.78,18 509.78,18.64C509.78,24.07 509.78,70.98 509.78,96.01C509.78,119.62 509.78,164.82 509.78,164.82C509.78,164.82 509.78,53.7 509.78,32.54C509.78,25.86 509.78,19.35 509.78,19.35C509.78,19.35 509.78,58.22 509.78,58.22C509.78,58.22 507.97,27 509.78,26.48C510.64,26.23 512.59,29.08 513.59,32.54C517.25,45.24 513.59,104.45 513.59,128.81C513.59,143.71 513.59,164.82 513.59,164.82C513.59,164.82 513.59,119.4 513.59,95.65C513.59,70.41 513.59,17.57 513.59,17.57C513.59,17.57 513.59,22.6 513.59,26.48C513.59,33.81 513.59,58.22 513.59,58.22C513.59,58.22 513.59,18.64 513.59,18.64C513.59,18.64 513.57,18.93 513.59,19.35C513.74,22.44 516.75,58.25 517.39,58.22C518.04,58.19 517.39,17.57 517.39,17.57C517.39,17.57 517.39,18.32 517.39,19.35C517.39,26.09 517.39,95.65 517.39,95.65C517.39,95.65 517.39,18.28 517.39,18.28C517.39,18.28 517.39,128.45 517.39,128.45C517.39,128.45 517.39,26.48 517.39,26.48C517.39,26.48 517.39,29.21 517.39,32.54C517.39,48.06 516.8,164.46 517.39,164.47C518.01,164.48 520.97,19.35 521.2,19.35C521.25,19.35 521.2,26.13 521.2,26.13C521.2,26.13 521.2,18.28 521.2,18.28C521.2,18.28 521.2,128.45 521.2,128.45C521.2,128.45 521.2,58.22 521.2,58.22C521.2,58.22 521.2,164.47 521.2,164.47C521.2,164.47 521.2,119.31 521.2,95.65C521.2,70.44 521.2,17.57 521.2,17.57C521.2,17.57 519.55,30.54 521.2,32.19C522.04,33.03 524.16,33.03 525,32.19C526.65,30.54 525,17.57 525,17.57C525,17.57 525,17.86 525,18.28C525,21.41 525,58.22 525,58.22C525,58.22 525,32.87 525,26.13C525,23.03 525,19.35 525,19.35C525,19.35 525,128.45 525,128.45C525,128.45 525,95.65 525,95.65C525,95.65 524.63,164.46 525,164.47C525.52,164.48 528.57,42.85 528.8,26.13C528.85,22.43 528.8,20.64 528.8,19.35C528.8,18.84 528.8,18.28 528.8,18.28C528.8,18.28 528.8,95.65 528.8,95.65C528.8,95.65 528.8,17.57 528.8,17.57C528.8,17.57 528.8,164.47 528.8,164.47C528.8,164.47 528.8,143.35 528.8,128.45C528.8,104.09 528.8,32.19 528.8,32.19C528.8,32.19 528.34,58.2 528.8,58.22C529.37,58.25 532.43,18.27 532.61,18.28C532.64,18.28 532.61,18.8 532.61,19.35C532.61,21.27 532.61,25.67 532.61,32.19C532.61,53.1 532.61,164.11 532.61,164.11C532.61,164.11 532.61,26.13 532.61,26.13C532.61,26.13 532.61,76.5 532.61,95.3C532.61,108.25 532.61,128.1 532.61,128.1C532.61,128.1 532.61,78.04 532.61,57.86C532.61,42.58 531.33,17.73 532.61,17.57C533.4,17.47 535.69,26.58 536.41,32.19C537.34,39.5 536.41,57.86 536.41,57.86C536.41,57.86 536.41,19.35 536.41,19.35C536.41,19.35 536.41,95.3 536.41,95.3C536.41,95.3 536.41,38.13 536.41,26.13C536.41,21.91 536.41,17.57 536.41,17.57C536.41,17.57 536.41,164.11 536.41,164.11C536.41,164.11 536.41,143.37 536.41,128.1C536.41,101.44 532.81,19.14 536.41,18.28C537.4,18.04 539.58,25.92 540.22,25.77C540.86,25.62 540.22,17.21 540.22,17.21C540.22,17.21 540.22,164.11 540.22,164.11C540.22,164.11 540.22,84.71 540.22,57.86C540.22,41.47 540.22,18.28 540.22,18.28C540.22,18.28 540.22,32.19 540.22,32.19C540.22,32.19 540.22,19 540.22,19C540.22,19 540.22,128.1 540.22,128.1C540.22,128.1 539.59,95.34 540.22,95.3C540.85,95.26 543.2,128.15 544.02,128.1C545.51,128.01 544.02,19 544.02,19C544.02,19 544.02,41.72 544.02,57.86C544.02,84.55 544.02,164.11 544.02,164.11C544.02,164.11 544.02,118.3 544.02,95.3C544.02,72.18 544.02,37.81 544.02,25.77C544.02,21.55 544.02,17.21 544.02,17.21C544.02,17.21 544.02,17.54 544.02,17.93C544.02,19.67 543,31.91 544.02,32.19C544.76,32.39 546.87,25.51 547.83,25.77C550.75,26.57 547.83,72.21 547.83,95.3C547.83,118.21 547.83,163.75 547.83,163.75C547.83,163.75 547.83,81.15 547.83,57.86C547.83,46.39 547.83,32.19 547.83,32.19C547.83,32.19 547.83,128.1 547.83,128.1C547.83,128.1 547.83,17.21 547.83,17.21C547.83,17.21 547.83,19 547.83,19C547.83,19 547.6,18.1 547.83,17.93C548.26,17.6 550.6,17.64 551.63,19C556.15,24.97 551.63,94.94 551.63,94.94C551.63,94.94 551.63,69.77 551.63,57.86C551.63,46.78 551.63,25.77 551.63,25.77C551.63,25.77 551.63,127.74 551.63,127.74C551.63,127.74 551.63,17.21 551.63,17.21C551.63,17.21 551.63,17.48 551.63,17.93C551.63,24.31 551.63,163.75 551.63,163.75C551.63,163.75 545.26,38.56 551.63,32.19C552.71,31.11 554.59,33.03 555.43,32.19C557.05,30.57 555.43,17.93 555.43,17.93C555.43,17.93 555.43,25.77 555.43,25.77C555.43,25.77 555.43,19 555.43,19C555.43,19 555.43,127.74 555.43,127.74C555.43,127.74 555.43,78.02 555.43,57.86C555.43,42.49 555.43,17.21 555.43,17.21C555.43,17.21 555.43,163.75 555.43,163.75C555.43,163.75 554.44,114.34 555.43,94.94C556.16,80.66 558.63,69.79 559.24,57.86C559.81,46.79 559.24,25.77 559.24,25.77C559.24,25.77 559.24,32.19 559.24,32.19C559.24,32.19 559.24,19 559.24,19C559.24,19 559.24,127.74 559.24,127.74C559.24,127.74 559.24,108.17 559.24,94.94C559.24,74.67 559.24,22.46 559.24,17.93C559.24,17.49 559.24,17.21 559.24,17.21C559.24,17.21 558.58,163.74 559.24,163.75C559.88,163.76 562.82,25.77 563.04,25.77C563.09,25.77 563.04,29.1 563.04,31.83C563.04,37.48 563.04,57.86 563.04,57.86C563.04,57.86 563.04,17.21 563.04,17.21C563.04,17.21 563.04,163.4 563.04,163.4C563.04,163.4 563.04,118.35 563.04,94.94C563.04,70.28 563.04,24.37 563.04,19C563.04,18.36 563.04,17.93 563.04,17.93C563.04,17.93 562.16,127.72 563.04,127.74C563.75,127.76 566.31,57.85 566.85,57.86C567.24,57.87 566.85,94.94 566.85,94.94C566.85,94.94 566.85,22.46 566.85,17.93C566.85,17.49 566.85,17.21 566.85,17.21C566.85,17.21 566.85,127.74 566.85,127.74C566.85,127.74 566.85,25.41 566.85,25.41C566.85,25.41 566.85,28.32 566.85,31.83C566.85,47.7 566.85,163.4 566.85,163.4C566.85,163.4 565.84,19.03 566.85,19C567.58,18.98 570.01,94.96 570.65,94.94C571.29,94.92 570.65,17.21 570.65,17.21C570.65,17.21 570.65,17.49 570.65,17.93C570.65,23.41 570.65,127.74 570.65,127.74C570.65,127.74 570.65,57.5 570.65,57.5C570.65,57.5 570.65,163.4 570.65,163.4C570.65,163.4 570.65,25.41 570.65,25.41C570.65,25.41 570.65,31.83 570.65,31.83C570.65,31.83 570.03,19.09 570.65,19C571.28,18.91 573.83,31.92 574.46,31.83C575.09,31.74 574.46,18.64 574.46,18.64C574.46,18.64 574.46,94.94 574.46,94.94C574.46,94.94 574.46,25.41 574.46,25.41C574.46,25.41 574.46,163.4 574.46,163.4C574.46,163.4 574.46,17.21 574.46,17.21C574.46,17.21 574.46,17.35 574.46,17.57C574.46,19.88 574.46,42.34 574.46,57.5C574.46,77.56 574.01,127.37 574.46,127.38C575.02,127.39 578.15,25.18 578.26,18.64C578.27,17.99 578.26,17.89 578.26,17.57C578.26,17.31 578.26,16.86 578.26,16.86C578.26,16.86 578.26,100.69 578.26,127.38C578.26,142.54 578.26,163.04 578.26,163.04C578.26,163.04 578.26,80.74 578.26,57.5C578.26,46.04 578.26,31.83 578.26,31.83C578.26,31.83 578.26,94.58 578.26,94.58C578.26,94.58 577.79,25.42 578.26,25.41C578.83,25.4 581.42,127.39 582.07,127.38C582.74,127.37 582.07,16.86 582.07,16.86C582.07,16.86 582.07,17.86 582.07,18.64C582.07,20.17 582.07,25.41 582.07,25.41C582.07,25.41 582.07,17.57 582.07,17.57C582.07,17.57 582.07,163.04 582.07,163.04C582.07,163.04 582.07,116.9 582.07,94.58C582.07,73.21 582.07,31.83 582.07,31.83C582.07,31.83 581.63,57.48 582.07,57.5C582.63,57.53 585.39,16.84 585.87,16.86C586.16,16.87 585.87,31.83 585.87,31.83C585.87,31.83 585.87,17.57 585.87,17.57C585.87,17.57 585.87,17.99 585.87,18.64C585.87,25.18 585.87,100.98 585.87,127.38C585.87,142.5 585.87,163.04 585.87,163.04C585.87,163.04 585.87,82.51 585.87,57.5C585.87,43.71 585.87,25.41 585.87,25.41C585.87,25.41 585.23,71.59 585.87,94.58C586.5,117.47 588.92,163.06 589.67,163.04C590.77,163.01 589.67,16.86 589.67,16.86C589.67,16.86 589.67,22.76 589.67,25.41C589.67,27.7 589.67,28.59 589.67,31.83C589.67,41.97 589.67,77.03 589.67,94.58C589.67,107.27 589.67,127.38 589.67,127.38C589.67,127.38 589.67,17.57 589.67,17.57C589.67,17.57 589.67,18.03 589.67,18.64C589.67,22.33 589.26,42.68 589.67,57.5C590.21,77.34 592.77,127.05 593.48,127.03C594.37,127.01 593.48,17.57 593.48,17.57C593.48,17.57 593.48,162.68 593.48,162.68C593.48,162.68 593.48,117.4 593.48,94.58C593.48,71.53 593.48,25.06 593.48,25.06C593.48,25.06 593.48,57.5 593.48,57.5C593.48,57.5 593.48,16.86 593.48,16.86C593.48,16.86 593.48,17.77 593.48,18.64C593.48,21 593.35,25.42 593.48,31.83C593.82,49.05 596.65,127.04 597.28,127.03C597.91,127.02 597.28,31.83 597.28,31.83C597.28,31.83 597.28,162.68 597.28,162.68C597.28,162.68 597.28,117.69 597.28,94.23C597.28,69.4 597.28,22.06 597.28,17.57C597.28,17.14 597.28,16.86 597.28,16.86C597.28,16.86 597.28,17.66 597.28,18.64C597.28,23.18 597.28,57.15 597.28,57.15C597.28,57.15 594.54,27.8 597.28,25.06C598.22,24.12 600.33,25.82 601.09,25.06C602.2,23.95 601.09,16.86 601.09,16.86C601.09,16.86 601.09,17.66 601.09,18.64C601.09,23.18 601.09,44.43 601.09,57.15C601.09,69.63 601.09,82.25 601.09,94.23C601.09,105.5 601.09,115.87 601.09,127.03C601.09,138.67 601.09,162.68 601.09,162.68C601.09,162.68 601.09,17.21 601.09,17.21C601.09,17.21 600.99,24.32 601.09,31.47C601.4,53.12 604.25,162.34 604.89,162.33C605.55,162.32 604.89,42.72 604.89,25.06C604.89,20.84 604.89,17.21 604.89,17.21C604.89,17.21 604.89,26.02 604.89,31.47C604.89,38.78 604.89,57.15 604.89,57.15C604.89,57.15 604.89,16.86 604.89,16.86C604.89,16.86 604.89,17.43 604.89,18.28C604.89,25.7 604.89,126.67 604.89,126.67C604.89,126.67 604.51,106.8 604.89,94.23C605.42,76.72 608.39,41.61 608.7,31.47C608.8,28.23 608.7,27.23 608.7,25.06C608.7,22.83 608.7,19.57 608.7,18.28C608.7,17.77 608.7,17.47 608.7,17.21C608.7,17.06 608.7,16.86 608.7,16.86C608.7,16.86 608.7,162.33 608.7,162.33C608.7,162.33 608.7,113.51 608.7,94.23C608.7,80.01 608.7,57.15 608.7,57.15C608.7,57.15 607.67,107.35 608.7,126.67C609.44,140.55 611.65,162.37 612.5,162.33C614.2,162.24 612.5,17.21 612.5,17.21C612.5,17.21 612.5,18.28 612.5,18.28C612.5,18.28 612.5,16.5 612.5,16.5C612.5,16.5 612.5,73.89 612.5,94.23C612.5,107.37 612.5,126.67 612.5,126.67C612.5,126.67 612.5,75.9 612.5,57.15C612.5,44.41 612.5,25.06 612.5,25.06C612.5,25.06 612.4,28.23 612.5,31.47C612.81,41.61 615.63,94.25 616.3,94.23C617.04,94.21 616.3,17.21 616.3,17.21C616.3,17.21 616.3,31.47 616.3,31.47C616.3,31.47 616.3,27.06 616.3,24.7C616.3,22.1 616.3,16.5 616.3,16.5C616.3,16.5 616.3,57.15 616.3,57.15C616.3,57.15 616.3,18.28 616.3,18.28C616.3,18.28 616.3,100.33 616.3,126.67C616.3,141.78 616.07,162.33 616.3,162.33C616.74,162.34 619.79,53.52 620.11,31.47C620.22,24.01 620.11,16.5 620.11,16.5C620.11,16.5 620.11,94.23 620.11,94.23C620.11,94.23 620.11,23.65 620.11,18.28C620.11,17.64 620.11,17.21 620.11,17.21C620.11,17.21 620.11,21.33 620.11,24.7C620.11,31.72 620.11,44.3 620.11,57.15C620.11,75.96 620.11,107.33 620.11,126.67C620.11,140.52 619.89,162.33 620.11,162.33C620.54,162.34 623.28,24.69 623.91,24.7C624.54,24.71 623.91,162.33 623.91,162.33C623.91,162.33 623.91,31.47 623.91,31.47C623.91,31.47 623.91,76.73 623.91,94.23C623.91,106.81 623.91,126.67 623.91,126.67C623.91,126.67 623.91,22.65 623.91,17.21C623.91,16.77 623.91,16.5 623.91,16.5C623.91,16.5 623.91,17.3 623.91,18.28C623.91,22.85 623.05,57.09 623.91,57.15C624.61,57.2 626.89,31.41 627.72,31.47C629.32,31.59 627.72,126.67 627.72,126.67C627.72,126.67 627.72,17.21 627.72,17.21C627.72,17.21 627.72,57.15 627.72,57.15C627.72,57.15 627.72,16.5 627.72,16.5C627.72,16.5 627.72,162.33 627.72,162.33C627.72,162.33 627.72,41 627.72,24.7C627.72,21.18 627.72,18.28 627.72,18.28C627.72,18.28 627.1,94.21 627.72,94.23C628.35,94.25 630.89,16.48 631.52,16.5C632.15,16.52 631.52,94.23 631.52,94.23C631.52,94.23 631.52,24.7 631.52,24.7C631.52,24.7 631.52,126.67 631.52,126.67C631.52,126.67 631.52,17.21 631.52,17.21C631.52,17.21 631.52,162.33 631.52,162.33C631.52,162.33 631.52,18.28 631.52,18.28C631.52,18.28 631.52,26.35 631.52,31.47C631.52,38.62 629.14,54.77 631.52,57.15C632.44,58.07 634.26,56.08 635.33,57.15C640.94,62.76 635.33,162.33 635.33,162.33C635.33,162.33 635.33,18.28 635.33,18.28C635.33,18.28 635.33,126.67 635.33,126.67C635.33,126.67 635.33,107.08 635.33,94.23C635.33,75.42 635.33,24.7 635.33,24.7C635.33,24.7 635.33,31.47 635.33,31.47C635.33,31.47 635.33,16.5 635.33,16.5C635.33,16.5 635.28,16.83 635.33,17.21C635.56,18.95 638.28,24.96 639.13,31.47C640.89,44.9 639.13,76.73 639.13,94.23C639.13,106.81 639.13,115.6 639.13,126.67C639.13,138.28 639.13,162.33 639.13,162.33C639.13,162.33 639.13,18.28 639.13,18.28C639.13,18.28 639.13,21.74 639.13,24.7C639.13,31.36 639.13,57.15 639.13,57.15C639.13,57.15 639.13,16.5 639.13,16.5C639.13,16.5 638.97,17.07 639.13,17.21C639.51,17.53 642.42,16.07 642.93,16.5C643.28,16.79 642.93,17.41 642.93,18.28C642.93,20.64 642.93,31.47 642.93,31.47C642.93,31.47 642.93,17.21 642.93,17.21C642.93,17.21 642.93,126.67 642.93,126.67C642.93,126.67 642.93,24.7 642.93,24.7C642.93,24.7 642.93,94.23 642.93,94.23C642.93,94.23 642.93,57.15 642.93,57.15C642.93,57.15 642.06,162.31 642.93,162.33C643.63,162.35 646.22,94.22 646.74,94.23C647.1,94.24 646.74,126.67 646.74,126.67C646.74,126.67 646.74,49.49 646.74,31.47C646.74,24.32 646.74,16.5 646.74,16.5C646.74,16.5 646.74,17.3 646.74,18.28C646.74,22.85 646.74,57.15 646.74,57.15C646.74,57.15 646.74,17.21 646.74,17.21C646.74,17.21 646.74,162.33 646.74,162.33C646.74,162.33 645.7,24.73 646.74,24.7C647.48,24.68 650.03,75.41 650.54,94.23C650.89,107.07 650.54,115.6 650.54,126.67C650.54,138.28 650.54,162.33 650.54,162.33C650.54,162.33 650.54,80.34 650.54,57.15C650.54,45.69 650.54,38.88 650.54,31.47C650.54,25.81 650.54,16.5 650.54,16.5C650.54,16.5 650.54,24.7 650.54,24.7C650.54,24.7 650.54,17.21 650.54,17.21C650.54,17.21 650.52,17.64 650.54,18.28C650.67,23.65 653.72,94.25 654.35,94.23C654.98,94.21 654.35,18.28 654.35,18.28C654.35,18.28 654.35,162.33 654.35,162.33C654.35,162.33 654.35,53.52 654.35,31.47C654.35,24.01 654.35,16.5 654.35,16.5C654.35,16.5 654.35,16.77 654.35,17.21C654.35,22.65 654.35,126.67 654.35,126.67C654.35,126.67 654.35,75.96 654.35,57.15C654.35,44.3 653.72,24.74 654.35,24.7C654.98,24.66 657.48,57.19 658.15,57.15C658.89,57.11 658.15,17.21 658.15,17.21C658.15,17.21 658.15,24.32 658.15,31.47C658.15,53.12 658.15,162.33 658.15,162.33C658.15,162.33 658.15,117.05 658.15,94.23C658.15,71.17 658.15,36.55 658.15,24.7C658.15,20.63 658.15,16.5 658.15,16.5C658.15,16.5 658.15,126.67 658.15,126.67C658.15,126.67 652.76,26.74 658.15,18.28C659.21,16.61 661.22,16.03 661.96,16.5C662.99,17.16 661.96,20.63 661.96,24.7C661.96,36.55 661.96,94.23 661.96,94.23C661.96,94.23 661.96,57.15 661.96,57.15C661.96,57.15 661.96,126.67 661.96,126.67C661.96,126.67 661.96,17.21 661.96,17.21C661.96,17.21 661.96,31.47 661.96,31.47C661.96,31.47 661.96,18.28 661.96,18.28C661.96,18.28 661.16,162.32 661.96,162.33C662.64,162.34 665.27,84.03 665.76,57.15C666.06,40.44 665.76,16.5 665.76,16.5C665.76,16.5 665.76,100.04 665.76,126.67C665.76,141.82 665.76,162.33 665.76,162.33C665.76,162.33 665.76,18.28 665.76,18.28C665.76,18.28 665.76,24.7 665.76,24.7C665.76,24.7 665.76,17.21 665.76,17.21C665.76,17.21 665.76,94.23 665.76,94.23C665.76,94.23 661.62,35.61 665.76,31.47C666.78,30.45 668.73,32.31 669.57,31.47C671.24,29.8 669.57,16.5 669.57,16.5C669.57,16.5 669.57,57.15 669.57,57.15C669.57,57.15 669.57,17.21 669.57,17.21C669.57,17.21 669.57,69.35 669.57,94.23C669.57,117.63 669.57,162.33 669.57,162.33C669.57,162.33 669.57,18.28 669.57,18.28C669.57,18.28 669.57,126.67 669.57,126.67C669.57,126.67 666.14,39.04 669.57,24.7C670.55,20.58 672.38,16.97 673.37,17.21C676.95,18.07 673.37,126.67 673.37,126.67C673.37,126.67 673.37,31.47 673.37,31.47C673.37,31.47 673.37,57.15 673.37,57.15C673.37,57.15 673.37,18.28 673.37,18.28C673.37,18.28 673.37,162.33 673.37,162.33C673.37,162.33 673.37,117.68 673.37,94.23C673.37,69.18 673.37,16.5 673.37,16.5C673.37,16.5 673.26,20.63 673.37,24.7C673.69,36.55 676.54,71.17 677.17,94.23C677.79,117.04 677.17,162.33 677.17,162.33C677.17,162.33 677.17,16.5 677.17,16.5C677.17,16.5 677.17,21.06 677.17,24.7C677.17,31.94 677.17,57.15 677.17,57.15C677.17,57.15 677.17,31.47 677.17,31.47C677.17,31.47 677.17,126.67 677.17,126.67C677.17,126.67 677.17,17.21 677.17,17.21C677.17,17.21 676.96,18.14 677.17,18.28C677.6,18.55 680.61,16.26 680.98,16.5C681.13,16.6 680.98,16.85 680.98,17.21C680.98,18.39 680.98,20.77 680.98,24.7C680.98,39.2 680.98,101.41 680.98,126.67C680.98,141.61 680.98,162.33 680.98,162.33C680.98,162.33 680.98,80.34 680.98,57.15C680.98,45.69 680.98,38.62 680.98,31.47C680.98,26.35 680.98,18.28 680.98,18.28C680.98,18.28 679.92,94.18 680.98,94.23C681.72,94.27 684.13,69.81 684.78,57.15C685.46,43.93 684.78,16.5 684.78,16.5C684.78,16.5 684.78,162.33 684.78,162.33C684.78,162.33 684.78,116.47 684.78,94.23C684.78,72.88 684.78,41.81 684.78,31.47C684.78,28.07 684.78,26.93 684.78,24.7C684.78,22.53 684.78,19.52 684.78,18.28C684.78,17.77 684.78,17.21 684.78,17.21C684.78,17.21 684.14,126.66 684.78,126.67C685.42,126.68 687.91,18.27 688.59,18.28C689.37,18.29 688.59,162.33 688.59,162.33C688.59,162.33 688.59,141.42 688.59,126.67C688.59,102.57 688.59,44.83 688.59,31.47C688.59,27.91 688.59,27.01 688.59,24.7C688.59,22.27 688.59,17.21 688.59,17.21C688.59,17.21 688.59,94.23 688.59,94.23C688.59,94.23 688.59,69.79 688.59,57.15C688.59,43.91 685.61,18.4 688.59,16.5C689.55,15.89 691.33,16.62 692.39,18.28C697.77,26.74 692.39,126.67 692.39,126.67C692.39,126.67 692.39,17.21 692.39,17.21C692.39,17.21 692.39,162.33 692.39,162.33C692.39,162.33 692.39,84.03 692.39,57.15C692.39,40.44 692.39,16.5 692.39,16.5C692.39,16.5 692.39,31.47 692.39,31.47C692.39,31.47 692.39,24.7 692.39,24.7C692.39,24.7 691.76,94.21 692.39,94.23C693.02,94.25 695.68,24.69 696.2,24.7C696.55,24.71 696.2,43.24 696.2,57.15C696.2,82.19 696.2,162.33 696.2,162.33C696.2,162.33 696.2,52.49 696.2,31.47C696.2,24.8 696.2,18.28 696.2,18.28C696.2,18.28 696.2,94.23 696.2,94.23C696.2,94.23 696.2,16.5 696.2,16.5C696.2,16.5 696.2,16.77 696.2,17.21C696.2,22.65 695.32,126.65 696.2,126.67C696.9,126.69 699.45,77.24 700,57.15Q700.42,41.8 700,16.5" style="vector-effect: none; fill: none; stroke: rgb(56, 63, 67); stroke-opacity: 1; stroke-width: 2px; opacity: 1;"/>
            </g>
            <g class="points"/>
            <g class="text"/>
          </g>
          <g class="trace scatter trace765cd3" style="stroke-miterlimit: 2;">
            <g class="fills">
              <g>
                <path class="js-fill" d="M700,313.5L700,313.5L700,16.5Q700,16.82 700,17.21C700,18.94 700,31.47 700,31.47C700,31.47 700,18.28 700,18.28C700,18.28 700,126.67 700,126.67C700,126.67 700,94.23 700,94.23C700,94.23 700,162.33 700,162.33Q700,162.33 700,24.7" style="fill: rgb(246, 215, 210); fill-opacity: 1; stroke-width: 0;"/>
              </g>
            </g>
            <g class="errorbars"/>
            <g class="lines">
              <path class="js-line" d="M700,16.5Q700,16.82 700,17.21C700,18.94 700,31.47 700,31.47C700,31.47 700,18.28 700,18.28C700,18.28 700,126.67 700,126.67C700,126.67 700,94.23 700,94.23C700,94.23 700,162.33 700,162.33Q700,162.33 700,24.7" style="vector-effect: none; fill: none; stroke: rgb(148, 37, 20); stroke-opacity: 1; stroke-width: 2px; opacity: 1;"/>
            </g>
            <g class="points"/>
            <g class="text"/>
          </g>
        </g>
      </g>
      <g class="overplot"/>
      <path class="xlines-above crisp" d="" style="fill: none; stroke-width: 1px; stroke: rgb(0, 0, 0); stroke-opacity: 0;"/>
      <path class="ylines-above crisp" d="M0,0" style="fill: none;"/>
      <g class="overlines-above"/>
      <g class="xaxislayer-above">
        <path class="xtick ticks crisp" d="M0,331v5" transform="translate(98.91,0)" style="stroke: rgb(68, 68, 68); stroke-opacity: 1; stroke-width: 1px;"/>
        <path class="xtick ticks crisp" d="M0,331v5" transform="translate(216.85,0)" style="stroke: rgb(68, 68, 68); stroke-opacity: 1; stroke-width: 1px;"/>
        <path class="xtick ticks crisp" d="M0,331v5" transform="translate(330.98,0)" style="stroke: rgb(68, 68, 68); stroke-opacity: 1; stroke-width: 1px;"/>
        <path class="xtick ticks crisp" d="M0,331v5" transform="translate(448.91,0)" style="stroke: rgb(68, 68, 68); stroke-opacity: 1; stroke-width: 1px;"/>
        <path class="xtick ticks crisp" d="M0,331v5" transform="translate(566.85,0)" style="stroke: rgb(68, 68, 68); stroke-opacity: 1; stroke-width: 1px;"/>
        <path class="xtick ticks crisp" d="M0,331v5" transform="translate(673.37,0)" style="stroke: rgb(68, 68, 68); stroke-opacity: 1; stroke-width: 1px;"/>
        <g class="xtick">
          <text text-anchor="middle" x="0" y="348" transform="translate(98.91,0)" style="font-family: 'GDS Transport', Arial, sans-serif; font-size: 10px; fill: rgb(107, 114, 118); fill-opacity: 1; white-space: pre; opacity: 1;">Oct 2022</text>
        </g>
        <g class="xtick">
          <text text-anchor="middle" x="0" y="348" style="font-family: 'GDS Transport', Arial, sans-serif; font-size: 10px; fill: rgb(107, 114, 118); fill-opacity: 1; white-space: pre; opacity: 1;" transform="translate(216.85,0)">Nov 2022</text>
        </g>
        <g class="xtick">
          <text text-anchor="middle" x="0" y="348" style="font-family: 'GDS Transport', Arial, sans-serif; font-size: 10px; fill: rgb(107, 114, 118); fill-opacity: 1; white-space: pre; opacity: 1;" transform="translate(330.98,0)">Dec 2022</text>
        </g>
        <g class="xtick">
          <text text-anchor="middle" x="0" y="348" style="font-family: 'GDS Transport', Arial, sans-serif; font-size: 10px; fill: rgb(107, 114, 118); fill-opacity: 1; white-space: pre; opacity: 1;" transform="translate(448.91,0)">Jan 2023</text>
        </g>
        <g class="xtick">
          <text text-anchor="middle" x="0" y="348" style="font-family: 'GDS Transport', Arial, sans-serif; font-size: 10px; fill: rgb(107, 114, 118); fill-opacity: 1; white-space: pre; opacity: 1;" transform="translate(566.85,0)">Feb 2023</text>
        </g>
        <g class="xtick">
          <text text-anchor="middle" x="0" y="348" style="font-family: 'GDS Transport', Arial, sans-serif; font-size: 10px; fill: rgb(107, 114, 118); fill-opacity: 1; white-space: pre; opacity: 1;" transform="translate(673.37,0)">Mar 2023</text>
        </g>
      </g>
      <g class="yaxislayer-above"/>
      <g class="overaxes-above"/>
    </g>
  </g>
  <g class="polarlayer"/>
  <g class="smithlayer"/>
  <g class="ternarylayer"/>
  <g class="geolayer"/>
  <g class="funnelarealayer"/>
  <g class="pielayer"/>
  <g class="iciclelayer"/>
  <g class="treemaplayer"/>
  <g class="sunburstlayer"/>
  <g class="glimages"/>
  <defs id="topdefs-a62bde">
    <g class="clips"/>
  </defs>
  <g class="layer-above">
    <g class="imagelayer"/>
    <g class="shapelayer"/>
  </g>
  <g class="infolayer">
    <g class="g-gtitle"/>
    <g class="g-xtitle"/>
    <g class="g-ytitle"/>
  </g>
</svg>