<svg xmlns="http://www.w3.org/2000/svg" width="435" height="220" class="main-svg"><path fill="none" d="M0 0h435v220H0z" style="fill:#000;fill-opacity:0"/><defs><clipPath id="a" class="plotclip"><path d="M0 0h411v168H0z"/></clipPath></defs><g class="bglayer"><path fill="none" d="M0 0h411v168H0z" class="bg" style="fill:#000;fill-opacity:0;stroke-width:0"/></g><g class="cartesianlayer"><g class="subplot xy"><g class="zerolinelayer"><path d="M0 0h411" class="yzl zl crisp" style="stroke:#fff;stroke-opacity:1;stroke-width:2px" transform="translate(0 168)"/></g><g class="plot" clip-path="url(#a)"><g class="scatterlayer mlayer"><g class="trace scatter trace58cbe8" style="stroke-miterlimit:2;opacity:1"><g class="lines"><path d="M0 64.4q6.18-23.63 9.79-33.6c3.02-8.33 6.6-22.47 9.78-22.4 3.35.07 5.26 21.06 9.79 25.2 2.78 2.54 6.9.56 9.78 2.8 3.99 3.1 6.53 16.8 9.79 16.8 3.26 0 6.87-17.16 9.78-16.8 3.9.48 5.47 25.71 9.79 33.6 2.82 5.14 6.53 11.2 9.79 11.2 3.26 0 6.94-6.16 9.78-11.2 4.18-7.43 6.46-30.75 9.79-30.8 3.19-.05 6.83 17.32 9.78 28 3.77 13.67 4.83 46.29 9.79 47.6 2.74.72 6.26-8.32 9.78-11.2 3.07-2.51 7.05-6.74 9.79-5.6 5.01 2.08 5.34 35.37 9.79 36.4 2.79.65 6.39-10.96 9.78-11.2 3.15-.23 6.31 7.64 9.79 8.4 3.09.68 6.69-1.14 9.78-2.8 3.48-1.87 6.73-5.02 9.79-8.4 3.52-3.89 6.26-13.55 9.78-14 3.06-.39 6.27 7.1 9.79 8.4 3.07 1.14 6.8-1.36 9.79 0 3.68 1.67 6.26 10.61 9.78 11.2 3.07.52 6.4-4.7 9.79-5.6 3.15-.84 6.86 1.52 9.78 0 3.86-2.01 6.41-13.82 9.79-14 3.16-.17 6.52 7.47 9.78 11.2 3.26 3.73 6.84 11.66 9.79 11.2 3.78-.58 6.32-22.2 9.79-22.4 3.1-.18 5.94 12.99 9.78 16.8 2.93 2.9 6.53 5.6 9.79 5.6 3.26 0 6.62-5.9 9.78-5.6 3.38.32 6.31 6.53 9.79 8.4 3.09 1.66 6.52 1.87 9.78 2.8 3.26.93 6.49 2.34 9.79 2.8 3.23.45 6.64.84 9.79 0 3.38-.9 6.62-5.9 9.78-5.6 3.38.32 6.64 8.63 9.79 8.4 3.39-.24 6.15-8.89 9.78-11.2 3.01-1.91 6.78-.89 9.79-2.8q3.63-2.31 9.78-11.2" class="js-line" style="vector-effect:none;fill:none;stroke:#383f43;stroke-opacity:1;stroke-width:2px;opacity:1"/></g></g><g class="trace scatter trace96df2b" style="stroke-miterlimit:2"><g class="fills"><path d="M411 168h-9.79v-53.2L411 92.4" class="js-fill" style="fill:#f6d7d2;fill-opacity:1;stroke-width:0"/></g><g class="lines"><path d="M401.21 114.8 411 92.4" class="js-line" style="vector-effect:none;fill:none;stroke:#942514;stroke-opacity:1;stroke-width:2px;opacity:1"/></g></g></g></g><g class="xaxislayer-above"><path d="M0 169v5" class="xtick ticks crisp" style="stroke:#444;stroke-opacity:1;stroke-width:1px" transform="translate(41.94)"/><path d="M0 169v5" class="xtick ticks crisp" style="stroke:#444;stroke-opacity:1;stroke-width:1px" transform="translate(83.88)"/><path d="M0 169v5" class="xtick ticks crisp" style="stroke:#444;stroke-opacity:1;stroke-width:1px" transform="translate(127.21)"/><path d="M0 169v5" class="xtick ticks crisp" style="stroke:#444;stroke-opacity:1;stroke-width:1px" transform="translate(170.55)"/><path d="M0 169v5" class="xtick ticks crisp" style="stroke:#444;stroke-opacity:1;stroke-width:1px" transform="translate(212.49)"/><path d="M0 169v5" class="xtick ticks crisp" style="stroke:#444;stroke-opacity:1;stroke-width:1px" transform="translate(255.83)"/><path d="M0 169v5" class="xtick ticks crisp" style="stroke:#444;stroke-opacity:1;stroke-width:1px" transform="translate(297.77)"/><path d="M0 169v5" class="xtick ticks crisp" style="stroke:#444;stroke-opacity:1;stroke-width:1px" transform="translate(341.1)"/><path d="M0 169v5" class="xtick ticks crisp" style="stroke:#444;stroke-opacity:1;stroke-width:1px" transform="translate(384.44)"/><text y="188.4" class="xtick" style="font-family:Arial;font-size:12px;fill:#6b7276;fill-opacity:1;white-space:pre;opacity:1" transform="rotate(30 20.97 260.661)">Jun 2022</text><text y="188.4" class="xtick" style="font-family:Arial;font-size:12px;fill:#6b7276;fill-opacity:1;white-space:pre;opacity:1" transform="rotate(30 41.94 338.922)">Jul 2022</text><text y="188.4" class="xtick" style="font-family:Arial;font-size:12px;fill:#6b7276;fill-opacity:1;white-space:pre;opacity:1" transform="rotate(30 63.605 419.777)">Aug 2022</text><text y="188.4" class="xtick" style="font-family:Arial;font-size:12px;fill:#6b7276;fill-opacity:1;white-space:pre;opacity:1" transform="rotate(30 85.275 500.65)">Sep 2022</text><text y="188.4" class="xtick" style="font-family:Arial;font-size:12px;fill:#6b7276;fill-opacity:1;white-space:pre;opacity:1" transform="rotate(30 106.245 578.912)">Oct 2022</text><text y="188.4" class="xtick" style="font-family:Arial;font-size:12px;fill:#6b7276;fill-opacity:1;white-space:pre;opacity:1" transform="rotate(30 127.915 659.785)">Nov 2022</text><text y="188.4" class="xtick" style="font-family:Arial;font-size:12px;fill:#6b7276;fill-opacity:1;white-space:pre;opacity:1" transform="rotate(30 148.885 738.046)">Dec 2022</text><text y="188.4" class="xtick" style="font-family:Arial;font-size:12px;fill:#6b7276;fill-opacity:1;white-space:pre;opacity:1" transform="rotate(30 170.55 818.901)">Jan 2023</text></g></g></g></svg>