<svg xmlns="http://www.w3.org/2000/svg" width="700" height="350" class="main-svg"><path fill="none" d="M0 0h700v350H0z" style="fill:#000;fill-opacity:0"/><defs><clipPath id="a" class="plotclip"><path d="M0 0h669v330H0z"/></clipPath></defs><g class="bglayer"><path fill="none" d="M24 0h669v330H24z" class="bg" style="fill:#000;fill-opacity:0;stroke-width:0"/></g><g class="cartesianlayer"><g class="subplot xy"><g class="zerolinelayer"><path d="M24 0h669" class="yzl zl crisp" style="stroke:#fff;stroke-opacity:1;stroke-width:2px" transform="translate(0 330)"/></g><g class="plot" clip-path="url(#a)" transform="translate(24)"><g class="barlayer mlayer"><g class="trace bars" style="opacity:1"><g class="points"><path d="M.21 330v-79.63h1.72V330ZM2.36 330V223.29h1.71V330ZM4.5 330V214.9h1.72V330ZM6.65 330V229.07h1.71V330ZM8.79 330v-88.66h1.72V330ZM10.94 330v-77.56h1.71V330ZM13.08 330v-65.57h1.72V330ZM15.22 330v-79.07h1.72V330ZM17.37 330v-91.59h1.71V330ZM19.51 330v-84.13h1.72V330ZM21.66 330v-74.95h1.71V330ZM23.8 330v-65.78h1.72V330ZM25.95 330v-59.78h1.71V330ZM28.09 330v-53.02h1.71V330ZM30.23 330v-69.43h1.72V330ZM32.38 330v-81.36h1.71V330ZM34.52 330v-70.5h1.72V330ZM36.67 330v-65.94h1.71V330ZM38.81 330v-59.68h1.72V330ZM40.95 330v-52.09h1.72V330ZM43.1 330v-43.77h1.71V330ZM45.24 330v-53.14h1.72V330ZM47.39 330v-64.46h1.71V330ZM49.53 330v-57.7h1.72V330ZM51.68 330v-53.56h1.71V330ZM53.82 330v-49.72h1.72V330ZM55.96 330v-46.37h1.72V330ZM58.11 330v-42.85h1.71V330ZM60.25 330v-48.36h1.72V330ZM62.4 330v-61.16h1.71V330ZM64.54 330v-59.16h1.72V330ZM66.69 330v-58.94h1.71V330ZM68.83 330v-52.42h1.72V330ZM70.97 330v-57.59h1.72V330ZM73.12 330v-64.77h1.71V330ZM75.26 330v-86.16h1.72V330ZM77.41 330V228.89h1.71V330ZM79.55 330v-97.85h1.72V330ZM81.7 330V227.33h1.71V330ZM83.84 330v-98.93h1.71V330ZM85.98 330v-94.44h1.72V330ZM88.13 330v-87.36h1.71V330ZM90.27 330V219.42h1.72V330ZM92.42 330V196.33h1.71V330ZM94.56 330V199.38h1.72V330ZM96.7 330V202.19h1.72V330ZM98.85 330V207.07h1.71V330ZM100.99 330V209.91h1.72V330ZM103.14 330V209.96h1.71V330ZM105.28 330V180.16H107V330ZM107.43 330V155.42h1.71V330ZM109.57 330V149.13h1.72V330ZM111.71 330V146.73h1.72V330ZM113.86 330V157.71h1.71V330ZM116 330V168.78h1.72V330ZM118.15 330V180.63h1.71V330ZM120.29 330V143.88h1.72V330ZM122.44 330V104.09h1.71V330ZM124.58 330V104.34h1.72V330ZM126.72 330V105.92h1.72V330ZM128.87 330V108.08h1.71V330ZM131.01 330V112.64h1.72V330ZM133.16 330V127.93h1.71V330ZM135.3 330V70.28h1.72V330ZM137.45 330V16.5h1.71V330ZM139.59 330V39.91h1.71V330ZM141.73 330V54.11h1.72V330ZM143.88 330V81.9h1.71V330ZM146.02 330V101.24h1.72V330ZM148.17 330V130.33h1.71V330ZM150.31 330V92.24h1.72V330ZM152.45 330V49.38h1.72V330ZM154.6 330V78.5h1.71V330ZM156.74 330V106.75h1.72V330ZM158.89 330V130.47h1.71V330ZM161.03 330V158.47h1.72V330ZM163.18 330V188.96h1.71V330ZM165.32 330V167.98h1.72V330ZM167.46 330V155.44h1.72V330ZM169.61 330V176.63h1.71V330ZM171.75 330V180.05h1.72V330ZM173.9 330V198.04h1.71V330ZM176.04 330V214.7h1.72V330ZM178.19 330v-91.91h1.71V330ZM180.33 330V224.6h1.72V330ZM182.47 330V206.93h1.72V330ZM184.62 330V221.86h1.71V330ZM186.76 330v-97.34h1.72V330ZM188.91 330v-86.04h1.71V330ZM191.05 330v-78.24h1.72V330ZM193.2 330v-68.23h1.71V330ZM195.34 330v-79.15h1.71V330ZM197.48 330v-90.94h1.72V330ZM199.63 330v-84.25h1.71V330ZM201.77 330v-76.56h1.72V330ZM203.92 330v-67.31h1.71V330ZM206.06 330v-60.46h1.72V330ZM208.2 330v-50.06h1.72V330ZM210.35 330v-60.84h1.71V330ZM212.49 330v-74.55h1.72V330ZM214.64 330v-66.67h1.71V330ZM216.78 330v-61.92h1.72V330ZM218.93 330v-56.19h1.71V330ZM221.07 330v-49.3h1.72V330ZM223.21 330v-41.03h1.72V330ZM225.36 330v-49.33h1.71V330ZM227.5 330v-57.77h1.72V330ZM229.65 330v-49.85h1.71V330ZM231.79 330v-45.28h1.72V330ZM233.94 330v-40.03h1.71V330ZM236.08 330v-34.22h1.72V330ZM238.22 330v-29.34h1.72V330ZM240.37 330v-36.59h1.71V330ZM242.51 330v-47.2h1.72V330ZM244.66 330v-42.05h1.71V330ZM246.8 330v-40.37h1.72V330ZM248.95 330v-33.7h1.71V330ZM251.09 330v-30.92h1.71V330ZM253.23 330v-26.89h1.72V330ZM255.38 330v-29.73h1.71V330ZM257.52 330v-40.62h1.72V330ZM259.67 330v-46.15h1.71V330ZM261.81 330v-41.01h1.72V330ZM263.95 330v-38.79h1.72V330ZM266.1 330v-33.42h1.71V330ZM268.24 330v-30.65h1.72V330ZM270.39 330v-38.78h1.71V330ZM272.53 330v-45.24h1.72V330ZM274.68 330v-40.66h1.71V330ZM276.82 330v-38.69h1.72V330ZM278.96 330v-33.53h1.72V330ZM281.11 330v-32.01h1.71V330ZM283.25 330v-29.52h1.72V330ZM285.4 330v-40.12h1.71V330ZM287.54 330v-49h1.72v49ZM289.69 330v-47.49h1.71V330ZM291.83 330v-45.87h1.72V330ZM293.97 330v-43.14h1.72V330ZM296.12 330v-38.17h1.71V330ZM298.26 330v-32.79h1.72V330ZM300.41 330v-40.64h1.71V330ZM302.55 330v-58.82h1.72V330ZM304.7 330v-74.28h1.71V330ZM306.84 330v-71.59h1.71V330ZM308.98 330v-64.93h1.72V330ZM311.13 330v-61.96h1.71V330ZM313.27 330v-54.76h1.72V330ZM315.42 330v-69.52h1.71V330ZM317.56 330v-82.94h1.72V330ZM319.7 330v-78.86h1.72V330ZM321.85 330v-80.54h1.71V330ZM323.99 330v-75.85h1.72V330ZM326.14 330v-73.23h1.71V330ZM328.28 330v-67.72H330V330ZM330.43 330v-88.9h1.71V330ZM332.57 330V217.76h1.72V330ZM334.71 330V224.31h1.72V330ZM336.86 330v-98.45h1.71V330ZM339 330v-90.95h1.72V330ZM341.15 330v-85.98h1.71V330ZM343.29 330v-67.87h1.72V330ZM345.44 330v-82.67h1.71V330ZM347.58 330V228.55h1.72V330ZM349.72 330v-90.57h1.72V330ZM351.87 330v-83.76h1.71V330ZM354.01 330v-78.01h1.72V330ZM356.16 330v-75.73h1.71V330ZM358.3 330v-61.94h1.72V330ZM360.45 330v-74.88h1.71V330ZM362.59 330v-95.89h1.71V330ZM364.73 330v-79.08h1.72V330ZM366.88 330v-72.64h1.71V330ZM369.02 330v-62.69h1.72V330ZM371.17 330v-59.43h1.71V330ZM373.31 330v-46.7h1.72V330ZM375.45 330v-51.69h1.72V330ZM377.6 330v-63.41h1.71V330ZM379.74 330v-53.43h1.72V330ZM381.89 330v-50.79h1.71V330ZM384.03 330v-45.14h1.72V330ZM386.18 330v-40.4h1.71V330ZM388.32 330v-33.29h1.72V330ZM390.46 330v-39.48h1.72V330ZM392.61 330v-47.77h1.71V330ZM394.75 330v-42.2h1.72V330ZM396.9 330v-37.14h1.71V330ZM399.04 330v-33.65h1.72V330ZM401.19 330v-28.47h1.71V330ZM403.33 330v-24.48h1.72V330ZM405.47 330v-30.07h1.72V330ZM407.62 330v-40.02h1.71V330ZM409.76 330v-34.84h1.72V330ZM411.91 330v-32.86h1.71V330ZM414.05 330v-28.94h1.72V330ZM416.2 330v-26.41h1.71V330ZM418.34 330v-22.41h1.71V330ZM420.48 330v-27.31h1.72V330ZM422.63 330v-36.05h1.71V330ZM424.77 330v-32.59h1.72V330ZM426.92 330v-30.27h1.71V330ZM429.06 330v-27.87h1.72V330ZM431.2 330v-25.8h1.72V330ZM433.35 330v-22.76h1.71V330ZM435.49 330v-26.94h1.72V330ZM437.64 330v-36.61h1.71V330ZM439.78 330v-35.61h1.72V330ZM441.93 330v-33.43h1.71V330ZM444.07 330v-31h1.72v31ZM446.21 330v-27.22h1.72V330ZM448.36 330v-23.76h1.71V330ZM450.5 330v-32.52h1.72V330ZM452.65 330v-43.7h1.71V330ZM454.79 330v-40.97h1.72V330ZM456.94 330v-37.22h1.71V330ZM459.08 330v-33.15h1.72V330ZM461.22 330v-33.76h1.72V330ZM463.37 330v-25.6h1.71V330ZM465.51 330v-35.17h1.72V330ZM467.66 330v-50.06h1.71V330ZM469.8 330v-49.14h1.72V330ZM471.95 330v-47.85h1.71V330ZM474.09 330v-42.21h1.71V330ZM476.23 330v-39.43h1.72V330ZM478.38 330v-33.87h1.71V330ZM480.52 330v-43.58h1.72V330ZM482.67 330v-65.52h1.71V330ZM484.81 330v-66.88h1.72V330ZM486.95 330v-61.5h1.72V330ZM489.1 330v-57.21h1.71V330ZM491.24 330v-56.89h1.72V330ZM493.39 330v-43.98h1.71V330ZM495.53 330v-53.61h1.72V330ZM497.68 330v-84.59h1.71V330ZM499.82 330v-80.34h1.72V330ZM501.96 330v-72.39h1.72V330ZM504.11 330v-64.29h1.71V330ZM506.25 330v-53.86h1.72V330ZM508.4 330v-38.97h1.71V330ZM510.54 330v-34.89h1.72V330ZM512.69 330v-46.29h1.71V330ZM514.83 330v-61.63h1.72V330ZM516.97 330v-78.45h1.72V330ZM519.12 330v-71.63h1.71V330ZM521.26 330v-56.92h1.72V330ZM523.41 330v-40.09h1.71V330ZM525.55 330v-34.38h1.72V330ZM527.7 330v-47.77h1.71V330ZM529.84 330v-59.19h1.71V330ZM531.98 330v-51.65h1.72V330ZM534.13 330v-42.8h1.71V330ZM536.27 330v-35.04h1.72V330ZM538.42 330v-24.77h1.71V330ZM540.56 330v-25.52h1.72V330ZM542.7 330v-32.61h1.72V330ZM544.85 330v-28.78h1.71V330ZM546.99 330v-24.44h1.72V330ZM549.14 330v-22.48h1.71V330ZM551.28 330v-19.43H553V330ZM553.43 330v-13.49h1.71V330ZM555.57 330v-17.19h1.72V330ZM557.71 330v-23.72h1.72V330ZM559.86 330v-20.39h1.71V330ZM562 330v-19.51h1.72V330ZM564.15 330v-18.62h1.71V330ZM566.29 330v-17.52h1.72V330ZM568.44 330v-14.41h1.71V330ZM570.58 330v-17.98h1.72V330ZM572.72 330v-24.5h1.72V330ZM574.87 330v-26.16h1.71V330ZM577.01 330v-24.68h1.72V330ZM579.16 330v-23.76h1.71V330ZM581.3 330v-23.34h1.72V330ZM583.45 330v-18.47h1.71V330ZM585.59 330v-23.18h1.71V330ZM587.73 330v-33.68h1.72V330ZM589.88 330v-33.72h1.71V330ZM592.02 330v-32.97h1.72V330ZM594.17 330v-30.39h1.71V330ZM596.31 330v-28.21h1.72V330ZM598.45 330v-22.86h1.72V330ZM600.6 330v-26.87h1.71V330ZM602.74 330v-37.23h1.72V330ZM604.89 330v-34.78h1.71V330ZM607.03 330v-34.03h1.72V330ZM609.18 330v-31.01h1.71V330ZM611.32 330v-31.05h1.72V330ZM613.46 330v-24.48h1.72V330ZM615.61 330v-29.99h1.71V330ZM617.75 330v-46.63h1.72V330ZM619.9 330v-44.49h1.71V330ZM622.04 330v-39.93h1.72V330ZM624.19 330v-41h1.71v41ZM626.33 330v-38.55h1.72V330ZM628.47 330v-29.71h1.72V330ZM630.62 330v-35.18h1.71V330ZM632.76 330v-46.48h1.72V330ZM634.91 330v-44.04h1.71V330ZM637.05 330v-39.3h1.72V330ZM639.2 330v-35.51h1.71V330ZM641.34 330v-31.67h1.71V330ZM643.48 330v-25.64h1.72V330ZM645.63 330v-29.47h1.71V330ZM647.77 330v-43.9h1.72V330ZM649.92 330v-42.17h1.71V330ZM652.06 330v-40.21h1.72V330ZM654.2 330v-35.86h1.72V330ZM656.35 330v-33.88h1.71V330ZM658.49 330v-25.2h1.72V330ZM660.64 330v-31h1.71v31ZM662.78 330v-42.64h1.72V330ZM664.93 330v-37.36h1.71V330ZM667.07 330v-24.39h1.72V330Z" class="point" style="vector-effect:none;opacity:1;stroke-width:.5px;fill:#5694ca;fill-opacity:1;stroke:#e5ecf6;stroke-opacity:1"/></g></g></g></g><g class="xaxislayer-above"><path d="M0 331v5" class="xtick ticks crisp" style="stroke:#444;stroke-opacity:1;stroke-width:1px" transform="translate(25.07)"/><path d="M0 331v5" class="xtick ticks crisp" style="stroke:#444;stroke-opacity:1;stroke-width:1px" transform="translate(155.87)"/><path d="M0 331v5" class="xtick ticks crisp" style="stroke:#444;stroke-opacity:1;stroke-width:1px" transform="translate(288.81)"/><path d="M0 331v5" class="xtick ticks crisp" style="stroke:#444;stroke-opacity:1;stroke-width:1px" transform="translate(419.61)"/><path d="M0 331v5" class="xtick ticks crisp" style="stroke:#444;stroke-opacity:1;stroke-width:1px" transform="translate(550.41)"/><path d="M0 331v5" class="xtick ticks crisp" style="stroke:#444;stroke-opacity:1;stroke-width:1px" transform="translate(676.92)"/><text y="348" class="xtick" style="font-family:&quot;GDS Transport&quot;,Arial,sans-serif;font-size:10px;fill:#6b7276;fill-opacity:1;white-space:pre;opacity:1" text-anchor="middle" transform="translate(25.07)">May 2022</text><text y="348" class="xtick" style="font-family:&quot;GDS Transport&quot;,Arial,sans-serif;font-size:10px;fill:#6b7276;fill-opacity:1;white-space:pre;opacity:1" text-anchor="middle" transform="translate(155.87)">Jul 2022</text><text y="348" class="xtick" style="font-family:&quot;GDS Transport&quot;,Arial,sans-serif;font-size:10px;fill:#6b7276;fill-opacity:1;white-space:pre;opacity:1" text-anchor="middle" transform="translate(288.81)">Sep 2022</text><text y="348" class="xtick" style="font-family:&quot;GDS Transport&quot;,Arial,sans-serif;font-size:10px;fill:#6b7276;fill-opacity:1;white-space:pre;opacity:1" text-anchor="middle" transform="translate(419.61)">Nov 2022</text><text y="348" class="xtick" style="font-family:&quot;GDS Transport&quot;,Arial,sans-serif;font-size:10px;fill:#6b7276;fill-opacity:1;white-space:pre;opacity:1" text-anchor="middle" transform="translate(550.41)">Jan 2023</text></g><g class="yaxislayer-above"><text x="23" y="3.5" class="ytick" style="font-family:&quot;GDS Transport&quot;,Arial,sans-serif;font-size:10px;fill:#6b7276;fill-opacity:1;white-space:pre;opacity:1" text-anchor="end" transform="translate(0 330)">0</text><text x="23" y="3.5" class="ytick" style="font-family:&quot;GDS Transport&quot;,Arial,sans-serif;font-size:10px;fill:#6b7276;fill-opacity:1;white-space:pre;opacity:1" text-anchor="end" transform="translate(0 278.42)">5k</text><text x="23" y="3.5" class="ytick" style="font-family:&quot;GDS Transport&quot;,Arial,sans-serif;font-size:10px;fill:#6b7276;fill-opacity:1;white-space:pre;opacity:1" text-anchor="end" transform="translate(0 226.83)">10k</text><text x="23" y="3.5" class="ytick" style="font-family:&quot;GDS Transport&quot;,Arial,sans-serif;font-size:10px;fill:#6b7276;fill-opacity:1;white-space:pre;opacity:1" text-anchor="end" transform="translate(0 175.25)">15k</text><text x="23" y="3.5" class="ytick" style="font-family:&quot;GDS Transport&quot;,Arial,sans-serif;font-size:10px;fill:#6b7276;fill-opacity:1;white-space:pre;opacity:1" text-anchor="end" transform="translate(0 123.66)">20k</text><text x="23" y="3.5" class="ytick" style="font-family:&quot;GDS Transport&quot;,Arial,sans-serif;font-size:10px;fill:#6b7276;fill-opacity:1;white-space:pre;opacity:1" text-anchor="end" transform="translate(0 72.08)">25k</text><text x="23" y="3.5" class="ytick" style="font-family:&quot;GDS Transport&quot;,Arial,sans-serif;font-size:10px;fill:#6b7276;fill-opacity:1;white-space:pre;opacity:1" text-anchor="end" transform="translate(0 20.49)">30k</text></g></g></g></svg>
