<svg class="main-svg" xmlns="http://www.w3.org/2000/svg" xmlns:xlink="http://www.w3.org/1999/xlink" width="700" height="350" style="" viewBox="0 0 700 350">
  <rect x="0" y="0" width="700" height="350" style="fill: rgb(0, 0, 0); fill-opacity: 0;"/>
  <defs id="defs-981e5c">
    <g class="clips">
      <clipPath id="clip981e5cxyplot" class="plotclip">
        <rect width="682" height="316"/>
      </clipPath>
      <clipPath class="axesclip" id="clip981e5cx">
        <rect x="18" y="0" width="682" height="350"/>
      </clipPath>
      <clipPath class="axesclip" id="clip981e5cy">
        <rect x="0" y="0" width="700" height="316"/>
      </clipPath>
      <clipPath class="axesclip" id="clip981e5cxy">
        <rect x="18" y="0" width="682" height="316"/>
      </clipPath>
    </g>
    <g class="gradients"/>
    <g class="patterns"/>
  </defs>
  <g class="bglayer">
    <rect class="bg" x="18" y="0" width="682" height="316" style="fill: rgb(0, 0, 0); fill-opacity: 0; stroke-width: 0;"/>
  </g>
  <g class="layer-below">
    <g class="imagelayer"/>
    <g class="shapelayer"/>
  </g>
  <g class="cartesianlayer">
    <g class="subplot xy">
      <g class="layer-subplot">
        <g class="shapelayer"/>
        <g class="imagelayer"/>
      </g>
      <g class="minor-gridlayer">
        <g class="x"/>
        <g class="y"/>
      </g>
      <g class="gridlayer">
        <g class="x"/>
        <g class="y"/>
      </g>
      <g class="zerolinelayer">
        <path class="yzl zl crisp" transform="translate(0,316)" d="M18,0h682" style="stroke: rgb(255, 255, 255); stroke-opacity: 1; stroke-width: 2px;"/>
      </g>
      <path class="xlines-below"/>
      <path class="ylines-below"/>
      <g class="overlines-below"/>
      <g class="xaxislayer-below"/>
      <g class="yaxislayer-below"/>
      <g class="overaxes-below"/>
      <g class="plot" transform="translate(18,0)" clip-path="url(#clip981e5cxyplot)">
        <g class="scatterlayer mlayer">
          <g class="trace scatter tracefe014e" style="stroke-miterlimit: 2; opacity: 1;">
            <g class="fills"/>
            <g class="errorbars"/>
            <g class="lines">
              <path class="js-line" d="M0,212.24Q2.18,222.68 3.63,226.62C4.71,229.56 6.23,234.17 7.26,234.02C8.95,233.77 9.6,219.09 10.88,212.27C12.03,206.17 13.19,195.05 14.51,195C15.64,194.95 16.64,204.1 18.14,207.25C19.2,209.48 20.72,210.23 21.77,212.52C23.34,215.94 23.72,223.21 25.39,226.32C26.42,228.24 27.9,228.78 29.02,230.37C30.35,232.26 31.64,237.24 32.65,237.05C34.61,236.68 35.01,217.72 36.28,208.69C37.44,200.42 37.79,185.58 39.9,184.95C40.9,184.65 42.33,187.6 43.53,188.98C44.75,190.39 46.04,191.61 47.16,193.32C48.5,195.38 49.7,197.77 50.79,200.63C52.2,204.34 53.22,209.38 54.41,213.9C55.64,218.6 56.92,228.34 58.04,228.3C59.38,228.25 60.62,215.79 61.67,207.31C63.25,194.49 64.04,174.23 65.3,158.68C66.47,144.33 66.66,117.75 68.93,117.32C69.93,117.13 71.5,121.5 72.55,124.52C74.12,129.05 74.65,137.63 76.18,142.32C77.24,145.57 78.76,146.96 79.81,150.27C81.38,155.22 82.38,169.58 83.44,169.53C84.95,169.46 85.82,142.91 87.06,130.07C88.24,117.82 88.88,94.37 90.69,94.17C91.71,94.06 92.82,104.8 94.32,105.07C95.38,105.26 96.9,100.36 97.95,100.57C99.52,100.89 100.17,109.61 101.57,113.13C102.66,115.86 104.13,117.29 105.2,120.13C106.68,124.07 107.82,134.96 108.83,134.87C110.78,134.7 111.28,97.56 112.46,78.22C113.7,57.92 114.2,15.94 116.09,15.8C117.1,15.73 118.53,27.33 119.71,33.32C120.95,39.6 122.14,46.16 123.34,52.67C124.56,59.29 125.62,66.75 126.97,72.73C128.08,77.64 129.59,80.15 130.6,86.03C132.5,97.07 132.94,134.45 134.22,134.46C135.37,134.47 136.7,108.87 137.85,94.89C139.14,79.15 140.06,44.7 141.48,44.66C142.57,44.63 143.73,65.21 145.11,73.75C146.21,80.55 147.47,86.15 148.73,91.96C149.89,97.32 150.79,103.48 152.36,107.36C153.41,109.96 154.99,110.41 155.99,113.46C158.28,120.43 158.39,150.32 159.62,150.32C160.81,150.32 162.15,128.66 163.24,115.72C164.63,99.26 165.59,59.55 166.87,59.54C168.02,59.53 168.84,93.07 170.5,104.49C171.54,111.62 173.02,115.32 174.13,121.71C175.5,129.6 176.03,141.96 177.76,148.34C178.78,152.12 180.37,153.1 181.38,157.06C183.3,164.59 183.38,190.95 185.01,191.08C186.05,191.16 187.59,183.18 188.64,177.75C190.22,169.55 191.01,146.41 192.27,146.4C193.43,146.39 194.02,167.15 195.89,173.09C196.9,176.31 198.45,177.28 199.52,180.15C201.01,184.17 201.89,190.47 203.15,195.27C204.31,199.69 205.67,203.26 206.78,207.94C208.13,213.61 209.15,226.93 210.4,226.95C211.57,226.97 212.89,216.33 214.03,210.4C215.34,203.57 216.31,188.29 217.66,188.24C218.77,188.2 220.05,198.3 221.29,203.14C222.47,207.76 223.58,212.6 224.91,216.66C226.03,220.09 227.42,222.54 228.54,225.99C229.88,230.12 230.88,235.54 232.17,239.84C233.32,243.65 234.67,250.57 235.8,250.52C237.12,250.46 238.35,241.29 239.43,235.56C240.86,227.99 241.58,209.05 243.05,208.96C244.12,208.9 245.11,219.38 246.68,222.81C247.73,225.11 249.23,225.96 250.31,228.11C251.74,230.94 252.6,235.53 253.94,238.6C255.06,241.15 256.45,242.8 257.56,245.36C258.91,248.47 260.03,256.09 261.19,256.06C262.46,256.02 263.74,247.99 264.82,242.96C266.25,236.32 266.84,219.76 268.45,219.58C269.49,219.47 270.75,226.1 272.07,228.83C273.2,231.15 274.5,232.95 275.7,235.04C276.92,237.16 278.08,239.43 279.33,241.47C280.51,243.4 281.83,244.92 282.96,246.99C284.28,249.39 285.45,255.19 286.59,255.13C287.89,255.06 289.16,248.5 290.21,243.95C291.77,237.16 291.43,219.09 293.84,218.07C294.84,217.65 296.36,219.54 297.47,220.74C298.84,222.22 299.91,224.58 301.1,226.59C302.33,228.68 303.6,230.62 304.72,233.08C306.06,236.03 307.11,239.92 308.35,243.21C309.54,246.37 310.94,252.57 311.98,252.45C313.59,252.27 314.47,237.32 315.61,229.02C316.9,219.67 317.29,199.44 319.23,199.11C320.24,198.94 321.72,203.76 322.86,206.42C324.16,209.46 325.3,213.02 326.49,216.44C327.72,219.99 328.38,226.58 330.12,227.34C331.14,227.79 332.74,225.17 333.74,225.71C336.1,226.97 336.2,247.55 337.37,247.54C338.63,247.52 339.9,231.42 341,221.93C342.37,210.13 341.58,183.55 344.63,182.11C345.64,181.63 347.09,183.63 348.26,184.57C349.51,185.58 350.86,186.25 351.88,188.02C353.67,191.13 354.04,199.03 355.51,203.11C356.58,206.09 358.07,207.56 359.14,210.53C360.6,214.57 361.68,225.46 362.77,225.41C364.19,225.34 365.34,209.86 366.39,199.44C367.96,183.83 366.59,148.38 370.02,140.75C371.04,138.49 372.62,136.83 373.65,137.11C375.39,137.59 376,147 377.28,151.51C378.43,155.57 379.07,161.29 380.9,162.99C381.92,163.93 383.52,162.7 384.53,163.84C387.61,167.33 386.85,198.34 388.16,198.36C389.29,198.38 390.77,183.67 391.79,172.62C393.61,152.88 392.77,90.1 395.41,89.75C396.41,89.62 397.96,96.7 399.04,101.12C400.49,107.06 401.47,115.25 402.67,122.37C403.89,129.55 405.16,136.34 406.3,144.03C407.59,152.73 408.81,161.79 409.93,171.93C411.27,184.02 411.66,202.73 413.55,211.78C414.56,216.63 416.15,222.79 417.18,222.68C418.87,222.51 419.68,203.11 420.81,192.18C422.12,179.52 423.26,165.14 424.44,151.15C425.68,136.5 426.44,106.26 428.06,106.17C429.1,106.11 430.63,117.14 431.69,124.41C433.23,135 434.15,150.2 435.32,163.76C436.57,178.26 437.21,197.77 438.95,208.77C439.97,215.26 441.53,224.13 442.57,224.06C444.15,223.96 444.94,199.7 446.2,188.24C447.37,177.65 448.47,157.73 449.83,157.69C450.94,157.66 452.29,170.86 453.46,177.86C454.72,185.42 455.84,193.89 457.09,201.51C458.26,208.67 459.57,214.87 460.71,222.29C462.01,230.79 461.75,248.45 464.34,249.75C465.34,250.25 466.97,249.12 467.97,247.73C470.14,244.74 470.16,228.88 471.6,228.77C472.68,228.69 474.04,235.48 475.22,239.01C476.46,242.75 477.37,247.6 478.85,250.63C479.92,252.82 481.36,253.87 482.48,255.87C483.81,258.24 485.03,260.81 486.11,264.04C487.56,268.4 488.36,279.82 489.73,279.91C490.83,279.98 492.27,273.84 493.36,270.03C494.78,265.08 495.53,252.69 496.99,252.56C498.06,252.46 499.06,259.58 500.62,261.47C501.67,262.74 503.03,263.03 504.24,263.82C505.45,264.61 506.68,265.32 507.87,266.19C509.1,267.09 510.43,267.74 511.5,269.14C512.99,271.09 513.95,277.48 515.13,277.45C516.38,277.42 517.68,271.61 518.76,267.9C520.19,263 520.58,254.23 522.38,250.46C523.4,248.32 524.78,246.05 526.01,246.02C527.2,245.99 528.36,248.88 529.64,249.99C530.79,250.99 532.01,251.85 533.27,252.45C534.44,253.01 535.88,252.54 536.89,253.58C538.8,255.55 539.3,266.6 540.52,266.61C541.72,266.62 543.1,259.08 544.15,254C545.7,246.53 544.97,228.42 547.78,225.9C548.78,225 550.23,225.53 551.4,225.82C552.65,226.13 553.96,226.72 555.03,227.81C556.5,229.31 557.41,232.53 558.66,234.71C559.83,236.76 561.24,238.08 562.29,240.56C563.83,244.19 564.61,254.8 565.91,254.85C567.05,254.89 568.5,248.61 569.54,244.14C571.17,237.12 571.22,216.78 573.17,216.41C574.18,216.22 575.35,221.53 576.8,222.98C577.88,224.06 579.38,223.84 580.43,224.99C581.97,226.66 582.43,232.04 584.05,233.05C585.09,233.7 586.68,232.15 587.68,232.94C589.91,234.7 590.04,250.5 591.31,250.52C592.47,250.54 593.92,242.07 594.94,235.78C596.7,224.99 595.99,191.9 598.56,191.27C599.56,191.02 601.12,194.65 602.19,197.01C603.66,200.24 604.11,208.67 605.82,209.21C606.85,209.54 608.35,206.12 609.45,206.34C610.84,206.62 612.05,209.9 613.07,212.88C614.89,218.21 615.31,236.47 616.7,236.53C617.8,236.58 619.27,227.69 620.33,221.9C621.84,213.67 621.92,192.09 623.96,191.69C624.97,191.49 626.51,195.6 627.59,198.2C629.03,201.66 629.93,206.92 631.21,210.89C632.36,214.48 633.63,217.63 634.84,221.02C636.05,224.43 637.36,227.44 638.47,231.29C639.84,236.03 640.74,247.35 642.1,247.43C643.21,247.5 644.71,241.78 645.72,237.19C647.63,228.52 646.78,199.35 649.35,198.59C650.35,198.3 651.79,201.61 652.98,203.22Q654.22,204.9 656.61,208.46" style="vector-effect: none; fill: none; stroke: rgb(56, 63, 67); stroke-opacity: 1; stroke-width: 2px; opacity: 1;"/>
            </g>
            <g class="points"/>
            <g class="text"/>
          </g>
          <g class="trace scatter trace7412b1" style="stroke-miterlimit: 2;">
            <g class="fills">
              <g>
                <path class="js-fill" d="M682,316L656.61,316L656.61,208.46Q658.76,217.04 660.23,220.08C661.3,222.29 662.85,222.83 663.86,225.38C665.79,230.25 666.14,248.54 667.49,248.59C668.6,248.63 670.06,239.18 671.12,233.08C672.61,224.53 673.2,202.05 674.74,201.95C675.79,201.88 677.33,210.28 678.37,216.08Q679.98,225.04 682,250.77" style="fill: rgb(204, 226, 216); fill-opacity: 1; stroke-width: 0;"/>
              </g>
            </g>
            <g class="errorbars"/>
            <g class="lines">
              <path class="js-line" d="M656.61,208.46Q658.76,217.04 660.23,220.08C661.3,222.29 662.85,222.83 663.86,225.38C665.79,230.25 666.14,248.54 667.49,248.59C668.6,248.63 670.06,239.18 671.12,233.08C672.61,224.53 673.2,202.05 674.74,201.95C675.79,201.88 677.33,210.28 678.37,216.08Q679.98,225.04 682,250.77" style="vector-effect: none; fill: none; stroke: rgb(0, 90, 48); stroke-opacity: 1; stroke-width: 2px; opacity: 1;"/>
            </g>
            <g class="points"/>
            <g class="text"/>
          </g>
        </g>
      </g>
      <g class="overplot"/>
      <path class="xlines-above crisp" d="" style="fill: none; stroke-width: 1px; stroke: rgb(0, 0, 0); stroke-opacity: 0;"/>
      <path class="ylines-above crisp" d="M0,0" style="fill: none;"/>
      <g class="overlines-above"/>
      <g class="xaxislayer-above">
        <path class="xtick ticks crisp" d="M0,317v5" transform="translate(18,0)" style="stroke: rgb(68, 68, 68); stroke-opacity: 1; stroke-width: 1px;"/>
        <path class="xtick ticks crisp" d="M0,317v5" transform="translate(126.83,0)" style="stroke: rgb(68, 68, 68); stroke-opacity: 1; stroke-width: 1px;"/>
        <path class="xtick ticks crisp" d="M0,317v5" transform="translate(239.29,0)" style="stroke: rgb(68, 68, 68); stroke-opacity: 1; stroke-width: 1px;"/>
        <path class="xtick ticks crisp" d="M0,317v5" transform="translate(348.12,0)" style="stroke: rgb(68, 68, 68); stroke-opacity: 1; stroke-width: 1px;"/>
        <path class="xtick ticks crisp" d="M0,317v5" transform="translate(460.57,0)" style="stroke: rgb(68, 68, 68); stroke-opacity: 1; stroke-width: 1px;"/>
        <path class="xtick ticks crisp" d="M0,317v5" transform="translate(573.03,0)" style="stroke: rgb(68, 68, 68); stroke-opacity: 1; stroke-width: 1px;"/>
        <path class="xtick ticks crisp" d="M0,317v5" transform="translate(674.61,0)" style="stroke: rgb(68, 68, 68); stroke-opacity: 1; stroke-width: 1px;"/>
        <g class="xtick">
          <text text-anchor="middle" x="0" y="346" transform="translate(18,0)" style="font-family: 'GDS Transport', Arial, sans-serif; font-size: 20px; fill: rgb(107, 114, 118); fill-opacity: 1; white-space: pre; opacity: 1;">Sep</text>
        </g>
        <g class="xtick">
          <text text-anchor="middle" x="0" y="346" style="font-family: 'GDS Transport', Arial, sans-serif; font-size: 20px; fill: rgb(107, 114, 118); fill-opacity: 1; white-space: pre; opacity: 1;" transform="translate(126.83,0)">Oct</text>
        </g>
        <g class="xtick">
          <text text-anchor="middle" x="0" y="346" style="font-family: 'GDS Transport', Arial, sans-serif; font-size: 20px; fill: rgb(107, 114, 118); fill-opacity: 1; white-space: pre; opacity: 1;" transform="translate(239.29,0)">Nov</text>
        </g>
        <g class="xtick">
          <text text-anchor="middle" x="0" y="346" style="font-family: 'GDS Transport', Arial, sans-serif; font-size: 20px; fill: rgb(107, 114, 118); fill-opacity: 1; white-space: pre; opacity: 1;" transform="translate(348.12,0)">Dec</text>
        </g>
        <g class="xtick">
          <text text-anchor="middle" x="0" y="346" style="font-family: 'GDS Transport', Arial, sans-serif; font-size: 20px; fill: rgb(107, 114, 118); fill-opacity: 1; white-space: pre; opacity: 1;" transform="translate(460.57,0)">Jan</text>
        </g>
        <g class="xtick">
          <text text-anchor="middle" x="0" y="346" style="font-family: 'GDS Transport', Arial, sans-serif; font-size: 20px; fill: rgb(107, 114, 118); fill-opacity: 1; white-space: pre; opacity: 1;" transform="translate(573.03,0)">Feb</text>
        </g>
        <g class="xtick">
          <text text-anchor="middle" x="0" y="346" style="font-family: 'GDS Transport', Arial, sans-serif; font-size: 20px; fill: rgb(107, 114, 118); fill-opacity: 1; white-space: pre; opacity: 1;" transform="translate(674.61,0)">Mar</text>
        </g>
      </g>
      <g class="yaxislayer-above"/>
      <g class="overaxes-above"/>
    </g>
  </g>
  <g class="polarlayer"/>
  <g class="smithlayer"/>
  <g class="ternarylayer"/>
  <g class="geolayer"/>
  <g class="funnelarealayer"/>
  <g class="pielayer"/>
  <g class="iciclelayer"/>
  <g class="treemaplayer"/>
  <g class="sunburstlayer"/>
  <g class="glimages"/>
  <defs id="topdefs-981e5c">
    <g class="clips"/>
  </defs>
  <g class="layer-above">
    <g class="imagelayer"/>
    <g class="shapelayer"/>
  </g>
  <g class="infolayer">
    <g class="g-gtitle"/>
    <g class="g-xtitle"/>
    <g class="g-ytitle"/>
  </g>
</svg>