<svg xmlns="http://www.w3.org/2000/svg" width="435" height="220" class="main-svg"><path fill="none" d="M0 0h435v220H0z" style="fill:#000;fill-opacity:0"/><defs><clipPath id="a" class="plotclip"><path d="M0 0h387v168H0z"/></clipPath></defs><g class="bglayer"><path fill="none" d="M5 0h387v168H5z" class="bg" style="fill:#000;fill-opacity:0;stroke-width:0"/></g><g class="cartesianlayer"><g class="subplot xy"><g class="zerolinelayer"><path d="M5 0h387" class="yzl zl crisp" style="stroke:#fff;stroke-opacity:1;stroke-width:2px" transform="translate(0 166.4)"/></g><g class="plot" clip-path="url(#a)" transform="translate(5)"><g class="scatterlayer mlayer"><g class="trace scatter tracee99272" style="stroke-miterlimit:2;opacity:1"><g class="lines"><path d="M0 126.27q.62-10.42 1.24-13.65c.35-1.83.87-4.25 1.25-4.23.48.03.81 4.85 1.24 7.14.4 2.14.82 4.18 1.25 6.19.41 1.91.83 3.69 1.24 5.59.42 1.97.85 6.04 1.25 6.04.43-.01.82-4.58 1.24-6.8.41-2.14.76-6.28 1.24-6.31.38-.02.85 2.44 1.25 3.76.44 1.46.82 3.09 1.24 4.63.41 1.54.79 3.26 1.25 4.62.38 1.13.84 1.98 1.24 3.02.43 1.1.89 3.45 1.25 3.41.55-.06.79-5.74 1.24-8.27.39-2.17.83-6.01 1.25-6.01.41 0 .71 4.06 1.24 5.47.36.96.85 1.46 1.24 2.3.45.96.85 2.04 1.25 3.15.43 1.21.83 2.52 1.24 3.83.42 1.36.85 4.2 1.25 4.19.43-.01.84-3.07 1.24-4.72.44-1.81.77-5.68 1.25-5.71.38-.03.78 2.43 1.24 3.41.38.8.82 1.41 1.24 2.09.41.66.83 1.31 1.25 1.93.41.59.83 1.12 1.24 1.69.42.58.86 1.82 1.25 1.78.46-.04.88-1.64 1.24-2.78.53-1.68.55-6.2 1.25-6.45.34-.13.8.83 1.24 1.01.39.16.9-.16 1.25.11.59.45.8 3.26 1.24 3.28.39.02.85-1.65 1.24-2.6.45-1.1.9-2.07 1.25-3.62.59-2.61.78-7.51 1.24-10.78.38-2.74.58-7.38 1.25-7.54.35-.08.85 1.68 1.24 1.65.45-.04.81-2.42 1.25-2.44.4-.02.84 1.22 1.24 1.89.43.71.86 1.4 1.24 2.26.46 1.04.9 3.61 1.25 3.57.62-.07.82-7.81 1.24-11.7.41-3.89.42-11.4 1.25-11.64.34-.1.82 1.04 1.24 1.54.41.49.87.85 1.25 1.42.46.68.78 1.77 1.24 2.46.38.57.78 1.21 1.25 1.43.38.18.89.33 1.24.02 1.21-1.1.8-10.25 1.24-15.02.4-4.35.59-9.72 1.25-12.47.35-1.43.73-2.39 1.24-3.16.37-.55.9-1.32 1.25-1.22.63.19.83 3.69 1.24 5.54.42 1.86.84 3.69 1.25 5.58.42 1.95.89 5.99 1.24 5.97.61-.04.83-12.22 1.24-18.52.42-6.55-.16-18.87 1.25-20.06.35-.3.84-.01 1.24.13.43.15.85.5 1.25.8.43.32.86.62 1.24 1.09.47.59.9 1.27 1.25 2.3.61 1.78.89 7.72 1.24 7.7.67-.04.83-19.53 1.25-29.05.41-9.19.7-27.09 1.24-27.11.36-.01.76 8.36 1.24 11.8.38 2.69.88 4.36 1.25 7.15.51 3.88.78 9.77 1.24 14.01.38 3.55.87 6.17 1.25 9.75.47 4.39.85 14.66 1.24 14.66.45 0 .85-12.61 1.25-19.2.43-6.99.78-21.59 1.24-21.6.38-.01.82 9.82 1.24 14.68.41 4.78.82 9.7 1.25 14.24.4 4.16.84 7.8 1.24 11.95.43 4.51.84 9.31 1.25 14.11.42 5.01.78 15.36 1.24 15.37.38.01.77-7.5 1.25-10.57.37-2.39.87-6.34 1.24-6.33.48.02.48 8.69 1.25 10.68.34.89.9.87 1.24 1.73.71 1.79.82 6.1 1.24 9.06.41 2.85.86 5.36 1.25 8.4.46 3.59.75 11.77 1.24 11.79.37.01.86-4.38 1.25-6.8.45-2.77.81-8.9 1.24-8.91.4-.01.8 5.23 1.25 7.53.39 1.97.83 3.6 1.24 5.44.42 1.88.78 3.99 1.24 5.7.39 1.44.86 2.53 1.25 3.93.44 1.57.83 5.05 1.24 5.05.42 0 .84-3.64 1.25-5.51.42-1.94.75-5.9 1.24-5.94.37-.03.85 2.2 1.25 3.37.43 1.24.84 2.51 1.24 3.87.43 1.48.8 3.24 1.25 4.67.39 1.25.86 2.17 1.24 3.45.46 1.55.83 5.24 1.24 5.24.42 0 .86-3.51 1.25-5.43.44-2.16.75-6.88 1.24-6.91.37-.02.78 2.83 1.25 3.97.38.92.84 1.55 1.24 2.39.43.91.85 1.88 1.25 2.89.43 1.1.84 2.25 1.24 3.47.43 1.32.83 4.17 1.24 4.17.42 0 .84-2.78 1.25-4.18.42-1.41.82-4.26 1.24-4.26.41 0 .77 2.87 1.25 4 .38.89.84 1.5 1.24 2.3.43.85.84 1.74 1.25 2.65.42.95.81 2 1.24 2.92.4.86.86 2.49 1.25 2.46.46-.03.86-2.31 1.24-3.65.46-1.6.73-5.29 1.24-5.35.37-.04.74 2.01 1.25 2.6.37.42.88.39 1.24.84.55.7.74 2.52 1.25 3.37.37.61.85.87 1.24 1.4.44.6.81 1.99 1.25 2.03.39.03.89-.74 1.24-1.43.6-1.19.74-3.99 1.24-5.49.37-1.11.83-2.78 1.25-2.79.41-.01.75 1.94 1.24 2.59.37.5.88.62 1.25 1.12.49.67.76 1.98 1.24 2.71.38.57.89 1.47 1.25 1.39.54-.12.8-2.81 1.24-4.09.4-1.16.8-3.23 1.25-3.26.39-.02.76 1.73 1.24 2.31.37.45.87.53 1.24.99.5.62.74 2.03 1.25 2.6.36.41.84.46 1.24.77.44.35.9 1.35 1.25 1.25.62-.18.81-3.64 1.24-5.34.4-1.56.63-4.23 1.25-4.47.35-.14.83.5 1.24.76.42.26.85.47 1.24.81.44.38.87.82 1.25 1.38.47.68.83 1.65 1.24 2.5.42.88.86 2.74 1.25 2.72.46-.03.88-2.35 1.24-3.96.54-2.4.82-6.23 1.25-9.16.4-2.71.52-7.58 1.24-7.8.35-.1.88.76 1.25 1.36.51.83.74 2.49 1.24 3.35.37.64.88.85 1.24 1.5.51.91.88 3.66 1.25 3.63.51-.04.82-5.01 1.24-7.43.41-2.31.66-6.66 1.25-6.77.35-.06.76 1.96 1.24 2.06.38.08.88-.94 1.25-.85.49.12.78 1.71 1.24 2.36.38.53.87.76 1.24 1.32.48.73.9 2.83 1.25 2.78.65-.1.83-7.03 1.24-10.67.43-3.83.61-11.69 1.25-11.77.35-.04.83 2.18 1.24 3.31.42 1.18.84 2.41 1.25 3.64.42 1.25.78 2.66 1.24 3.78.38.94.9 1.37 1.25 2.51.63 2.06.8 9.11 1.24 9.12.39.01.85-4.81 1.24-7.45.44-2.96.76-9.45 1.25-9.47.37-.02.77 3.88 1.24 5.48.38 1.29.82 2.35 1.25 3.44.4 1.01.74 2.19 1.24 2.9.37.52.9.52 1.25 1.15.71 1.29.82 6.94 1.24 6.94.41 0 .86-4.08 1.24-6.52.48-3.09.81-10.57 1.25-10.58.39-.01.68 6.34 1.24 8.47.36 1.36.87 2.03 1.25 3.24.47 1.48.68 3.84 1.24 5.02.36.74.9.86 1.25 1.64.62 1.39.69 6.34 1.24 6.41.36.05.89-1.47 1.25-2.51.53-1.53.81-5.9 1.24-5.91.4-.01.65 3.94 1.24 5.03.35.65.88.76 1.25 1.33.49.74.81 1.95 1.24 2.85.4.84.86 1.5 1.25 2.39.46 1.06.81 3.57 1.24 3.58.4.01.86-1.99 1.25-3.12.45-1.28.78-4.14 1.24-4.17.38-.02.82 1.89 1.24 2.8.41.87.8 1.79 1.25 2.55.39.66.85 1.1 1.24 1.76.45.77.81 1.81 1.25 2.61.4.73.85 2.04 1.24 2.01.45-.03.88-1.73 1.25-2.82.48-1.41.74-4.96 1.24-5.01.37-.04.75 1.98 1.25 2.61.37.47.86.57 1.24 1 .46.52.79 1.41 1.24 1.98.39.49.86.77 1.25 1.27.45.57.84 2.04 1.24 2.02.43-.02.88-1.51 1.25-2.47.48-1.24.71-4.32 1.24-4.41.36-.06.81 1.24 1.25 1.75.39.45.83.77 1.24 1.17.42.4.82.83 1.24 1.21.41.37.85.64 1.25 1.04.44.44.85 1.56 1.24 1.53.44-.03.89-1.23 1.25-2.11.52-1.26.57-4.53 1.24-4.87.35-.18.85.26 1.25.5.44.27.83.72 1.24 1.1.42.39.86.75 1.25 1.23.45.54.82 1.28 1.24 1.9.41.6.88 1.81 1.24 1.75.53-.09.86-2.85 1.25-4.42.44-1.76.62-5.46 1.24-5.63.35-.09.85.86 1.25 1.37.44.56.83 1.24 1.24 1.89.42.67.75 1.84 1.25 2.05.37.15.89-.5 1.24-.3.64.36.84 4.12 1.24 4.11.43-.01.87-3.03 1.25-4.82.47-2.22.42-7.03 1.24-7.51.34-.2.84.29 1.25.47.42.19.88.26 1.24.65.54.57.77 2.09 1.25 2.84.37.58.87.82 1.24 1.4.48.74.87 2.83 1.25 2.8.48-.04.88-2.92 1.24-4.89.53-2.93.27-9.61 1.24-11.06.35-.52.89-.81 1.25-.69.53.17.8 1.88 1.24 2.72.4.77.74 1.82 1.25 2.16.36.24.9-.16 1.24.16.79.74.8 6.5 1.25 6.51.39.01.89-2.76 1.24-4.86.62-3.71.37-15.41 1.24-15.61.34-.08.88 1.29 1.25 2.14.49 1.11.83 2.67 1.24 4.01.42 1.35.86 2.63 1.25 4.08.44 1.63.86 3.34 1.24 5.25.46 2.27.63 5.83 1.25 7.51.35.95.88 2.12 1.24 2.06.56-.09.86-3.69 1.25-5.75.45-2.38.84-5.09 1.24-7.73.42-2.76.69-8.42 1.24-8.48.36-.04.89 2.06 1.25 3.44.52 1.98.84 4.85 1.24 7.41.43 2.73.67 6.43 1.25 8.49.35 1.24.88 2.92 1.24 2.88.53-.06.82-4.59 1.25-6.75.4-2 .78-5.74 1.24-5.76.38-.02.84 2.48 1.24 3.8.43 1.42.82 3.03 1.25 4.46.4 1.35.85 2.51 1.24 3.91.45 1.6.55 4.78 1.25 5.18.34.2.89-.04 1.24-.38.6-.58.77-3.51 1.25-3.57.37-.04.83 1.25 1.24 1.92.43.7.78 1.64 1.25 2.19.38.44.85.6 1.24.99.44.44.87.91 1.24 1.54.48.81.79 2.95 1.25 2.99.38.04.86-1.13 1.24-1.86.47-.92.77-3.22 1.25-3.29.37-.05.77 1.33 1.24 1.68.38.28.83.29 1.25.44.41.15.83.28 1.24.45.42.17.86.26 1.24.55.46.36.84 1.58 1.25 1.57.42-.01.86-1.08 1.24-1.8.48-.91.7-2.6 1.25-3.29.36-.45.82-.83 1.24-.84.41-.01.82.54 1.25.75.41.2.82.36 1.24.47.41.11.89-.06 1.25.21.53.39.82 2.45 1.24 2.45.41 0 .88-1.4 1.24-2.37.52-1.39.53-4.72 1.25-5.3.34-.27.83-.07 1.24-.01.42.06.86.13 1.25.37.45.28.82.89 1.24 1.3.41.39.88.61 1.25 1.11.49.67.8 2.66 1.24 2.69.39.02.88-1.15 1.24-2.02.54-1.3.64-5.05 1.25-5.22.35-.1.79.96 1.24 1.23.39.23.87.12 1.25.38.47.31.77 1.3 1.24 1.52.38.18.9-.26 1.25-.02.59.4.81 3.3 1.24 3.31.4.01.9-1.57 1.25-2.77.59-2.01.46-8.1 1.24-8.39.34-.13.86.61 1.24 1.08.48.59.74 2.13 1.25 2.3.37.13.85-.61 1.24-.54.45.08.9.63 1.25 1.23.58.98.77 4.42 1.24 4.46.38.03.88-1.65 1.25-2.76.51-1.54.6-5.5 1.24-5.69.35-.1.86.71 1.24 1.22.47.64.82 1.66 1.25 2.4.4.68.83 1.26 1.24 1.9.42.64.87 1.2 1.25 1.94.46.88.78 3 1.24 3.04.38.04.9-1.03 1.25-1.93.63-1.61.48-6.95 1.24-7.27.35-.14.84.56 1.25.87q.42.31 1.24.99" class="js-line" style="vector-effect:none;fill:none;stroke:#383f43;stroke-opacity:1;stroke-width:2px;opacity:1"/></g></g><g class="trace scatter trace4dabb5" style="stroke-miterlimit:2"><g class="fills"><path d="M387 166.4h-8.71v-20.26q.77 1.63 1.24 2.19c.38.44.9.47 1.25 1 .59.89.78 4.34 1.24 4.37.38.02.88-1.76 1.25-2.92.51-1.6.72-5.81 1.24-5.87.36-.04.89 1.55 1.25 2.66q.54 1.67 1.24 6.54" class="js-fill" style="fill:#cce2d8;fill-opacity:1;stroke-width:0"/></g><g class="lines"><path d="M378.29 146.14q.77 1.63 1.24 2.19c.38.44.9.47 1.25 1 .59.89.78 4.34 1.24 4.37.38.02.88-1.76 1.25-2.92.51-1.6.72-5.81 1.24-5.87.36-.04.89 1.55 1.25 2.66q.54 1.67 1.24 6.54" class="js-line" style="vector-effect:none;fill:none;stroke:#005a30;stroke-opacity:1;stroke-width:2px;opacity:1"/></g></g></g></g><g class="xaxislayer-above"><path d="M0 169v5" class="xtick ticks crisp" style="stroke:#444;stroke-opacity:1;stroke-width:1px" transform="translate(5)"/><path d="M0 169v5" class="xtick ticks crisp" style="stroke:#444;stroke-opacity:1;stroke-width:1px" transform="translate(43.58)"/><path d="M0 169v5" class="xtick ticks crisp" style="stroke:#444;stroke-opacity:1;stroke-width:1px" transform="translate(80.91)"/><path d="M0 169v5" class="xtick ticks crisp" style="stroke:#444;stroke-opacity:1;stroke-width:1px" transform="translate(119.48)"/><path d="M0 169v5" class="xtick ticks crisp" style="stroke:#444;stroke-opacity:1;stroke-width:1px" transform="translate(158.06)"/><path d="M0 169v5" class="xtick ticks crisp" style="stroke:#444;stroke-opacity:1;stroke-width:1px" transform="translate(195.39)"/><path d="M0 169v5" class="xtick ticks crisp" style="stroke:#444;stroke-opacity:1;stroke-width:1px" transform="translate(233.96)"/><path d="M0 169v5" class="xtick ticks crisp" style="stroke:#444;stroke-opacity:1;stroke-width:1px" transform="translate(271.3)"/><path d="M0 169v5" class="xtick ticks crisp" style="stroke:#444;stroke-opacity:1;stroke-width:1px" transform="translate(309.87)"/><path d="M0 169v5" class="xtick ticks crisp" style="stroke:#444;stroke-opacity:1;stroke-width:1px" transform="translate(348.45)"/><path d="M0 169v5" class="xtick ticks crisp" style="stroke:#444;stroke-opacity:1;stroke-width:1px" transform="translate(383.29)"/><text y="188.4" class="xtick" style="font-family:Arial;font-size:12px;fill:#6b7276;fill-opacity:1;white-space:pre;opacity:1" transform="rotate(30 2.5 191.73)">May 2022</text><text y="188.4" class="xtick" style="font-family:Arial;font-size:12px;fill:#6b7276;fill-opacity:1;white-space:pre;opacity:1" transform="rotate(30 21.79 263.721)">Jun 2022</text><text y="188.4" class="xtick" style="font-family:Arial;font-size:12px;fill:#6b7276;fill-opacity:1;white-space:pre;opacity:1" transform="rotate(30 40.455 333.38)">Jul 2022</text><text y="188.4" class="xtick" style="font-family:Arial;font-size:12px;fill:#6b7276;fill-opacity:1;white-space:pre;opacity:1" transform="rotate(30 59.74 405.353)">Aug 2022</text><text y="188.4" class="xtick" style="font-family:Arial;font-size:12px;fill:#6b7276;fill-opacity:1;white-space:pre;opacity:1" transform="rotate(30 79.03 477.344)">Sep 2022</text><text y="188.4" class="xtick" style="font-family:Arial;font-size:12px;fill:#6b7276;fill-opacity:1;white-space:pre;opacity:1" transform="rotate(30 97.695 547.003)">Oct 2022</text><text y="188.4" class="xtick" style="font-family:Arial;font-size:12px;fill:#6b7276;fill-opacity:1;white-space:pre;opacity:1" transform="rotate(30 116.98 618.975)">Nov 2022</text><text y="188.4" class="xtick" style="font-family:Arial;font-size:12px;fill:#6b7276;fill-opacity:1;white-space:pre;opacity:1" transform="rotate(30 135.65 688.653)">Dec 2022</text><text y="188.4" class="xtick" style="font-family:Arial;font-size:12px;fill:#6b7276;fill-opacity:1;white-space:pre;opacity:1" transform="rotate(30 154.935 760.625)">Jan 2023</text><text y="188.4" class="xtick" style="font-family:Arial;font-size:12px;fill:#6b7276;fill-opacity:1;white-space:pre;opacity:1" transform="rotate(30 174.225 832.617)">Feb 2023</text></g></g></g></svg>