<svg xmlns="http://www.w3.org/2000/svg" width="435" height="220" class="main-svg"><path fill="none" d="M0 0h435v220H0z" style="fill:#000;fill-opacity:0"/><defs><clipPath id="a" class="plotclip"><path d="M0 0h411v168H0z"/></clipPath></defs><g class="bglayer"><path fill="none" d="M0 0h411v168H0z" class="bg" style="fill:#000;fill-opacity:0;stroke-width:0"/></g><g class="cartesianlayer"><g class="subplot xy"><g class="zerolinelayer"><path d="M0 0h411" class="yzl zl crisp" style="stroke:#fff;stroke-opacity:1;stroke-width:2px" transform="translate(0 168)"/></g><g class="plot" clip-path="url(#a)"><g class="scatterlayer mlayer"><g class="trace scatter trace288d75" style="stroke-miterlimit:2;opacity:1"><g class="lines"><path d="M0 106.51q5.61-22.28 9.79-23.54c2.84-.86 6.73 3.72 9.78 6.54 3.54 3.28 6.84 12.85 9.79 12.43 3.78-.54 5.95-23.61 9.78-24.21 2.93-.46 6.25 8.74 9.79 11.78 3.05 2.62 6.52 3.93 9.78 5.89 3.26 1.96 6.82 3.01 9.79 5.88 3.72 3.59 6.48 14.98 9.79 15.05 3.21.07 5.95-12.08 9.78-13.74 2.93-1.27 6.58.47 9.79 1.31 3.32.87 6.56 2.42 9.78 3.92 3.31 1.54 6.87 2.41 9.79 5.24 3.87 3.76 6.22 16.59 9.78 17 3.04.35 6.75-10.81 9.79-10.46 3.56.41 5.74 14.47 9.79 17 2.87 1.79 6.74 1.74 9.78.66 3.56-1.27 6.85-5.16 9.79-9.16 3.81-5.18 7.03-11.18 9.78-20.28 4.91-16.27 4.76-55.39 9.79-71.29 2.74-8.66 5.68-17.3 9.78-18.97 2.85-1.16 6.81 4.16 9.79 3.27 3.69-1.1 6.67-12.63 9.79-12.43 3.43.22 6.86 9.81 9.78 16.35 3.84 8.59 5.16 25.2 9.79 31.4 2.77 3.71 6.52 4.36 9.78 6.54 3.26 2.18 6.77 7.09 9.79 6.54 3.61-.66 6.24-13.24 9.78-13.73 3.05-.43 6.37 5.84 9.79 7.84 3.13 1.83 6.72 1.9 9.79 3.93 3.52 2.33 6.43 6.81 9.78 9.81 3.19 2.86 6.6 4.99 9.79 7.85 3.35 3 6.37 7.01 9.78 9.81 3.14 2.58 6.75 3.66 9.79 6.54 3.58 3.39 5.98 11.02 9.78 13.08 2.94 1.6 6.55.12 9.79.66 3.29.54 6.9 3.78 9.79 2.61 3.96-1.61 6.9-9.63 9.78-16.35 3.99-9.32 5.61-26.54 9.79-35.32 2.84-5.96 6.24-13.25 9.78-13.74 3.05-.42 6.47 5.42 9.79 7.85q3.21 2.35 9.78 6.54" class="js-line" style="vector-effect:none;fill:none;stroke:#383f43;stroke-opacity:1;stroke-width:2px;opacity:1"/></g></g><g class="trace scatter tracecb0815" style="stroke-miterlimit:2"><g class="fills"><path d="M411 168h-9.79V66.61L411 90.82" class="js-fill" style="fill:#cce2d8;fill-opacity:1;stroke-width:0"/></g><g class="lines"><path d="M401.21 66.61 411 90.82" class="js-line" style="vector-effect:none;fill:none;stroke:#005a30;stroke-opacity:1;stroke-width:2px;opacity:1"/></g></g></g></g><g class="xaxislayer-above"><path d="M0 169v5" class="xtick ticks crisp" style="stroke:#444;stroke-opacity:1;stroke-width:1px" transform="translate(41.94)"/><path d="M0 169v5" class="xtick ticks crisp" style="stroke:#444;stroke-opacity:1;stroke-width:1px" transform="translate(83.88)"/><path d="M0 169v5" class="xtick ticks crisp" style="stroke:#444;stroke-opacity:1;stroke-width:1px" transform="translate(127.21)"/><path d="M0 169v5" class="xtick ticks crisp" style="stroke:#444;stroke-opacity:1;stroke-width:1px" transform="translate(170.55)"/><path d="M0 169v5" class="xtick ticks crisp" style="stroke:#444;stroke-opacity:1;stroke-width:1px" transform="translate(212.49)"/><path d="M0 169v5" class="xtick ticks crisp" style="stroke:#444;stroke-opacity:1;stroke-width:1px" transform="translate(255.83)"/><path d="M0 169v5" class="xtick ticks crisp" style="stroke:#444;stroke-opacity:1;stroke-width:1px" transform="translate(297.77)"/><path d="M0 169v5" class="xtick ticks crisp" style="stroke:#444;stroke-opacity:1;stroke-width:1px" transform="translate(341.1)"/><path d="M0 169v5" class="xtick ticks crisp" style="stroke:#444;stroke-opacity:1;stroke-width:1px" transform="translate(384.44)"/><text y="188.4" class="xtick" style="font-family:Arial;font-size:12px;fill:#6b7276;fill-opacity:1;white-space:pre;opacity:1" transform="rotate(30 20.97 260.661)">Jun 2022</text><text y="188.4" class="xtick" style="font-family:Arial;font-size:12px;fill:#6b7276;fill-opacity:1;white-space:pre;opacity:1" transform="rotate(30 41.94 338.922)">Jul 2022</text><text y="188.4" class="xtick" style="font-family:Arial;font-size:12px;fill:#6b7276;fill-opacity:1;white-space:pre;opacity:1" transform="rotate(30 63.605 419.777)">Aug 2022</text><text y="188.4" class="xtick" style="font-family:Arial;font-size:12px;fill:#6b7276;fill-opacity:1;white-space:pre;opacity:1" transform="rotate(30 85.275 500.65)">Sep 2022</text><text y="188.4" class="xtick" style="font-family:Arial;font-size:12px;fill:#6b7276;fill-opacity:1;white-space:pre;opacity:1" transform="rotate(30 106.245 578.912)">Oct 2022</text><text y="188.4" class="xtick" style="font-family:Arial;font-size:12px;fill:#6b7276;fill-opacity:1;white-space:pre;opacity:1" transform="rotate(30 127.915 659.785)">Nov 2022</text><text y="188.4" class="xtick" style="font-family:Arial;font-size:12px;fill:#6b7276;fill-opacity:1;white-space:pre;opacity:1" transform="rotate(30 148.885 738.046)">Dec 2022</text><text y="188.4" class="xtick" style="font-family:Arial;font-size:12px;fill:#6b7276;fill-opacity:1;white-space:pre;opacity:1" transform="rotate(30 170.55 818.901)">Jan 2023</text></g></g></g></svg>