<svg xmlns="http://www.w3.org/2000/svg" width="435" height="220" class="main-svg"><path fill="none" d="M0 0h435v220H0z" style="fill:#000;fill-opacity:0"/><defs><clipPath id="a" class="plotclip"><path d="M0 0h392v168H0z"/></clipPath></defs><g class="bglayer"><path fill="none" d="M5 0h392v168H5z" class="bg" style="fill:#000;fill-opacity:0;stroke-width:0"/></g><g class="cartesianlayer"><g class="subplot xy"><g class="zerolinelayer"><path d="M5 0h392" class="yzl zl crisp" style="stroke:#fff;stroke-opacity:1;stroke-width:2px" transform="translate(0 168)"/></g><g class="plot" clip-path="url(#a)" transform="translate(5)"><g class="scatterlayer mlayer"><g class="trace scatter trace822b3e" style="stroke-miterlimit:2;opacity:1"><g class="lines"><path d="M0 81.8q.83 6.74 1.38 9.39c.41 1.98.89 3.5 1.37 5.12.44 1.49.97 2.62 1.38 4.27.54 2.17.97 7.7 1.37 7.68.58-.03.7-16.16 1.38-16.22.39-.03.96 3.14 1.37 5.12.55 2.65.38 8.53 1.38 9.39.38.33.99.34 1.37 0 1.13-1.01.98-11.96 1.38-11.95.58.02.07 21.38 1.37 24.75.39 1 1 1.81 1.38 1.71.79-.22.93-9.39 1.38-9.39.47 0 .83 10.21 1.37 10.24.41.02.95-5.98 1.38-5.97.49.01.73 7.58 1.37 7.68.39.06 1-2.64 1.38-2.56.85.17.85 10.2 1.37 14.51.42 3.48.99 9.41 1.38 9.39.62-.03.86-23.89 1.37-23.9.42-.01.74 16.17 1.38 16.21.39.03.93-3.91 1.37-5.97.47-2.2.96-6.84 1.38-6.83.51.02.93 6.76 1.38 10.24.47 3.62.92 11.1 1.37 11.1.47 0 .34-11.45 1.38-11.95.38-.18.99.29 1.37.85.83 1.23.91 5.21 1.38 7.69.45 2.34.98 6.84 1.37 6.82.62-.04.02-15.82 1.38-17.07.38-.35.99-.35 1.37 0 1.32 1.22.88 16.21 1.38 16.22.43.01.92-11.95 1.37-11.95.47 0 .87 12.79 1.38 12.8.42.01.9-8.53 1.37-8.53.45 0 .96 7.69 1.38 7.68.52-.02.89-11.94 1.38-11.95.43-.01.79 9.34 1.37 9.39.4.03.99-4.31 1.38-4.27.62.06.91 11.1 1.37 11.1.46 0 .71-11.01 1.38-11.1.39-.05.96 3.45 1.37 3.42.53-.04.94-5.99 1.38-5.98.47.01.51 6.13 1.37 6.83.38.31 1 .33 1.38 0 1.04-.91.65-8.01 1.37-10.24.38-1.19.97-2.61 1.38-2.56.55.06.63 4.54 1.38 5.12.38.29.91 0 1.37 0 .46 0 1 .29 1.38 0 .75-.58.76-4.99 1.37-5.12.39-.08 1 1.82 1.38 1.7.98-.3.86-14.49 1.37-14.5.43-.01.87 7.18 1.38 10.24.42 2.51.98 6.84 1.37 6.82.62-.04.14-15.01 1.38-17.06.38-.63.99-1.04 1.37-.86.96.45.73 10.16 1.38 10.24.39.05 1-1.84 1.38-3.41.76-3.12.88-14.5 1.37-14.51.43-.01.87 11.09 1.38 11.1.42.01.83-5.52 1.37-7.69.41-1.64.99-4.3 1.38-4.26.66.07.94 12.81 1.37 12.8.5-.01.83-12.23 1.38-17.07.41-3.6.79-6.89 1.37-9.39.4-1.72.94-4.28 1.38-4.27.48.01.76 4.99 1.37 5.12.39.08.95-1.05 1.38-1.7.5-.75.83-2.41 1.38-2.56.41-.11.99 1.03 1.37.85 1-.48.95-7.09 1.38-11.09.5-4.7.78-15.34 1.37-15.37.4-.02.94 4.42 1.38 6.83.49 2.68.9 5.77 1.37 8.54.45 2.63.84 7.64 1.38 7.68.41.03.99-2.14 1.37-4.27 1.02-5.72.91-32.43 1.38-32.43.45 0 .98 29.03 1.37 29.02.63-.01.51-75.08 1.38-75.11.38-.01 1 8.05 1.38 14.51.76 12.89.53 45.98 1.37 58.04.38 5.49.89 11.93 1.38 11.94.43.01.85-6.61 1.37-9.38.42-2.23.98-6 1.38-5.98.57.03.48 11.69 1.37 11.95.38.11.97-1.01 1.38-1.71.53-.91.93-2.2 1.37-3.41.48-1.34.86-4.22 1.38-4.27.42-.04.99 1.16 1.37 2.56 1.26 4.61.76 31.56 1.38 31.58.39.01.57-12.64 1.37-12.8.38-.07.99 2.63 1.38 2.56.7-.12.92-6.26 1.38-9.39.46-3.13.98-9.41 1.37-9.39.62.03-.11 21.39 1.38 23.9.39.65.99.27 1.37.85.96 1.48.99 10.27 1.38 10.25.63-.03.62-26.4 1.37-26.46.38-.03.86 4.83 1.38 6.83.42 1.6.98 2.48 1.37 4.26.62 2.81.97 11.11 1.38 11.1.56-.02.6-16.69 1.37-21.34.38-2.32.99-5.15 1.38-5.12.63.05.81 9.9 1.38 13.66.4 2.68.58 6.48 1.37 6.82.38.17 1-1.02 1.38-.85.84.37.92 5.05 1.37 7.68.47 2.77.5 8.14 1.38 8.54.38.17.91-.58 1.37-.86.46-.29 1-.26 1.38-.85 1-1.56.93-11.1 1.37-11.1.48.01.75 13.61 1.38 13.66.39.03.95-3.23 1.37-5.12.51-2.29.99-7.7 1.38-7.68.63.03-.09 18.26 1.38 19.63.39.36.99-.31 1.37 0 .85.7.98 6.85 1.38 6.83.61-.03.33-13.63 1.37-16.22.38-.95 1-1.81 1.38-1.71.76.2.9 5.77 1.37 8.54.45 2.63.98 7.7 1.38 7.68.6-.03.92-17.92 1.37-17.92.46 0 .74 18.73 1.38 18.77.39.02.68-6.66 1.37-6.83.39-.09.97 1.01 1.38 1.71.54.91.94 2.2 1.38 3.41.48 1.33.89 2.93 1.37 4.27.44 1.21 1 3.48 1.38 3.42.82-.13.8-17.05 1.37-17.07.4-.02.89 5.85 1.38 8.53.44 2.41.68 6.66 1.37 6.83.39.09 1-1.82 1.38-1.71.86.25.92 11.1 1.37 11.1.47 0 .92-7.97 1.38-11.95.46-3.98.85-11.93 1.37-11.95.42-.01.65 7.49 1.38 7.68.39.1 1-1.81 1.38-1.71.76.2.61 8.34 1.37 8.54.38.1.88-1.63 1.38-1.71.43-.07.99 1.03 1.37.86.92-.42.59-7.57 1.38-9.39.38-.87.99-1.82 1.37-1.71.86.24.94 11.1 1.38 11.1.48 0 .45-12.54 1.37-12.81.38-.11.97 1.01 1.38 1.71.53.91.96 2.1 1.37 3.41.53 1.7.98 6.01 1.38 5.98.61-.04.76-10.75 1.37-14.51.4-2.44.73-5.82 1.38-5.97.39-.09.88 1.26 1.38 1.7.43.38.99.32 1.37.86.74 1.04.97 5.99 1.38 5.97.54-.03.72-10.16 1.37-10.24.39-.05 1 3.46 1.38 3.41.72-.1.84-9.08 1.37-12.8.41-2.89.87-5.39 1.38-7.68.42-1.89.93-5.13 1.37-5.12.48.01.94 5.98 1.38 5.97.47-.01.85-6.8 1.37-6.83.42-.02.8 4.16 1.38 4.27.4.07.99-1.79 1.38-1.71.61.13.99 5.17 1.37 5.13.71-.07.85-12.67 1.38-17.93.42-4.14.89-11.08 1.37-11.09.44-.01.68 9.27 1.38 9.39.38.07.99-2.63 1.37-2.56.7.12.75 9.31 1.38 9.38.39.05.95-2.14 1.37-3.41.51-1.52.98-5.15 1.38-5.12.58.04.37 9.53 1.37 11.09.38.6 1 1.05 1.38.86 1.18-.59.92-15.36 1.38-15.36.46 0 .86 15.35 1.37 15.36.42.01.94-10.25 1.38-10.24.49.01.82 12.77 1.37 12.8.41.02.59-6.49 1.38-6.83.38-.16.99.28 1.37.85.88 1.32.96 8.55 1.38 8.54.51-.01.95-12.81 1.37-12.8.51.01.6 18.68 1.38 18.77.38.05.95-2.66 1.37-4.26.52-2 .99-6.86 1.38-6.83.66.04.5 19.49 1.38 19.63.38.06.91-3.42 1.37-3.42.46 0 .96 3.45 1.38 3.42.51-.03.93-3.34 1.37-5.12.48-1.91.99-6.01 1.38-5.98.62.04.87 10.66 1.37 15.36.43 4 .95 11.11 1.38 11.1.49-.01.72-14.46 1.37-14.51.39-.03.92 3.41 1.38 5.12.46 1.71.94 3.28 1.37 5.12.49 2.11.96 6.85 1.38 6.83.53-.02.96-11.1 1.38-11.09.51.01.85 16.2 1.37 16.21.42.01.82-7.43 1.38-10.24.4-2.01.62-4.54 1.37-5.12.38-.29 1-.33 1.38 0 1.04.91.41 9.78 1.37 10.24.38.18 1-.32 1.38-.85.75-1.04.93-5.99 1.37-5.98.47.01.93 6.84 1.38 6.83.47-.01.9-7.67 1.37-7.68.45-.01.77 5.13 1.38 6.83.39 1.1.96 2.61 1.37 2.56.55-.06.94-5.13 1.38-5.12.48.01.64 4.93 1.38 5.97.38.53.99.32 1.37.85.74 1.04.97 6 1.38 5.98.54-.03.65-8.01 1.37-10.24.38-1.19.99-2.62 1.38-2.56.64.1.73 5.84 1.37 7.68.39 1.12 1 2.63 1.38 2.56.75-.14.86-11.09 1.37-11.1.42-.01.87 7.66 1.38 7.68.42.02.98-5.15 1.37-5.12.61.05.95 12.82 1.38 12.81.5-.01.73-12.86 1.38-17.07.39-2.52.93-5.99 1.37-5.98.47.01.91 6.82 1.38 6.83.44.01.84-5.93 1.37-5.97.41-.03.89 3.38 1.38 3.41.43.02.79-2.21 1.37-2.56.4-.24.94-.13 1.38 0 .48.14.99 1 1.37.85.7-.28.99-2.96 1.38-5.12.65-3.58.97-14.52 1.37-14.51.57.01.89 29.02 1.38 29.02.44 0 .31-19.25 1.38-23.04.38-1.34.98-1.41 1.37-2.56.67-1.98.93-5.62 1.38-8.54.47-3.05.37-8.53 1.37-9.39.38-.33 1-.32 1.38 0 .95.81.76 6.36 1.37 8.54.4 1.42 1 3.47 1.38 3.41.78-.12.9-10.39 1.37-15.36.45-4.69.91-13.66 1.38-13.66.44 0 .48 11.69 1.37 11.95.38.11.99-.86 1.38-1.7.73-1.59.8-7.63 1.38-7.69.4-.04.98 1.92 1.37 3.42.67 2.61.98 11.1 1.38 11.09.6-.02.36-21.08 1.37-25.6.38-1.71 1-3.47 1.38-3.41.94.15-.07 19.79 1.37 22.19.39.65 1 1.02 1.38.85.79-.34.88-4.72 1.37-6.83.43-1.84.83-5.06 1.38-5.12.41-.05.99 1.22 1.37 2.56 1.07 3.79.76 23.01 1.38 23.04.4.02.46-7.97 1.38-9.38.38-.58.99-.3 1.37-.86.83-1.23.99-7.7 1.38-7.68.65.04.69 16.22 1.37 21.34.39 2.92.99 6.86 1.38 6.83.7-.05.88-23.05 1.37-23.05.43 0 .44 17.73 1.38 17.93.38.08.91-1.71 1.37-2.57.46-.85.88-1.81 1.38-2.56.43-.65.99-1.81 1.37-1.7.95.28.27 11.87 1.38 13.65.38.61.94.48 1.37.86.5.44.97 1 1.38 1.7.54.91.84 2.51 1.38 3.42.41.7.87 1.61 1.37 1.7.43.07.98-.98 1.38-.85.6.2.98 3.45 1.37 3.41.61-.07.96-8.54 1.38-8.53.53.02.8 13.63 1.37 13.66.4.02.77-5.13 1.38-6.83.39-1.1.91-2.56 1.37-2.56.46 0 .83 2.42 1.38 2.56.41.11.99-1.03 1.37-.86.83.37.54 6.46 1.38 7.69.38.56.95.92 1.38.85.5-.09.99-.87 1.37-1.71.72-1.59.91-7.68 1.38-7.68q.45 0 1.37 6.83" class="js-line" style="vector-effect:none;fill:none;stroke:#383f43;stroke-opacity:1;stroke-width:2px;opacity:1"/></g></g><g class="trace scatter traced48dce" style="stroke-miterlimit:2"><g class="fills"><path d="M392 168h-9.63v-46.94q.98 5.99 1.38 5.97c.58-.04.93-12.8 1.37-12.8.48 0 .85 15.35 1.38 15.36.41.01.67-7.27 1.37-9.38.39-1.17 1-2.64 1.38-2.57.75.14.93 11.1 1.37 11.1q.48-.01 1.38-13.66" class="js-fill" style="fill:#cce2d8;fill-opacity:1;stroke-width:0"/></g><g class="lines"><path d="M382.37 121.06q.98 5.99 1.38 5.97c.58-.04.93-12.8 1.37-12.8.48 0 .85 15.35 1.38 15.36.41.01.67-7.27 1.37-9.38.39-1.17 1-2.64 1.38-2.57.75.14.93 11.1 1.37 11.1q.48-.01 1.38-13.66" class="js-line" style="vector-effect:none;fill:none;stroke:#005a30;stroke-opacity:1;stroke-width:2px;opacity:1"/></g></g></g></g><g class="xaxislayer-above"><path d="M0 169v5" class="xtick ticks crisp" style="stroke:#444;stroke-opacity:1;stroke-width:1px" transform="translate(5)"/><path d="M0 169v5" class="xtick ticks crisp" style="stroke:#444;stroke-opacity:1;stroke-width:1px" transform="translate(47.64)"/><path d="M0 169v5" class="xtick ticks crisp" style="stroke:#444;stroke-opacity:1;stroke-width:1px" transform="translate(88.9)"/><path d="M0 169v5" class="xtick ticks crisp" style="stroke:#444;stroke-opacity:1;stroke-width:1px" transform="translate(131.54)"/><path d="M0 169v5" class="xtick ticks crisp" style="stroke:#444;stroke-opacity:1;stroke-width:1px" transform="translate(174.18)"/><path d="M0 169v5" class="xtick ticks crisp" style="stroke:#444;stroke-opacity:1;stroke-width:1px" transform="translate(215.44)"/><path d="M0 169v5" class="xtick ticks crisp" style="stroke:#444;stroke-opacity:1;stroke-width:1px" transform="translate(258.08)"/><path d="M0 169v5" class="xtick ticks crisp" style="stroke:#444;stroke-opacity:1;stroke-width:1px" transform="translate(299.34)"/><path d="M0 169v5" class="xtick ticks crisp" style="stroke:#444;stroke-opacity:1;stroke-width:1px" transform="translate(341.98)"/><path d="M0 169v5" class="xtick ticks crisp" style="stroke:#444;stroke-opacity:1;stroke-width:1px" transform="translate(384.62)"/><text y="188.4" class="xtick" style="font-family:Arial;font-size:12px;fill:#6b7276;fill-opacity:1;white-space:pre;opacity:1" transform="rotate(30 2.5 191.73)">May 2022</text><text y="188.4" class="xtick" style="font-family:Arial;font-size:12px;fill:#6b7276;fill-opacity:1;white-space:pre;opacity:1" transform="rotate(30 23.82 271.297)">Jun 2022</text><text y="188.4" class="xtick" style="font-family:Arial;font-size:12px;fill:#6b7276;fill-opacity:1;white-space:pre;opacity:1" transform="rotate(30 44.45 348.29)">Jul 2022</text><text y="188.4" class="xtick" style="font-family:Arial;font-size:12px;fill:#6b7276;fill-opacity:1;white-space:pre;opacity:1" transform="rotate(30 65.77 427.857)">Aug 2022</text><text y="188.4" class="xtick" style="font-family:Arial;font-size:12px;fill:#6b7276;fill-opacity:1;white-space:pre;opacity:1" transform="rotate(30 87.09 507.424)">Sep 2022</text><text y="188.4" class="xtick" style="font-family:Arial;font-size:12px;fill:#6b7276;fill-opacity:1;white-space:pre;opacity:1" transform="rotate(30 107.72 584.417)">Oct 2022</text><text y="188.4" class="xtick" style="font-family:Arial;font-size:12px;fill:#6b7276;fill-opacity:1;white-space:pre;opacity:1" transform="rotate(30 129.04 663.984)">Nov 2022</text><text y="188.4" class="xtick" style="font-family:Arial;font-size:12px;fill:#6b7276;fill-opacity:1;white-space:pre;opacity:1" transform="rotate(30 149.67 740.976)">Dec 2022</text><text y="188.4" class="xtick" style="font-family:Arial;font-size:12px;fill:#6b7276;fill-opacity:1;white-space:pre;opacity:1" transform="rotate(30 170.99 820.543)">Jan 2023</text></g></g></g></svg>