<svg xmlns="http://www.w3.org/2000/svg" width="930" height="220" class="main-svg"><path fill="none" d="M0 0h930v220H0z" style="fill:#000;fill-opacity:0"/><defs><clipPath id="a" class="plotclip"><path d="M0 0h900v168H0z"/></clipPath></defs><g class="bglayer"><path fill="none" d="M30 29h900v168H30z" class="bg" style="fill:#000;fill-opacity:0;stroke-width:0"/></g><g class="cartesianlayer"><g class="subplot xy"><g class="plot" clip-path="url(#a)" transform="translate(30 29)"><g class="scatterlayer mlayer"><g class="trace scatter trace46c763" style="stroke-miterlimit:2;opacity:1"><g class="lines"><path d="M0 85.34q1.94 7.11 3.16 9.84c.95 2.12 2.07 3.68 3.16 5.37 1.02 1.58 2.19 2.69 3.15 4.47 1.2 2.23 2.23 8.15 3.16 8.06 1.31-.12 1.67-16.74 3.16-17 .9-.16 2.21 3.25 3.16 5.37 1.22 2.73 1.56 8.67 3.16 9.84.88.64 2.28.68 3.15 0 1.77-1.38 2.24-12.59 3.16-12.53 1.31.08.82 22.44 3.16 25.95.87 1.31 2.27 2.14 3.16 1.79 1.51-.59 2.12-9.85 3.15-9.84 1.07.01 1.95 10.62 3.16 10.73.96.09 2.16-6.31 3.16-6.26 1.11.05 1.83 7.72 3.16 8.05.92.23 2.28-2.98 3.16-2.68 1.7.59 1.97 10.72 3.15 15.21.96 3.66 2.25 9.92 3.16 9.84 1.41-.13 1.99-25.02 3.16-25.05.97-.03 1.74 16.8 3.16 17 .9.13 2.13-4.1 3.16-6.27 1.08-2.29 2.18-7.21 3.15-7.15 1.16.07 2.13 7.08 3.16 10.73 1.07 3.79 2.12 11.64 3.16 11.63 1.07-.01 1.42-11.51 3.16-12.52.88-.51 2.26.08 3.16.89 1.46 1.32 2.07 5.46 3.15 8.05 1.03 2.47 2.25 7.27 3.16 7.16 1.39-.17 1.07-16.13 3.16-17.89.87-.73 2.29-.73 3.16 0 2.04 1.7 2.01 16.96 3.15 17 .99.03 2.12-12.54 3.16-12.53 1.07.01 1.99 13.36 3.16 13.42.97.05 2.08-8.93 3.16-8.95 1.03-.02 2.19 8.12 3.16 8.06 1.18-.08 2.03-12.49 3.15-12.53 1-.03 1.88 9.64 3.16 9.84.93.14 2.24-4.63 3.16-4.47 1.36.24 2.11 11.63 3.16 11.63 1.05 0 1.73-11.3 3.16-11.63.9-.21 2.18 3.7 3.15 3.58 1.17-.15 2.13-6.29 3.16-6.26 1.08.03 1.74 6.22 3.16 7.15.9.59 2.28.66 3.16 0 1.66-1.24 1.69-8.46 3.16-10.73.9-1.38 2.19-2.85 3.15-2.69 1.18.2 1.86 4.63 3.16 5.37.93.53 2.11 0 3.16 0 1.05 0 2.23.53 3.16 0 1.3-.74 1.91-5.04 3.15-5.37.94-.25 2.28 2.19 3.16 1.79 1.81-.82 2.01-15.16 3.16-15.21.98-.04 1.99 7.56 3.16 10.74.97 2.66 2.25 7.27 3.16 7.16 1.39-.17 1.1-15.63 3.15-17.9.87-.96 2.28-1.38 3.16-.89 1.63.9 1.77 10.42 3.16 10.73.91.2 2.27-1.8 3.16-3.57 1.6-3.19 2.03-15.18 3.16-15.21.99-.03 2 11.57 3.15 11.63.98.05 1.96-5.83 3.16-8.06.96-1.78 2.26-4.65 3.16-4.47 1.43.28 2.17 13.45 3.16 13.42 1.14-.03 1.91-12.85 3.16-17.89.94-3.8 1.87-7.27 3.15-9.84.93-1.87 2.14-4.52 3.16-4.48 1.09.04 1.92 5.04 3.16 5.37.95.25 2.14-1.08 3.16-1.79 1.09-.76 2.03-2.44 3.15-2.68 1-.22 2.28 1.39 3.16.89 1.69-.96 2.18-7.42 3.16-11.63 1.15-4.91 1.83-15.95 3.16-16.1.92-.1 2.15 4.61 3.16 7.15 1.11 2.8 2.07 6.06 3.15 8.95 1.03 2.76 1.96 7.9 3.16 8.05.96.12 2.29-2.11 3.16-4.47 2.18-5.9 2.08-33.99 3.16-34 1.03-.01 2.26 30.45 3.16 30.42 1.44-.05 1.18-78.57 3.15-78.73.87-.07 2.28 8.41 3.16 15.21 1.74 13.48 1.26 48.24 3.16 60.84.87 5.8 2.04 12.48 3.16 12.52 1 .03 1.99-6.97 3.16-9.84.97-2.36 2.22-6.36 3.15-6.26 1.27.14 1.5 11.81 3.16 12.52.88.38 2.17-.99 3.16-1.79 1.14-.92 2.14-2.28 3.16-3.57 1.09-1.38 2.01-4.34 3.15-4.48.99-.13 2.28 1.01 3.16 2.69 2.48 4.76 1.75 33 3.16 33.1.91.06 1.55-12.89 3.16-13.42.88-.29 2.26 2.94 3.16 2.68 1.43-.41 2.1-6.56 3.15-9.84 1.05-3.28 2.25-9.92 3.16-9.84 1.41.13.73 22.23 3.16 25.05.87 1.02 2.28.02 3.16.9 1.63 1.62 2.26 10.81 3.16 10.73 1.43-.12 1.49-27.48 3.15-27.73.88-.13 2 5.09 3.16 7.15.98 1.72 2.24 2.53 3.16 4.48 1.36 2.88 2.23 11.69 3.16 11.63 1.28-.08 1.49-17.57 3.16-22.37.88-2.52 2.24-5.51 3.15-5.37 1.39.22 1.88 10.42 3.16 14.32.93 2.85 1.76 6.5 3.16 7.16.91.43 2.26-1.35 3.16-.9 1.46.72 2.12 5.29 3.15 8.05 1.08 2.9 1.64 8.16 3.16 8.95.89.46 2.11-.59 3.16-.89 1.05-.3 2.28-.01 3.16-.9 1.69-1.71 2.15-11.65 3.16-11.63 1.11.03 1.76 14.1 3.15 14.32.91.14 2.18-3.36 3.16-5.37 1.16-2.37 2.25-8.16 3.16-8.06 1.41.16.92 18.66 3.16 20.58.87.75 2.26-.59 3.16 0 1.42.93 2.24 7.27 3.15 7.16 1.36-.16 1.25-14.33 3.16-17 .87-1.23 2.26-2.13 3.16-1.79 1.45.54 2.08 6.05 3.16 8.95 1.03 2.76 2.25 8.15 3.16 8.05 1.36-.14 2.11-18.79 3.15-18.79 1.06 0 1.72 19.5 3.16 19.69.9.12 1.81-6.71 3.16-7.16.92-.3 2.17.99 3.16 1.79 1.13.92 2.13 2.29 3.15 3.58 1.09 1.38 2.07 3.09 3.16 4.47 1.02 1.29 2.28 3.83 3.16 3.58 1.72-.48 1.87-17.79 3.16-17.9.93-.08 2.05 6.15 3.16 8.95 1.01 2.54 1.81 6.71 3.15 7.16.92.3 2.28-2.16 3.16-1.79 1.61.67 2.12 11.64 3.16 11.63 1.07-.01 2.11-8.35 3.16-12.53 1.05-4.17 1.98-12.45 3.16-12.52.97-.06 1.75 7.55 3.15 8.05.91.32 2.26-2.13 3.16-1.79 1.45.54 1.71 8.41 3.16 8.95.9.34 2.08-1.66 3.16-1.79 1.03-.12 2.27 1.37 3.16.89 1.57-.85 1.64-7.99 3.15-9.84.89-1.1 2.28-2.16 3.16-1.79 1.61.67 2.14 11.65 3.16 11.63 1.09-.02 1.45-12.67 3.16-13.42.88-.38 2.16.99 3.15 1.79 1.13.92 2.19 2.15 3.16 3.58 1.18 1.74 2.25 6.38 3.16 6.26 1.36-.18 1.8-11.3 3.16-15.2.91-2.62 1.87-5.88 3.16-6.27.93-.28 2.07 1.34 3.15 1.79 1.03.43 2.24.14 3.16.9 1.34 1.11 2.2 6.35 3.16 6.26 1.21-.11 1.77-10.43 3.16-10.74.91-.2 2.27 3.8 3.16 3.58 1.52-.38 1.94-9.55 3.15-13.42.96-3.06 2.01-5.68 3.16-8.05.98-2.01 2.14-5.4 3.16-5.37 1.09.03 2.13 6.29 3.16 6.26 1.08-.03 2-7.03 3.16-7.15.97-.1 1.97 4.2 3.15 4.47.96.22 2.21-2.04 3.16-1.79 1.24.33 2.27 5.53 3.16 5.37 1.56-.29 1.96-13.3 3.16-18.79.96-4.37 2.05-11.6 3.15-11.63 1.01-.02 1.73 9.43 3.16 9.84.9.26 2.26-2.94 3.16-2.68 1.43.41 1.81 9.56 3.16 9.84.92.19 2.17-2.21 3.16-3.58 1.13-1.56 2.22-5.49 3.15-5.37 1.29.17 1.47 9.92 3.16 11.63.88.89 2.29 1.44 3.16.9 1.95-1.2 2.11-16.11 3.16-16.11 1.05 0 1.99 16.06 3.16 16.11.97.04 2.15-10.77 3.15-10.74 1.11.03 1.91 13.3 3.16 13.42.94.09 1.76-6.5 3.16-7.16.91-.43 2.27.06 3.16.9 1.52 1.43 2.19 9 3.16 8.95 1.17-.06 2.18-13.45 3.15-13.42 1.17.04 1.48 19.29 3.16 19.68.88.2 2.18-2.76 3.16-4.48 1.16-2.06 2.26-7.27 3.16-7.15 1.46.19 1.32 20.03 3.15 20.57.88.26 2.11-3.57 3.16-3.57 1.05 0 2.17 3.67 3.16 3.57 1.13-.11 2.14-3.49 3.16-5.36 1.09-1.99 2.25-6.4 3.16-6.27 1.39.19 2 11.2 3.15 16.11.98 4.21 2.17 11.66 3.16 11.63 1.13-.03 1.73-14.97 3.16-15.21.9-.15 2.11 3.58 3.16 5.37 1.05 1.79 2.16 3.42 3.16 5.37 1.12 2.18 2.19 7.22 3.15 7.15 1.19-.09 2.19-11.67 3.16-11.63 1.17.05 1.96 16.94 3.16 17 .96.05 1.9-7.83 3.16-10.73.94-2.17 1.86-4.63 3.16-5.37.92-.53 2.27-.66 3.15 0 1.66 1.24 1.53 9.83 3.16 10.73.88.49 2.24-.13 3.16-.89 1.34-1.11 2.14-6.29 3.16-6.26 1.08.03 2.12 7.17 3.15 7.15 1.08-.02 2.08-8.03 3.16-8.05 1.03-.02 1.88 5.44 3.16 7.16.93 1.25 2.19 2.84 3.16 2.68 1.18-.2 2.14-5.4 3.16-5.37 1.08.04 1.81 5.16 3.15 6.27.92.76 2.24.13 3.16.89 1.34 1.11 2.2 6.35 3.16 6.26 1.21-.11 1.69-8.46 3.16-10.73.9-1.38 2.24-2.92 3.16-2.69 1.33.33 1.82 6.2 3.15 8.06.92 1.29 2.27 2.96 3.16 2.68 1.52-.47 2-11.57 3.16-11.63.98-.05 2.01 7.96 3.16 8.05.98.08 2.25-5.51 3.16-5.37 1.36.21 2.16 13.45 3.15 13.42 1.13-.03 1.71-13.53 3.16-17.89.9-2.71 2.13-6.29 3.16-6.26 1.08.03 2.08 7.13 3.16 7.16 1.02.03 1.98-6.12 3.15-6.27.97-.13 2.07 3.5 3.16 3.58 1.02.07 2.03-2.26 3.16-2.68.99-.36 2.12-.14 3.16 0 1.06.15 2.23 1.26 3.16.89 1.28-.52 2.25-3.03 3.15-5.37 1.42-3.7 2.23-15.26 3.16-15.21 1.3.07 2.04 30.41 3.16 30.42 1 .01 1.05-20.26 3.16-24.15.87-1.61 2.25-1.37 3.16-2.69 1.38-2 2.12-5.88 3.15-8.94 1.08-3.2 1.56-8.68 3.16-9.85.89-.65 2.27-.63 3.16 0 1.54 1.09 1.85 6.73 3.16 8.95.93 1.58 2.28 3.82 3.16 3.58 1.64-.44 2.07-10.9 3.15-16.1 1.02-4.92 2.07-14.3 3.16-14.32 1.02-.02 1.5 11.82 3.16 12.53.88.38 2.25-.74 3.16-1.79 1.4-1.61 1.89-7.83 3.15-8.05.94-.17 2.26 1.9 3.16 3.57 1.43 2.66 2.25 11.7 3.16 11.63 1.37-.1 1.08-22.2 3.16-26.84.87-1.95 2.29-3.84 3.16-3.57 1.94.59.81 20.57 3.15 23.26.87 1.01 2.25 1.32 3.16.89 1.4-.66 2.04-4.98 3.16-7.16 1-1.95 1.98-5.16 3.16-5.36.97-.16 2.29 1.08 3.16 2.68 2.12 3.89 1.76 24.03 3.15 24.16.91.08 1.59-8.32 3.16-9.84.89-.86 2.26-.08 3.16-.9 1.46-1.32 2.26-8.16 3.16-8.05 1.45.17 1.65 17.06 3.16 22.37.89 3.12 2.26 7.28 3.15 7.15 1.56-.22 2.03-24.13 3.16-24.15 1-.02 1.29 18.09 3.16 18.78.87.32 2.11-1.79 3.16-2.68 1.05-.89 2.06-1.92 3.15-2.68 1.02-.71 2.28-2.18 3.16-1.79 1.76.79 1.31 12.35 3.16 14.31.88.93 2.13.47 3.16.9 1.08.45 2.17.99 3.16 1.79 1.13.92 2.02 2.65 3.15 3.57.99.8 2.08 1.66 3.16 1.79 1.03.12 2.19-1.18 3.16-.89 1.17.35 2.23 3.76 3.16 3.58 1.31-.25 2.2-9.01 3.16-8.95 1.19.07 1.87 14.19 3.15 14.32.93.09 1.88-5.44 3.16-7.16.93-1.25 2.11-2.69 3.16-2.69 1.05 0 2.04 2.45 3.16 2.69 1 .22 2.26-1.35 3.16-.9 1.46.72 1.69 6.74 3.15 8.06.9.81 2.13 1.01 3.16.89 1.08-.13 2.25-.74 3.16-1.79 1.4-1.61 2.08-8.03 3.16-8.05 1.03-.02 2.07 4.87 3.15 7.16 1.02 2.17 2.23 6.37 3.16 6.26 1.3-.15 2.15-13.44 3.16-13.42 1.1.02 1.95 16.03 3.16 16.1.96.06 1.74-7.7 3.16-9.84.9-1.35 2.26-2.96 3.15-2.68 1.52.47 2.15 11.65 3.16 11.63q1.11-.03 3.16-14.32" class="js-line" style="vector-effect:none;fill:none;stroke:#1d70b8;stroke-opacity:1;stroke-width:2px;opacity:1"/></g></g><g class="trace scatter tracecb99bd" style="stroke-miterlimit:2;opacity:1"><g class="lines"><path d="M0 94.38q1.9 4.73 3.16 5.19c.94.34 2.11-1.08 3.16-1.08 1.05 0 2.18.42 3.15 1.08 1.17.79 2.04 2.64 3.16 3.67 1 .93 2.04 2.01 3.16 2.32 1 .28 2.17-.6 3.16-.27 1.14.38 2.07 1.97 3.16 2.78 1.02.76 2.14 1.19 3.15 1.97 1.09.84 2.13 1.88 3.16 2.95 1.08 1.13 2 2.8 3.16 3.67.98.73 2.14.81 3.16 1.43 1.09.67 2.15 1.5 3.15 2.5 1.12 1.13 2.03 2.92 3.16 4.03.99.98 2.15 1.47 3.16 2.41 1.11 1.03 2 2.75 3.16 3.58.98.71 2.14.76 3.16 1.34 1.09.62 2.1 1.55 3.15 2.33 1.05.78 2.04 1.95 3.16 2.33 1 .35 2.15-.22 3.16.09 1.1.34 2.09 1.45 3.16 2.05 1.04.58 2.11 1.54 3.16 1.53 1.05-.01 2.11-1.67 3.15-1.62 1.07.05 2.06 1.6 3.16 2.06 1.02.43 2.16.22 3.16.72 1.13.56 2.05 2.03 3.16 2.68 1 .59 2.09 1.04 3.16 1.17 1.04.13 2.1-.36 3.15-.36 1.05 0 2.11.24 3.16.36 1.05.12 2.15-.03 3.16.35 1.11.42 2.05 1.94 3.16 2.24 1 .27 2.1-.2 3.15-.27 1.05-.08 2.11-.25 3.16-.18 1.06.07 2.15.22 3.16.63 1.1.45 2.07 1.91 3.16 2.06 1.02.14 2.15-1.17 3.16-.99 1.1.2 2.05 2.25 3.15 2.42 1.01.15 2.09-1.09 3.16-1.17 1.04-.08 2.12.74 3.16.63 1.07-.11 2.11-1.34 3.16-1.34 1.05 0 2.08 1.12 3.16 1.34 1.03.21 2.11.14 3.15 0 1.06-.15 2.17-.33 3.16-.89 1.14-.64 2.01-2.41 3.16-2.96.98-.47 2.12-.19 3.16-.44 1.07-.25 2.09-.89 3.16-1.08 1.04-.19 2.14.21 3.15-.09 1.1-.33 2.09-1.36 3.16-1.96 1.04-.59 2.13-.98 3.16-1.62 1.08-.67 2.05-1.88 3.16-2.32 1-.39 2.1-.27 3.15-.36 1.05-.09 2.17.22 3.16-.18 1.13-.45 2.11-1.77 3.16-2.68 1.06-.91 2.02-2.24 3.16-2.78.99-.47 2.12-.24 3.16-.53 1.07-.3 2.1-.83 3.15-1.25 1.05-.42 2.1-.86 3.16-1.26 1.05-.4 2.18-.51 3.16-1.16 1.15-.75 2.02-2.5 3.16-3.31.99-.7 2.09-1.31 3.16-1.43 1.03-.12 2.18.94 3.15.62 1.17-.38 2.14-2.16 3.16-3.4 1.1-1.34 2.03-3.14 3.16-4.38 1-1.09 2.14-1.73 3.16-2.77 1.1-1.12 2.06-2.64 3.16-3.76 1.01-1.04 2.09-1.87 3.15-2.77 1.05-.89 2.17-1.55 3.16-2.6 1.13-1.19 2.07-2.96 3.16-4.29 1.02-1.25 2.14-2.23 3.16-3.49 1.09-1.35 2.02-3.16 3.15-4.39.99-1.07 2.08-1.86 3.16-2.68 1.03-.79 2.06-1.67 3.16-2.15 1.01-.44 2.11-.41 3.16-.71 1.06-.3 2.24-.29 3.16-1.08 1.31-1.12 1.81-5.18 3.15-5.99.92-.55 2.27.63 3.16 0 1.54-1.09 2.07-6.08 3.16-8.95 1.02-2.7 1.7-6.67 3.16-7.78.9-.68 2.11-.33 3.16-.36 1.05-.03 2.1.22 3.15.18 1.05-.04 2.19-.79 3.16-.45 1.17.41 2 2.69 3.16 3.4.98.6 2.28 0 3.16.9 1.7 1.73 2.04 8.21 3.16 11.9 1 3.29 1.59 8.13 3.15 9.21.89.62 2.14.17 3.16-.09 1.09-.28 2.2-1.86 3.16-1.61 1.21.31 2.06 3.23 3.16 4.65 1.01 1.31 2.03 2.59 3.15 3.58 1 .88 2.07 1.61 3.16 2.15 1.02.51 2.09.88 3.16 1.07 1.04.19 2.21-.41 3.16.09 1.24.66 2.09 2.97 3.16 4.39 1.04 1.38 1.95 3.22 3.15 4.02.96.64 2.11.94 3.16.9 1.06-.04 2.09-.9 3.16-1.17 1.04-.26 2.13-.6 3.16-.44 1.08.17 2.2.7 3.16 1.52 1.2 1.03 1.98 4.34 3.15 4.56.97.18 2.14-1.32 3.16-2.15 1.09-.89 2.09-2.09 3.16-3.04 1.04-.92 2.1-2.57 3.16-2.59 1.05-.02 2.07 1.77 3.16 2.41 1.02.59 2.11.83 3.15 1.34 1.07.53 2.09 1.26 3.16 1.79 1.04.51 2.2.58 3.16 1.35 1.21.98 2.13 2.91 3.16 4.47 1.08 1.63 1.91 4.01 3.15 5.1.94.83 2.14.82 3.16 1.43 1.09.65 2.08 1.71 3.16 2.42 1.03.68 2.07 1.57 3.16 1.78 1.02.19 2.12-.54 3.16-.44 1.06.1 2.11.67 3.15 1.07 1.06.4 2.14.75 3.16 1.34 1.1.64 2.07 1.74 3.16 2.42 1.02.65 2.08 1.46 3.16 1.61 1.03.14 2.13-.75 3.16-.63 1.07.12 2.17.7 3.15 1.43 1.16.87 2.02 3.48 3.16 3.67.99.16 2.08-1.74 3.16-1.88 1.03-.13 2.11.94 3.16.9 1.06-.04 2.12-1.21 3.16-1.16 1.06.05 2.13.9 3.15 1.52 1.08.65 2.08 1.64 3.16 2.32 1.03.65 2.08 1.25 3.16 1.7 1.03.44 2.11.63 3.16.99 1.06.36 2.08 1.03 3.15 1.16 1.04.12 2.13-.55 3.16-.36 1.08.2 2.09 1.14 3.16 1.61 1.04.46 2.14.62 3.16 1.17 1.1.59 2.04 1.99 3.16 2.32 1 .3 2.15.19 3.15-.18 1.12-.41 2.06-2.26 3.16-2.41 1.02-.14 2.09 1.08 3.16 1.25 1.04.17 2.11-.15 3.16-.18 1.05-.03 2.11 0 3.16 0 1.05 0 2.13.25 3.15 0 1.08-.26 2.09-1.16 3.16-1.61 1.04-.44 2.09-.95 3.16-1.07 1.04-.11 2.12.14 3.16.35 1.06.21 2.11.89 3.16.9 1.05.01 2.13-.4 3.15-.81 1.08-.44 2.08-1.32 3.16-1.79 1.03-.45 2.1-.77 3.16-.98 1.04-.2 2.12-.07 3.16-.27 1.06-.21 2.12-.55 3.15-.98 1.07-.45 2.15-.97 3.16-1.7 1.11-.81 2.02-2.35 3.16-3.04.99-.6 2.09-.84 3.16-1.08 1.04-.23 2.16.04 3.16-.36 1.12-.45 2.12-1.55 3.15-2.41 1.07-.89 2.09-1.95 3.16-2.86 1.04-.88 2.12-1.63 3.16-2.51 1.07-.91 2.14-1.8 3.16-2.86 1.09-1.13 2.08-2.59 3.16-3.76 1.03-1.12 2.16-1.91 3.15-3.13 1.13-1.4 2.01-3.56 3.16-4.92.98-1.16 2.13-1.82 3.16-2.86 1.09-1.1 1.99-2.84 3.16-3.58.97-.61 2.15-.39 3.16-.9 1.11-.56 2.13-1.5 3.15-2.41 1.09-.98 2.09-2.26 3.16-3.31 1.04-1.01 2.08-2.02 3.16-2.87 1.03-.81 2.08-1.53 3.16-2.14 1.03-.58 2.1-.93 3.15-1.44 1.06-.51 2.16-.88 3.16-1.61 1.12-.83 2.02-2.96 3.16-3.22.99-.22 2.16.56 3.16 1.17 1.13.7 2.02 2.66 3.16 2.95.99.25 2.13-.97 3.15-.81 1.09.17 2.08 1.84 3.16 1.97 1.03.12 2.12-1.12 3.16-1.07 1.06.05 2.1 1 3.16 1.43 1.05.43 2.09 1.03 3.16 1.16 1.04.12 2.1-.42 3.15-.36 1.06.06 2.12.41 3.16.72 1.06.31 2.12.69 3.16 1.16 1.07.48 2.14 1.03 3.16 1.7 1.09.72 2.04 2.19 3.16 2.51 1 .28 2.19-.73 3.15-.36 1.18.45 2.08 2.47 3.16 3.58 1.03 1.06 2.07 2.08 3.16 2.95 1.02.82 2.15 1.29 3.16 2.15 1.1.94 1.98 2.89 3.15 3.31.97.35 2.16-.65 3.16-.36 1.12.32 2.2 1.41 3.16 2.51 1.19 1.36 1.86 4.51 3.16 5.27.93.54 2.13-.15 3.16.09 1.08.25 2.11.92 3.15 1.44 1.06.53 2.17.93 3.16 1.7 1.13.87 2.08 2.36 3.16 3.4 1.03.98 2.11 1.76 3.16 2.68 1.06.93 2.02 2.51 3.16 2.86.99.3 2.11-.54 3.15-.44 1.06.1 2.09.85 3.16 1.07 1.04.22 2.12.07 3.16.27 1.06.21 2.09.83 3.16.98 1.04.14 2.11-.18 3.16-.09 1.06.09 2.1.66 3.15.63 1.06-.03 2.1-.62 3.16-.81 1.05-.19 2.13-.51 3.16-.35 1.08.17 2.12.9 3.16 1.43 1.06.54 2.06 1.6 3.15 1.79 1.02.18 2.11-.54 3.16-.54 1.05 0 2.13.21 3.16.54 1.08.34 2.1 1.03 3.16 1.52 1.05.49 2.09 1.03 3.16 1.43 1.04.39 2.09.88 3.15.98 1.04.1 2.11-.36 3.16-.36 1.05 0 2.13.06 3.16.36 1.08.31 2.09 1.44 3.16 1.52 1.04.08 2.1-.82 3.16-.98 1.04-.16 2.13.26 3.15 0 1.09-.27 2.11-1.71 3.16-1.7 1.06.01 2.07 1.57 3.16 1.79 1.02.21 2.16.04 3.16-.36 1.12-.45 2.08-1.7 3.16-2.41 1.03-.68 2.08-1.31 3.15-1.79 1.03-.46 2.12-.64 3.16-1.08 1.07-.45 2.1-1.11 3.16-1.61 1.04-.49 2.17-.67 3.16-1.34 1.13-.76 2-2.54 3.15-3.13.98-.5 2.1-.39 3.16-.54 1.05-.15 2.19.14 3.16-.36 1.18-.62 2.02-3.35 3.16-3.57.99-.19 2.13 1.69 3.16 1.61 1.08-.08 2.1-1.48 3.15-2.24 1.06-.76 2.15-1.41 3.16-2.33 1.11-1.02 2.16-2.23 3.16-3.58 1.12-1.51 2.08-3.48 3.16-5.1 1.03-1.53 1.94-3.53 3.16-4.38.95-.66 2.21-.2 3.15-.89 1.24-.91 2.05-3.31 3.16-4.75 1.01-1.31 2.16-2.22 3.16-3.57 1.13-1.53 1.96-3.9 3.16-5.19.96-1.03 2.06-1.7 3.16-2.24 1.01-.5 2.13-.49 3.15-.98 1.09-.53 2.14-1.33 3.16-2.15 1.09-.87 2.06-2.14 3.16-2.95 1.01-.74 2.16-1.01 3.16-1.79 1.12-.87 2.03-2.44 3.15-3.31 1-.78 2.07-1.45 3.16-1.79 1.02-.32 2.11-.24 3.16-.27 1.05-.03 2.11.03 3.16.09 1.05.06 2.12.38 3.16.27 1.06-.12 2.14-.48 3.15-.99 1.1-.56 2.19-2.5 3.16-2.32 1.19.22 2.07 3.46 3.16 5.01 1.02 1.44 1.96 3.26 3.16 4.02.96.61 2.11.72 3.16.72 1.05 0 2.18-1.03 3.15-.72 1.18.38 2.17 2.21 3.16 3.58 1.13 1.56 1.91 4.19 3.16 5.37.94.89 2.08 1.22 3.16 1.61 1.03.37 2.14.32 3.16.72 1.08.42 2.09 1.22 3.15 1.78 1.04.55 2.14.9 3.16 1.53 1.09.67 2.07 1.77 3.16 2.41 1.02.59 2.09 1.06 3.16 1.34 1.03.27 2.2-.18 3.15.36 1.22.69 2 3.09 3.16 4.12.98.87 2.13 1.16 3.16 1.88 1.08.76 2.11 1.7 3.16 2.59 1.06.9 2.14 1.75 3.16 2.77 1.09 1.09 1.97 2.98 3.15 3.58.96.49 2.15-.09 3.16.27 1.11.39 2.06 1.64 3.16 2.15 1.02.47 2.1.74 3.16.89 1.04.14 2.11-.03 3.16 0 1.05.03 2.1.14 3.15.18 1.05.05 2.11-.06 3.16.09 1.06.15 2.14.35 3.16.81 1.1.49 2.05 1.82 3.16 2.14 1.01.29 2.11-.03 3.16-.09 1.05-.06 2.11-.4 3.15-.26 1.07.14 2.12.71 3.16 1.16 1.07.47 2.07 1.37 3.16 1.61 1.02.23 2.12-.23 3.16-.09 1.06.15 2.09.91 3.15.98 1.04.07 2.11-.34 3.16-.53 1.05-.19 2.15-.85 3.16-.63 1.11.24 2.06 2.05 3.16 2.24q1.01.17 3.16-.9" class="js-line" style="vector-effect:none;fill:none;stroke:#d4351c;stroke-opacity:1;stroke-dasharray:9px,9px;stroke-width:2px;opacity:1"/></g></g></g></g><g class="xaxislayer-above"><path d="M0 198v5" class="xtick ticks crisp" style="stroke:#444;stroke-opacity:1;stroke-width:1px" transform="translate(30)"/><path d="M0 198v5" class="xtick ticks crisp" style="stroke:#444;stroke-opacity:1;stroke-width:1px" transform="translate(127.89)"/><path d="M0 198v5" class="xtick ticks crisp" style="stroke:#444;stroke-opacity:1;stroke-width:1px" transform="translate(222.63)"/><path d="M0 198v5" class="xtick ticks crisp" style="stroke:#444;stroke-opacity:1;stroke-width:1px" transform="translate(320.53)"/><path d="M0 198v5" class="xtick ticks crisp" style="stroke:#444;stroke-opacity:1;stroke-width:1px" transform="translate(418.42)"/><path d="M0 198v5" class="xtick ticks crisp" style="stroke:#444;stroke-opacity:1;stroke-width:1px" transform="translate(513.16)"/><path d="M0 198v5" class="xtick ticks crisp" style="stroke:#444;stroke-opacity:1;stroke-width:1px" transform="translate(611.05)"/><path d="M0 198v5" class="xtick ticks crisp" style="stroke:#444;stroke-opacity:1;stroke-width:1px" transform="translate(705.79)"/><path d="M0 198v5" class="xtick ticks crisp" style="stroke:#444;stroke-opacity:1;stroke-width:1px" transform="translate(803.68)"/><path d="M0 198v5" class="xtick ticks crisp" style="stroke:#444;stroke-opacity:1;stroke-width:1px" transform="translate(901.58)"/><text y="217.4" class="xtick" style="font-family:Arial;font-size:12px;fill:#0b0c0c;fill-opacity:1;white-space:pre;opacity:1" text-anchor="middle" transform="translate(30)">May 2022</text><text y="217.4" class="xtick" style="font-family:Arial;font-size:12px;fill:#0b0c0c;fill-opacity:1;white-space:pre;opacity:1" text-anchor="middle" transform="translate(127.89)">Jun 2022</text><text y="217.4" class="xtick" style="font-family:Arial;font-size:12px;fill:#0b0c0c;fill-opacity:1;white-space:pre;opacity:1" text-anchor="middle" transform="translate(222.63)">Jul 2022</text><text y="217.4" class="xtick" style="font-family:Arial;font-size:12px;fill:#0b0c0c;fill-opacity:1;white-space:pre;opacity:1" text-anchor="middle" transform="translate(320.53)">Aug 2022</text><text y="217.4" class="xtick" style="font-family:Arial;font-size:12px;fill:#0b0c0c;fill-opacity:1;white-space:pre;opacity:1" text-anchor="middle" transform="translate(418.42)">Sep 2022</text><text y="217.4" class="xtick" style="font-family:Arial;font-size:12px;fill:#0b0c0c;fill-opacity:1;white-space:pre;opacity:1" text-anchor="middle" transform="translate(513.16)">Oct 2022</text><text y="217.4" class="xtick" style="font-family:Arial;font-size:12px;fill:#0b0c0c;fill-opacity:1;white-space:pre;opacity:1" text-anchor="middle" transform="translate(611.05)">Nov 2022</text><text y="217.4" class="xtick" style="font-family:Arial;font-size:12px;fill:#0b0c0c;fill-opacity:1;white-space:pre;opacity:1" text-anchor="middle" transform="translate(705.79)">Dec 2022</text><text y="217.4" class="xtick" style="font-family:Arial;font-size:12px;fill:#0b0c0c;fill-opacity:1;white-space:pre;opacity:1" text-anchor="middle" transform="translate(803.68)">Jan 2023</text></g></g></g><defs><clipPath id="b"><path d="M0 0h321v29H0z"/></clipPath></defs><g class="infolayer"><g class="legend" pointer-events="all"><path fill="none" d="M0 0h321v29H0z" class="bg" shape-rendering="crispEdges" style="stroke:#444;stroke-opacity:1;fill:#000;fill-opacity:0;stroke-width:0" transform="translate(319.5)"/><g class="scrollbox" clip-path="url(#b)" transform="translate(319.5)"><g class="groups"><g class="traces" style="opacity:1"><text x="40" y="4.68" class="legendtext" style="font-family:&quot;Open Sans&quot;,verdana,arial,sans-serif;font-size:12px;fill:#2a3f5f;fill-opacity:1;white-space:pre" transform="translate(0 14.5)">New deaths daily</text><g class="layers" style="opacity:1"><g class="legendlines"><path d="M5 0h30" class="js-line" style="fill:none;stroke:#1d70b8;stroke-opacity:1;stroke-width:2px" transform="translate(0 14.5)"/></g></g><path fill="none" d="M0-9.5h145.969v19H0z" class="legendtoggle" style="fill:#000;fill-opacity:0" transform="translate(0 14.5)"/></g><g class="traces" style="opacity:1"><text x="40" y="4.68" class="legendtext" style="font-family:&quot;Open Sans&quot;,verdana,arial,sans-serif;font-size:12px;fill:#2a3f5f;fill-opacity:1;white-space:pre" transform="translate(148.469 14.5)">7 day rolling average</text><g class="layers" style="opacity:1"><g class="legendlines"><path d="M5 0h30" class="js-line" style="fill:none;stroke:#d4351c;stroke-opacity:1;stroke-dasharray:9px,9px;stroke-width:2px" transform="translate(148.469 14.5)"/></g></g><path fill="none" d="M0-9.5h170.016v19H0z" class="legendtoggle" style="fill:#000;fill-opacity:0" transform="translate(148.469 14.5)"/></g></g></g></g></g></svg>