<svg xmlns="http://www.w3.org/2000/svg" width="700" height="350" class="main-svg"><path fill="none" d="M0 0h700v350H0z" style="fill:#000;fill-opacity:0"/><defs><clipPath id="a" class="plotclip"><path d="M0 0h682v316H0z"/></clipPath></defs><g class="bglayer"><path fill="none" d="M18 0h682v316H18z" class="bg" style="fill:#000;fill-opacity:0;stroke-width:0"/></g><g class="cartesianlayer"><g class="subplot xy"><g class="zerolinelayer"><path d="M18 0h682" class="yzl zl crisp" style="stroke:#fff;stroke-opacity:1;stroke-width:2px" transform="translate(0 316)"/></g><g class="plot" clip-path="url(#a)" transform="translate(18)"><g class="scatterlayer mlayer"><g class="trace scatter tracec6fd64" style="stroke-miterlimit:2;opacity:1"><g class="lines"><path d="M0 236.26q2.14-18.22 4.21-18.76c1.18-.31 2.94 2.74 4.21 4.69 1.62 2.49 2.87 6.05 4.21 9.38 1.48 3.66 2.73 8.07 4.21 11.73 1.34 3.33 3.04 9.58 4.21 9.38 2.49-.42 2.47-46.83 4.21-46.91 1.23-.05 2.72 16.08 4.21 23.45 1.34 6.62 2.14 18.23 4.21 18.77 1.18.31 3.05-5.05 4.21-4.69 2.57.79 2.83 30.49 4.21 30.48 1.43-.01 2.81-21.89 4.21-32.83 1.4-10.94 2.62-32.77 4.21-32.83 1.28-.04 2.03 20.5 4.21 21.1 1.18.32 3.04-5.02 4.21-4.69 2.28.65 1.93 22.81 4.21 23.46 1.17.33 2.7-4.44 4.21-4.69 1.32-.22 3.05 2.9 4.21 2.34 2.71-1.31 1.83-20.83 4.21-25.8 1.17-2.44 3.05-5.05 4.21-4.69 2.57.79 2.85 30.5 4.21 30.49 1.46-.01 1.45-34.31 4.21-35.18 1.16-.37 2.94 2.74 4.21 4.69 1.62 2.49 2.94 5.76 4.21 9.38 1.63 4.65 3 16.51 4.21 16.42 1.86-.14 2.35-29.53 4.21-39.87 1.21-6.72 2.25-15.94 4.21-16.42 1.2-.29 2.7 3.48 4.21 4.69 1.32 1.06 3.03.82 4.21 2.35 2.2 2.86 2.95 16.48 4.21 16.42 1.64-.08 2.22-27.88 4.21-28.15 1.19-.16 3.03 9.56 4.21 9.38 2.18-.33 2.58-24.97 4.21-35.18 1.27-7.96 2.65-14.81 4.21-21.1 1.29-5.2 2.85-14.11 4.21-14.08 1.46.03 2.85 16.44 4.21 16.42 1.45-.02 2.62-18.66 4.21-18.76 1.28-.08 2.47 11.38 4.21 11.72 1.23.24 3-4.96 4.21-4.69 1.85.41 3.03 14.2 4.21 14.08 2.16-.22 2.6-34.82 4.21-49.26 1.27-11.39 2.74-30.46 4.2-30.48 1.35-.02 2.1 25.39 4.21 25.79 1.18.23 3.03-7.26 4.21-7.03 2.11.4 2.29 25.55 4.21 25.8 1.2.16 2.91-5.89 4.21-9.38 1.55-4.17 2.98-14.17 4.21-14.08 1.77.14 1.27 26.19 4.21 30.49 1.16 1.7 3.04 2.96 4.21 2.35 3.47-1.81 2.81-42.22 4.21-42.22s2.64 42.18 4.21 42.22c1.29.03 2.88-28.17 4.21-28.15 1.49.02 2.52 35.09 4.21 35.18 1.25.06 1.87-17.72 4.21-18.76 1.17-.52 3.05.72 4.21 2.35 2.59 3.63 2.92 23.49 4.21 23.45 1.57-.05 2.92-35.2 4.21-35.18 1.56.03 1.83 51.28 4.21 51.6 1.17.15 2.93-7.32 4.21-11.73 1.59-5.48 3.02-18.85 4.21-18.76 2 .14 1.54 53.48 4.21 53.94 1.16.2 2.81-9.38 4.21-9.38s2.91 9.47 4.21 9.38c1.55-.1 2.85-9.18 4.21-14.07 1.46-5.25 3.01-16.51 4.21-16.42 1.9.14 2.67 29.3 4.21 42.22 1.31 11 2.89 30.51 4.21 30.49 1.51-.02 2.24-39.69 4.21-39.87 1.19-.11 2.81 9.38 4.21 14.07 1.4 4.69 2.89 9.02 4.21 14.07 1.51 5.78 2.94 18.81 4.21 18.76 1.61-.07 2.92-30.52 4.21-30.49 1.56.03 2.61 44.52 4.21 44.56 1.28.03 2.49-20.42 4.21-28.14 1.24-5.55 2.01-12.43 4.21-14.07 1.18-.88 3.05-1 4.21 0 3.02 2.61 1.38 26.75 4.21 28.14 1.16.57 3.03-.82 4.21-2.34 2.21-2.86 2.85-16.44 4.21-16.42 1.45.02 2.84 18.78 4.21 18.76 1.45-.02 2.76-21.09 4.21-21.11 1.37-.02 2.35 14.13 4.21 18.77 1.21 3.03 2.96 7.19 4.21 7.03 1.68-.21 2.85-14.1 4.21-14.07 1.46.03 2 13.56 4.21 16.42 1.18 1.52 3.03.82 4.21 2.34 2.21 2.86 2.95 16.48 4.21 16.42 1.64-.08 2.02-22.02 4.21-28.14 1.18-3.29 3.01-7.25 4.21-7.04 1.94.34 2.27 16.08 4.21 21.11 1.2 3.11 3.04 7.27 4.21 7.03 2.27-.46 2.66-30.44 4.21-30.49 1.3-.04 2.64 21.04 4.21 21.11 1.29.06 3-14.17 4.21-14.07 1.88.16 2.89 35.2 4.21 35.18 1.52-.02 2.22-35.35 4.21-46.91 1.19-6.94 2.85-16.43 4.21-16.41 1.45.02 2.76 18.74 4.21 18.76 1.36.02 2.58-16.28 4.21-16.42 1.27-.11 2.72 9.29 4.21 9.38 1.33.08 2.48-6.05 4.21-7.03 1.24-.7 2.85-.35 4.21 0 1.45.38 3.03 2.82 4.21 2.34 2.07-.84 3.02-8.12 4.21-14.07 1.97-9.84 2.98-39.9 4.21-39.87 1.74.05 2.72 79.73 4.21 79.74 1.33.01.97-52.94 4.21-63.32 1.17-3.73 3.02-3.87 4.21-7.04 2.03-5.41 2.84-15.44 4.21-23.45 1.44-8.39 1.31-23.34 4.21-25.8 1.16-.99 3.05-.97 4.21 0 2.77 2.31 2.36 17.48 4.21 23.45 1.21 3.92 3.04 9.57 4.21 9.38 2.37-.39 2.76-28.56 4.21-42.21 1.36-12.88 2.76-37.52 4.21-37.53 1.36-.01 1.54 32.01 4.21 32.84 1.16.36 3.03-2.34 4.21-4.69 2.18-4.35 2.44-20.91 4.21-21.11 1.23-.14 3.02 5.25 4.21 9.38 2.05 7.15 3 30.54 4.21 30.49 1.84-.07 1.16-57.95 4.21-70.36 1.16-4.74 3.05-9.59 4.21-9.38 2.83.51-.01 54.36 4.2 60.98 1.18 1.86 3.04 2.86 4.21 2.34 2.34-1.05 2.7-12.98 4.21-18.76 1.32-5.05 2.53-13.86 4.21-14.07 1.25-.16 3.04 3.3 4.21 7.03 3.24 10.38 2.33 63.24 4.21 63.33 1.21.06 1.5-21.94 4.21-25.8 1.16-1.66 3.04-.75 4.21-2.35 2.46-3.38 3.02-21.17 4.21-21.1 1.97.12 2.14 44.56 4.21 58.63 1.18 8.04 3.03 18.85 4.21 18.76 2.14-.17 2.71-63.31 4.21-63.32 1.33-.01 1.36 48.59 4.21 49.25 1.16.27 2.81-4.69 4.21-7.04 1.4-2.34 2.7-4.99 4.21-7.03 1.32-1.79 3.05-5.06 4.21-4.69 2.85.91.95 32.61 4.21 37.52 1.17 1.75 2.89 1.29 4.21 2.35 1.51 1.21 2.94 2.74 4.21 4.69 1.62 2.49 2.59 6.89 4.21 9.38 1.27 1.95 2.7 4.44 4.21 4.69 1.32.22 2.99-2.75 4.21-2.34 1.79.59 3 9.53 4.21 9.38 1.85-.23 2.93-23.5 4.21-23.46 1.61.05 2.48 37.44 4.21 37.53 1.24.07 2.36-14.12 4.21-18.76 1.21-3.03 2.81-7.04 4.21-7.04s2.56 6.6 4.21 7.04c1.26.34 3.04-2.89 4.21-2.35 2.46 1.14 1.75 17.73 4.21 21.11 1.17 1.6 2.89 2.56 4.21 2.34 1.51-.25 3.03-2.34 4.21-4.69 2.18-4.34 2.76-21.08 4.21-21.1q1.37-.02 4.21 18.76" class="js-line" style="vector-effect:none;fill:none;stroke:#383f43;stroke-opacity:1;stroke-width:2px;opacity:1"/></g></g><g class="trace scatter trace11a710" style="stroke-miterlimit:2"><g class="fills"><path d="M682 316h-29.47V187.01q2.98 16.49 4.21 16.41c1.77-.12 2.86-35.18 4.21-35.17 1.47.01 2.59 42.16 4.21 42.21 1.27.04 2.1-20.03 4.21-25.8 1.18-3.23 3.04-7.27 4.21-7.03 2.27.46 2.87 30.51 4.21 30.49q1.48-.02 4.21-37.53" class="js-fill" style="fill:#cce2d8;fill-opacity:1;stroke-width:0"/></g><g class="lines"><path d="M652.53 187.01q2.98 16.49 4.21 16.41c1.77-.12 2.86-35.18 4.21-35.17 1.47.01 2.59 42.16 4.21 42.21 1.27.04 2.1-20.03 4.21-25.8 1.18-3.23 3.04-7.27 4.21-7.03 2.27.46 2.87 30.51 4.21 30.49q1.48-.02 4.21-37.53" class="js-line" style="vector-effect:none;fill:none;stroke:#005a30;stroke-opacity:1;stroke-width:2px;opacity:1"/></g></g></g></g><g class="xaxislayer-above"><path d="M0 317v5" class="xtick ticks crisp" style="stroke:#444;stroke-opacity:1;stroke-width:1px" transform="translate(18)"/><path d="M0 317v5" class="xtick ticks crisp" style="stroke:#444;stroke-opacity:1;stroke-width:1px" transform="translate(144.3)"/><path d="M0 317v5" class="xtick ticks crisp" style="stroke:#444;stroke-opacity:1;stroke-width:1px" transform="translate(274.8)"/><path d="M0 317v5" class="xtick ticks crisp" style="stroke:#444;stroke-opacity:1;stroke-width:1px" transform="translate(401.1)"/><path d="M0 317v5" class="xtick ticks crisp" style="stroke:#444;stroke-opacity:1;stroke-width:1px" transform="translate(531.6)"/><path d="M0 317v5" class="xtick ticks crisp" style="stroke:#444;stroke-opacity:1;stroke-width:1px" transform="translate(662.11)"/><text y="346" class="xtick" style="font-family:&quot;GDS Transport&quot;,Arial,sans-serif;font-size:20px;fill:#6b7276;fill-opacity:1;white-space:pre;opacity:1" text-anchor="middle" transform="translate(18)">Sep</text><text y="346" class="xtick" style="font-family:&quot;GDS Transport&quot;,Arial,sans-serif;font-size:20px;fill:#6b7276;fill-opacity:1;white-space:pre;opacity:1" text-anchor="middle" transform="translate(144.3)">Oct</text><text y="346" class="xtick" style="font-family:&quot;GDS Transport&quot;,Arial,sans-serif;font-size:20px;fill:#6b7276;fill-opacity:1;white-space:pre;opacity:1" text-anchor="middle" transform="translate(274.8)">Nov</text><text y="346" class="xtick" style="font-family:&quot;GDS Transport&quot;,Arial,sans-serif;font-size:20px;fill:#6b7276;fill-opacity:1;white-space:pre;opacity:1" text-anchor="middle" transform="translate(401.1)">Dec</text><text y="346" class="xtick" style="font-family:&quot;GDS Transport&quot;,Arial,sans-serif;font-size:20px;fill:#6b7276;fill-opacity:1;white-space:pre;opacity:1" text-anchor="middle" transform="translate(531.6)">Jan</text><text y="346" class="xtick" style="font-family:&quot;GDS Transport&quot;,Arial,sans-serif;font-size:20px;fill:#6b7276;fill-opacity:1;white-space:pre;opacity:1" text-anchor="middle" transform="translate(662.11)">Feb</text></g></g></g></svg>