<svg xmlns="http://www.w3.org/2000/svg" width="435" height="220" class="main-svg"><path fill="none" d="M0 0h435v220H0z" style="fill:#000;fill-opacity:0"/><defs><clipPath id="a" class="plotclip"><path d="M0 0h401v168H0z"/></clipPath></defs><g class="bglayer"><path fill="none" d="M17 0h401v168H17z" class="bg" style="fill:#000;fill-opacity:0;stroke-width:0"/></g><g class="cartesianlayer"><g class="subplot xy"><g class="zerolinelayer"><path d="M17 0h401" class="yzl zl crisp" style="stroke:#fff;stroke-opacity:1;stroke-width:2px" transform="translate(0 168)"/></g><g class="plot" clip-path="url(#a)" transform="translate(17)"><g class="barlayer mlayer"><g class="trace bars" style="opacity:1"><g class="points"><path d="M.13 168v-63.84h1.06V168ZM1.46 168v-61.18h1.05V168ZM2.78 168v-59.85h1.06V168ZM4.1 168v-58.52h1.06V168ZM5.43 168v-57.19h1.05V168ZM6.75 168v-55.86h1.06V168ZM8.07 168v-54.53h1.06V168ZM9.4 168v-53.2h1.06V168ZM10.72 168v-53.2h1.06V168ZM12.04 168v-51.87h1.06V168ZM13.37 168v-50.54h1.06V168ZM14.69 168v-49.21h1.06V168ZM16.01 168v-47.88h1.06V168ZM17.34 168v-47.88h1.06V168ZM18.66 168v-46.55h1.06V168ZM19.98 168v-46.55h1.06V168ZM21.31 168v-46.55h1.06V168ZM22.63 168v-46.55h1.06V168ZM23.95 168v-45.22h1.06V168ZM25.28 168v-45.22h1.06V168ZM26.6 168v-42.56h1.06V168ZM27.92 168v-42.56h1.06V168ZM29.25 168v-41.23h1.06V168ZM30.57 168v-38.57h1.06V168ZM31.89 168v-37.24h1.06V168ZM33.22 168v-34.58h1.06V168ZM34.54 168v-34.58h1.06V168ZM35.87 168v-33.25h1.05V168ZM37.19 168v-33.25h1.06V168ZM38.51 168v-34.58h1.06V168ZM39.84 168v-34.58h1.05V168ZM41.16 168v-35.91h1.06V168ZM42.48 168v-37.24h1.06V168ZM43.81 168v-38.57h1.05V168ZM45.13 168v-39.9h1.06V168ZM46.45 168v-41.23h1.06V168ZM47.78 168v-43.89h1.05V168ZM49.1 168v-46.55h1.06V168ZM50.42 168v-49.21h1.06V168ZM51.75 168v-51.87h1.05V168ZM53.07 168v-54.53h1.06V168ZM54.39 168v-55.86h1.06V168ZM55.72 168v-57.19h1.06V168ZM57.04 168v-61.18h1.06V168ZM58.36 168v-63.84h1.06V168ZM59.69 168v-66.5h1.06V168ZM61.01 168v-67.83h1.06V168ZM62.33 168V96.18h1.06V168ZM63.66 168V93.52h1.06V168ZM64.98 168V90.86h1.06V168ZM66.3 168V86.87h1.06V168ZM67.63 168V82.88h1.06V168ZM68.95 168V78.89h1.06V168ZM70.27 168V74.9h1.06V168ZM71.6 168V70.91h1.06V168ZM72.92 168V68.25h1.06V168ZM74.24 168V65.59h1.06V168ZM75.57 168V61.6h1.06V168ZM76.89 168V58.94h1.06V168ZM78.21 168V56.28h1.06V168ZM79.54 168V53.62h1.06V168ZM80.86 168V52.29h1.06V168ZM82.19 168V49.63h1.05V168ZM83.51 168V45.64h1.06V168ZM84.83 168V40.32h1.06V168ZM86.16 168V36.33h1.05V168ZM87.48 168V33.67h1.06V168ZM88.8 168V32.34h1.06V168ZM90.13 168V29.68h1.05V168ZM91.45 168V29.68h1.06V168ZM92.77 168V28.35h1.06V168ZM94.1 168V27.02h1.05V168ZM95.42 168V28.35h1.06V168ZM96.74 168V31.01h1.06V168ZM98.07 168V35h1.06v133ZM99.39 168V38.99h1.06V168ZM100.71 168V40.32h1.06V168ZM102.04 168V41.65h1.06V168ZM103.36 168V44.31h1.06V168ZM104.68 168V45.64h1.06V168ZM106.01 168V46.97h1.06V168ZM107.33 168V49.63h1.06V168ZM108.65 168V50.96h1.06V168ZM109.98 168V53.62h1.06V168ZM111.3 168V54.95h1.06V168ZM112.62 168V57.61h1.06V168ZM113.95 168V62.93h1.06V168ZM115.27 168V66.92h1.06V168ZM116.59 168V70.91h1.06V168ZM117.92 168V74.9h1.06V168ZM119.24 168V77.56h1.06V168ZM120.56 168V77.56h1.06V168ZM121.89 168V78.89h1.06V168ZM123.21 168V81.55h1.06V168ZM124.53 168V82.88h1.06V168ZM125.86 168V85.54h1.06V168ZM127.18 168V86.87h1.06V168ZM128.51 168V88.2h1.05V168ZM129.83 168V89.53h1.06V168ZM131.15 168V90.86h1.06V168ZM132.48 168V89.53h1.05V168ZM133.8 168V90.86h1.06V168ZM135.12 168V92.19h1.06V168ZM136.45 168V93.52h1.05V168ZM137.77 168V93.52h1.06V168ZM139.09 168V94.85h1.06V168ZM140.42 168V96.18h1.05V168ZM141.74 168V98.84h1.06V168ZM143.06 168v-67.83h1.06V168ZM144.39 168v-65.17h1.06V168ZM145.71 168v-63.84h1.06V168ZM147.03 168v-62.51h1.06V168ZM148.36 168v-61.18h1.06V168ZM149.68 168v-61.18h1.06V168ZM151 168v-59.85h1.06V168ZM152.33 168v-58.52h1.06V168ZM153.65 168v-57.19h1.06V168ZM154.97 168v-55.86h1.06V168ZM156.3 168v-54.53h1.06V168ZM157.62 168v-53.2h1.06V168ZM158.94 168v-53.2H160V168ZM160.27 168v-51.87h1.06V168ZM161.59 168v-51.87h1.06V168ZM162.91 168v-53.2h1.06V168ZM164.24 168v-54.53h1.06V168ZM165.56 168v-54.53h1.06V168ZM166.88 168v-55.86h1.06V168ZM168.21 168v-58.52h1.06V168ZM169.53 168v-59.85h1.06V168ZM170.86 168v-62.51h1.05V168ZM172.18 168v-62.51h1.06V168ZM173.5 168v-62.51h1.06V168ZM174.83 168v-62.51h1.05V168ZM176.15 168v-63.84h1.06V168ZM177.47 168v-65.17h1.06V168ZM178.8 168v-65.17h1.05V168ZM180.12 168v-65.17h1.06V168ZM181.44 168v-66.5h1.06V168ZM182.77 168v-67.83h1.05V168ZM184.09 168V98.84h1.06V168ZM185.41 168V97.51h1.06V168ZM186.74 168V96.18h1.06V168ZM188.06 168V89.53h1.06V168ZM189.38 168V84.21h1.06V168ZM190.71 168V78.89h1.06V168ZM192.03 168V73.57h1.06V168ZM193.35 168V69.58h1.06V168ZM194.68 168V64.26h1.06V168ZM196 168V57.61h1.06V168ZM197.32 168V53.62h1.06V168ZM198.65 168V49.63h1.06V168ZM199.97 168V45.64h1.06V168ZM201.29 168V42.98h1.06V168ZM202.62 168V40.32h1.06V168ZM203.94 168V36.33H205V168ZM205.26 168V29.68h1.06V168ZM206.59 168V27.02h1.06V168ZM207.91 168V25.69h1.06V168ZM209.23 168V24.36h1.06V168ZM210.56 168V23.03h1.06V168ZM211.88 168V21.7h1.06V168ZM213.2 168V24.36h1.06V168ZM214.53 168V25.69h1.06V168ZM215.85 168V28.35h1.06V168ZM217.18 168V32.34h1.05V168ZM218.5 168V36.33h1.06V168ZM219.82 168V40.32h1.06V168ZM221.15 168V42.98h1.05V168ZM222.47 168V42.98h1.06V168ZM223.79 168V42.98h1.06V168ZM225.12 168V46.97h1.05V168ZM226.44 168V49.63h1.06V168ZM227.76 168V53.62h1.06V168ZM229.09 168V53.62h1.05V168ZM230.41 168V53.62h1.06V168ZM231.73 168V54.95h1.06V168ZM233.06 168V57.61h1.06V168ZM234.38 168V60.27h1.06V168ZM235.7 168V60.27h1.06V168ZM237.03 168V60.27h1.06V168ZM238.35 168V62.93h1.06V168ZM239.67 168V64.26h1.06V168ZM241 168V66.92h1.06V168ZM242.32 168V66.92h1.06V168ZM243.64 168V69.58h1.06V168ZM244.97 168V73.57h1.06V168ZM246.29 168V77.56h1.06V168ZM247.61 168V78.89h1.06V168ZM248.94 168V81.55H250V168ZM250.26 168V82.88h1.06V168ZM251.58 168V82.88h1.06V168ZM252.91 168V84.21h1.06V168ZM254.23 168V85.54h1.06V168ZM255.55 168V85.54h1.06V168ZM256.88 168V85.54h1.06V168ZM258.2 168V85.54h1.06V168ZM259.53 168V86.87h1.05V168ZM260.85 168V85.54h1.06V168ZM262.17 168V86.87h1.06V168ZM263.5 168V88.2h1.05V168ZM264.82 168V86.87h1.06V168ZM266.14 168V86.87h1.06V168ZM267.47 168V88.2h1.05V168ZM268.79 168V86.87h1.06V168ZM270.11 168V82.88h1.06V168ZM271.44 168V81.55h1.05V168ZM272.76 168V80.22h1.06V168ZM274.08 168V80.22h1.06V168ZM275.41 168V80.22h1.06V168ZM276.73 168V78.89h1.06V168ZM278.05 168V77.56h1.06V168ZM279.38 168V74.9h1.06V168ZM280.7 168V72.24h1.06V168ZM282.02 168V72.24h1.06V168ZM283.35 168V70.91h1.06V168ZM284.67 168V68.25h1.06V168ZM285.99 168V68.25h1.06V168ZM287.32 168V68.25h1.06V168ZM288.64 168V65.59h1.06V168ZM289.96 168V62.93h1.06V168ZM291.29 168V58.94h1.06V168ZM292.61 168V56.28h1.06V168ZM293.93 168V56.28h1.06V168ZM295.26 168V54.95h1.06V168ZM296.58 168V52.29h1.06V168ZM297.9 168V46.97h1.06V168ZM299.23 168V44.31h1.06V168ZM300.55 168V44.31h1.06V168ZM301.87 168V41.65h1.06V168ZM303.2 168V35h1.06v133ZM304.52 168V32.34h1.06V168ZM305.85 168V29.68h1.05V168ZM307.17 168V21.7h1.06V168ZM308.49 168V16.38h1.06V168ZM309.82 168V12.39h1.05V168ZM311.14 168V8.4h1.06V168ZM312.46 168V11.06h1.06V168ZM313.79 168V12.39h1.05V168ZM315.11 168V13.72h1.06V168ZM316.43 168V15.05h1.06V168ZM317.76 168V16.38h1.05V168ZM319.08 168V13.72h1.06V168ZM320.4 168V12.39h1.06V168ZM321.73 168V12.39h1.06V168ZM323.05 168V12.39h1.06V168ZM324.37 168V13.72h1.06V168ZM325.7 168V12.39h1.06V168ZM327.02 168V16.38h1.06V168ZM328.34 168V24.36h1.06V168ZM329.67 168V31.01h1.06V168ZM330.99 168V37.66h1.06V168ZM332.31 168V40.32h1.06V168ZM333.64 168V41.65h1.06V168ZM334.96 168V46.97h1.06V168ZM336.28 168V50.96h1.06V168ZM337.61 168V57.61h1.06V168ZM338.93 168V62.93h1.06V168ZM340.25 168V69.58h1.06V168ZM341.58 168V72.24h1.06V168ZM342.9 168V73.57h1.06V168ZM344.22 168V74.9h1.06V168ZM345.55 168V77.56h1.06V168ZM346.87 168V78.89h1.06V168ZM348.2 168V80.22h1.05V168ZM349.52 168V78.89h1.06V168ZM350.84 168V77.56h1.06V168ZM352.17 168V77.56h1.05V168ZM353.49 168V74.9h1.06V168ZM354.81 168V70.91h1.06V168ZM356.14 168V68.25h1.05V168ZM357.46 168V65.59h1.06V168ZM358.78 168V62.93h1.06V168ZM360.11 168V61.6h1.05V168ZM361.43 168V60.27h1.06V168ZM362.75 168V53.62h1.06V168ZM364.08 168V49.63h1.05V168ZM365.4 168V46.97h1.06V168ZM366.72 168V42.98h1.06V168ZM368.05 168V42.98h1.06V168ZM369.37 168V41.65h1.06V168ZM370.69 168V40.32h1.06V168ZM372.02 168V37.66h1.06V168ZM373.34 168V36.33h1.06V168ZM374.66 168V37.66h1.06V168ZM375.99 168V36.33h1.06V168ZM377.31 168V36.33h1.06V168ZM378.63 168V35h1.06v133ZM379.96 168V32.34h1.06V168ZM381.28 168V27.02h1.06V168ZM382.6 168V24.36h1.06V168ZM383.93 168V24.36h1.06V168ZM385.25 168V21.7h1.06V168ZM386.57 168V20.37h1.06V168ZM387.9 168V19.04h1.06V168ZM389.22 168V17.71h1.06V168ZM390.54 168V16.38h1.06V168ZM391.87 168V15.05h1.06V168ZM393.19 168V16.38h1.06V168ZM394.52 168V17.71h1.05V168ZM395.84 168V21.7h1.06V168ZM397.16 168V23.03h1.06V168ZM398.49 168V25.69h1.05V168ZM399.81 168V29.68h1.06V168Z" class="point" style="vector-effect:none;opacity:1;stroke-width:1px;fill:#5694ca;fill-opacity:1;stroke:#5694ca;stroke-opacity:1"/></g></g></g></g><g class="xaxislayer-above"><path d="M0 169v5" class="xtick ticks crisp" style="stroke:#444;stroke-opacity:1;stroke-width:1px" transform="translate(17.66)"/><path d="M0 169v5" class="xtick ticks crisp" style="stroke:#444;stroke-opacity:1;stroke-width:1px" transform="translate(58.69)"/><path d="M0 169v5" class="xtick ticks crisp" style="stroke:#444;stroke-opacity:1;stroke-width:1px" transform="translate(98.39)"/><path d="M0 169v5" class="xtick ticks crisp" style="stroke:#444;stroke-opacity:1;stroke-width:1px" transform="translate(139.42)"/><path d="M0 169v5" class="xtick ticks crisp" style="stroke:#444;stroke-opacity:1;stroke-width:1px" transform="translate(180.44)"/><path d="M0 169v5" class="xtick ticks crisp" style="stroke:#444;stroke-opacity:1;stroke-width:1px" transform="translate(220.15)"/><path d="M0 169v5" class="xtick ticks crisp" style="stroke:#444;stroke-opacity:1;stroke-width:1px" transform="translate(261.17)"/><path d="M0 169v5" class="xtick ticks crisp" style="stroke:#444;stroke-opacity:1;stroke-width:1px" transform="translate(300.88)"/><path d="M0 169v5" class="xtick ticks crisp" style="stroke:#444;stroke-opacity:1;stroke-width:1px" transform="translate(341.9)"/><path d="M0 169v5" class="xtick ticks crisp" style="stroke:#444;stroke-opacity:1;stroke-width:1px" transform="translate(382.93)"/><text y="188.4" class="xtick" style="font-family:Arial;font-size:12px;fill:#6b7276;fill-opacity:1;white-space:pre;opacity:1" transform="rotate(30 8.83 215.354)">May 2022</text><text y="188.4" class="xtick" style="font-family:Arial;font-size:12px;fill:#6b7276;fill-opacity:1;white-space:pre;opacity:1" transform="rotate(30 29.345 291.917)">Jun 2022</text><text y="188.4" class="xtick" style="font-family:Arial;font-size:12px;fill:#6b7276;fill-opacity:1;white-space:pre;opacity:1" transform="rotate(30 49.195 365.998)">Jul 2022</text><text y="188.4" class="xtick" style="font-family:Arial;font-size:12px;fill:#6b7276;fill-opacity:1;white-space:pre;opacity:1" transform="rotate(30 69.71 442.561)">Aug 2022</text><text y="188.4" class="xtick" style="font-family:Arial;font-size:12px;fill:#6b7276;fill-opacity:1;white-space:pre;opacity:1" transform="rotate(30 90.22 519.106)">Sep 2022</text><text y="188.4" class="xtick" style="font-family:Arial;font-size:12px;fill:#6b7276;fill-opacity:1;white-space:pre;opacity:1" transform="rotate(30 110.075 593.205)">Oct 2022</text><text y="188.4" class="xtick" style="font-family:Arial;font-size:12px;fill:#6b7276;fill-opacity:1;white-space:pre;opacity:1" transform="rotate(30 130.585 669.75)">Nov 2022</text><text y="188.4" class="xtick" style="font-family:Arial;font-size:12px;fill:#6b7276;fill-opacity:1;white-space:pre;opacity:1" transform="rotate(30 150.44 743.85)">Dec 2022</text><text y="188.4" class="xtick" style="font-family:Arial;font-size:12px;fill:#6b7276;fill-opacity:1;white-space:pre;opacity:1" transform="rotate(30 170.95 820.394)">Jan 2023</text><text y="188.4" class="xtick" style="font-family:Arial;font-size:12px;fill:#6b7276;fill-opacity:1;white-space:pre;opacity:1" transform="rotate(30 191.465 896.957)">Feb 2023</text></g><g class="yaxislayer-above"><text x="16" y="4.2" class="ytick" style="font-family:Arial;font-size:12px;fill:#6b7276;fill-opacity:1;white-space:pre;opacity:1" text-anchor="end" transform="translate(0 168)">0</text><text x="16" y="4.2" class="ytick" style="font-family:Arial;font-size:12px;fill:#6b7276;fill-opacity:1;white-space:pre;opacity:1" text-anchor="end" transform="translate(0 101.5)">5</text><text x="16" y="4.2" class="ytick" style="font-family:Arial;font-size:12px;fill:#6b7276;fill-opacity:1;white-space:pre;opacity:1" text-anchor="end" transform="translate(0 35)">10</text></g></g></g></svg>