<svg class="main-svg" xmlns="http://www.w3.org/2000/svg" xmlns:xlink="http://www.w3.org/1999/xlink" width="700" height="350" style="" viewBox="0 0 700 350">
  <rect x="0" y="0" width="700" height="350" style="fill: rgb(0, 0, 0); fill-opacity: 0;"/>
  <defs id="defs-83f408">
    <g class="clips">
      <clipPath id="clip83f408xyplot" class="plotclip">
        <rect width="675" height="330"/>
      </clipPath>
      <clipPath class="axesclip" id="clip83f408x">
        <rect x="25" y="0" width="675" height="350"/>
      </clipPath>
      <clipPath class="axesclip" id="clip83f408y">
        <rect x="0" y="0" width="700" height="330"/>
      </clipPath>
      <clipPath class="axesclip" id="clip83f408xy">
        <rect x="25" y="0" width="675" height="330"/>
      </clipPath>
    </g>
    <g class="gradients"/>
    <g class="patterns"/>
  </defs>
  <g class="bglayer">
    <rect class="bg" x="25" y="0" width="675" height="330" style="fill: rgb(0, 0, 0); fill-opacity: 0; stroke-width: 0;"/>
  </g>
  <g class="layer-below">
    <g class="imagelayer"/>
    <g class="shapelayer"/>
  </g>
  <g class="cartesianlayer">
    <g class="subplot xy">
      <g class="layer-subplot">
        <g class="shapelayer"/>
        <g class="imagelayer"/>
      </g>
      <g class="minor-gridlayer">
        <g class="x"/>
        <g class="y"/>
      </g>
      <g class="gridlayer">
        <g class="x"/>
        <g class="y"/>
      </g>
      <g class="zerolinelayer">
        <path class="yzl zl crisp" transform="translate(0,330)" d="M25,0h675" style="stroke: rgb(255, 255, 255); stroke-opacity: 1; stroke-width: 2px;"/>
      </g>
      <path class="xlines-below"/>
      <path class="ylines-below"/>
      <g class="overlines-below"/>
      <g class="xaxislayer-below"/>
      <g class="yaxislayer-below"/>
      <g class="overaxes-below"/>
      <g class="plot" transform="translate(25,0)" clip-path="url(#clip83f408xyplot)">
        <g class="scatterlayer mlayer">
          <g class="trace scatter tracefc1416" style="stroke-miterlimit: 2; opacity: 1;">
            <g class="fills"/>
            <g class="errorbars"/>
            <g class="lines">
              <path class="js-line" d="M0,204.6Q1.37,208.44 2.24,209.83C2.91,210.91 3.73,211.57 4.47,212.44C5.22,213.31 5.96,214.18 6.71,215.05C7.45,215.92 8.2,216.79 8.94,217.66C9.69,218.53 10.44,219.4 11.18,220.27C11.93,221.14 12.66,222.02 13.41,222.89C14.15,223.76 14.81,225.11 15.65,225.5C16.33,225.81 17.2,225.19 17.88,225.5C18.72,225.89 19.38,227.24 20.12,228.11C20.87,228.98 21.6,229.86 22.35,230.73C23.09,231.6 23.84,232.47 24.59,233.34C25.33,234.21 25.98,235.56 26.82,235.95C27.5,236.26 28.38,235.64 29.06,235.95C29.9,236.34 30.45,238.17 31.29,238.56C31.97,238.87 32.78,238.56 33.53,238.56C34.27,238.56 35.02,238.56 35.76,238.56C36.51,238.56 37.32,238.25 38,238.56C38.84,238.95 39.39,240.79 40.23,241.18C40.91,241.49 41.83,240.76 42.47,241.18C43.49,241.85 43.68,245.73 44.7,246.4C45.34,246.82 46.26,246.09 46.94,246.4C47.78,246.79 48.5,247.93 49.17,249.01C50.04,250.4 50.54,252.85 51.41,254.24C52.08,255.32 52.97,255.77 53.64,256.85C54.51,258.24 54.86,261.41 55.88,262.08C56.52,262.5 57.43,261.77 58.11,262.08C58.95,262.47 59.51,264.3 60.35,264.69C61.03,265 61.9,265 62.58,264.69C63.42,264.3 63.98,262.47 64.82,262.08C65.5,261.77 66.37,262.39 67.05,262.08C67.9,261.69 68.54,260.33 69.29,259.46C70.03,258.59 70.78,257.72 71.52,256.85C72.27,255.98 73.01,255.11 73.76,254.24C74.5,253.37 75.25,252.5 75.99,251.63C76.74,250.76 77.56,250.09 78.23,249.01C79.09,247.62 79.72,245.53 80.46,243.79C81.21,242.05 81.95,240.3 82.7,238.56C83.44,236.82 84.19,235.08 84.93,233.34C85.68,231.6 86.42,229.85 87.17,228.11C87.91,226.37 88.54,224.28 89.4,222.89C90.07,221.81 90.89,221.14 91.64,220.27C92.38,219.4 93.23,218.85 93.87,217.66C94.86,215.82 95.29,212.15 96.11,209.83C96.8,207.89 97.59,206.34 98.34,204.6C99.08,202.86 99.72,200.77 100.58,199.38C101.25,198.3 102.17,197.96 102.81,196.76C103.8,194.92 104.23,191.25 105.05,188.93C105.74,186.99 106.53,185.44 107.28,183.7C108.02,181.96 108.83,180.42 109.52,178.48C110.35,176.15 111.01,173.25 111.75,170.64C112.5,168.03 113.24,165.41 113.99,162.8C114.74,160.19 115.48,157.57 116.23,154.96C116.97,152.35 117.72,149.74 118.46,147.13C119.21,144.52 119.88,141.62 120.7,139.29C121.39,137.35 122.18,135.8 122.93,134.06C123.67,132.32 124.48,130.78 125.17,128.84C126,126.51 126.57,123.33 127.4,121C128.09,119.06 128.9,117.52 129.64,115.78C130.39,114.04 131.12,112.29 131.87,110.55C132.61,108.81 133.25,106.72 134.11,105.33C134.78,104.25 135.67,103.79 136.34,102.71C137.2,101.32 137.89,99.43 138.58,97.49C139.41,95.16 140.11,92.46 140.81,89.65C141.61,86.43 142.25,82.42 143.05,79.2C143.75,76.39 144.45,73.69 145.28,71.36C145.97,69.42 146.66,67.53 147.52,66.14C148.19,65.06 149.08,64.61 149.75,63.53C150.62,62.14 150.97,58.97 151.99,58.3C152.63,57.88 153.54,58.61 154.22,58.3C155.06,57.91 155.72,56.56 156.46,55.69C157.21,54.82 157.95,53.07 158.69,53.07C159.44,53.07 160.26,54.61 160.93,55.69C161.79,57.08 162.47,58.97 163.16,60.91C163.99,63.24 164.65,66.14 165.4,68.75C166.14,71.36 166.64,74.75 167.63,76.59C168.27,77.79 169.12,78.33 169.87,79.2C170.61,80.07 171.43,80.73 172.1,81.81C172.97,83.2 173.47,85.65 174.34,87.04C175.01,88.12 175.83,88.78 176.57,89.65C177.32,90.52 178.14,91.18 178.81,92.26C179.68,93.65 180.17,96.1 181.04,97.49C181.71,98.57 182.61,99.02 183.28,100.1C184.15,101.49 184.64,103.94 185.51,105.33C186.18,106.41 187.08,106.86 187.75,107.94C188.61,109.33 189.32,111.08 189.98,113.16C190.88,116.01 191.42,120.39 192.22,123.61C192.92,126.42 193.71,128.84 194.45,131.45C195.2,134.06 195.94,136.68 196.69,139.29C197.43,141.9 198.09,144.8 198.92,147.13C199.61,149.07 200.14,151.68 201.16,152.35C201.8,152.77 202.71,152.04 203.39,152.35C204.23,152.74 204.96,153.88 205.63,154.96C206.5,156.35 206.99,158.8 207.86,160.19C208.53,161.27 209.43,161.72 210.1,162.8C210.97,164.19 211.46,166.64 212.33,168.03C213,169.11 213.82,169.77 214.57,170.64C215.31,171.51 216.06,172.38 216.8,173.25C217.55,174.12 218.3,174.99 219.04,175.86C219.79,176.73 220.53,178.48 221.27,178.48C222.02,178.48 222.76,175.86 223.51,175.86C224.26,175.86 225,177.61 225.75,178.48C226.49,179.35 227.24,180.22 227.98,181.09C228.73,181.96 229.38,183.31 230.22,183.7C230.9,184.01 231.77,183.39 232.45,183.7C233.29,184.09 233.95,185.44 234.69,186.31C235.44,187.18 236.25,187.85 236.92,188.93C237.78,190.32 238.3,192.76 239.16,194.15C239.83,195.23 240.72,195.68 241.39,196.76C242.26,198.15 242.76,200.6 243.63,201.99C244.3,203.07 245.12,203.73 245.86,204.6C246.61,205.47 247.36,206.34 248.1,207.21C248.85,208.08 249.49,209.44 250.33,209.83C251.01,210.14 251.89,209.52 252.57,209.83C253.41,210.22 254.06,211.57 254.8,212.44C255.55,213.31 256.29,214.18 257.04,215.05C257.78,215.92 258.53,216.79 259.27,217.66C260.02,218.53 260.77,219.4 261.51,220.27C262.26,221.14 262.99,222.02 263.74,222.89C264.48,223.76 265.14,225.11 265.98,225.5C266.66,225.81 267.53,225.19 268.21,225.5C269.05,225.89 269.61,227.72 270.45,228.11C271.13,228.42 272,228.42 272.68,228.11C273.52,227.72 274.17,226.37 274.92,225.5C275.66,224.63 276.31,223.28 277.15,222.89C277.83,222.58 278.71,223.2 279.39,222.89C280.23,222.5 280.95,221.35 281.62,220.27C282.48,218.88 283,216.44 283.86,215.05C284.53,213.97 285.42,213.52 286.09,212.44C286.96,211.05 287.31,207.88 288.33,207.21C288.97,206.79 289.82,207.21 290.56,207.21C291.31,207.21 292.05,207.21 292.8,207.21C293.54,207.21 294.35,207.52 295.03,207.21C295.87,206.82 296.52,205.47 297.27,204.6C298.01,203.73 298.66,202.38 299.5,201.99C300.18,201.68 300.99,201.99 301.74,201.99C302.48,201.99 303.29,202.3 303.97,201.99C304.81,201.6 305.47,200.25 306.21,199.38C306.96,198.51 307.69,197.63 308.44,196.76C309.18,195.89 309.93,195.02 310.68,194.15C311.42,193.28 312.17,192.41 312.91,191.54C313.66,190.67 314.53,190.26 315.15,188.93C316.37,186.33 316.59,179.97 317.38,175.86C318.09,172.17 318.87,168.89 319.62,165.41C320.36,161.93 321.11,158.44 321.85,154.96C322.6,151.48 323.29,147.73 324.09,144.51C324.79,141.7 325.62,139.48 326.32,136.67C327.12,133.45 327.85,129.91 328.56,126.23C329.35,122.13 329.93,116.94 330.79,113.16C331.46,110.2 332.29,107.94 333.03,105.33C333.78,102.72 334.52,100.1 335.26,97.49C336.01,94.88 336.67,91.98 337.5,89.65C338.19,87.71 338.99,86.16 339.74,84.42C340.48,82.68 341.28,81.14 341.97,79.2C342.8,76.87 343.54,74.33 344.21,71.36C345.07,67.58 345.46,61.63 346.44,58.3C347.08,56.12 347.81,54.46 348.68,53.07C349.35,51.99 350.17,51.33 350.91,50.46C351.66,49.59 352.4,48.72 353.15,47.85C353.89,46.98 354.64,46.11 355.38,45.24C356.13,44.37 356.95,42.53 357.62,42.63C358.48,42.76 358.99,46.46 359.85,47.85C360.52,48.93 361.42,49.38 362.09,50.46C362.96,51.85 363.63,53.75 364.32,55.69C365.14,58.02 365.81,60.92 366.56,63.53C367.3,66.14 368.05,68.75 368.79,71.36C369.54,73.97 370.2,76.87 371.03,79.2C371.72,81.14 372.24,83.75 373.26,84.42C373.9,84.84 374.75,84.42 375.5,84.42C376.24,84.42 377.11,83.95 377.73,84.42C378.92,85.32 379.15,89.93 379.97,92.26C380.66,94.2 381.51,95.55 382.2,97.49C383.02,99.82 383.25,104.43 384.44,105.33C385.06,105.8 385.93,105.33 386.67,105.33C387.42,105.33 388.23,105.02 388.91,105.33C389.75,105.72 390.47,106.86 391.14,107.94C392,109.33 392.64,111.42 393.38,113.16C394.13,114.9 394.59,117.72 395.61,118.39C396.25,118.81 397.1,118.39 397.85,118.39C398.59,118.39 399.44,117.97 400.08,118.39C401.1,119.06 401.46,122.22 402.32,123.61C402.99,124.69 403.88,125.15 404.55,126.23C405.41,127.62 405.77,130.78 406.79,131.45C407.43,131.87 408.38,131.03 409.02,131.45C410.04,132.12 410.57,134.73 411.26,136.67C412.09,139 412.75,141.9 413.49,144.51C414.24,147.12 414.74,150.51 415.73,152.35C416.37,153.54 417.29,153.88 417.96,154.96C418.83,156.35 419.33,158.8 420.2,160.19C420.87,161.27 421.59,162.41 422.43,162.8C423.11,163.11 423.99,162.49 424.67,162.8C425.51,163.19 426.16,164.54 426.9,165.41C427.65,166.28 428.29,167.64 429.14,168.03C429.82,168.34 430.63,168.03 431.37,168.03C432.12,168.03 432.86,168.03 433.61,168.03C434.35,168.03 435.16,167.72 435.84,168.03C436.68,168.42 437.33,170.64 438.08,170.64C438.82,170.64 439.57,168.03 440.31,168.03C441.06,168.03 441.8,169.77 442.55,170.64C443.29,171.51 444.04,173.25 444.78,173.25C445.53,173.25 446.18,171.03 447.02,170.64C447.7,170.33 448.57,170.33 449.25,170.64C450.09,171.03 450.74,173.25 451.49,173.25C452.24,173.25 453.09,171.84 453.73,170.64C454.72,168.8 454.97,164.64 455.96,162.8C456.6,161.6 457.45,161.06 458.2,160.19C458.94,159.32 459.59,157.97 460.43,157.58C461.11,157.27 461.92,157.58 462.67,157.58C463.41,157.58 464.22,157.89 464.9,157.58C465.75,157.19 466.39,155.83 467.14,154.96C467.88,154.09 468.7,153.43 469.37,152.35C470.23,150.96 470.87,148.87 471.61,147.13C472.36,145.39 472.82,142.57 473.84,141.9C474.48,141.48 475.4,142.21 476.08,141.9C476.92,141.51 477.64,140.37 478.31,139.29C479.18,137.9 479.53,134.73 480.55,134.06C481.19,133.64 482.04,134.06 482.78,134.06C483.53,134.06 484.38,134.48 485.02,134.06C486.04,133.39 486.51,130.58 487.25,128.84C488,127.1 488.8,125.55 489.49,123.61C490.31,121.29 490.9,118.1 491.72,115.78C492.41,113.84 492.94,111.22 493.96,110.55C494.6,110.13 495.51,110.86 496.19,110.55C497.03,110.16 497.76,109.02 498.43,107.94C499.3,106.55 500,104.79 500.66,102.71C501.56,99.86 502,95.11 502.9,92.26C503.56,90.18 504.11,87.71 505.13,87.04C505.77,86.62 506.73,87.46 507.37,87.04C508.39,86.37 508.96,83.99 509.6,81.81C510.58,78.48 510.86,72.08 511.84,68.75C512.48,66.57 513.33,65.27 514.07,63.53C514.82,61.79 515.68,60.56 516.31,58.3C517.37,54.52 517.71,47.31 518.54,42.63C519.23,38.78 519.98,35.4 520.78,32.18C521.48,29.37 522.27,26.95 523.01,24.34C523.76,21.73 524.42,16.55 525.25,16.5C525.94,16.46 526.62,20.33 527.48,21.72C528.15,22.8 528.97,23.47 529.72,24.34C530.46,25.21 531.21,26.08 531.95,26.95C532.7,27.82 533.45,28.69 534.19,29.56C534.94,30.43 535.75,32.28 536.42,32.18C537.28,32.05 537.79,28.34 538.66,26.95C539.33,25.87 540.05,24.73 540.89,24.34C541.57,24.03 542.38,24.34 543.13,24.34C543.87,24.34 544.68,24.03 545.36,24.34C546.2,24.73 546.85,26.95 547.6,26.95C548.34,26.95 549.19,24.2 549.83,24.34C550.82,24.56 551.41,29.09 552.07,32.18C552.99,36.48 553.52,42.87 554.3,47.85C555.01,52.41 555.79,56.56 556.54,60.91C557.28,65.26 557.79,70.64 558.77,73.97C559.41,76.15 560.14,77.81 561.01,79.2C561.68,80.28 562.62,80.54 563.25,81.81C564.36,84.05 564.68,89.04 565.48,92.26C566.18,95.07 567.05,97.13 567.72,100.1C568.58,103.88 569.16,109.06 569.95,113.16C570.66,116.85 571.48,119.92 572.19,123.61C572.98,127.71 573.44,133.34 574.42,136.67C575.06,138.85 575.79,140.51 576.66,141.9C577.33,142.98 578.15,143.64 578.89,144.51C579.64,145.38 580.46,146.05 581.13,147.13C581.99,148.52 582.5,150.96 583.36,152.35C584.03,153.43 584.86,154.09 585.6,154.96C586.35,155.83 587.09,157.58 587.83,157.58C588.58,157.58 589.32,155.83 590.07,154.96C590.81,154.09 591.46,152.74 592.3,152.35C592.98,152.04 593.9,152.77 594.54,152.35C595.56,151.68 596.08,149.07 596.77,147.13C597.6,144.8 598.19,141.62 599.01,139.29C599.7,137.35 600.49,135.8 601.24,134.06C601.98,132.32 602.74,130.58 603.48,128.84C604.23,127.1 604.84,125 605.71,123.61C606.38,122.53 607.2,121.87 607.95,121C608.69,120.13 609.56,119.71 610.18,118.39C611.4,115.79 611.56,109.11 612.42,105.33C613.09,102.36 613.82,99.82 614.65,97.49C615.34,95.55 616.2,94.2 616.89,92.26C617.72,89.93 617.93,85.32 619.12,84.42C619.74,83.95 620.68,84.73 621.36,84.42C622.2,84.03 622.85,82.68 623.59,81.81C624.34,80.94 625.16,80.28 625.83,79.2C626.7,77.81 627.19,75.36 628.06,73.97C628.73,72.89 629.55,71.36 630.3,71.36C631.04,71.36 631.79,73.97 632.53,73.97C633.28,73.97 633.93,71.75 634.77,71.36C635.45,71.05 636.32,71.67 637,71.36C637.84,70.97 638.57,69.83 639.24,68.75C640.1,67.36 640.81,65.61 641.47,63.53C642.38,60.68 642.8,55.92 643.71,53.07C644.37,50.99 644.92,48.52 645.94,47.85C646.58,47.43 647.54,48.27 648.18,47.85C649.2,47.18 649.55,44.02 650.41,42.63C651.08,41.55 651.9,40.88 652.65,40.01C653.39,39.14 654.14,38.27 654.88,37.4C655.63,36.53 656.37,35.66 657.12,34.79Q657.86,33.92 659.35,32.18" style="vector-effect: none; fill: none; stroke: rgb(56, 63, 67); stroke-opacity: 1; stroke-width: 2px; opacity: 1;"/>
            </g>
            <g class="points"/>
            <g class="text"/>
          </g>
          <g class="trace scatter tracef114b3" style="stroke-miterlimit: 2;">
            <g class="fills">
              <g>
                <path class="js-fill" d="M675,330L659.35,330L659.35,32.18Q660.84,29.56 661.59,29.56C662.33,29.56 663.07,31.31 663.82,32.18C664.56,33.05 665.42,33.59 666.06,34.79C667.05,36.63 667.3,40.79 668.29,42.63C668.93,43.83 669.86,44.16 670.53,45.24C671.39,46.63 672.07,48.52 672.76,50.46Q673.59,52.79 675,58.3" style="fill: rgb(204, 226, 216); fill-opacity: 1; stroke-width: 0;"/>
              </g>
            </g>
            <g class="errorbars"/>
            <g class="lines">
              <path class="js-line" d="M659.35,32.18Q660.84,29.56 661.59,29.56C662.33,29.56 663.07,31.31 663.82,32.18C664.56,33.05 665.42,33.59 666.06,34.79C667.05,36.63 667.3,40.79 668.29,42.63C668.93,43.83 669.86,44.16 670.53,45.24C671.39,46.63 672.07,48.52 672.76,50.46Q673.59,52.79 675,58.3" style="vector-effect: none; fill: none; stroke: rgb(0, 90, 48); stroke-opacity: 1; stroke-width: 2px; opacity: 1;"/>
            </g>
            <g class="points"/>
            <g class="text"/>
          </g>
        </g>
      </g>
      <g class="overplot"/>
      <path class="xlines-above crisp" d="" style="fill: none; stroke-width: 1px; stroke: rgb(0, 0, 0); stroke-opacity: 0;"/>
      <path class="ylines-above crisp" d="M0,0" style="fill: none;"/>
      <g class="overlines-above"/>
      <g class="xaxislayer-above">
        <path class="xtick ticks crisp" d="M0,331v5" transform="translate(25,0)" style="stroke: rgb(68, 68, 68); stroke-opacity: 1; stroke-width: 1px;"/>
        <path class="xtick ticks crisp" d="M0,331v5" transform="translate(94.29,0)" style="stroke: rgb(68, 68, 68); stroke-opacity: 1; stroke-width: 1px;"/>
        <path class="xtick ticks crisp" d="M0,331v5" transform="translate(161.34,0)" style="stroke: rgb(68, 68, 68); stroke-opacity: 1; stroke-width: 1px;"/>
        <path class="xtick ticks crisp" d="M0,331v5" transform="translate(230.63,0)" style="stroke: rgb(68, 68, 68); stroke-opacity: 1; stroke-width: 1px;"/>
        <path class="xtick ticks crisp" d="M0,331v5" transform="translate(299.92,0)" style="stroke: rgb(68, 68, 68); stroke-opacity: 1; stroke-width: 1px;"/>
        <path class="xtick ticks crisp" d="M0,331v5" transform="translate(366.97,0)" style="stroke: rgb(68, 68, 68); stroke-opacity: 1; stroke-width: 1px;"/>
        <path class="xtick ticks crisp" d="M0,331v5" transform="translate(436.26,0)" style="stroke: rgb(68, 68, 68); stroke-opacity: 1; stroke-width: 1px;"/>
        <path class="xtick ticks crisp" d="M0,331v5" transform="translate(503.31,0)" style="stroke: rgb(68, 68, 68); stroke-opacity: 1; stroke-width: 1px;"/>
        <path class="xtick ticks crisp" d="M0,331v5" transform="translate(572.6,0)" style="stroke: rgb(68, 68, 68); stroke-opacity: 1; stroke-width: 1px;"/>
        <path class="xtick ticks crisp" d="M0,331v5" transform="translate(641.89,0)" style="stroke: rgb(68, 68, 68); stroke-opacity: 1; stroke-width: 1px;"/>
        <g class="xtick">
          <text text-anchor="middle" x="0" y="348" transform="translate(25,0)" style="font-family: 'GDS Transport', Arial, sans-serif; font-size: 10px; fill: rgb(107, 114, 118); fill-opacity: 1; white-space: pre; opacity: 1;">May 2022</text>
        </g>
        <g class="xtick">
          <text text-anchor="middle" x="0" y="348" style="font-family: 'GDS Transport', Arial, sans-serif; font-size: 10px; fill: rgb(107, 114, 118); fill-opacity: 1; white-space: pre; opacity: 1;" transform="translate(94.29,0)">Jun 2022</text>
        </g>
        <g class="xtick">
          <text text-anchor="middle" x="0" y="348" style="font-family: 'GDS Transport', Arial, sans-serif; font-size: 10px; fill: rgb(107, 114, 118); fill-opacity: 1; white-space: pre; opacity: 1;" transform="translate(161.34,0)">Jul 2022</text>
        </g>
        <g class="xtick">
          <text text-anchor="middle" x="0" y="348" style="font-family: 'GDS Transport', Arial, sans-serif; font-size: 10px; fill: rgb(107, 114, 118); fill-opacity: 1; white-space: pre; opacity: 1;" transform="translate(230.63,0)">Aug 2022</text>
        </g>
        <g class="xtick">
          <text text-anchor="middle" x="0" y="348" style="font-family: 'GDS Transport', Arial, sans-serif; font-size: 10px; fill: rgb(107, 114, 118); fill-opacity: 1; white-space: pre; opacity: 1;" transform="translate(299.92,0)">Sep 2022</text>
        </g>
        <g class="xtick">
          <text text-anchor="middle" x="0" y="348" style="font-family: 'GDS Transport', Arial, sans-serif; font-size: 10px; fill: rgb(107, 114, 118); fill-opacity: 1; white-space: pre; opacity: 1;" transform="translate(366.97,0)">Oct 2022</text>
        </g>
        <g class="xtick">
          <text text-anchor="middle" x="0" y="348" style="font-family: 'GDS Transport', Arial, sans-serif; font-size: 10px; fill: rgb(107, 114, 118); fill-opacity: 1; white-space: pre; opacity: 1;" transform="translate(436.26,0)">Nov 2022</text>
        </g>
        <g class="xtick">
          <text text-anchor="middle" x="0" y="348" style="font-family: 'GDS Transport', Arial, sans-serif; font-size: 10px; fill: rgb(107, 114, 118); fill-opacity: 1; white-space: pre; opacity: 1;" transform="translate(503.31,0)">Dec 2022</text>
        </g>
        <g class="xtick">
          <text text-anchor="middle" x="0" y="348" style="font-family: 'GDS Transport', Arial, sans-serif; font-size: 10px; fill: rgb(107, 114, 118); fill-opacity: 1; white-space: pre; opacity: 1;" transform="translate(572.6,0)">Jan 2023</text>
        </g>
        <g class="xtick">
          <text text-anchor="middle" x="0" y="348" style="font-family: 'GDS Transport', Arial, sans-serif; font-size: 10px; fill: rgb(107, 114, 118); fill-opacity: 1; white-space: pre; opacity: 1;" transform="translate(641.89,0)">Feb 2023</text>
        </g>
      </g>
      <g class="yaxislayer-above"/>
      <g class="overaxes-above"/>
    </g>
  </g>
  <g class="polarlayer"/>
  <g class="smithlayer"/>
  <g class="ternarylayer"/>
  <g class="geolayer"/>
  <g class="funnelarealayer"/>
  <g class="pielayer"/>
  <g class="iciclelayer"/>
  <g class="treemaplayer"/>
  <g class="sunburstlayer"/>
  <g class="glimages"/>
  <defs id="topdefs-83f408">
    <g class="clips"/>
  </defs>
  <g class="layer-above">
    <g class="imagelayer"/>
    <g class="shapelayer"/>
  </g>
  <g class="infolayer">
    <g class="g-gtitle"/>
    <g class="g-xtitle"/>
    <g class="g-ytitle"/>
  </g>
</svg>