<svg xmlns="http://www.w3.org/2000/svg" width="435" height="220" class="main-svg"><path fill="none" d="M0 0h435v220H0z" style="fill:#000;fill-opacity:0"/><defs><clipPath id="a" class="plotclip"><path d="M0 0h396v168H0z"/></clipPath></defs><g class="bglayer"><path fill="none" d="M17 0h396v168H17z" class="bg" style="fill:#000;fill-opacity:0;stroke-width:0"/></g><g class="cartesianlayer"><g class="subplot xy"><g class="zerolinelayer"><path d="M17 0h396" class="yzl zl crisp" style="stroke:#fff;stroke-opacity:1;stroke-width:2px" transform="translate(0 168)"/></g><g class="plot" clip-path="url(#a)" transform="translate(17)"><g class="barlayer mlayer"><g class="trace bars" style="opacity:1"><g class="points"><path d="M.92 168v-10.54h7.37V168ZM10.13 168v-9.03h7.37V168ZM19.34 168v-6.02h7.37V168ZM28.55 168v-4.02h7.37V168ZM37.76 168v-5.02h7.37V168ZM46.97 168v-5.52h7.36V168ZM56.18 168v-2.51h7.36V168ZM65.39 168v-2.51h7.36V168ZM74.6 168v-2.51h7.36V168ZM83.8 168v-3.51h7.37V168ZM93.01 168v-6.02h7.37V168ZM102.22 168v-3.01h7.37V168ZM111.43 168v-2.51h7.37V168ZM120.64 168v-3.51h7.37V168ZM129.85 168v-8.03h7.37V168ZM139.06 168v-4.52h7.37V168ZM148.27 168v-3.01h7.37V168ZM157.48 168v-5.52h7.37V168ZM166.69 168v-11.54h7.37V168ZM175.9 168v-16.56h7.37V168ZM185.11 168v-13.05h7.36V168ZM194.32 168v-16.56h7.36V168ZM203.53 168v-22.58h7.36V168ZM212.73 168v-29.11h7.37V168ZM221.94 168v-31.12h7.37V168ZM231.15 168v-38.14h7.37V168ZM240.36 168v-41.66h7.37V168ZM249.57 168v-46.68h7.37V168ZM258.78 168v-49.69h7.37V168ZM267.99 168v-63.74h7.37V168ZM277.2 168V81.17h7.37V168ZM286.41 168V50.06h7.37V168ZM295.62 168V17.94h7.37V168ZM304.83 168V8.4h7.37V168ZM314.04 168V27.97h7.36V168ZM323.25 168V90.21h7.36V168ZM332.46 168v-36.14h7.36V168ZM341.67 168v-17.06h7.36V168ZM350.87 168v-16.56h7.37V168ZM360.08 168v-14.05h7.37V168ZM369.29 168v-10.54h7.37V168ZM378.5 168v-12.55h7.37V168ZM387.71 168v-12.05h7.37V168Z" class="point" style="vector-effect:none;opacity:1;stroke-width:1px;fill:#5694ca;fill-opacity:1;stroke:#5694ca;stroke-opacity:1"/></g></g></g></g><g class="xaxislayer-above"><path d="M0 169v5" class="xtick ticks crisp" style="stroke:#444;stroke-opacity:1;stroke-width:1px" transform="translate(20.29)"/><path d="M0 169v5" class="xtick ticks crisp" style="stroke:#444;stroke-opacity:1;stroke-width:1px" transform="translate(61.07)"/><path d="M0 169v5" class="xtick ticks crisp" style="stroke:#444;stroke-opacity:1;stroke-width:1px" transform="translate(100.54)"/><path d="M0 169v5" class="xtick ticks crisp" style="stroke:#444;stroke-opacity:1;stroke-width:1px" transform="translate(141.33)"/><path d="M0 169v5" class="xtick ticks crisp" style="stroke:#444;stroke-opacity:1;stroke-width:1px" transform="translate(182.11)"/><path d="M0 169v5" class="xtick ticks crisp" style="stroke:#444;stroke-opacity:1;stroke-width:1px" transform="translate(221.58)"/><path d="M0 169v5" class="xtick ticks crisp" style="stroke:#444;stroke-opacity:1;stroke-width:1px" transform="translate(262.36)"/><path d="M0 169v5" class="xtick ticks crisp" style="stroke:#444;stroke-opacity:1;stroke-width:1px" transform="translate(301.83)"/><path d="M0 169v5" class="xtick ticks crisp" style="stroke:#444;stroke-opacity:1;stroke-width:1px" transform="translate(342.61)"/><path d="M0 169v5" class="xtick ticks crisp" style="stroke:#444;stroke-opacity:1;stroke-width:1px" transform="translate(383.4)"/><text y="188.4" class="xtick" style="font-family:Arial;font-size:12px;fill:#6b7276;fill-opacity:1;white-space:pre;opacity:1" transform="rotate(30 10.145 220.262)">May 2022</text><text y="188.4" class="xtick" style="font-family:Arial;font-size:12px;fill:#6b7276;fill-opacity:1;white-space:pre;opacity:1" transform="rotate(30 30.535 296.358)">Jun 2022</text><text y="188.4" class="xtick" style="font-family:Arial;font-size:12px;fill:#6b7276;fill-opacity:1;white-space:pre;opacity:1" transform="rotate(30 50.27 370.01)">Jul 2022</text><text y="188.4" class="xtick" style="font-family:Arial;font-size:12px;fill:#6b7276;fill-opacity:1;white-space:pre;opacity:1" transform="rotate(30 70.665 446.125)">Aug 2022</text><text y="188.4" class="xtick" style="font-family:Arial;font-size:12px;fill:#6b7276;fill-opacity:1;white-space:pre;opacity:1" transform="rotate(30 91.055 522.222)">Sep 2022</text><text y="188.4" class="xtick" style="font-family:Arial;font-size:12px;fill:#6b7276;fill-opacity:1;white-space:pre;opacity:1" transform="rotate(30 110.79 595.874)">Oct 2022</text><text y="188.4" class="xtick" style="font-family:Arial;font-size:12px;fill:#6b7276;fill-opacity:1;white-space:pre;opacity:1" transform="rotate(30 131.18 671.97)">Nov 2022</text><text y="188.4" class="xtick" style="font-family:Arial;font-size:12px;fill:#6b7276;fill-opacity:1;white-space:pre;opacity:1" transform="rotate(30 150.915 745.622)">Dec 2022</text><text y="188.4" class="xtick" style="font-family:Arial;font-size:12px;fill:#6b7276;fill-opacity:1;white-space:pre;opacity:1" transform="rotate(30 171.305 821.719)">Jan 2023</text></g><g class="yaxislayer-above"><text x="16" y="4.2" class="ytick" style="font-family:Arial;font-size:12px;fill:#6b7276;fill-opacity:1;white-space:pre;opacity:1" text-anchor="end" transform="translate(0 168)">0</text><text x="16" y="4.2" class="ytick" style="font-family:Arial;font-size:12px;fill:#6b7276;fill-opacity:1;white-space:pre;opacity:1" text-anchor="end" transform="translate(0 117.81)">10</text><text x="16" y="4.2" class="ytick" style="font-family:Arial;font-size:12px;fill:#6b7276;fill-opacity:1;white-space:pre;opacity:1" text-anchor="end" transform="translate(0 67.62)">20</text><text x="16" y="4.2" class="ytick" style="font-family:Arial;font-size:12px;fill:#6b7276;fill-opacity:1;white-space:pre;opacity:1" text-anchor="end" transform="translate(0 17.43)">30</text></g></g></g></svg>