<svg xmlns="http://www.w3.org/2000/svg" width="435" height="220" class="main-svg"><path fill="none" d="M0 0h435v220H0z" style="fill:#000;fill-opacity:0"/><defs><clipPath id="a" class="plotclip"><path d="M0 0h411v168H0z"/></clipPath></defs><g class="bglayer"><path fill="none" d="M0 0h411v168H0z" class="bg" style="fill:#000;fill-opacity:0;stroke-width:0"/></g><g class="cartesianlayer"><g class="subplot xy"><g class="zerolinelayer"><path d="M0 0h411" class="yzl zl crisp" style="stroke:#fff;stroke-opacity:1;stroke-width:2px" transform="translate(0 159.6)"/></g><g class="plot" clip-path="url(#a)"><g class="scatterlayer mlayer"><g class="trace scatter trace891772" style="stroke-miterlimit:2;opacity:1"><g class="lines"><path d="M0 35.98q6.28 59.17 9.79 59.26c3.07.08 6.02-44.69 9.78-44.95 2.95-.21 6.14 26.22 9.79 26.56 3 .28 5.8-14.61 9.78-16.35 2.88-1.26 6.94 3.39 9.79 2.05 4.12-1.93 6.4-18.25 9.78-18.39 3.16-.13 6.69 9.74 9.79 15.32 3.46 6.22 5.58 18.6 9.79 20.43 2.83 1.23 6.77-1.09 9.78-3.06 3.63-2.37 6.84-6.58 9.79-11.24 3.78-5.98 5.36-19.23 9.78-22.47 2.8-2.05 6.54-1.2 9.79-1.03 3.27.17 6.63.78 9.78 2.05 3.39 1.37 6.68 3.6 9.79 6.13 3.45 2.8 6.88 5.77 9.79 10.21 3.9 5.96 5.95 17.33 9.78 23.5 2.93 4.72 6.64 7.17 9.79 11.24 3.39 4.39 5.97 11.48 9.78 14.3 2.94 2.17 6.49 2.39 9.79 3.07 3.23.67 6.7-.28 9.78 1.02 3.5 1.48 6.96 8.93 9.79 8.17 4.22-1.13 5.66-25.58 9.79-26.56 2.85-.67 6.64 5.78 9.78 9.19 3.4 3.68 7 12.87 9.79 12.26 4.51-.99 4.28-36.37 9.78-39.84 2.72-1.71 6.95 3.41 9.79 2.04 4.18-2.02 6.8-19.66 9.78-19.41 3.68.31 5.1 29.93 9.79 31.67 2.77 1.03 6.38-5.15 9.79-6.13 3.14-.9 6.74 1.2 9.78 0 3.56-1.41 6.31-8.56 9.79-9.19 3.09-.56 6.75 4.79 9.78 4.08 3.59-.84 6.29-8.24 9.79-11.23 3.08-2.63 6.6-6.35 9.78-6.13 3.35.23 6.84 8.75 9.79 8.17 3.77-.74 6.02-17.65 9.79-18.39 2.95-.58 6.93 8.89 9.78 8.17 4.11-1.04 6.11-24.11 9.79-24.52 2.98-.33 6.34 14.03 9.78 14.31 3.11.26 6.39-9.92 9.79-10.22 3.14-.28 6.76 7.67 9.78 7.15q3.61-.62 9.79-14.3" class="js-line" style="vector-effect:none;fill:none;stroke:#f47738;stroke-opacity:1;stroke-width:2px;opacity:1"/></g></g><g class="trace scatter trace920a3b" style="stroke-miterlimit:2;opacity:1"><g class="lines"><path d="M0 105.45q6.26 24.28 9.79 24.52c3.06.2 6.44-11.8 9.78-17.36 3.19-5.31 5.84-13.17 9.79-15.33 2.89-1.59 6.64.9 9.78 0 3.41-.98 6.98-7.07 9.79-6.13 4.33 1.45 6.55 25.56 9.78 25.54 3.29-.02 5.13-23.98 9.79-26.56 2.77-1.54 7.05 3.67 9.79 2.04 5.06-3.01 6.62-21.37 9.78-32.69 3.38-12.11 5.46-28.71 9.79-37.8 2.81-5.91 7.02-13.88 9.78-13.28 4.71 1.03 4.26 39.04 9.79 46.99 2.71 3.9 6.42 4.58 9.78 6.13 3.17 1.46 6.55 3.22 9.79 3.07 3.29-.15 6.46-3.6 9.79-4.09 3.2-.47 7.01-1.11 9.78 1.02 4.62 3.55 5.25 21.27 9.79 25.54 2.78 2.61 6.98.51 9.78 3.07 4.41 4.03 6.35 16.22 9.79 23.5 3.11 6.58 5.64 16.19 9.78 18.39 2.85 1.51 6.54-1.2 9.79-1.03 3.28.17 6.99 3.5 9.79 2.05 4.39-2.27 5.39-18.91 9.78-22.48 2.8-2.28 6.55-1.2 9.79-2.04 3.28-.85 7.04-.31 9.78-3.07 4.93-4.96 6.2-31.44 9.79-31.67 3.03-.19 5.56 19.8 9.78 21.46 2.83 1.11 6.96-5.2 9.79-4.09 4.22 1.65 6.49 21.43 9.79 21.46 3.23.03 6.32-14.21 9.78-20.44 3.1-5.58 5.96-12.1 9.79-15.32 2.93-2.46 6.98-5.26 9.78-4.09 4.42 1.85 6.9 24.78 9.79 24.52 3.94-.35 6.26-47.9 9.78-48.02 3.06-.1 6.07 25.48 9.79 35.76 2.97 8.2 6.99 21.83 9.79 21.46 4.43-.58 6.53-58.24 9.78-58.24 3.28 0 3.11 54.17 9.79 59.26 2.7 2.06 7.05 1.26 9.78-1.02 5.16-4.31 6.13-23.86 9.79-33.72 3-8.08 6.87-12.99 9.78-21.45q3.89-11.29 9.79-40.87" class="js-line" style="vector-effect:none;fill:none;stroke:#f47738;stroke-opacity:1;stroke-dasharray:9px,9px;stroke-width:2px;opacity:1"/></g></g><g class="trace scatter trace06c1c2" style="stroke-miterlimit:2;opacity:1"><g class="lines"><path d="M0 137.12q6.77 5.75 9.79 5.11c3.6-.76 6.18-11.5 9.78-12.26 3.02-.64 6.6 3.13 9.79 5.11 3.34 2.08 6.95 7.98 9.78 7.15 4.25-1.25 6.36-25.4 9.79-25.54 3.12-.13 5.83 19.43 9.78 20.43 2.89.73 6.61-7.35 9.79-7.15 3.35.21 6.81 9.69 9.79 9.2 3.71-.61 5.66-15.3 9.78-18.39 2.85-2.14 7.09.81 9.79-2.04 6.85-7.21 6.07-63.19 9.78-63.35 2.97-.13 5.19 30.98 9.79 39.85 2.77 5.35 6.15 8.87 9.78 11.24 3.01 1.97 6.97.57 9.79 3.06 4.28 3.77 5.78 20.4 9.79 21.45 2.88.75 6.33-5.82 9.78-7.15 3.11-1.2 6.85-2.32 9.79-1.02 3.8 1.68 6.43 13.14 9.78 13.28 3.18.13 6.2-10.4 9.79-11.24 3.03-.71 6.85 1.63 9.78 4.09 3.83 3.22 5.87 12.63 9.79 15.33 2.9 2 6.55 2.2 9.79 2.04 3.28-.16 6.77-1.1 9.78-3.07 3.63-2.37 6.8-11.64 9.79-11.23 3.68.5 6.32 20.22 9.78 20.43 3.1.19 6.01-14.32 9.79-15.33 2.95-.79 6.66 5.54 9.78 5.11 3.44-.47 6.44-8.98 9.79-9.19 3.18-.2 6.41 5.24 9.79 7.15 3.16 1.78 6.47 3.06 9.78 4.09 3.22 1 6.57 2.35 9.79 2.04 3.31-.32 6.52-2.73 9.78-4.09 3.26-1.36 6.46-3.23 9.79-4.08 3.2-.82 6.52-.69 9.78-1.03 3.26-.34 6.54-.51 9.79-1.02 3.28-.51 6.64-.77 9.79-2.04 3.39-1.36 6.67-6.52 9.78-6.13 3.45.43 6.26 9.48 9.79 10.22 3.06.64 6.72-1.99 9.78-4.09 3.53-2.42 6.64-10.42 9.79-10.22 3.4.22 6.28 12.86 9.78 13.28q3.08.37 9.79-8.17" class="js-line" style="vector-effect:none;fill:none;stroke:#00703c;stroke-opacity:1;stroke-width:2px;opacity:1"/></g></g><g class="trace scatter traceda6f3e" style="stroke-miterlimit:2;opacity:1"><g class="lines"><path d="M0 151.43q6.56 4.22 9.79 4.08c3.29-.14 6.46-3.73 9.78-5.1 3.2-1.33 6.59-1.74 9.79-3.07 3.32-1.38 6.66-5.54 9.78-5.11 3.44.47 6.28 7.15 9.79 9.2 3.07 1.79 6.58 3.35 9.78 3.06 3.32-.3 6.49-3.57 9.79-5.11 3.23-1.51 6.7-4.64 9.79-4.08 3.48.63 6.52 9.19 9.78 9.19s6.61-9.35 9.79-9.19c3.35.17 6.6 11.37 9.78 11.24 3.35-.14 6.01-10.86 9.79-13.29 2.94-1.89 6.88-3.26 9.78-2.04 3.92 1.65 5.91 13.92 9.79 15.33 2.91 1.06 6.91-.74 9.79-3.07 4.01-3.25 6.06-16.69 9.78-17.37 2.97-.54 6.33 6.29 9.79 8.18 3.1 1.69 6.55 3.21 9.78 3.06 3.29-.15 6.79-4.86 9.79-4.09 3.65.93 6.23 11.65 9.78 12.26 3.05.52 6.49-6 9.79-6.13 3.23-.13 6.44 3.91 9.79 5.11 3.18 1.14 6.51 1.88 9.78 2.05 3.25.17 6.59-1.5 9.79-1.03 3.32.49 6.59 4.35 9.78 4.09 3.33-.27 6.39-4.96 9.79-6.13 3.14-1.08 6.55-.35 9.78-1.02 3.3-.68 6.58-1.74 9.79-3.07 3.33-1.37 6.64-5.44 9.79-5.1 3.39.37 6.3 7.3 9.78 8.17 3.09.77 6.51-1.7 9.79-2.04 3.24-.33 6.58-.64 9.78 0 3.33.67 6.48 3.77 9.79 4.08 3.21.31 6.51-1.87 9.78-2.04 3.25-.17 6.54 1.19 9.79 1.02 3.28-.17 6.57-1.04 9.79-2.04 3.31-1.03 6.52-4.09 9.78-4.09s6.46 3.42 9.79 4.09c3.2.64 6.56.49 9.78 0 3.3-.51 6.69-3.69 9.79-3.07 3.46.69 6.35 7.66 9.78 8.18q3.13.47 9.79-4.09" class="js-line" style="vector-effect:none;fill:none;stroke:#4c2c92;stroke-opacity:1;stroke-dasharray:9px,9px;stroke-width:2px;opacity:1"/></g></g><g class="trace scatter tracea30232" style="stroke-miterlimit:2;opacity:1"><g class="lines"><path d="M0 151.43q6.73-4.73 9.79-4.09c3.53.74 6.21 9.3 9.78 10.22 3.04.78 6.59-1.74 9.79-3.07 3.32-1.38 6.63-5.45 9.78-5.11 3.39.36 6.3 7.31 9.79 8.18 3.09.77 6.66-.66 9.78-2.05 3.43-1.53 6.45-6.9 9.79-7.15 3.19-.24 6.49 4.97 9.79 5.11 3.23.14 6.72-4.73 9.78-4.09 3.53.74 6.61 10.36 9.79 10.22 3.35-.15 6.28-11.79 9.78-12.26 3.08-.41 6.45 6.9 9.79 7.15 3.19.24 6.52-5.11 9.78-5.11s6.64 5.45 9.79 5.11c3.39-.36 6.49-8.06 9.79-8.17 3.22-.1 6.37 5.43 9.78 7.15 3.14 1.58 6.49 2.56 9.79 3.07 3.22.49 6.68 1.01 9.78 0 3.46-1.13 6.35-5.63 9.79-7.16 3.12-1.39 6.66-2.71 9.78-2.04 3.44.74 6.34 5.82 9.79 7.15 3.11 1.2 6.52.85 9.79 1.02 3.26.17 6.58-.64 9.78 0 3.33.67 6.48 3.77 9.79 4.09 3.21.31 6.51-1.53 9.78-2.04 3.25-.51 6.52-.85 9.79-1.02 3.26-.17 6.52 0 9.78 0s6.59.64 9.79 0c3.33-.67 6.53-4.09 9.79-4.09 3.26 0 6.47 3.78 9.78 4.09 3.22.31 6.55-2.21 9.79-2.05 3.28.16 6.48 2.74 9.78 3.07 3.23.32 6.53-1.02 9.79-1.02 3.26 0 6.55 1.34 9.78 1.02 3.3-.33 6.49-2.56 9.79-3.07 3.23-.49 6.53.17 9.79 0 3.27-.17 6.52-.68 9.78-1.02 3.26-.34 6.56-1.34 9.79-1.02 3.3.33 6.48 2.38 9.78 3.06 3.23.67 6.52.86 9.79 1.03 3.26.17 6.71 1.11 9.78 0q3.51-1.27 9.79-8.18" class="js-line" style="vector-effect:none;fill:none;stroke:#003078;stroke-opacity:1;stroke-width:2px;opacity:1"/></g></g></g></g><g class="xaxislayer-above"><path d="M0 169v5" class="xtick ticks crisp" style="stroke:#444;stroke-opacity:1;stroke-width:1px" transform="translate(41.94)"/><path d="M0 169v5" class="xtick ticks crisp" style="stroke:#444;stroke-opacity:1;stroke-width:1px" transform="translate(83.88)"/><path d="M0 169v5" class="xtick ticks crisp" style="stroke:#444;stroke-opacity:1;stroke-width:1px" transform="translate(127.21)"/><path d="M0 169v5" class="xtick ticks crisp" style="stroke:#444;stroke-opacity:1;stroke-width:1px" transform="translate(170.55)"/><path d="M0 169v5" class="xtick ticks crisp" style="stroke:#444;stroke-opacity:1;stroke-width:1px" transform="translate(212.49)"/><path d="M0 169v5" class="xtick ticks crisp" style="stroke:#444;stroke-opacity:1;stroke-width:1px" transform="translate(255.83)"/><path d="M0 169v5" class="xtick ticks crisp" style="stroke:#444;stroke-opacity:1;stroke-width:1px" transform="translate(297.77)"/><path d="M0 169v5" class="xtick ticks crisp" style="stroke:#444;stroke-opacity:1;stroke-width:1px" transform="translate(341.1)"/><path d="M0 169v5" class="xtick ticks crisp" style="stroke:#444;stroke-opacity:1;stroke-width:1px" transform="translate(384.44)"/><text y="188.4" class="xtick" style="font-family:Arial;font-size:12px;fill:#0b0c0c;fill-opacity:1;white-space:pre;opacity:1" transform="rotate(30 20.97 260.661)">Jun 2022</text><text y="188.4" class="xtick" style="font-family:Arial;font-size:12px;fill:#0b0c0c;fill-opacity:1;white-space:pre;opacity:1" transform="rotate(30 41.94 338.922)">Jul 2022</text><text y="188.4" class="xtick" style="font-family:Arial;font-size:12px;fill:#0b0c0c;fill-opacity:1;white-space:pre;opacity:1" transform="rotate(30 63.605 419.777)">Aug 2022</text><text y="188.4" class="xtick" style="font-family:Arial;font-size:12px;fill:#0b0c0c;fill-opacity:1;white-space:pre;opacity:1" transform="rotate(30 85.275 500.65)">Sep 2022</text><text y="188.4" class="xtick" style="font-family:Arial;font-size:12px;fill:#0b0c0c;fill-opacity:1;white-space:pre;opacity:1" transform="rotate(30 106.245 578.912)">Oct 2022</text><text y="188.4" class="xtick" style="font-family:Arial;font-size:12px;fill:#0b0c0c;fill-opacity:1;white-space:pre;opacity:1" transform="rotate(30 127.915 659.785)">Nov 2022</text><text y="188.4" class="xtick" style="font-family:Arial;font-size:12px;fill:#0b0c0c;fill-opacity:1;white-space:pre;opacity:1" transform="rotate(30 148.885 738.046)">Dec 2022</text><text y="188.4" class="xtick" style="font-family:Arial;font-size:12px;fill:#0b0c0c;fill-opacity:1;white-space:pre;opacity:1" transform="rotate(30 170.55 818.901)">Jan 2023</text></g></g></g><defs><clipPath id="b"><path d="M0 0h155v105H0z"/></clipPath></defs><g class="infolayer"><g class="legend" pointer-events="all"><path fill="none" d="M0 0h155v105H0z" class="bg" shape-rendering="crispEdges" style="stroke:#444;stroke-opacity:1;fill:#000;fill-opacity:0;stroke-width:0"/><g class="scrollbox" clip-path="url(#b)"><g class="groups"><g class="traces" style="opacity:1"><text x="40" y="4.68" class="legendtext" style="font-family:&quot;Open Sans&quot;,verdana,arial,sans-serif;font-size:12px;fill:#2a3f5f;fill-opacity:1;white-space:pre" transform="translate(0 14.5)">0 to 4 years</text><g class="layers" style="opacity:1"><g class="legendlines"><path d="M5 0h30" class="js-line" style="fill:none;stroke:#f47738;stroke-opacity:1;stroke-width:2px" transform="translate(0 14.5)"/></g></g><path fill="none" d="M0-9.5h149.141v19H0z" class="legendtoggle" style="fill:#000;fill-opacity:0" transform="translate(0 14.5)"/></g><g class="traces" style="opacity:1"><text x="40" y="4.68" class="legendtext" style="font-family:&quot;Open Sans&quot;,verdana,arial,sans-serif;font-size:12px;fill:#2a3f5f;fill-opacity:1;white-space:pre" transform="translate(0 33.5)">5 to 14 years</text><g class="layers" style="opacity:1"><g class="legendlines"><path d="M5 0h30" class="js-line" style="fill:none;stroke:#f47738;stroke-opacity:1;stroke-dasharray:9px,9px;stroke-width:2px" transform="translate(0 33.5)"/></g></g><path fill="none" d="M0-9.5h149.141v19H0z" class="legendtoggle" style="fill:#000;fill-opacity:0" transform="translate(0 33.5)"/></g><g class="traces" style="opacity:1"><text x="40" y="4.68" class="legendtext" style="font-family:&quot;Open Sans&quot;,verdana,arial,sans-serif;font-size:12px;fill:#2a3f5f;fill-opacity:1;white-space:pre" transform="translate(0 52.5)">15 to 44 years</text><g class="layers" style="opacity:1"><g class="legendlines"><path d="M5 0h30" class="js-line" style="fill:none;stroke:#00703c;stroke-opacity:1;stroke-width:2px" transform="translate(0 52.5)"/></g></g><path fill="none" d="M0-9.5h149.141v19H0z" class="legendtoggle" style="fill:#000;fill-opacity:0" transform="translate(0 52.5)"/></g><g class="traces" style="opacity:1"><text x="40" y="4.68" class="legendtext" style="font-family:&quot;Open Sans&quot;,verdana,arial,sans-serif;font-size:12px;fill:#2a3f5f;fill-opacity:1;white-space:pre" transform="translate(0 71.5)">45 to 64 years</text><g class="layers" style="opacity:1"><g class="legendlines"><path d="M5 0h30" class="js-line" style="fill:none;stroke:#4c2c92;stroke-opacity:1;stroke-dasharray:9px,9px;stroke-width:2px" transform="translate(0 71.5)"/></g></g><path fill="none" d="M0-9.5h149.141v19H0z" class="legendtoggle" style="fill:#000;fill-opacity:0" transform="translate(0 71.5)"/></g><g class="traces" style="opacity:1"><text x="40" y="4.68" class="legendtext" style="font-family:&quot;Open Sans&quot;,verdana,arial,sans-serif;font-size:12px;fill:#2a3f5f;fill-opacity:1;white-space:pre" transform="translate(0 90.5)">65 years and over</text><g class="layers" style="opacity:1"><g class="legendlines"><path d="M5 0h30" class="js-line" style="fill:none;stroke:#003078;stroke-opacity:1;stroke-width:2px" transform="translate(0 90.5)"/></g></g><path fill="none" d="M0-9.5h149.141v19H0z" class="legendtoggle" style="fill:#000;fill-opacity:0" transform="translate(0 90.5)"/></g></g></g></g></g></svg>