<svg xmlns="http://www.w3.org/2000/svg" width="435" height="220" class="main-svg"><path fill="none" d="M0 0h435v220H0z" style="fill:#000;fill-opacity:0"/><defs><clipPath id="a" class="plotclip"><path d="M0 0h368v168H0z"/></clipPath></defs><g class="bglayer"><path fill="none" d="M24 0h368v168H24z" class="bg" style="fill:#000;fill-opacity:0;stroke-width:0"/></g><g class="cartesianlayer"><g class="subplot xy"><g class="zerolinelayer"><path d="M24 0h368" class="yzl zl crisp" style="stroke:#fff;stroke-opacity:1;stroke-width:2px" transform="translate(0 168)"/></g><g class="plot" clip-path="url(#a)" transform="translate(24)"><g class="barlayer mlayer"><g class="trace bars" style="opacity:1"><g class="points"><path d="M.12 168V61.69h.94V168ZM1.3 168V62.02h.94V168ZM2.48 168V62.96h.94V168ZM3.66 168V66.29h.94V168ZM4.84 168V70.31h.94V168ZM6.02 168V75.15h.94V168ZM7.19 168V79.72h.95V168ZM8.37 168V80.32h.95V168ZM9.55 168V81.1h.95V168ZM10.73 168V84.32h.95V168ZM11.91 168V88.06h.95V168ZM13.09 168V92.97h.95V168ZM14.27 168V95.65h.95V168ZM15.45 168V98.14h.94V168ZM16.63 168V98.02h.94V168ZM17.81 168V99.54h.94V168ZM18.99 168v-65.15h.94V168ZM20.17 168v-61.65h.94V168ZM21.35 168v-60.87h.94V168ZM22.53 168v-58.95h.94V168ZM23.71 168v-57.56h.94V168ZM24.89 168v-57.36h.94V168ZM26.07 168v-56.94h.94V168ZM27.25 168v-52.72h.94V168ZM28.43 168v-51.01h.94V168ZM29.61 168v-49.61h.94V168ZM30.78 168v-47.7h.95V168ZM31.96 168v-45.6h.95V168ZM33.14 168v-45.66h.95V168ZM34.32 168v-46.49h.95V168ZM35.5 168v-45.87h.95V168ZM36.68 168v-43.18h.95V168ZM37.86 168v-43.65h.95V168ZM39.04 168v-43.74h.94V168ZM40.22 168v-43.58h.94V168ZM41.4 168v-45.06h.94V168ZM42.58 168v-46.89h.94V168ZM43.76 168v-46.68h.94V168ZM44.94 168v-46.55h.94V168ZM46.12 168v-46.39h.94V168ZM47.3 168v-48.43h.94V168ZM48.48 168v-48.38h.94V168ZM49.66 168v-50.09h.94V168ZM50.84 168v-52.3h.94V168ZM52.02 168v-53.66h.94V168ZM53.19 168v-55.04h.95V168ZM54.37 168v-56.91h.95V168ZM55.55 168v-57.24h.95V168ZM56.73 168v-58.9h.95V168ZM57.91 168v-61.78h.95V168ZM59.09 168v-65.07h.95V168ZM60.27 168V99.79h.95V168ZM61.45 168V97.8h.94V168ZM62.63 168V95.26h.94V168ZM63.81 168V91.27h.94V168ZM64.99 168V88.76h.94V168ZM66.17 168V83.28h.94V168ZM67.35 168V79.11h.94V168ZM68.53 168V75.72h.94V168ZM69.71 168V70.41h.94V168ZM70.89 168V66.54h.94V168ZM72.07 168V61.3h.94V168ZM73.25 168V58.54h.94V168ZM74.43 168V54.86h.94V168ZM75.61 168V46.88h.94V168ZM76.78 168V42.44h.95V168ZM77.96 168V37.71h.95V168ZM79.14 168V33.02h.95V168ZM80.32 168V28.41h.95V168ZM81.5 168V26.63h.95V168ZM82.68 168V21.64h.95V168ZM83.86 168V16.45h.95V168ZM85.04 168V13.21h.94V168ZM86.22 168V11.84h.94V168ZM87.4 168V11.09h.94V168ZM88.58 168V9.18h.94V168ZM89.76 168V12.3h.94V168ZM90.94 168V10.72h.94V168ZM92.12 168V8.4h.94V168ZM93.3 168V10.75h.94V168ZM94.48 168V14.07h.94V168ZM95.66 168V16h.94v152ZM96.84 168V18.2h.94V168ZM98.02 168V26.23h.94V168ZM99.19 168V24.91h.95V168ZM100.37 168V25.62h.95V168ZM101.55 168V30.34h.95V168ZM102.73 168V32.61h.95V168ZM103.91 168V38.03h.95V168ZM105.09 168V41.3h.95V168ZM106.27 168V48.35h.95V168ZM107.45 168V49.46h.94V168ZM108.63 168V49.62h.94V168ZM109.81 168V52.35h.94V168ZM110.99 168V56.44h.94V168ZM112.17 168V60.06h.94V168ZM113.35 168V63.99h.94V168ZM114.53 168V67.93h.94V168ZM115.71 168V67.94h.94V168ZM116.89 168V66.99h.94V168ZM118.07 168V69.99h.94V168ZM119.25 168V71.55h.94V168ZM120.43 168V73.37h.94V168ZM121.61 168V76.27h.94V168ZM122.78 168V77.17h.95V168ZM123.96 168V75.29h.95V168ZM125.14 168V76.09h.95V168ZM126.32 168V78.99h.95V168ZM127.5 168V82.93h.95V168ZM128.68 168V83.67h.95V168ZM129.86 168V87.94h.95V168ZM131.04 168V91.18h.94V168ZM132.22 168V92.01h.94V168ZM133.4 168V90.69h.94V168ZM134.58 168V94.86h.94V168ZM135.76 168V96.38h.94V168ZM136.94 168V96.98h.94V168ZM138.12 168v-66.42h.94V168ZM139.3 168v-65.52h.94V168ZM140.48 168v-64.97h.94V168ZM141.66 168v-65.55h.94V168ZM142.84 168v-65.27h.94V168ZM144.02 168v-64.3h.94V168ZM145.19 168v-63.12h.95V168ZM146.37 168v-60.62h.95V168ZM147.55 168v-58.9h.95V168ZM148.73 168v-59.2h.95V168ZM149.91 168v-59.33h.95V168ZM151.09 168v-57.5h.95V168ZM152.27 168v-55.28h.95V168ZM153.45 168v-55.47h.94V168ZM154.63 168v-54.51h.94V168ZM155.81 168v-52.84h.94V168ZM156.99 168v-53.32h.94V168ZM158.17 168v-53.03h.94V168ZM159.35 168v-52.62h.94V168ZM160.53 168v-51.59h.94V168ZM161.71 168v-51.95h.94V168ZM162.89 168v-51.63h.94V168ZM164.07 168v-50.76h.94V168ZM165.25 168v-51.78h.94V168ZM166.43 168v-53.37h.94V168ZM167.61 168v-55.53h.94V168ZM168.78 168v-58.44h.95V168ZM169.96 168v-60.98h.95V168ZM171.14 168v-63.69h.95V168ZM172.32 168v-65.61h.95V168ZM173.5 168V99.3h.95V168ZM174.68 168V94.83h.95V168ZM175.86 168V91.2h.95V168ZM177.04 168V88.18h.94V168ZM178.22 168V85.26h.94V168ZM179.4 168V80.81h.94V168ZM180.58 168V76.3h.94V168ZM181.76 168V72.84h.94V168ZM182.94 168V67.38h.94V168ZM184.12 168V62.46h.94V168ZM185.3 168V58.55h.94V168ZM186.48 168V55.24h.94V168ZM187.66 168V53.56h.94V168ZM188.84 168V53.8h.94V168ZM190.02 168V52.3h.94V168ZM191.19 168V49.85h.95V168ZM192.37 168V48.43h.95V168ZM193.55 168V47.45h.95V168ZM194.73 168V48.4h.95V168ZM195.91 168V49.58h.95V168ZM197.09 168V48.65h.95V168ZM198.27 168V47.72h.95V168ZM199.45 168V46.54h.94V168ZM200.63 168V47.61h.94V168ZM201.81 168V49.96h.94V168ZM202.99 168V52.89h.94V168ZM204.17 168V55.1h.94V168ZM205.35 168V56.89h.94V168ZM206.53 168V57.14h.94V168ZM207.71 168V57.86h.94V168ZM208.89 168V61.48h.94V168ZM210.07 168V64.23h.94V168ZM211.25 168V67.31h.94V168ZM212.43 168V69.55h.94V168ZM213.61 168V73.4h.94V168ZM214.78 168V74.42h.95V168ZM215.96 168V76.87h.95V168ZM217.14 168V81.73h.95V168ZM218.32 168V85.09h.95V168ZM219.5 168V88.8h.95V168ZM220.68 168V92.53h.95V168ZM221.86 168V95.75h.95V168ZM223.04 168V97.16h.94V168ZM224.22 168V98.96h.94V168ZM225.4 168v-67.11h.94V168ZM226.58 168v-64.17h.94V168ZM227.76 168v-63.04h.94V168ZM228.94 168v-61.05h.94V168ZM230.12 168v-59.75h.94V168ZM231.3 168v-59.88h.94V168ZM232.48 168v-60.05h.94V168ZM233.66 168v-58.7h.94V168ZM234.84 168v-56.94h.94V168ZM236.02 168v-55.03h.94V168ZM237.19 168v-54.22h.95V168ZM238.37 168v-53.37h.95V168ZM239.55 168v-53.48h.95V168ZM240.73 168v-53.51h.95V168ZM241.91 168v-53.16h.95V168ZM243.09 168v-52.28h.95V168ZM244.27 168v-53.42h.95V168ZM245.45 168v-52.71h.94V168ZM246.63 168v-51.91h.94V168ZM247.81 168v-52.72h.94V168ZM248.99 168v-54.26h.94V168ZM250.17 168v-55.08h.94V168ZM251.35 168v-56.41h.94V168ZM252.53 168v-56.71h.94V168ZM253.71 168v-57.13h.94V168ZM254.89 168v-57.07h.94V168ZM256.07 168v-58.58h.94V168ZM257.25 168v-60.06h.94V168ZM258.43 168v-61.16h.94V168ZM259.61 168v-62.51h.94V168ZM260.78 168v-64h.95v64ZM261.96 168v-65.58h.95V168ZM263.14 168v-67.28h.95V168ZM264.32 168V99.17h.95V168ZM265.5 168V97.87h.95V168ZM266.68 168V95.62h.95V168ZM267.86 168V91.63h.95V168ZM269.04 168V89.31h.94V168ZM270.22 168V86.67h.94V168ZM271.4 168V83.95h.94V168ZM272.58 168V80.63h.94V168ZM273.76 168V77.02h.94V168ZM274.94 168V73.22h.94V168ZM276.12 168V69.78h.94V168ZM277.3 168V66.64h.94V168ZM278.48 168V65.19h.94V168ZM279.66 168V65.22h.94V168ZM280.84 168V65.96h.94V168ZM282.02 168V63.7h.94V168ZM283.19 168V62.88h.95V168ZM284.37 168V60.51h.95V168ZM285.55 168V59.64h.95V168ZM286.73 168V59.7h.95V168ZM287.91 168V61.63h.95V168ZM289.09 168V60.98h.95V168ZM290.27 168V60.82h.95V168ZM291.45 168V62.41h.94V168ZM292.63 168V61.95h.94V168ZM293.81 168V64.9h.94V168ZM294.99 168V69.46h.94V168ZM296.17 168V70.87h.94V168ZM297.35 168V72.59h.94V168ZM298.53 168V72.9h.94V168ZM299.71 168V76.7h.94V168ZM300.89 168V80.01h.94V168ZM302.07 168V83.67h.94V168ZM303.25 168V86.59h.94V168ZM304.43 168V90.01h.94V168ZM305.61 168V90.95h.94V168ZM306.78 168V91.62h.95V168ZM307.96 168V93.08h.95V168ZM309.14 168V96.42h.95V168ZM310.32 168V99.86h.95V168ZM311.5 168v-66.91h.95V168ZM312.68 168v-64.84h.95V168ZM313.86 168v-64.74h.95V168ZM315.04 168v-66.11h.94V168ZM316.22 168v-64.08h.94V168ZM317.4 168v-64h.94v64ZM318.58 168v-64.58h.94V168ZM319.76 168v-64.87h.94V168ZM320.94 168v-65.34h.94V168ZM322.12 168v-66.3h.94V168ZM323.3 168v-67.72h.94V168ZM324.48 168V99.64h.94V168ZM325.66 168V99.19h.94V168ZM326.84 168V97.58h.94V168ZM328.02 168V96.54h.94V168ZM329.19 168V97.51h.95V168ZM330.37 168V96.04h.95V168ZM331.55 168V94.31h.95V168ZM332.73 168V95.21h.95V168ZM333.91 168V95.47h.95V168ZM335.09 168V95.23h.95V168ZM336.27 168V94.64h.95V168ZM337.45 168V94.44h.94V168ZM338.63 168V91.58h.94V168ZM339.81 168V88.98h.94V168ZM340.99 168V88.1h.94V168ZM342.17 168V86.07h.94V168ZM343.35 168V85.3h.94V168ZM344.53 168V84.23h.94V168ZM345.71 168V82.95h.94V168ZM346.89 168V80.89h.94V168ZM348.07 168V78.01h.94V168ZM349.25 168V78.15h.94V168ZM350.43 168V76.92h.94V168ZM351.61 168V75.87h.94V168ZM352.78 168V81.65h.95V168ZM353.96 168V82.93h.95V168ZM355.14 168V81.86h.95V168ZM356.32 168V81.38h.95V168ZM357.5 168V81.65h.95V168ZM358.68 168V82.69h.95V168ZM359.86 168V82.52h.95V168ZM361.04 168V83.13h.94V168ZM362.22 168V84.7h.94V168ZM363.4 168V83.11h.94V168ZM364.58 168V81.95h.94V168ZM365.76 168V81.77h.94V168ZM366.94 168V81.01h.94V168Z" class="point" style="vector-effect:none;opacity:1;stroke-width:1px;fill:#5694ca;fill-opacity:1;stroke:#5694ca;stroke-opacity:1"/></g></g></g></g><g class="xaxislayer-above"><path d="M0 169v5" class="xtick ticks crisp" style="stroke:#444;stroke-opacity:1;stroke-width:1px" transform="translate(24.59)"/><path d="M0 169v5" class="xtick ticks crisp" style="stroke:#444;stroke-opacity:1;stroke-width:1px" transform="translate(61.15)"/><path d="M0 169v5" class="xtick ticks crisp" style="stroke:#444;stroke-opacity:1;stroke-width:1px" transform="translate(96.54)"/><path d="M0 169v5" class="xtick ticks crisp" style="stroke:#444;stroke-opacity:1;stroke-width:1px" transform="translate(133.1)"/><path d="M0 169v5" class="xtick ticks crisp" style="stroke:#444;stroke-opacity:1;stroke-width:1px" transform="translate(169.67)"/><path d="M0 169v5" class="xtick ticks crisp" style="stroke:#444;stroke-opacity:1;stroke-width:1px" transform="translate(205.05)"/><path d="M0 169v5" class="xtick ticks crisp" style="stroke:#444;stroke-opacity:1;stroke-width:1px" transform="translate(241.62)"/><path d="M0 169v5" class="xtick ticks crisp" style="stroke:#444;stroke-opacity:1;stroke-width:1px" transform="translate(277)"/><path d="M0 169v5" class="xtick ticks crisp" style="stroke:#444;stroke-opacity:1;stroke-width:1px" transform="translate(313.56)"/><path d="M0 169v5" class="xtick ticks crisp" style="stroke:#444;stroke-opacity:1;stroke-width:1px" transform="translate(350.13)"/><path d="M0 169v5" class="xtick ticks crisp" style="stroke:#444;stroke-opacity:1;stroke-width:1px" transform="translate(383.15)"/><text y="188.4" class="xtick" style="font-family:Arial;font-size:12px;fill:#6b7276;fill-opacity:1;white-space:pre;opacity:1" transform="rotate(30 12.295 228.286)">May 2022</text><text y="188.4" class="xtick" style="font-family:Arial;font-size:12px;fill:#6b7276;fill-opacity:1;white-space:pre;opacity:1" transform="rotate(30 30.575 296.507)">Jun 2022</text><text y="188.4" class="xtick" style="font-family:Arial;font-size:12px;fill:#6b7276;fill-opacity:1;white-space:pre;opacity:1" transform="rotate(30 48.27 362.546)">Jul 2022</text><text y="188.4" class="xtick" style="font-family:Arial;font-size:12px;fill:#6b7276;fill-opacity:1;white-space:pre;opacity:1" transform="rotate(30 66.55 430.768)">Aug 2022</text><text y="188.4" class="xtick" style="font-family:Arial;font-size:12px;fill:#6b7276;fill-opacity:1;white-space:pre;opacity:1" transform="rotate(30 84.835 499.009)">Sep 2022</text><text y="188.4" class="xtick" style="font-family:Arial;font-size:12px;fill:#6b7276;fill-opacity:1;white-space:pre;opacity:1" transform="rotate(30 102.525 565.029)">Oct 2022</text><text y="188.4" class="xtick" style="font-family:Arial;font-size:12px;fill:#6b7276;fill-opacity:1;white-space:pre;opacity:1" transform="rotate(30 120.81 633.27)">Nov 2022</text><text y="188.4" class="xtick" style="font-family:Arial;font-size:12px;fill:#6b7276;fill-opacity:1;white-space:pre;opacity:1" transform="rotate(30 138.5 699.289)">Dec 2022</text><text y="188.4" class="xtick" style="font-family:Arial;font-size:12px;fill:#6b7276;fill-opacity:1;white-space:pre;opacity:1" transform="rotate(30 156.78 767.51)">Jan 2023</text><text y="188.4" class="xtick" style="font-family:Arial;font-size:12px;fill:#6b7276;fill-opacity:1;white-space:pre;opacity:1" transform="rotate(30 175.065 835.751)">Feb 2023</text></g><g class="yaxislayer-above"><text x="23" y="4.2" class="ytick" style="font-family:Arial;font-size:12px;fill:#6b7276;fill-opacity:1;white-space:pre;opacity:1" text-anchor="end" transform="translate(0 168)">0</text><text x="23" y="4.2" class="ytick" style="font-family:Arial;font-size:12px;fill:#6b7276;fill-opacity:1;white-space:pre;opacity:1" text-anchor="end" transform="translate(0 111.18)">5k</text><text x="23" y="4.2" class="ytick" style="font-family:Arial;font-size:12px;fill:#6b7276;fill-opacity:1;white-space:pre;opacity:1" text-anchor="end" transform="translate(0 54.36)">10k</text></g></g></g></svg>