<svg xmlns="http://www.w3.org/2000/svg" width="700" height="350" class="main-svg"><path fill="none" d="M0 0h700v350H0z" style="fill:#000;fill-opacity:0"/><defs><clipPath id="a" class="plotclip"><path d="M0 0h669v330H0z"/></clipPath></defs><g class="bglayer"><path fill="none" d="M24 0h669v330H24z" class="bg" style="fill:#000;fill-opacity:0;stroke-width:0"/></g><g class="cartesianlayer"><g class="subplot xy"><g class="zerolinelayer"><path d="M24 0h669" class="yzl zl crisp" style="stroke:#fff;stroke-opacity:1;stroke-width:2px" transform="translate(0 330)"/></g><g class="plot" clip-path="url(#a)" transform="translate(24)"><g class="barlayer mlayer"><g class="trace bars" style="opacity:1"><g class="points"><path d="M.21 330V121.17h1.72V330ZM2.36 330V121.82h1.71V330ZM4.5 330V123.67h1.72V330ZM6.65 330V130.21h1.71V330ZM8.79 330V138.11h1.72V330ZM10.94 330V147.62h1.71V330ZM13.08 330V156.6h1.72V330ZM15.22 330V157.78h1.72V330ZM17.37 330V159.3h1.71V330ZM19.51 330V165.64h1.72V330ZM21.66 330V172.98h1.71V330ZM23.8 330V182.63h1.72V330ZM25.95 330V187.89h1.71V330ZM28.09 330V192.78h1.71V330ZM30.23 330V192.54h1.72V330ZM32.38 330V195.53h1.71V330ZM34.52 330V202.02h1.72V330ZM36.67 330V208.9h1.71V330ZM38.81 330V210.44h1.72V330ZM40.95 330V214.21h1.72V330ZM43.1 330V216.94h1.71V330ZM45.24 330V217.34h1.72V330ZM47.39 330V218.16h1.71V330ZM49.53 330V226.44h1.72V330ZM51.68 330V229.79h1.71V330ZM53.82 330v-97.44h1.72V330ZM55.96 330v-93.69h1.72V330ZM58.11 330v-89.58h1.71V330ZM60.25 330v-89.69h1.72V330ZM62.4 330v-91.32h1.71V330ZM64.54 330v-90.09h1.72V330ZM66.69 330v-84.83h1.71V330ZM68.83 330v-85.74h1.72V330ZM70.97 330v-85.92h1.72V330ZM73.12 330v-85.61h1.71V330ZM75.26 330v-88.51h1.72V330ZM77.41 330v-92.1h1.71V330ZM79.55 330v-91.7h1.72V330ZM81.7 330v-91.43h1.71V330ZM83.84 330v-91.12h1.71V330ZM85.98 330v-95.14h1.72V330ZM88.13 330v-95.03h1.71V330ZM90.27 330v-98.4h1.72V330ZM92.42 330V227.27h1.71V330ZM94.56 330V224.59h1.72V330ZM96.7 330V221.89h1.72V330ZM98.85 330V218.21h1.71V330ZM100.99 330V217.56h1.72V330ZM103.14 330V214.3h1.71V330ZM105.28 330V208.65H107V330ZM107.43 330V202.18h1.71V330ZM109.57 330V196.02h1.72V330ZM111.71 330V192.11h1.72V330ZM113.86 330V187.11h1.71V330ZM116 330V179.28h1.72V330ZM118.15 330V174.34h1.71V330ZM120.29 330V163.58h1.72V330ZM122.44 330V155.39h1.71V330ZM124.58 330V148.74h1.72V330ZM126.72 330V138.31h1.72V330ZM128.87 330V130.7h1.71V330ZM131.01 330V120.41h1.72V330ZM133.16 330V114.99h1.71V330ZM135.3 330V107.76h1.72V330ZM137.45 330V92.08h1.71V330ZM139.59 330V83.36h1.71V330ZM141.73 330V74.07h1.72V330ZM143.88 330V64.85h1.71V330ZM146.02 330V55.81h1.72V330ZM148.17 330V52.31h1.71V330ZM150.31 330V42.51h1.72V330ZM152.45 330V32.3h1.72V330ZM154.6 330V25.94h1.71V330ZM156.74 330V23.26h1.72V330ZM158.89 330V21.79h1.71V330ZM161.03 330V18.04h1.72V330ZM163.18 330V24.16h1.71V330ZM165.32 330V21.05h1.72V330ZM167.46 330V16.5h1.72V330ZM169.61 330V21.12h1.71V330ZM171.75 330V27.64h1.72V330ZM173.9 330V31.43h1.71V330ZM176.04 330V35.74h1.72V330ZM178.19 330V51.52h1.71V330ZM180.33 330V48.93h1.72V330ZM182.47 330V50.32h1.72V330ZM184.62 330V59.61h1.71V330ZM186.76 330V64.05h1.72V330ZM188.91 330V74.7h1.71V330ZM191.05 330V81.12h1.72V330ZM193.2 330V94.96h1.71V330ZM195.34 330V97.15h1.71V330ZM197.48 330V97.46h1.72V330ZM199.63 330V102.82h1.71V330ZM201.77 330V110.86h1.72V330ZM203.92 330V117.98h1.71V330ZM206.06 330V125.7h1.72V330ZM208.2 330V133.43h1.72V330ZM210.35 330V133.45h1.71V330ZM212.49 330V131.6h1.72V330ZM214.64 330V137.49h1.71V330ZM216.78 330V140.55h1.72V330ZM218.93 330V144.12h1.71V330ZM221.07 330V149.81h1.72V330ZM223.21 330V151.57h1.72V330ZM225.36 330V147.89h1.71V330ZM227.5 330V149.45h1.72V330ZM229.65 330V155.17h1.71V330ZM231.79 330V162.89h1.72V330ZM233.94 330V164.34h1.71V330ZM236.08 330V172.74h1.72V330ZM238.22 330V179.1h1.72V330ZM240.37 330V180.73h1.71V330ZM242.51 330V178.14h1.72V330ZM244.66 330V186.33h1.71V330ZM246.8 330V189.32h1.72V330ZM248.95 330V190.51h1.71V330ZM251.09 330V199.52h1.71V330ZM253.23 330V201.31h1.72V330ZM255.38 330V202.38h1.71V330ZM257.52 330V201.24h1.72V330ZM259.67 330V201.8h1.71V330ZM261.81 330V203.7h1.72V330ZM263.95 330V206.02h1.72V330ZM266.1 330V210.93h1.71V330ZM268.24 330V214.3h1.72V330ZM270.39 330V213.72h1.71V330ZM272.53 330V213.45h1.72V330ZM274.68 330V217.05h1.71V330ZM276.82 330V221.42h1.72V330ZM278.96 330V221.04h1.72V330ZM281.11 330V222.92h1.71V330ZM283.25 330V226.2h1.72V330ZM285.4 330V225.26h1.71V330ZM287.54 330V225.84h1.72V330ZM289.69 330V226.65h1.71V330ZM291.83 330V228.65h1.72V330ZM293.97 330V227.96h1.72V330ZM296.12 330V228.59h1.71V330ZM298.26 330v-99.72h1.72V330ZM300.41 330V228.3h1.71V330ZM302.55 330V225.17h1.72V330ZM304.7 330V220.93h1.71V330ZM306.84 330V215.22h1.71V330ZM308.98 330V210.22h1.72V330ZM311.13 330V204.9h1.71V330ZM313.27 330V201.13h1.72V330ZM315.42 330V195.06h1.71V330ZM317.56 330V186.26h1.72V330ZM319.7 330V179.14h1.72V330ZM321.85 330V173.21h1.71V330ZM323.99 330V167.47h1.72V330ZM326.14 330V158.74h1.71V330ZM328.28 330V149.88H330V330ZM330.43 330V143.07h1.71V330ZM332.57 330V132.35h1.72V330ZM334.71 330V122.69h1.72V330ZM336.86 330V115.01h1.71V330ZM339 330V108.51h1.72V330ZM341.15 330V105.21h1.71V330ZM343.29 330V105.68h1.72V330ZM345.44 330V102.73h1.71V330ZM347.58 330V97.91h1.72V330ZM349.72 330V95.12h1.72V330ZM351.87 330V93.2h1.71V330ZM354.01 330V95.08h1.72V330ZM356.16 330V97.4h1.71V330ZM358.3 330V95.57h1.72V330ZM360.45 330V93.74h1.71V330ZM362.59 330V91.41h1.71V330ZM364.73 330V93.51h1.72V330ZM366.88 330V98.13h1.71V330ZM369.02 330V103.89h1.72V330ZM371.17 330V108.22h1.71V330ZM373.31 330V111.75h1.72V330ZM375.45 330V112.24h1.72V330ZM377.6 330V113.65h1.71V330ZM379.74 330V120.77h1.72V330ZM381.89 330V126.17h1.71V330ZM384.03 330V132.22h1.72V330ZM386.18 330V136.62h1.71V330ZM388.32 330V144.19h1.72V330ZM390.46 330V146.17h1.72V330ZM392.61 330V150.99h1.71V330ZM394.75 330V160.55h1.72V330ZM396.9 330V167.13h1.71V330ZM399.04 330V174.43h1.72V330ZM401.19 330V181.75h1.71V330ZM403.33 330V188.07h1.72V330ZM405.47 330V190.84h1.72V330ZM407.62 330V194.39h1.71V330ZM409.76 330V198.18h1.72V330ZM411.91 330V203.94h1.71V330ZM414.05 330V206.18h1.72V330ZM416.2 330V210.08h1.71V330ZM418.34 330V212.63h1.71V330ZM420.48 330V212.38h1.72V330ZM422.63 330V212.05h1.71V330ZM424.77 330V214.7h1.72V330ZM426.92 330V218.16h1.71V330ZM429.06 330V221.91h1.72V330ZM431.2 330V223.5h1.72V330ZM433.35 330V225.17h1.71V330ZM435.49 330V224.95h1.72V330ZM437.64 330V224.88h1.71V330ZM439.78 330V225.57h1.72V330ZM441.93 330V227.32h1.71V330ZM444.07 330V225.06h1.72V330ZM446.21 330V226.47h1.72V330ZM448.36 330V228.03h1.71V330ZM450.5 330V226.44h1.72V330ZM452.65 330V223.41h1.71V330ZM454.79 330V221.8h1.72V330ZM456.94 330V219.19h1.71V330ZM459.08 330V218.61h1.72V330ZM461.22 330V217.78h1.72V330ZM463.37 330V217.9h1.71V330ZM465.51 330V214.93h1.72V330ZM467.66 330V212.02h1.71V330ZM469.8 330V209.86h1.72V330ZM471.95 330V207.2h1.71V330ZM474.09 330V204.28h1.71V330ZM476.23 330V201.18h1.72V330ZM478.38 330V197.85h1.71V330ZM480.52 330V194.79h1.72V330ZM482.67 330V192.25h1.71V330ZM484.81 330V187.83h1.72V330ZM486.95 330V179.99h1.72V330ZM489.1 330V175.44h1.71V330ZM491.24 330V170.24h1.72V330ZM493.39 330V164.9h1.71V330ZM495.53 330V158.38h1.72V330ZM497.68 330V151.28h1.71V330ZM499.82 330V143.83h1.72V330ZM501.96 330V137.06h1.72V330ZM504.11 330V130.9h1.71V330ZM506.25 330V128.05h1.72V330ZM508.4 330V128.11h1.71V330ZM510.54 330V129.56h1.72V330ZM512.69 330V125.12h1.71V330ZM514.83 330V123.52h1.72V330ZM516.97 330V118.85h1.72V330ZM519.12 330V117.15h1.71V330ZM521.26 330V117.26h1.72V330ZM523.41 330V121.06h1.71V330ZM525.55 330V119.79h1.72V330ZM527.7 330V119.47h1.71V330ZM529.84 330V122.6h1.71V330ZM531.98 330V121.68h1.72V330ZM534.13 330V127.49h1.71V330ZM536.27 330V136.44h1.72V330ZM538.42 330V139.21h1.71V330ZM540.56 330V142.58h1.72V330ZM542.7 330V143.2h1.72V330ZM544.85 330V150.66h1.71V330ZM546.99 330V157.16h1.72V330ZM549.14 330V164.34h1.71V330ZM551.28 330V170.08H553V330ZM553.43 330V176.8h1.71V330ZM555.57 330V178.65h1.72V330ZM557.71 330V179.97h1.72V330ZM559.86 330V182.83h1.71V330ZM562 330V189.39h1.72V330ZM564.15 330V196.15h1.71V330ZM566.29 330V198.56h1.72V330ZM568.44 330V202.63h1.71V330ZM570.58 330V202.83h1.72V330ZM572.72 330V200.15h1.72V330ZM574.87 330V204.12h1.71V330ZM577.01 330V204.28h1.72V330ZM579.16 330V203.14h1.71V330ZM581.3 330V202.58h1.72V330ZM583.45 330V201.64h1.71V330ZM585.59 330V199.77h1.71V330ZM587.73 330V196.98h1.72V330ZM589.88 330V195.73h1.71V330ZM592.02 330V194.84h1.72V330ZM594.17 330V191.67h1.71V330ZM596.31 330V189.63h1.72V330ZM598.45 330V191.53h1.72V330ZM600.6 330V188.65h1.71V330ZM602.74 330V185.26h1.72V330ZM604.89 330V187.02h1.71V330ZM607.03 330V187.54h1.72V330ZM609.18 330V187.07h1.71V330ZM611.32 330V185.91h1.72V330ZM613.46 330V185.51h1.72V330ZM615.61 330V179.88h1.71V330ZM617.75 330V174.79h1.72V330ZM619.9 330V173.05h1.71V330ZM622.04 330V169.08h1.72V330ZM624.19 330V167.56h1.71V330ZM626.33 330V165.46h1.72V330ZM628.47 330V162.94h1.72V330ZM630.62 330V158.9h1.71V330ZM632.76 330V153.23h1.72V330ZM634.91 330V153.52h1.71V330ZM637.05 330V151.08h1.72V330ZM639.2 330V149.03h1.71V330ZM641.34 330V160.39h1.71V330ZM643.48 330V162.89h1.72V330ZM645.63 330V160.79h1.71V330ZM647.77 330V159.86h1.72V330ZM649.92 330V160.39h1.71V330ZM652.06 330V162.42h1.72V330ZM654.2 330V162.09h1.72V330ZM656.35 330V163.29h1.71V330ZM658.49 330V166.37h1.72V330ZM660.64 330V163.25h1.71V330ZM662.78 330V160.97h1.72V330ZM664.93 330V160.62h1.71V330ZM667.07 330V159.12h1.72V330Z" class="point" style="vector-effect:none;opacity:1;stroke-width:.5px;fill:#5694ca;fill-opacity:1;stroke:#e5ecf6;stroke-opacity:1"/></g></g></g></g><g class="xaxislayer-above"><path d="M0 331v5" class="xtick ticks crisp" style="stroke:#444;stroke-opacity:1;stroke-width:1px" transform="translate(25.07)"/><path d="M0 331v5" class="xtick ticks crisp" style="stroke:#444;stroke-opacity:1;stroke-width:1px" transform="translate(155.87)"/><path d="M0 331v5" class="xtick ticks crisp" style="stroke:#444;stroke-opacity:1;stroke-width:1px" transform="translate(288.81)"/><path d="M0 331v5" class="xtick ticks crisp" style="stroke:#444;stroke-opacity:1;stroke-width:1px" transform="translate(419.61)"/><path d="M0 331v5" class="xtick ticks crisp" style="stroke:#444;stroke-opacity:1;stroke-width:1px" transform="translate(550.41)"/><path d="M0 331v5" class="xtick ticks crisp" style="stroke:#444;stroke-opacity:1;stroke-width:1px" transform="translate(676.92)"/><text y="348" class="xtick" style="font-family:&quot;GDS Transport&quot;,Arial,sans-serif;font-size:10px;fill:#6b7276;fill-opacity:1;white-space:pre;opacity:1" text-anchor="middle" transform="translate(25.07)">May 2022</text><text y="348" class="xtick" style="font-family:&quot;GDS Transport&quot;,Arial,sans-serif;font-size:10px;fill:#6b7276;fill-opacity:1;white-space:pre;opacity:1" text-anchor="middle" transform="translate(155.87)">Jul 2022</text><text y="348" class="xtick" style="font-family:&quot;GDS Transport&quot;,Arial,sans-serif;font-size:10px;fill:#6b7276;fill-opacity:1;white-space:pre;opacity:1" text-anchor="middle" transform="translate(288.81)">Sep 2022</text><text y="348" class="xtick" style="font-family:&quot;GDS Transport&quot;,Arial,sans-serif;font-size:10px;fill:#6b7276;fill-opacity:1;white-space:pre;opacity:1" text-anchor="middle" transform="translate(419.61)">Nov 2022</text><text y="348" class="xtick" style="font-family:&quot;GDS Transport&quot;,Arial,sans-serif;font-size:10px;fill:#6b7276;fill-opacity:1;white-space:pre;opacity:1" text-anchor="middle" transform="translate(550.41)">Jan 2023</text></g><g class="yaxislayer-above"><text x="23" y="3.5" class="ytick" style="font-family:&quot;GDS Transport&quot;,Arial,sans-serif;font-size:10px;fill:#6b7276;fill-opacity:1;white-space:pre;opacity:1" text-anchor="end" transform="translate(0 330)">0</text><text x="23" y="3.5" class="ytick" style="font-family:&quot;GDS Transport&quot;,Arial,sans-serif;font-size:10px;fill:#6b7276;fill-opacity:1;white-space:pre;opacity:1" text-anchor="end" transform="translate(0 285.35)">2k</text><text x="23" y="3.5" class="ytick" style="font-family:&quot;GDS Transport&quot;,Arial,sans-serif;font-size:10px;fill:#6b7276;fill-opacity:1;white-space:pre;opacity:1" text-anchor="end" transform="translate(0 240.71)">4k</text><text x="23" y="3.5" class="ytick" style="font-family:&quot;GDS Transport&quot;,Arial,sans-serif;font-size:10px;fill:#6b7276;fill-opacity:1;white-space:pre;opacity:1" text-anchor="end" transform="translate(0 196.06)">6k</text><text x="23" y="3.5" class="ytick" style="font-family:&quot;GDS Transport&quot;,Arial,sans-serif;font-size:10px;fill:#6b7276;fill-opacity:1;white-space:pre;opacity:1" text-anchor="end" transform="translate(0 151.42)">8k</text><text x="23" y="3.5" class="ytick" style="font-family:&quot;GDS Transport&quot;,Arial,sans-serif;font-size:10px;fill:#6b7276;fill-opacity:1;white-space:pre;opacity:1" text-anchor="end" transform="translate(0 106.77)">10k</text><text x="23" y="3.5" class="ytick" style="font-family:&quot;GDS Transport&quot;,Arial,sans-serif;font-size:10px;fill:#6b7276;fill-opacity:1;white-space:pre;opacity:1" text-anchor="end" transform="translate(0 62.13)">12k</text><text x="23" y="3.5" class="ytick" style="font-family:&quot;GDS Transport&quot;,Arial,sans-serif;font-size:10px;fill:#6b7276;fill-opacity:1;white-space:pre;opacity:1" text-anchor="end" transform="translate(0 17.48)">14k</text></g></g></g></svg>