<svg xmlns="http://www.w3.org/2000/svg" width="435" height="220" class="main-svg"><path fill="none" d="M0 0h435v220H0z" style="fill:#000;fill-opacity:0"/><defs><clipPath id="a" class="plotclip"><path d="M0 0h411v168H0z"/></clipPath></defs><g class="bglayer"><path fill="none" d="M0 0h411v168H0z" class="bg" style="fill:#000;fill-opacity:0;stroke-width:0"/></g><g class="cartesianlayer"><g class="subplot xy"><g class="zerolinelayer"><path d="M0 0h411" class="yzl zl crisp" style="stroke:#fff;stroke-opacity:1;stroke-width:2px" transform="translate(0 159.6)"/></g><g class="plot" clip-path="url(#a)"><g class="scatterlayer mlayer"><g class="trace scatter tracec8f04c" style="stroke-miterlimit:2;opacity:1"><g class="lines"><path d="M0 142.15q6.71-3.59 9.79-2.9c3.49.78 6.29 6.77 9.78 8.72 3.08 1.72 6.71 3.6 9.79 2.91 3.49-.78 6.29-6.78 9.78-8.73 3.08-1.72 6.53-2.9 9.79-2.9 3.26 0 6.6 1.51 9.78 2.9 3.36 1.47 6.63 3.51 9.79 5.82 3.39 2.48 6.53 8.72 9.79 8.72 3.26 0 6.29-7.94 9.78-8.72 3.08-.69 6.61 3.31 9.79 2.91 3.35-.42 6.39-4.89 9.78-5.82 3.15-.87 6.73-1.16 9.79 0 3.54 1.35 6.29 7.94 9.78 8.72 3.08.69 6.49-2.42 9.79-2.9 3.23-.47 6.73-1.16 9.79 0 3.54 1.35 6.52 8.72 9.78 8.72s6.53-5.81 9.79-8.72c3.26-2.91 6.72-5.23 9.78-8.73 3.53-4.05 6.53-9.69 9.79-14.53 3.26-4.85 6.86-14.93 9.78-14.54 3.86.52 5.23 27.38 9.79 29.07 2.78 1.03 6.53-5.81 9.79-5.81 3.26 0 6.39 4.88 9.78 5.81 3.15.86 6.73 1.16 9.79 0 3.54-1.35 6.63-5.48 9.78-8.72 3.39-3.49 6.13-9.23 9.79-11.63 3-1.96 6.91-.61 9.78-2.91 4.02-3.21 6.91-10.29 9.79-17.44 4.02-9.99 4.47-32.28 9.79-37.8 2.72-2.82 6.85-.76 9.78-2.91 3.84-2.82 6.09-13.71 9.79-14.54 2.98-.67 7.05 6.97 9.78 5.82 5.23-2.2 4.29-34.91 9.79-40.71 2.71-2.86 6.98-4.23 9.78-2.91 4.4 2.08 6.61 15.24 9.79 23.26 3.35 8.43 5.4 24.62 9.79 26.17 2.8.99 6.63-6.11 9.78-5.81 3.39.33 6.3 6.77 9.79 8.72 3.08 1.72 6.85 3.96 9.78 2.91 3.84-1.38 6.09-13.71 9.79-14.54q2.98-.67 9.78 5.81" class="js-line" style="vector-effect:none;fill:none;stroke:#383f43;stroke-opacity:1;stroke-width:2px;opacity:1"/></g></g><g class="trace scatter trace687ac0" style="stroke-miterlimit:2"><g class="fills"><path d="M411 159.6h-9.79V54.92l9.79-5.81" class="js-fill" style="fill:#f6d7d2;fill-opacity:1;stroke-width:0"/></g><g class="lines"><path d="m401.21 54.92 9.79-5.81" class="js-line" style="vector-effect:none;fill:none;stroke:#942514;stroke-opacity:1;stroke-width:2px;opacity:1"/></g></g></g></g><g class="xaxislayer-above"><path d="M0 169v5" class="xtick ticks crisp" style="stroke:#444;stroke-opacity:1;stroke-width:1px" transform="translate(41.94)"/><path d="M0 169v5" class="xtick ticks crisp" style="stroke:#444;stroke-opacity:1;stroke-width:1px" transform="translate(83.88)"/><path d="M0 169v5" class="xtick ticks crisp" style="stroke:#444;stroke-opacity:1;stroke-width:1px" transform="translate(127.21)"/><path d="M0 169v5" class="xtick ticks crisp" style="stroke:#444;stroke-opacity:1;stroke-width:1px" transform="translate(170.55)"/><path d="M0 169v5" class="xtick ticks crisp" style="stroke:#444;stroke-opacity:1;stroke-width:1px" transform="translate(212.49)"/><path d="M0 169v5" class="xtick ticks crisp" style="stroke:#444;stroke-opacity:1;stroke-width:1px" transform="translate(255.83)"/><path d="M0 169v5" class="xtick ticks crisp" style="stroke:#444;stroke-opacity:1;stroke-width:1px" transform="translate(297.77)"/><path d="M0 169v5" class="xtick ticks crisp" style="stroke:#444;stroke-opacity:1;stroke-width:1px" transform="translate(341.1)"/><path d="M0 169v5" class="xtick ticks crisp" style="stroke:#444;stroke-opacity:1;stroke-width:1px" transform="translate(384.44)"/><text y="188.4" class="xtick" style="font-family:Arial;font-size:12px;fill:#6b7276;fill-opacity:1;white-space:pre;opacity:1" transform="rotate(30 20.97 260.661)">Jun 2022</text><text y="188.4" class="xtick" style="font-family:Arial;font-size:12px;fill:#6b7276;fill-opacity:1;white-space:pre;opacity:1" transform="rotate(30 41.94 338.922)">Jul 2022</text><text y="188.4" class="xtick" style="font-family:Arial;font-size:12px;fill:#6b7276;fill-opacity:1;white-space:pre;opacity:1" transform="rotate(30 63.605 419.777)">Aug 2022</text><text y="188.4" class="xtick" style="font-family:Arial;font-size:12px;fill:#6b7276;fill-opacity:1;white-space:pre;opacity:1" transform="rotate(30 85.275 500.65)">Sep 2022</text><text y="188.4" class="xtick" style="font-family:Arial;font-size:12px;fill:#6b7276;fill-opacity:1;white-space:pre;opacity:1" transform="rotate(30 106.245 578.912)">Oct 2022</text><text y="188.4" class="xtick" style="font-family:Arial;font-size:12px;fill:#6b7276;fill-opacity:1;white-space:pre;opacity:1" transform="rotate(30 127.915 659.785)">Nov 2022</text><text y="188.4" class="xtick" style="font-family:Arial;font-size:12px;fill:#6b7276;fill-opacity:1;white-space:pre;opacity:1" transform="rotate(30 148.885 738.046)">Dec 2022</text><text y="188.4" class="xtick" style="font-family:Arial;font-size:12px;fill:#6b7276;fill-opacity:1;white-space:pre;opacity:1" transform="rotate(30 170.55 818.901)">Jan 2023</text></g></g></g></svg>