<svg xmlns="http://www.w3.org/2000/svg" width="700" height="350" class="main-svg"><path fill="none" d="M0 0h700v350H0z" style="fill:#000;fill-opacity:0"/><defs><clipPath id="a" class="plotclip"><path d="M0 0h681v330H0z"/></clipPath></defs><g class="bglayer"><path fill="none" d="M19 0h681v330H19z" class="bg" style="fill:#000;fill-opacity:0;stroke-width:0"/></g><g class="cartesianlayer"><g class="subplot xy"><g class="zerolinelayer"><path d="M19 0h681" class="yzl zl crisp" style="stroke:#fff;stroke-opacity:1;stroke-width:2px" transform="translate(0 330)"/></g><g class="plot" clip-path="url(#a)" transform="translate(19)"><g class="barlayer mlayer"><g class="trace bars" style="opacity:1"><g class="points"><path d="M1.58 330v-20.7h12.67V330ZM17.42 330v-17.75h12.67V330ZM33.26 330v-11.83h12.67V330ZM49.1 330v-7.89h12.67V330ZM64.93 330v-9.86H77.6V330ZM80.77 330v-10.84h12.67V330ZM96.61 330v-4.93h12.67V330ZM112.44 330v-4.93h12.67V330ZM128.28 330v-4.93h12.67V330ZM144.12 330v-6.9h12.67v6.9ZM159.96 330v-11.83h12.67V330ZM175.79 330v-5.92h12.67V330ZM191.63 330v-4.93h12.67V330ZM207.47 330v-6.9h12.67v6.9ZM223.3 330v-15.77h12.67V330ZM239.14 330v-8.87h12.67V330ZM254.98 330v-5.92h12.67V330ZM270.82 330v-10.84h12.67V330ZM286.65 330v-22.67h12.67V330ZM302.49 330v-32.53h12.67V330ZM318.33 330v-25.63H331V330ZM334.17 330v-32.53h12.66V330ZM350 330v-44.36h12.67V330ZM365.84 330v-57.18h12.67V330ZM381.68 330v-61.12h12.67V330ZM397.51 330v-74.92h12.67V330ZM413.35 330v-81.83h12.67V330ZM429.19 330v-91.68h12.67V330ZM445.03 330v-97.6h12.67V330ZM460.86 330V204.8h12.67V330ZM476.7 330V159.45h12.67V330ZM492.54 330V98.33h12.67V330ZM508.37 330V35.23h12.67V330ZM524.21 330V16.5h12.67V330ZM540.05 330V54.95h12.67V330ZM555.89 330V177.19h12.67V330ZM571.72 330v-70.98h12.67V330ZM587.56 330v-33.52h12.67V330ZM603.4 330v-32.53h12.67V330ZM619.23 330v-27.6h12.67V330ZM635.07 330v-20.7h12.67V330ZM650.91 330v-24.65h12.67V330ZM666.75 330v-23.66h12.67V330Z" class="point" style="vector-effect:none;opacity:1;stroke-width:.5px;fill:#5694ca;fill-opacity:1;stroke:#e5ecf6;stroke-opacity:1"/></g></g></g></g><g class="xaxislayer-above"><path d="M0 331v5" class="xtick ticks crisp" style="stroke:#444;stroke-opacity:1;stroke-width:1px" transform="translate(24.66)"/><path d="M0 331v5" class="xtick ticks crisp" style="stroke:#444;stroke-opacity:1;stroke-width:1px" transform="translate(162.67)"/><path d="M0 331v5" class="xtick ticks crisp" style="stroke:#444;stroke-opacity:1;stroke-width:1px" transform="translate(302.94)"/><path d="M0 331v5" class="xtick ticks crisp" style="stroke:#444;stroke-opacity:1;stroke-width:1px" transform="translate(440.95)"/><path d="M0 331v5" class="xtick ticks crisp" style="stroke:#444;stroke-opacity:1;stroke-width:1px" transform="translate(578.96)"/><text y="348" class="xtick" style="font-family:&quot;GDS Transport&quot;,Arial,sans-serif;font-size:10px;fill:#6b7276;fill-opacity:1;white-space:pre;opacity:1" text-anchor="middle" transform="translate(24.66)">May 2022</text><text y="348" class="xtick" style="font-family:&quot;GDS Transport&quot;,Arial,sans-serif;font-size:10px;fill:#6b7276;fill-opacity:1;white-space:pre;opacity:1" text-anchor="middle" transform="translate(162.67)">Jul 2022</text><text y="348" class="xtick" style="font-family:&quot;GDS Transport&quot;,Arial,sans-serif;font-size:10px;fill:#6b7276;fill-opacity:1;white-space:pre;opacity:1" text-anchor="middle" transform="translate(302.94)">Sep 2022</text><text y="348" class="xtick" style="font-family:&quot;GDS Transport&quot;,Arial,sans-serif;font-size:10px;fill:#6b7276;fill-opacity:1;white-space:pre;opacity:1" text-anchor="middle" transform="translate(440.95)">Nov 2022</text><text y="348" class="xtick" style="font-family:&quot;GDS Transport&quot;,Arial,sans-serif;font-size:10px;fill:#6b7276;fill-opacity:1;white-space:pre;opacity:1" text-anchor="middle" transform="translate(578.96)">Jan 2023</text></g><g class="yaxislayer-above"><text x="18" y="3.5" class="ytick" style="font-family:&quot;GDS Transport&quot;,Arial,sans-serif;font-size:10px;fill:#6b7276;fill-opacity:1;white-space:pre;opacity:1" text-anchor="end" transform="translate(0 330)">0</text><text x="18" y="3.5" class="ytick" style="font-family:&quot;GDS Transport&quot;,Arial,sans-serif;font-size:10px;fill:#6b7276;fill-opacity:1;white-space:pre;opacity:1" text-anchor="end" transform="translate(0 280.71)">5</text><text x="18" y="3.5" class="ytick" style="font-family:&quot;GDS Transport&quot;,Arial,sans-serif;font-size:10px;fill:#6b7276;fill-opacity:1;white-space:pre;opacity:1" text-anchor="end" transform="translate(0 231.42)">10</text><text x="18" y="3.5" class="ytick" style="font-family:&quot;GDS Transport&quot;,Arial,sans-serif;font-size:10px;fill:#6b7276;fill-opacity:1;white-space:pre;opacity:1" text-anchor="end" transform="translate(0 182.12)">15</text><text x="18" y="3.5" class="ytick" style="font-family:&quot;GDS Transport&quot;,Arial,sans-serif;font-size:10px;fill:#6b7276;fill-opacity:1;white-space:pre;opacity:1" text-anchor="end" transform="translate(0 132.83)">20</text><text x="18" y="3.5" class="ytick" style="font-family:&quot;GDS Transport&quot;,Arial,sans-serif;font-size:10px;fill:#6b7276;fill-opacity:1;white-space:pre;opacity:1" text-anchor="end" transform="translate(0 83.54)">25</text><text x="18" y="3.5" class="ytick" style="font-family:&quot;GDS Transport&quot;,Arial,sans-serif;font-size:10px;fill:#6b7276;fill-opacity:1;white-space:pre;opacity:1" text-anchor="end" transform="translate(0 34.25)">30</text></g></g></g></svg>
