<svg xmlns="http://www.w3.org/2000/svg" width="435" height="220" class="main-svg"><path fill="none" d="M0 0h435v220H0z" style="fill:#000;fill-opacity:0"/><defs><clipPath id="a" class="plotclip"><path d="M0 0h411v168H0z"/></clipPath></defs><g class="bglayer"><path fill="none" d="M0 0h411v168H0z" class="bg" style="fill:#000;fill-opacity:0;stroke-width:0"/></g><g class="cartesianlayer"><g class="subplot xy"><g class="zerolinelayer"><path d="M0 0h411" class="yzl zl crisp" style="stroke:#fff;stroke-opacity:1;stroke-width:2px" transform="translate(0 168)"/></g><g class="plot" clip-path="url(#a)"><g class="scatterlayer mlayer"><g class="trace scatter trace176a4f" style="stroke-miterlimit:2;opacity:1"><g class="lines"><path d="M0 64.73q6.48 39.88 9.79 39.9c3.22.02 5.7-36.97 9.78-37.55 2.86-.41 6.67 16.59 9.79 16.43 3.44-.18 5.62-19.63 9.78-21.13 2.84-1.02 6.61 2.81 9.79 4.7 3.35 1.99 6.61 7.26 9.78 7.04 3.36-.24 6.82-9.88 9.79-9.39 3.72.61 6.53 18.78 9.79 18.78 3.26 0 6.43-12.78 9.78-18.78 3.18-5.71 6.95-9.49 9.79-16.43 4.17-10.17 6.02-39.61 9.78-39.9 2.96-.23 5.35 19.68 9.79 23.47 2.79 2.38 6.85.35 9.78 2.35 3.83 2.61 6.43 9.67 9.79 14.08 3.17 4.16 6.53 7.83 9.79 11.74 3.26 3.91 6.68 7.36 9.78 11.73 3.47 4.9 6.43 11.22 9.79 16.43 3.18 4.93 6.05 13.09 9.78 14.08 2.97.78 6.87-5.57 9.79-4.69 3.87 1.17 6.42 11.22 9.78 16.43 3.18 4.93 6.31 13.73 9.79 14.08 3.09.31 6.22-7.95 9.79-9.39 3.04-1.22 6.54-.38 9.78 0 3.29.39 6.74 3.18 9.79 2.35 3.54-.96 6.75-5.58 9.78-9.39 3.59-4.52 6.2-11.91 9.79-16.43 3.03-3.81 6.61-9.57 9.78-9.39 3.37.19 6.07 10 9.79 11.74 2.97 1.39 6.61-.72 9.79 0 3.35.76 6.68 5.19 9.78 4.69 3.47-.55 6.53-9.39 9.79-9.39 3.26 0 6.32 6.99 9.78 9.39 3.1 2.15 6.76 5.36 9.79 4.7 3.59-.78 6.61-11.88 9.78-11.74 3.36.15 5.96 12.62 9.79 14.08 2.93 1.12 7.01.1 9.79-2.34 4.6-4.05 5.32-24.04 9.78-25.82 2.79-1.12 6.61 2.8 9.79 4.69 3.35 1.99 6.82 7.66 9.78 7.04 3.73-.78 6.2-15.94 9.79-16.43q3.03-.41 9.78 9.39" class="js-line" style="vector-effect:none;fill:none;stroke:#383f43;stroke-opacity:1;stroke-width:2px;opacity:1"/></g></g><g class="trace scatter trace667283" style="stroke-miterlimit:2"><g class="fills"><path d="M411 168h-9.79V85.85L411 62.38" class="js-fill" style="fill:#f6d7d2;fill-opacity:1;stroke-width:0"/></g><g class="lines"><path d="M401.21 85.85 411 62.38" class="js-line" style="vector-effect:none;fill:none;stroke:#942514;stroke-opacity:1;stroke-width:2px;opacity:1"/></g></g></g></g><g class="xaxislayer-above"><path d="M0 169v5" class="xtick ticks crisp" style="stroke:#444;stroke-opacity:1;stroke-width:1px" transform="translate(41.94)"/><path d="M0 169v5" class="xtick ticks crisp" style="stroke:#444;stroke-opacity:1;stroke-width:1px" transform="translate(83.88)"/><path d="M0 169v5" class="xtick ticks crisp" style="stroke:#444;stroke-opacity:1;stroke-width:1px" transform="translate(127.21)"/><path d="M0 169v5" class="xtick ticks crisp" style="stroke:#444;stroke-opacity:1;stroke-width:1px" transform="translate(170.55)"/><path d="M0 169v5" class="xtick ticks crisp" style="stroke:#444;stroke-opacity:1;stroke-width:1px" transform="translate(212.49)"/><path d="M0 169v5" class="xtick ticks crisp" style="stroke:#444;stroke-opacity:1;stroke-width:1px" transform="translate(255.83)"/><path d="M0 169v5" class="xtick ticks crisp" style="stroke:#444;stroke-opacity:1;stroke-width:1px" transform="translate(297.77)"/><path d="M0 169v5" class="xtick ticks crisp" style="stroke:#444;stroke-opacity:1;stroke-width:1px" transform="translate(341.1)"/><path d="M0 169v5" class="xtick ticks crisp" style="stroke:#444;stroke-opacity:1;stroke-width:1px" transform="translate(384.44)"/><text y="188.4" class="xtick" style="font-family:Arial;font-size:12px;fill:#6b7276;fill-opacity:1;white-space:pre;opacity:1" transform="rotate(30 20.97 260.661)">Jun 2022</text><text y="188.4" class="xtick" style="font-family:Arial;font-size:12px;fill:#6b7276;fill-opacity:1;white-space:pre;opacity:1" transform="rotate(30 41.94 338.922)">Jul 2022</text><text y="188.4" class="xtick" style="font-family:Arial;font-size:12px;fill:#6b7276;fill-opacity:1;white-space:pre;opacity:1" transform="rotate(30 63.605 419.777)">Aug 2022</text><text y="188.4" class="xtick" style="font-family:Arial;font-size:12px;fill:#6b7276;fill-opacity:1;white-space:pre;opacity:1" transform="rotate(30 85.275 500.65)">Sep 2022</text><text y="188.4" class="xtick" style="font-family:Arial;font-size:12px;fill:#6b7276;fill-opacity:1;white-space:pre;opacity:1" transform="rotate(30 106.245 578.912)">Oct 2022</text><text y="188.4" class="xtick" style="font-family:Arial;font-size:12px;fill:#6b7276;fill-opacity:1;white-space:pre;opacity:1" transform="rotate(30 127.915 659.785)">Nov 2022</text><text y="188.4" class="xtick" style="font-family:Arial;font-size:12px;fill:#6b7276;fill-opacity:1;white-space:pre;opacity:1" transform="rotate(30 148.885 738.046)">Dec 2022</text><text y="188.4" class="xtick" style="font-family:Arial;font-size:12px;fill:#6b7276;fill-opacity:1;white-space:pre;opacity:1" transform="rotate(30 170.55 818.901)">Jan 2023</text></g></g></g></svg>