<svg xmlns="http://www.w3.org/2000/svg" width="435" height="220" class="main-svg"><path fill="none" d="M0 0h435v220H0z" style="fill:#000;fill-opacity:0"/><defs><clipPath id="a" class="plotclip"><path d="M0 0h411v168H0z"/></clipPath></defs><g class="bglayer"><path fill="none" d="M0 0h411v168H0z" class="bg" style="fill:#000;fill-opacity:0;stroke-width:0"/></g><g class="cartesianlayer"><g class="subplot xy"><g class="zerolinelayer"><path d="M0 0h411" class="yzl zl crisp" style="stroke:#fff;stroke-opacity:1;stroke-width:2px" transform="translate(0 168)"/></g><g class="plot" clip-path="url(#a)"><g class="scatterlayer mlayer"><g class="trace scatter trace09f5c7" style="stroke-miterlimit:2;opacity:1"><g class="lines"><path d="M0 142.26q6.24-7.91 9.79-10.3c3.05-2.06 6.8-1.6 9.78-3.86 3.69-2.8 6.22-9.53 9.79-12.87 3.04-2.84 6.66-6.8 9.78-6.44 3.44.39 6.17 8.46 9.79 10.3 3.01 1.53 6.83 2.52 9.78 1.29 3.77-1.57 6-10.99 9.79-12.87 2.95-1.46 6.53.21 9.79 0 3.27-.21 7.04 1.01 9.78-1.29 4.97-4.16 6.24-30.69 9.79-30.89 3.05-.17 5.79 20.9 9.78 21.88 2.88.71 6.31-6.76 9.79-7.72 3.09-.85 6.54 1.49 9.78 1.28 3.28-.21 7-3.97 9.79-2.57 4.5 2.27 6.56 16.18 9.79 24.45 3.3 8.46 5.46 24.35 9.78 25.75 2.81.91 6.62-3.97 9.79-6.44 3.37-2.63 6.66-9.29 9.78-9.01 3.44.3 6.22 12.26 9.79 12.87 3.04.52 6.62-6.69 9.78-6.43 3.37.27 6.42 8.74 9.79 9.01 3.17.26 6.82-3.42 9.79-6.44 3.71-3.78 6.61-10.04 9.78-15.44 3.36-5.72 6.86-10.91 9.79-18.02 3.82-9.28 5.14-31.99 9.78-33.47 2.77-.89 6.89 8.4 9.79 7.72 3.92-.92 6.66-13.28 9.78-20.59 3.43-8.04 6.25-18.03 9.79-25.74 3.06-6.65 6.86-18.33 9.79-18.02 3.82.41 5.8 24.65 9.78 33.46 2.88 6.38 6.82 9.4 9.79 15.45 3.72 7.59 5.29 25.29 9.78 27.03 2.79 1.08 6.66-5.56 9.79-5.15 3.43.45 6.66 5.58 9.78 9.01 3.44 3.78 6.47 8.73 9.79 12.87 3.21 4 6.41 8.06 9.79 11.58 3.16 3.3 6.62 5.71 9.78 9.01 3.38 3.52 6.35 8.26 9.79 11.59 3.12 3.01 6.42 5.53 9.78 7.72 3.17 2.06 6.43 4.08 9.79 5.15q3.17 1.01 9.78 1.29" class="js-line" style="vector-effect:none;fill:none;stroke:#383f43;stroke-opacity:1;stroke-width:2px;opacity:1"/></g></g><g class="trace scatter trace1bf782" style="stroke-miterlimit:2"><g class="fills"><path d="M411 168h-9.79v-20.59l9.79 1.28" class="js-fill" style="fill:#cce2d8;fill-opacity:1;stroke-width:0"/></g><g class="lines"><path d="m401.21 147.41 9.79 1.28" class="js-line" style="vector-effect:none;fill:none;stroke:#005a30;stroke-opacity:1;stroke-width:2px;opacity:1"/></g></g></g></g><g class="xaxislayer-above"><path d="M0 169v5" class="xtick ticks crisp" style="stroke:#444;stroke-opacity:1;stroke-width:1px" transform="translate(41.94)"/><path d="M0 169v5" class="xtick ticks crisp" style="stroke:#444;stroke-opacity:1;stroke-width:1px" transform="translate(83.88)"/><path d="M0 169v5" class="xtick ticks crisp" style="stroke:#444;stroke-opacity:1;stroke-width:1px" transform="translate(127.21)"/><path d="M0 169v5" class="xtick ticks crisp" style="stroke:#444;stroke-opacity:1;stroke-width:1px" transform="translate(170.55)"/><path d="M0 169v5" class="xtick ticks crisp" style="stroke:#444;stroke-opacity:1;stroke-width:1px" transform="translate(212.49)"/><path d="M0 169v5" class="xtick ticks crisp" style="stroke:#444;stroke-opacity:1;stroke-width:1px" transform="translate(255.83)"/><path d="M0 169v5" class="xtick ticks crisp" style="stroke:#444;stroke-opacity:1;stroke-width:1px" transform="translate(297.77)"/><path d="M0 169v5" class="xtick ticks crisp" style="stroke:#444;stroke-opacity:1;stroke-width:1px" transform="translate(341.1)"/><path d="M0 169v5" class="xtick ticks crisp" style="stroke:#444;stroke-opacity:1;stroke-width:1px" transform="translate(384.44)"/><text y="188.4" class="xtick" style="font-family:Arial;font-size:12px;fill:#6b7276;fill-opacity:1;white-space:pre;opacity:1" transform="rotate(30 20.97 260.661)">Jun 2022</text><text y="188.4" class="xtick" style="font-family:Arial;font-size:12px;fill:#6b7276;fill-opacity:1;white-space:pre;opacity:1" transform="rotate(30 41.94 338.922)">Jul 2022</text><text y="188.4" class="xtick" style="font-family:Arial;font-size:12px;fill:#6b7276;fill-opacity:1;white-space:pre;opacity:1" transform="rotate(30 63.605 419.777)">Aug 2022</text><text y="188.4" class="xtick" style="font-family:Arial;font-size:12px;fill:#6b7276;fill-opacity:1;white-space:pre;opacity:1" transform="rotate(30 85.275 500.65)">Sep 2022</text><text y="188.4" class="xtick" style="font-family:Arial;font-size:12px;fill:#6b7276;fill-opacity:1;white-space:pre;opacity:1" transform="rotate(30 106.245 578.912)">Oct 2022</text><text y="188.4" class="xtick" style="font-family:Arial;font-size:12px;fill:#6b7276;fill-opacity:1;white-space:pre;opacity:1" transform="rotate(30 127.915 659.785)">Nov 2022</text><text y="188.4" class="xtick" style="font-family:Arial;font-size:12px;fill:#6b7276;fill-opacity:1;white-space:pre;opacity:1" transform="rotate(30 148.885 738.046)">Dec 2022</text><text y="188.4" class="xtick" style="font-family:Arial;font-size:12px;fill:#6b7276;fill-opacity:1;white-space:pre;opacity:1" transform="rotate(30 170.55 818.901)">Jan 2023</text></g></g></g></svg>