<svg class="main-svg" xmlns="http://www.w3.org/2000/svg" xmlns:xlink="http://www.w3.org/1999/xlink" width="700" height="350" style="" viewBox="0 0 700 350">
  <rect x="0" y="0" width="700" height="350" style="fill: rgb(0, 0, 0); fill-opacity: 0;"/>
  <defs id="defs-3c2fc6">
    <g class="clips">
      <clipPath id="clip3c2fc6xyplot" class="plotclip">
        <rect width="682" height="316"/>
      </clipPath>
      <clipPath class="axesclip" id="clip3c2fc6x">
        <rect x="18" y="0" width="682" height="350"/>
      </clipPath>
      <clipPath class="axesclip" id="clip3c2fc6y">
        <rect x="0" y="0" width="700" height="316"/>
      </clipPath>
      <clipPath class="axesclip" id="clip3c2fc6xy">
        <rect x="18" y="0" width="682" height="316"/>
      </clipPath>
    </g>
    <g class="gradients"/>
    <g class="patterns"/>
  </defs>
  <g class="bglayer">
    <rect class="bg" x="18" y="0" width="682" height="316" style="fill: rgb(0, 0, 0); fill-opacity: 0; stroke-width: 0;"/>
  </g>
  <g class="layer-below">
    <g class="imagelayer"/>
    <g class="shapelayer"/>
  </g>
  <g class="cartesianlayer">
    <g class="subplot xy">
      <g class="layer-subplot">
        <g class="shapelayer"/>
        <g class="imagelayer"/>
      </g>
      <g class="minor-gridlayer">
        <g class="x"/>
        <g class="y"/>
      </g>
      <g class="gridlayer">
        <g class="x"/>
        <g class="y"/>
      </g>
      <g class="zerolinelayer">
        <path class="yzl zl crisp" transform="translate(0,316)" d="M18,0h682" style="stroke: rgb(255, 255, 255); stroke-opacity: 1; stroke-width: 2px;"/>
      </g>
      <path class="xlines-below"/>
      <path class="ylines-below"/>
      <g class="overlines-below"/>
      <g class="xaxislayer-below"/>
      <g class="yaxislayer-below"/>
      <g class="overaxes-below"/>
      <g class="plot" transform="translate(18,0)" clip-path="url(#clip3c2fc6xyplot)">
        <g class="scatterlayer mlayer">
          <g class="trace scatter tracec6fd64" style="stroke-miterlimit: 2; opacity: 1;">
            <g class="fills"/>
            <g class="errorbars"/>
            <g class="lines">
              <path class="js-line" d="M0,236.26Q2.14,218.04 4.21,217.5C5.39,217.19 7.15,220.24 8.42,222.19C10.04,224.68 11.29,228.24 12.63,231.57C14.11,235.23 15.36,239.64 16.84,243.3C18.18,246.63 19.88,252.88 21.05,252.68C23.54,252.26 23.52,205.85 25.26,205.77C26.49,205.72 27.98,221.85 29.47,229.22C30.81,235.84 31.61,247.45 33.68,247.99C34.86,248.3 36.73,242.94 37.89,243.3C40.46,244.09 40.72,273.79 42.1,273.78C43.53,273.77 44.91,251.89 46.31,240.95C47.71,230.01 48.93,208.18 50.52,208.12C51.8,208.08 52.55,228.62 54.73,229.22C55.91,229.54 57.77,224.2 58.94,224.53C61.22,225.18 60.87,247.34 63.15,247.99C64.32,248.32 65.85,243.55 67.36,243.3C68.68,243.08 70.41,246.2 71.57,245.64C74.28,244.33 73.4,224.81 75.78,219.84C76.95,217.4 78.83,214.79 79.99,215.15C82.56,215.94 82.84,245.65 84.2,245.64C85.66,245.63 85.65,211.33 88.41,210.46C89.57,210.09 91.35,213.2 92.62,215.15C94.24,217.64 95.56,220.91 96.83,224.53C98.46,229.18 99.83,241.04 101.04,240.95C102.9,240.81 103.39,211.42 105.25,201.08C106.46,194.36 107.5,185.14 109.46,184.66C110.66,184.37 112.16,188.14 113.67,189.35C114.99,190.41 116.7,190.17 117.88,191.7C120.08,194.56 120.83,208.18 122.09,208.12C123.73,208.04 124.31,180.24 126.3,179.97C127.49,179.81 129.33,189.53 130.51,189.35C132.69,189.02 133.09,164.38 134.72,154.17C135.99,146.21 137.37,139.36 138.93,133.07C140.22,127.87 141.78,118.96 143.14,118.99C144.6,119.02 145.99,135.43 147.35,135.41C148.8,135.39 149.97,116.75 151.56,116.65C152.84,116.57 154.03,128.03 155.77,128.37C157,128.61 158.77,123.41 159.98,123.68C161.83,124.09 163.01,137.88 164.19,137.76C166.35,137.54 166.79,102.94 168.4,88.5C169.67,77.11 171.14,58.04 172.6,58.02C173.95,58 174.7,83.41 176.81,83.81C177.99,84.04 179.84,76.55 181.02,76.78C183.13,77.18 183.31,102.33 185.23,102.58C186.43,102.74 188.14,96.69 189.44,93.2C190.99,89.03 192.42,79.03 193.65,79.12C195.42,79.26 194.92,105.31 197.86,109.61C199.02,111.31 200.9,112.57 202.07,111.96C205.54,110.15 204.88,69.74 206.28,69.74C207.68,69.74 208.92,111.92 210.49,111.96C211.78,111.99 213.37,83.79 214.7,83.81C216.19,83.83 217.22,118.9 218.91,118.99C220.16,119.05 220.78,101.27 223.12,100.23C224.29,99.71 226.17,100.95 227.33,102.58C229.92,106.21 230.25,126.07 231.54,126.03C233.11,125.98 234.46,90.83 235.75,90.85C237.31,90.88 237.58,142.13 239.96,142.45C241.13,142.6 242.89,135.13 244.17,130.72C245.76,125.24 247.19,111.87 248.38,111.96C250.38,112.1 249.92,165.44 252.59,165.9C253.75,166.1 255.4,156.52 256.8,156.52C258.2,156.52 259.71,165.99 261.01,165.9C262.56,165.8 263.86,156.72 265.22,151.83C266.68,146.58 268.23,135.32 269.43,135.41C271.33,135.55 272.1,164.71 273.64,177.63C274.95,188.63 276.53,208.14 277.85,208.12C279.36,208.1 280.09,168.43 282.06,168.25C283.25,168.14 284.87,177.63 286.27,182.32C287.67,187.01 289.16,191.34 290.48,196.39C291.99,202.17 293.42,215.2 294.69,215.15C296.3,215.08 297.61,184.63 298.9,184.66C300.46,184.69 301.51,229.18 303.11,229.22C304.39,229.25 305.6,208.8 307.32,201.08C308.56,195.53 309.33,188.65 311.53,187.01C312.71,186.13 314.58,186.01 315.74,187.01C318.76,189.62 317.12,213.76 319.95,215.15C321.11,215.72 322.98,214.33 324.16,212.81C326.37,209.95 327.01,196.37 328.37,196.39C329.82,196.41 331.21,215.17 332.58,215.15C334.03,215.13 335.34,194.06 336.79,194.04C338.16,194.02 339.14,208.17 341,212.81C342.21,215.84 343.96,220 345.21,219.84C346.89,219.63 348.06,205.74 349.42,205.77C350.88,205.8 351.42,219.33 353.63,222.19C354.81,223.71 356.66,223.01 357.84,224.53C360.05,227.39 360.79,241.01 362.05,240.95C363.69,240.87 364.07,218.93 366.26,212.81C367.44,209.52 369.27,205.56 370.47,205.77C372.41,206.11 372.74,221.85 374.68,226.88C375.88,229.99 377.72,234.15 378.89,233.91C381.16,233.45 381.55,203.47 383.1,203.42C384.4,203.38 385.74,224.46 387.31,224.53C388.6,224.59 390.31,210.36 391.52,210.46C393.4,210.62 394.41,245.66 395.73,245.64C397.25,245.62 397.95,210.29 399.94,198.73C401.13,191.79 402.79,182.3 404.15,182.32C405.6,182.34 406.91,201.06 408.36,201.08C409.72,201.1 410.94,184.8 412.57,184.66C413.84,184.55 415.29,193.95 416.78,194.04C418.11,194.12 419.26,187.99 420.99,187.01C422.23,186.31 423.84,186.66 425.2,187.01C426.65,187.39 428.23,189.83 429.41,189.35C431.48,188.51 432.43,181.23 433.62,175.28C435.59,165.44 436.6,135.38 437.83,135.41C439.57,135.46 440.55,215.14 442.04,215.15C443.37,215.16 443.01,162.21 446.25,151.83C447.42,148.1 449.27,147.96 450.46,144.79C452.49,139.38 453.3,129.35 454.67,121.34C456.11,112.95 455.98,98 458.88,95.54C460.04,94.55 461.93,94.57 463.09,95.54C465.86,97.85 465.45,113.02 467.3,118.99C468.51,122.91 470.34,128.56 471.51,128.37C473.88,127.98 474.27,99.81 475.72,86.16C477.08,73.28 478.48,48.64 479.93,48.63C481.29,48.62 481.47,80.64 484.14,81.47C485.3,81.83 487.17,79.13 488.35,76.78C490.53,72.43 490.79,55.87 492.56,55.67C493.79,55.53 495.58,60.92 496.77,65.05C498.82,72.2 499.77,95.59 500.98,95.54C502.82,95.47 502.14,37.59 505.19,25.18C506.35,20.44 508.24,15.59 509.4,15.8C512.23,16.31 509.39,70.16 513.6,76.78C514.78,78.64 516.64,79.64 517.81,79.12C520.15,78.07 520.51,66.14 522.02,60.36C523.34,55.31 524.55,46.5 526.23,46.29C527.48,46.13 529.27,49.59 530.44,53.32C533.68,63.7 532.77,116.56 534.65,116.65C535.86,116.71 536.15,94.71 538.86,90.85C540.02,89.19 541.9,90.1 543.07,88.5C545.53,85.12 546.09,67.33 547.28,67.4C549.25,67.52 549.42,111.96 551.49,126.03C552.67,134.07 554.52,144.88 555.7,144.79C557.84,144.62 558.41,81.48 559.91,81.47C561.24,81.46 561.27,130.06 564.12,130.72C565.28,130.99 566.93,126.03 568.33,123.68C569.73,121.34 571.03,118.69 572.54,116.65C573.86,114.86 575.59,111.59 576.75,111.96C579.6,112.87 577.7,144.57 580.96,149.48C582.13,151.23 583.85,150.77 585.17,151.83C586.68,153.04 588.11,154.57 589.38,156.52C591,159.01 591.97,163.41 593.59,165.9C594.86,167.85 596.29,170.34 597.8,170.59C599.12,170.81 600.79,167.84 602.01,168.25C603.8,168.84 605.01,177.78 606.22,177.63C608.07,177.4 609.15,154.13 610.43,154.17C612.04,154.22 612.91,191.61 614.64,191.7C615.88,191.77 617,177.58 618.85,172.94C620.06,169.91 621.66,165.9 623.06,165.9C624.46,165.9 625.62,172.5 627.27,172.94C628.53,173.28 630.31,170.05 631.48,170.59C633.94,171.73 633.23,188.32 635.69,191.7C636.86,193.3 638.58,194.26 639.9,194.04C641.41,193.79 642.93,191.7 644.11,189.35C646.29,185.01 646.87,168.27 648.32,168.25Q649.69,168.23 652.53,187.01" style="vector-effect: none; fill: none; stroke: rgb(56, 63, 67); stroke-opacity: 1; stroke-width: 2px; opacity: 1;"/>
            </g>
            <g class="points"/>
            <g class="text"/>
          </g>
          <g class="trace scatter trace11a710" style="stroke-miterlimit: 2;">
            <g class="fills">
              <g>
                <path class="js-fill" d="M682,316L652.53,316L652.53,187.01Q655.51,203.5 656.74,203.42C658.51,203.3 659.6,168.24 660.95,168.25C662.42,168.26 663.54,210.41 665.16,210.46C666.43,210.5 667.26,190.43 669.37,184.66C670.55,181.43 672.41,177.39 673.58,177.63C675.85,178.09 676.45,208.14 677.79,208.12Q679.27,208.1 682,170.59" style="fill: rgb(204, 226, 216); fill-opacity: 1; stroke-width: 0;"/>
              </g>
            </g>
            <g class="errorbars"/>
            <g class="lines">
              <path class="js-line" d="M652.53,187.01Q655.51,203.5 656.74,203.42C658.51,203.3 659.6,168.24 660.95,168.25C662.42,168.26 663.54,210.41 665.16,210.46C666.43,210.5 667.26,190.43 669.37,184.66C670.55,181.43 672.41,177.39 673.58,177.63C675.85,178.09 676.45,208.14 677.79,208.12Q679.27,208.1 682,170.59" style="vector-effect: none; fill: none; stroke: rgb(0, 90, 48); stroke-opacity: 1; stroke-width: 2px; opacity: 1;"/>
            </g>
            <g class="points"/>
            <g class="text"/>
          </g>
        </g>
      </g>
      <g class="overplot"/>
      <path class="xlines-above crisp" d="" style="fill: none; stroke-width: 1px; stroke: rgb(0, 0, 0); stroke-opacity: 0;"/>
      <path class="ylines-above crisp" d="M0,0" style="fill: none;"/>
      <g class="overlines-above"/>
      <g class="xaxislayer-above">
        <path class="xtick ticks crisp" d="M0,317v5" transform="translate(18,0)" style="stroke: rgb(68, 68, 68); stroke-opacity: 1; stroke-width: 1px;"/>
        <path class="xtick ticks crisp" d="M0,317v5" transform="translate(144.3,0)" style="stroke: rgb(68, 68, 68); stroke-opacity: 1; stroke-width: 1px;"/>
        <path class="xtick ticks crisp" d="M0,317v5" transform="translate(274.8,0)" style="stroke: rgb(68, 68, 68); stroke-opacity: 1; stroke-width: 1px;"/>
        <path class="xtick ticks crisp" d="M0,317v5" transform="translate(401.1,0)" style="stroke: rgb(68, 68, 68); stroke-opacity: 1; stroke-width: 1px;"/>
        <path class="xtick ticks crisp" d="M0,317v5" transform="translate(531.6,0)" style="stroke: rgb(68, 68, 68); stroke-opacity: 1; stroke-width: 1px;"/>
        <path class="xtick ticks crisp" d="M0,317v5" transform="translate(662.11,0)" style="stroke: rgb(68, 68, 68); stroke-opacity: 1; stroke-width: 1px;"/>
        <g class="xtick">
          <text text-anchor="middle" x="0" y="346" transform="translate(18,0)" style="font-family: 'GDS Transport', Arial, sans-serif; font-size: 20px; fill: rgb(107, 114, 118); fill-opacity: 1; white-space: pre; opacity: 1;">Sep</text>
        </g>
        <g class="xtick">
          <text text-anchor="middle" x="0" y="346" style="font-family: 'GDS Transport', Arial, sans-serif; font-size: 20px; fill: rgb(107, 114, 118); fill-opacity: 1; white-space: pre; opacity: 1;" transform="translate(144.3,0)">Oct</text>
        </g>
        <g class="xtick">
          <text text-anchor="middle" x="0" y="346" style="font-family: 'GDS Transport', Arial, sans-serif; font-size: 20px; fill: rgb(107, 114, 118); fill-opacity: 1; white-space: pre; opacity: 1;" transform="translate(274.8,0)">Nov</text>
        </g>
        <g class="xtick">
          <text text-anchor="middle" x="0" y="346" style="font-family: 'GDS Transport', Arial, sans-serif; font-size: 20px; fill: rgb(107, 114, 118); fill-opacity: 1; white-space: pre; opacity: 1;" transform="translate(401.1,0)">Dec</text>
        </g>
        <g class="xtick">
          <text text-anchor="middle" x="0" y="346" style="font-family: 'GDS Transport', Arial, sans-serif; font-size: 20px; fill: rgb(107, 114, 118); fill-opacity: 1; white-space: pre; opacity: 1;" transform="translate(531.6,0)">Jan</text>
        </g>
        <g class="xtick">
          <text text-anchor="middle" x="0" y="346" style="font-family: 'GDS Transport', Arial, sans-serif; font-size: 20px; fill: rgb(107, 114, 118); fill-opacity: 1; white-space: pre; opacity: 1;" transform="translate(662.11,0)">Feb</text>
        </g>
      </g>
      <g class="yaxislayer-above"/>
      <g class="overaxes-above"/>
    </g>
  </g>
  <g class="polarlayer"/>
  <g class="smithlayer"/>
  <g class="ternarylayer"/>
  <g class="geolayer"/>
  <g class="funnelarealayer"/>
  <g class="pielayer"/>
  <g class="iciclelayer"/>
  <g class="treemaplayer"/>
  <g class="sunburstlayer"/>
  <g class="glimages"/>
  <defs id="topdefs-3c2fc6">
    <g class="clips"/>
  </defs>
  <g class="layer-above">
    <g class="imagelayer"/>
    <g class="shapelayer"/>
  </g>
  <g class="infolayer">
    <g class="g-gtitle"/>
    <g class="g-xtitle"/>
    <g class="g-ytitle"/>
  </g>
</svg>