<svg xmlns="http://www.w3.org/2000/svg" width="930" height="220" class="main-svg"><path fill="none" d="M0 0h930v220H0z" style="fill:#000;fill-opacity:0"/><defs><clipPath id="a" class="plotclip"><path d="M0 0h894v197H0z"/></clipPath></defs><g class="bglayer"><path fill="none" d="M29 0h894v197H29z" class="bg" style="fill:#000;fill-opacity:0;stroke-width:0"/></g><g class="cartesianlayer"><g class="subplot xy"><g class="zerolinelayer"><path d="M29 0h894" class="yzl zl crisp" style="stroke:#fff;stroke-opacity:1;stroke-width:2px" transform="translate(0 197)"/></g><g class="plot" clip-path="url(#a)" transform="translate(29)"><g class="barlayer mlayer"><g class="trace bars" style="opacity:1"><g class="points"><path d="M.29 197v-47.53h2.29V197ZM3.15 197v-63.7h2.29V197ZM6.02 197v-68.71h2.29V197ZM8.88 197v-60.25h2.29V197ZM11.75 197v-52.93h2.29V197ZM14.61 197v-46.3h2.3V197ZM17.48 197v-39.15h2.29V197ZM20.34 197v-47.2h2.3V197ZM23.21 197v-54.68h2.29V197ZM26.07 197v-50.23h2.3V197ZM28.94 197v-44.74h2.29V197ZM31.81 197v-39.27h2.29V197ZM34.67 197v-35.68h2.29V197ZM37.54 197v-31.65h2.29V197ZM40.4 197v-41.45h2.29V197ZM43.27 197v-48.57h2.29V197ZM46.13 197v-42.08h2.29V197ZM49 197v-39.36h2.29V197ZM51.86 197v-35.63h2.3V197ZM54.73 197v-31.1h2.29V197ZM57.59 197v-26.13h2.3V197ZM60.46 197v-31.72h2.29V197ZM63.32 197v-38.48h2.3V197ZM66.19 197v-34.45h2.29V197ZM69.06 197v-31.97h2.29V197ZM71.92 197v-29.68h2.29V197ZM74.79 197v-27.68h2.29V197ZM77.65 197v-25.58h2.29V197ZM80.52 197v-28.87h2.29V197ZM83.38 197v-36.51h2.29V197ZM86.25 197v-35.32h2.29V197ZM89.11 197v-35.19h2.3V197ZM91.98 197v-31.29h2.29V197ZM94.84 197v-34.38h2.3V197ZM97.71 197v-38.67H100V197ZM100.57 197v-51.43h2.3V197ZM103.44 197v-60.36h2.29V197ZM106.31 197v-58.41h2.29V197ZM109.17 197v-61.29h2.29V197ZM112.04 197v-59.06h2.29V197ZM114.9 197v-56.38h2.29V197ZM117.77 197v-52.15h2.29V197ZM120.63 197v-66.01h2.29V197ZM123.5 197v-79.79h2.29V197ZM126.36 197v-77.98h2.3V197ZM129.23 197v-76.3h2.29V197ZM132.09 197v-73.38h2.3V197ZM134.96 197v-71.69h2.29V197ZM137.82 197v-71.66h2.3V197ZM140.69 197v-89.45h2.29V197ZM143.56 197V92.78h2.29V197ZM146.42 197V89.03h2.29V197ZM149.29 197V87.59h2.29V197ZM152.15 197V94.15h2.29V197ZM155.02 197v-96.24h2.29V197ZM157.88 197v-89.17h2.29V197ZM160.75 197V85.89h2.29V197ZM163.61 197V62.14h2.3V197ZM166.48 197V62.29h2.29V197ZM169.34 197V63.23h2.3V197ZM172.21 197V64.52h2.29V197ZM175.07 197V67.24h2.3V197ZM177.94 197V76.37h2.29V197ZM180.81 197V41.96h2.29V197ZM183.67 197V9.85h2.29V197ZM186.54 197V23.82h2.29V197ZM189.4 197V32.3h2.29V197ZM192.27 197V48.89h2.29V197ZM195.13 197V60.44h2.29V197ZM198 197V77.8h2.29V197ZM200.86 197V55.06h2.3V197ZM203.73 197V29.48h2.29V197ZM206.59 197V46.86h2.3V197ZM209.46 197V63.73h2.29V197ZM212.32 197V77.89h2.3V197ZM215.19 197V94.6h2.29V197ZM218.06 197v-84.2h2.29V197ZM220.92 197v-96.72h2.29V197ZM223.79 197V92.79h2.29V197ZM226.65 197v-91.56h2.29V197ZM229.52 197v-89.51h2.29V197ZM232.38 197v-78.78h2.29V197ZM235.25 197v-68.83h2.29V197ZM238.11 197v-54.87h2.3V197ZM240.98 197v-62.92h2.29V197ZM243.84 197v-73.47h2.3V197ZM246.71 197v-64.56H249V197ZM249.57 197v-58.11h2.3V197ZM252.44 197v-51.37h2.29V197ZM255.31 197v-46.71h2.29V197ZM258.17 197v-40.73h2.29V197ZM261.04 197v-47.25h2.29V197ZM263.9 197v-54.29h2.29V197ZM266.77 197v-50.29h2.29V197ZM269.63 197v-45.71h2.29V197ZM272.5 197v-40.18h2.29V197ZM275.36 197v-36.09h2.3V197ZM278.23 197v-29.88h2.29V197ZM281.09 197v-36.32h2.3V197ZM283.96 197v-44.5h2.29V197ZM286.82 197v-39.8h2.3V197ZM289.69 197v-36.97h2.29V197ZM292.56 197v-33.54h2.29V197ZM295.42 197v-29.43h2.29V197ZM298.29 197v-24.49h2.29V197ZM301.15 197v-29.45h2.29V197ZM304.02 197v-34.49h2.29V197ZM306.88 197v-29.76h2.29V197ZM309.75 197v-27.03h2.29V197ZM312.61 197v-23.9h2.3V197ZM315.48 197v-20.43h2.29V197ZM318.34 197v-17.52h2.3V197ZM321.21 197v-21.85h2.29V197ZM324.07 197v-28.18h2.3V197ZM326.94 197v-25.1h2.29V197ZM329.81 197v-24.1h2.29V197ZM332.67 197v-20.11h2.29V197ZM335.54 197v-18.46h2.29V197ZM338.4 197v-16.05h2.29V197ZM341.27 197v-17.75h2.29V197ZM344.13 197v-24.25h2.29V197ZM347 197v-27.55h2.29V197ZM349.86 197v-24.48h2.3V197ZM352.73 197v-23.16h2.29V197ZM355.59 197v-19.95h2.3V197ZM358.46 197v-18.3h2.29V197ZM361.32 197v-23.15h2.3V197ZM364.19 197v-27.01h2.29V197ZM367.06 197v-24.27h2.29V197ZM369.92 197v-23.1h2.29V197ZM372.79 197v-20.02h2.29V197ZM375.65 197v-19.11h2.29V197ZM378.52 197v-17.62h2.29V197ZM381.38 197v-23.95h2.29V197ZM384.25 197v-29.25h2.29V197ZM387.11 197v-28.35h2.3V197ZM389.98 197v-27.38h2.29V197ZM392.84 197v-25.75h2.3V197ZM395.71 197v-22.79H398V197ZM398.57 197v-19.57h2.3V197ZM401.44 197v-24.26h2.29V197ZM404.31 197v-35.11h2.29V197ZM407.17 197v-44.34h2.29V197ZM410.04 197v-42.74h2.29V197ZM412.9 197v-38.76h2.29V197ZM415.77 197v-36.99h2.29V197ZM418.63 197v-32.69h2.29V197ZM421.5 197v-41.5h2.29V197ZM424.36 197v-49.51h2.3V197ZM427.23 197v-47.08h2.29V197ZM430.09 197v-48.08h2.3V197ZM432.96 197v-45.28h2.29V197ZM435.82 197v-43.72h2.3V197ZM438.69 197v-40.43h2.29V197ZM441.56 197v-53.07h2.29V197ZM444.42 197v-67h2.29v67ZM447.29 197v-63.09h2.29V197ZM450.15 197v-58.77h2.29V197ZM453.02 197v-54.3h2.29V197ZM455.88 197v-51.33h2.29V197ZM458.75 197v-40.52h2.29V197ZM461.61 197v-49.35h2.3V197ZM464.48 197v-60.56h2.29V197ZM467.34 197v-54.07h2.3V197ZM470.21 197v-50h2.29v50ZM473.07 197v-46.57h2.3V197ZM475.94 197v-45.21h2.29V197ZM478.81 197v-36.98h2.29V197ZM481.67 197v-44.7h2.29V197ZM484.54 197v-57.24h2.29V197ZM487.4 197v-47.21h2.29V197ZM490.27 197v-43.36h2.29V197ZM493.13 197v-37.42h2.29V197ZM496 197v-35.48h2.29V197ZM498.86 197v-27.88h2.3V197ZM501.73 197v-30.86h2.29V197ZM504.59 197v-37.85h2.3V197ZM507.46 197v-31.9h2.29V197ZM510.32 197v-30.32h2.3V197ZM513.19 197v-26.95h2.29V197ZM516.06 197v-24.12h2.29V197ZM518.92 197v-19.87h2.29V197ZM521.79 197v-23.57h2.29V197ZM524.65 197v-28.52h2.29V197ZM527.52 197v-25.19h2.29V197ZM530.38 197v-22.17h2.29V197ZM533.25 197v-20.09h2.29V197ZM536.11 197v-17h2.3v17ZM538.98 197v-14.62h2.29V197ZM541.84 197v-17.95h2.3V197ZM544.71 197v-23.89H547V197ZM547.57 197v-20.8h2.3V197ZM550.44 197v-19.62h2.29V197ZM553.31 197v-17.28h2.29V197ZM556.17 197v-15.77h2.29V197ZM559.04 197v-13.38h2.29V197ZM561.9 197v-16.3h2.29V197ZM564.77 197v-21.52h2.29V197ZM567.63 197v-19.46h2.29V197ZM570.5 197v-18.07h2.29V197ZM573.36 197v-16.64h2.3V197ZM576.23 197v-15.4h2.29V197ZM579.09 197v-13.59h2.3V197ZM581.96 197v-16.08h2.29V197ZM584.82 197v-21.86h2.3V197ZM587.69 197v-21.26h2.29V197ZM590.56 197v-19.95h2.29V197ZM593.42 197v-18.51h2.29V197ZM596.29 197v-16.25h2.29V197ZM599.15 197v-14.18h2.29V197ZM602.02 197v-19.41h2.29V197ZM604.88 197v-26.09h2.29V197ZM607.75 197v-24.46h2.29V197ZM610.61 197v-22.22h2.3V197ZM613.48 197v-19.79h2.29V197ZM616.34 197v-20.15h2.3V197ZM619.21 197v-15.28h2.29V197ZM622.07 197v-21h2.3v21ZM624.94 197v-29.88h2.29V197ZM627.81 197v-29.33h2.29V197ZM630.67 197v-28.56h2.29V197ZM633.54 197v-25.2h2.29V197ZM636.4 197v-23.54h2.29V197ZM639.27 197v-20.22h2.29V197ZM642.13 197v-26.02h2.29V197ZM645 197v-39.12h2.29V197ZM647.86 197v-39.93h2.3V197ZM650.73 197v-36.71h2.29V197ZM653.59 197v-34.15h2.3V197ZM656.46 197v-33.96h2.29V197ZM659.32 197v-26.26h2.3V197ZM662.19 197v-32h2.29v32ZM665.06 197v-50.5h2.29V197ZM667.92 197v-47.96h2.29V197ZM670.79 197v-43.22h2.29V197ZM673.65 197v-38.38h2.29V197ZM676.52 197v-32.16h2.29V197ZM679.38 197v-23.26h2.29V197ZM682.25 197v-20.83h2.29V197ZM685.11 197v-27.63h2.3V197ZM687.98 197v-36.79h2.29V197ZM690.84 197v-46.83h2.3V197ZM693.71 197v-42.76H696V197ZM696.57 197v-33.98h2.3V197ZM699.44 197v-23.93h2.29V197ZM702.31 197v-20.52h2.29V197ZM705.17 197v-28.52h2.29V197ZM708.04 197v-35.33h2.29V197ZM710.9 197v-30.83h2.29V197ZM713.77 197v-25.55h2.29V197ZM716.63 197v-20.92h2.29V197ZM719.5 197v-14.79h2.29V197ZM722.36 197v-15.24h2.3V197ZM725.23 197v-19.47h2.29V197ZM728.09 197v-17.18h2.3V197ZM730.96 197v-14.59h2.29V197ZM733.82 197v-13.42h2.3V197ZM736.69 197v-11.6h2.29V197ZM739.56 197v-8.06h2.29V197ZM742.42 197v-10.26h2.29V197ZM745.29 197v-14.16h2.29V197ZM748.15 197v-12.17h2.29V197ZM751.02 197v-11.65h2.29V197ZM753.88 197v-11.12h2.29V197ZM756.75 197v-10.46h2.29V197ZM759.61 197v-8.6h2.3v8.6ZM762.48 197v-10.73h2.29V197ZM765.34 197v-14.63h2.3V197ZM768.21 197v-15.62h2.29V197ZM771.07 197v-14.73h2.3V197ZM773.94 197v-14.18h2.29V197ZM776.81 197v-13.93h2.29V197ZM779.67 197v-11.02h2.29V197ZM782.54 197v-13.84h2.29V197ZM785.4 197v-20.11h2.29V197ZM788.27 197v-20.13h2.29V197ZM791.13 197v-19.68h2.29V197ZM794 197v-18.14h2.29V197ZM796.86 197v-16.84h2.3V197ZM799.73 197v-13.65h2.29V197ZM802.59 197v-16.04h2.3V197ZM805.46 197v-22.23h2.29V197ZM808.32 197v-20.76h2.3V197ZM811.19 197v-20.31h2.29V197ZM814.06 197v-18.51h2.29V197ZM816.92 197v-18.54h2.29V197ZM819.79 197v-14.62h2.29V197ZM822.65 197v-17.9h2.29V197ZM825.52 197v-27.84h2.29V197ZM828.38 197v-26.56h2.29V197ZM831.25 197v-23.83h2.29V197ZM834.11 197v-24.48h2.3V197ZM836.98 197v-23.02h2.29V197ZM839.84 197v-17.74h2.3V197ZM842.71 197v-21H845v21ZM845.57 197v-27.75h2.3V197ZM848.44 197v-26.29h2.29V197ZM851.31 197v-23.46h2.29V197ZM854.17 197v-21.2h2.29V197ZM857.04 197v-18.91h2.29V197ZM859.9 197v-15.3h2.29V197ZM862.77 197v-17.59h2.29V197ZM865.63 197v-26.21h2.29V197ZM868.5 197v-25.17h2.29V197ZM871.36 197v-24h2.3v24ZM874.23 197v-21.41h2.29V197ZM877.09 197v-20.23h2.3V197ZM879.96 197v-15.05h2.29V197ZM882.82 197v-18.51h2.3V197ZM885.69 197v-25.45h2.29V197ZM888.56 197v-22.3h2.29V197ZM891.42 197v-14.56h2.29V197Z" class="point" style="vector-effect:none;opacity:1;stroke-width:1px;fill:#5694ca;fill-opacity:1;stroke:#5694ca;stroke-opacity:1"/></g></g></g></g><g class="xaxislayer-above"><path d="M0 198v5" class="xtick ticks crisp" style="stroke:#444;stroke-opacity:1;stroke-width:1px" transform="translate(30.43)"/><path d="M0 198v5" class="xtick ticks crisp" style="stroke:#444;stroke-opacity:1;stroke-width:1px" transform="translate(119.26)"/><path d="M0 198v5" class="xtick ticks crisp" style="stroke:#444;stroke-opacity:1;stroke-width:1px" transform="translate(205.22)"/><path d="M0 198v5" class="xtick ticks crisp" style="stroke:#444;stroke-opacity:1;stroke-width:1px" transform="translate(294.05)"/><path d="M0 198v5" class="xtick ticks crisp" style="stroke:#444;stroke-opacity:1;stroke-width:1px" transform="translate(382.88)"/><path d="M0 198v5" class="xtick ticks crisp" style="stroke:#444;stroke-opacity:1;stroke-width:1px" transform="translate(468.84)"/><path d="M0 198v5" class="xtick ticks crisp" style="stroke:#444;stroke-opacity:1;stroke-width:1px" transform="translate(557.66)"/><path d="M0 198v5" class="xtick ticks crisp" style="stroke:#444;stroke-opacity:1;stroke-width:1px" transform="translate(643.63)"/><path d="M0 198v5" class="xtick ticks crisp" style="stroke:#444;stroke-opacity:1;stroke-width:1px" transform="translate(732.45)"/><path d="M0 198v5" class="xtick ticks crisp" style="stroke:#444;stroke-opacity:1;stroke-width:1px" transform="translate(821.28)"/><path d="M0 198v5" class="xtick ticks crisp" style="stroke:#444;stroke-opacity:1;stroke-width:1px" transform="translate(901.51)"/><text y="217.4" class="xtick" style="font-family:Arial;font-size:12px;fill:#6b7276;fill-opacity:1;white-space:pre;opacity:1" text-anchor="middle" transform="translate(30.43)">May 2022</text><text y="217.4" class="xtick" style="font-family:Arial;font-size:12px;fill:#6b7276;fill-opacity:1;white-space:pre;opacity:1" text-anchor="middle" transform="translate(119.26)">Jun 2022</text><text y="217.4" class="xtick" style="font-family:Arial;font-size:12px;fill:#6b7276;fill-opacity:1;white-space:pre;opacity:1" text-anchor="middle" transform="translate(205.22)">Jul 2022</text><text y="217.4" class="xtick" style="font-family:Arial;font-size:12px;fill:#6b7276;fill-opacity:1;white-space:pre;opacity:1" text-anchor="middle" transform="translate(294.05)">Aug 2022</text><text y="217.4" class="xtick" style="font-family:Arial;font-size:12px;fill:#6b7276;fill-opacity:1;white-space:pre;opacity:1" text-anchor="middle" transform="translate(382.88)">Sep 2022</text><text y="217.4" class="xtick" style="font-family:Arial;font-size:12px;fill:#6b7276;fill-opacity:1;white-space:pre;opacity:1" text-anchor="middle" transform="translate(468.84)">Oct 2022</text><text y="217.4" class="xtick" style="font-family:Arial;font-size:12px;fill:#6b7276;fill-opacity:1;white-space:pre;opacity:1" text-anchor="middle" transform="translate(557.66)">Nov 2022</text><text y="217.4" class="xtick" style="font-family:Arial;font-size:12px;fill:#6b7276;fill-opacity:1;white-space:pre;opacity:1" text-anchor="middle" transform="translate(643.63)">Dec 2022</text><text y="217.4" class="xtick" style="font-family:Arial;font-size:12px;fill:#6b7276;fill-opacity:1;white-space:pre;opacity:1" text-anchor="middle" transform="translate(732.45)">Jan 2023</text><text y="217.4" class="xtick" style="font-family:Arial;font-size:12px;fill:#6b7276;fill-opacity:1;white-space:pre;opacity:1" text-anchor="middle" transform="translate(821.28)">Feb 2023</text></g><g class="yaxislayer-above"><text x="28" y="4.2" class="ytick" style="font-family:Arial;font-size:12px;fill:#6b7276;fill-opacity:1;white-space:pre;opacity:1" text-anchor="end" transform="translate(0 197)">0</text><text x="28" y="4.2" class="ytick" style="font-family:Arial;font-size:12px;fill:#6b7276;fill-opacity:1;white-space:pre;opacity:1" text-anchor="end" transform="translate(0 135.41)">10k</text><text x="28" y="4.2" class="ytick" style="font-family:Arial;font-size:12px;fill:#6b7276;fill-opacity:1;white-space:pre;opacity:1" text-anchor="end" transform="translate(0 73.82)">20k</text><text x="28" y="4.2" class="ytick" style="font-family:Arial;font-size:12px;fill:#6b7276;fill-opacity:1;white-space:pre;opacity:1" text-anchor="end" transform="translate(0 12.23)">30k</text></g></g></g></svg>