<svg xmlns="http://www.w3.org/2000/svg" width="650" height="200" viewBox="0 0 650 200" fill="none"><path d="M0 0H650V200H0V0Z" fill="#F3F2F1"/><path d="M252.809 85.361H253.126V88.5094H252.809C250.87 88.5094 249.248 88.8302 247.942 89.4719C246.637 90.1003 245.601 90.9492 244.836 92.0187C244.071 93.0749 243.517 94.2647 243.174 95.5882C242.845 96.9118 242.68 98.2553 242.68 99.619V103.91C242.68 105.207 242.831 106.357 243.135 107.36C243.438 108.349 243.854 109.184 244.381 109.866C244.909 110.548 245.502 111.063 246.162 111.41C246.834 111.758 247.533 111.932 248.259 111.932C249.103 111.932 249.855 111.771 250.514 111.451C251.174 111.116 251.728 110.655 252.176 110.067C252.638 109.465 252.987 108.757 253.225 107.941C253.462 107.126 253.581 106.23 253.581 105.254C253.581 104.385 253.475 103.549 253.264 102.747C253.053 101.932 252.73 101.21 252.295 100.582C251.859 99.9398 251.312 99.4385 250.653 99.0775C250.006 98.7032 249.235 98.516 248.338 98.516C247.322 98.516 246.373 98.7701 245.489 99.2781C244.619 99.7727 243.9 100.428 243.333 101.243C242.779 102.045 242.462 102.921 242.383 103.87L240.444 103.85C240.629 102.353 240.972 101.076 241.473 100.02C241.987 98.9505 242.62 98.0816 243.372 97.4131C244.137 96.7313 244.988 96.2366 245.924 95.9291C246.874 95.6083 247.876 95.4479 248.931 95.4479C250.369 95.4479 251.609 95.7219 252.651 96.2701C253.693 96.8182 254.55 97.5535 255.223 98.4759C255.895 99.385 256.39 100.414 256.706 101.564C257.036 102.701 257.201 103.87 257.201 105.074C257.201 106.451 257.01 107.741 256.627 108.944C256.245 110.147 255.671 111.203 254.906 112.112C254.154 113.021 253.225 113.73 252.117 114.238C251.009 114.746 249.723 115 248.259 115C246.702 115 245.344 114.679 244.183 114.037C243.023 113.382 242.06 112.513 241.295 111.43C240.53 110.348 239.956 109.144 239.574 107.821C239.191 106.497 239 105.154 239 103.79V102.045C239 99.9866 239.204 97.9679 239.613 95.9893C240.022 94.0107 240.728 92.2193 241.73 90.615C242.746 89.0107 244.15 87.734 245.944 86.7848C247.738 85.8356 250.026 85.361 252.809 85.361Z" fill="black"/><path d="M266.183 100.702L263.255 99.9398L264.699 85.4011H279.478V88.8302H267.805L266.935 96.7714C267.462 96.4639 268.128 96.1765 268.933 95.9091C269.751 95.6417 270.687 95.508 271.742 95.508C273.074 95.508 274.268 95.742 275.323 96.2099C276.378 96.6644 277.275 97.3195 278.014 98.1751C278.765 99.0307 279.339 100.06 279.735 101.263C280.13 102.467 280.328 103.81 280.328 105.294C280.328 106.698 280.137 107.988 279.755 109.164C279.385 110.341 278.825 111.37 278.073 112.253C277.321 113.122 276.372 113.797 275.224 114.278C274.09 114.759 272.751 115 271.208 115C270.047 115 268.946 114.84 267.904 114.519C266.875 114.184 265.952 113.683 265.134 113.015C264.33 112.333 263.67 111.491 263.156 110.488C262.655 109.472 262.338 108.282 262.206 106.918H265.688C265.847 108.015 266.163 108.937 266.638 109.686C267.113 110.434 267.733 111.003 268.498 111.39C269.276 111.765 270.179 111.952 271.208 111.952C272.078 111.952 272.85 111.798 273.523 111.491C274.195 111.183 274.762 110.742 275.224 110.167C275.686 109.592 276.035 108.897 276.273 108.082C276.523 107.266 276.648 106.35 276.648 105.334C276.648 104.412 276.523 103.556 276.273 102.767C276.022 101.979 275.646 101.29 275.145 100.702C274.657 100.114 274.057 99.6591 273.345 99.3382C272.632 99.004 271.815 98.8369 270.891 98.8369C269.665 98.8369 268.735 99.004 268.102 99.3382C267.482 99.6725 266.842 100.127 266.183 100.702Z" fill="black"/><path d="M302.427 97.6738V102.126C302.427 104.519 302.216 106.537 301.794 108.182C301.372 109.826 300.765 111.15 299.974 112.152C299.182 113.155 298.226 113.884 297.105 114.338C295.997 114.779 294.744 115 293.346 115C292.238 115 291.216 114.86 290.28 114.579C289.343 114.298 288.499 113.85 287.747 113.235C287.009 112.607 286.376 111.791 285.848 110.789C285.32 109.786 284.918 108.57 284.641 107.139C284.364 105.709 284.226 104.037 284.226 102.126V97.6738C284.226 95.2807 284.437 93.2754 284.859 91.6578C285.294 90.0401 285.907 88.7433 286.699 87.7674C287.49 86.7781 288.44 86.0695 289.548 85.6417C290.669 85.2139 291.922 85 293.306 85C294.427 85 295.456 85.1404 296.393 85.4211C297.342 85.6885 298.186 86.123 298.925 86.7246C299.664 87.3128 300.29 88.1016 300.804 89.0909C301.332 90.0668 301.734 91.2634 302.011 92.6805C302.288 94.0976 302.427 95.762 302.427 97.6738ZM298.747 102.727V97.0521C298.747 95.742 298.668 94.5922 298.51 93.6029C298.364 92.6003 298.147 91.7447 297.857 91.0361C297.567 90.3275 297.197 89.7527 296.749 89.3115C296.314 88.8703 295.806 88.5495 295.225 88.3489C294.658 88.135 294.019 88.0281 293.306 88.0281C292.436 88.0281 291.664 88.1952 290.992 88.5294C290.319 88.8503 289.752 89.365 289.29 90.0735C288.842 90.7821 288.499 91.7112 288.262 92.861C288.024 94.0107 287.905 95.4078 287.905 97.0521V102.727C287.905 104.037 287.978 105.194 288.123 106.197C288.281 107.199 288.512 108.068 288.816 108.803C289.119 109.525 289.488 110.12 289.923 110.588C290.359 111.056 290.86 111.404 291.427 111.631C292.007 111.845 292.647 111.952 293.346 111.952C294.243 111.952 295.028 111.778 295.7 111.43C296.373 111.083 296.933 110.541 297.382 109.806C297.843 109.057 298.186 108.102 298.411 106.939C298.635 105.762 298.747 104.358 298.747 102.727Z" fill="black"/><path d="M320.054 92.9011L324.743 100.802L329.491 92.9011H333.784L326.781 103.61L334.002 114.599H329.768L324.822 106.457L319.876 114.599H315.622L322.824 103.61L315.84 92.9011H320.054Z" fill="black"/><path d="M366.21 111.551V114.599H347.356V111.932L356.792 101.283C357.953 99.9733 358.85 98.8636 359.483 97.9545C360.129 97.0321 360.578 96.2099 360.828 95.488C361.092 94.7527 361.224 94.004 361.224 93.242C361.224 92.2794 361.026 91.4104 360.631 90.635C360.248 89.8463 359.681 89.2179 358.929 88.75C358.177 88.2821 357.267 88.0481 356.199 88.0481C354.92 88.0481 353.851 88.3021 352.994 88.8102C352.15 89.3048 351.517 90 351.095 90.8957C350.673 91.7914 350.462 92.8209 350.462 93.984H346.802C346.802 92.3396 347.158 90.8356 347.87 89.4719C348.582 88.1083 349.637 87.0254 351.035 86.2233C352.433 85.4078 354.155 85 356.199 85C358.019 85 359.575 85.3275 360.868 85.9826C362.16 86.6243 363.15 87.5334 363.836 88.7099C364.535 89.873 364.884 91.2366 364.884 92.8008C364.884 93.6564 364.739 94.5254 364.449 95.4078C364.172 96.2767 363.783 97.1457 363.282 98.0147C362.794 98.8837 362.22 99.7393 361.56 100.582C360.914 101.424 360.222 102.253 359.483 103.068L351.767 111.551H366.21Z" fill="black"/><path d="M388.209 97.6738V102.126C388.209 104.519 387.998 106.537 387.576 108.182C387.154 109.826 386.547 111.15 385.756 112.152C384.965 113.155 384.008 113.884 382.887 114.338C381.779 114.779 380.526 115 379.128 115C378.02 115 376.998 114.86 376.062 114.579C375.125 114.298 374.281 113.85 373.53 113.235C372.791 112.607 372.158 111.791 371.63 110.789C371.103 109.786 370.7 108.57 370.424 107.139C370.147 105.709 370.008 104.037 370.008 102.126V97.6738C370.008 95.2807 370.219 93.2754 370.641 91.6578C371.076 90.0401 371.69 88.7433 372.481 87.7674C373.272 86.7781 374.222 86.0695 375.33 85.6417C376.451 85.2139 377.704 85 379.089 85C380.21 85 381.239 85.1404 382.175 85.4211C383.125 85.6885 383.969 86.123 384.707 86.7246C385.446 87.3128 386.072 88.1016 386.587 89.0909C387.114 90.0668 387.517 91.2634 387.794 92.6805C388.071 94.0976 388.209 95.762 388.209 97.6738ZM384.529 102.727V97.0521C384.529 95.742 384.45 94.5922 384.292 93.6029C384.147 92.6003 383.929 91.7447 383.639 91.0361C383.349 90.3275 382.98 89.7527 382.531 89.3115C382.096 88.8703 381.588 88.5495 381.008 88.3489C380.441 88.135 379.801 88.0281 379.089 88.0281C378.218 88.0281 377.447 88.1952 376.774 88.5294C376.101 88.8503 375.534 89.365 375.073 90.0735C374.624 90.7821 374.281 91.7112 374.044 92.861C373.807 94.0107 373.688 95.4078 373.688 97.0521V102.727C373.688 104.037 373.76 105.194 373.905 106.197C374.064 107.199 374.295 108.068 374.598 108.803C374.901 109.525 375.271 110.12 375.706 110.588C376.141 111.056 376.642 111.404 377.209 111.631C377.79 111.845 378.429 111.952 379.128 111.952C380.025 111.952 380.81 111.778 381.483 111.43C382.155 111.083 382.716 110.541 383.164 109.806C383.626 109.057 383.969 108.102 384.193 106.939C384.417 105.762 384.529 104.358 384.529 102.727Z" fill="black"/><path d="M411 97.6738V102.126C411 104.519 410.789 106.537 410.367 108.182C409.945 109.826 409.338 111.15 408.547 112.152C407.755 113.155 406.799 113.884 405.678 114.338C404.57 114.779 403.317 115 401.919 115C400.811 115 399.789 114.86 398.853 114.579C397.916 114.298 397.072 113.85 396.32 113.235C395.582 112.607 394.949 111.791 394.421 110.789C393.894 109.786 393.491 108.57 393.214 107.139C392.937 105.709 392.799 104.037 392.799 102.126V97.6738C392.799 95.2807 393.01 93.2754 393.432 91.6578C393.867 90.0401 394.481 88.7433 395.272 87.7674C396.063 86.7781 397.013 86.0695 398.121 85.6417C399.242 85.2139 400.495 85 401.88 85C403.001 85 404.03 85.1404 404.966 85.4211C405.916 85.6885 406.76 86.123 407.498 86.7246C408.237 87.3128 408.863 88.1016 409.378 89.0909C409.905 90.0668 410.308 91.2634 410.585 92.6805C410.862 94.0976 411 95.762 411 97.6738ZM407.32 102.727V97.0521C407.32 95.742 407.241 94.5922 407.083 93.6029C406.938 92.6003 406.72 91.7447 406.43 91.0361C406.14 90.3275 405.77 89.7527 405.322 89.3115C404.887 88.8703 404.379 88.5495 403.799 88.3489C403.232 88.135 402.592 88.0281 401.88 88.0281C401.009 88.0281 400.238 88.1952 399.565 88.5294C398.892 88.8503 398.325 89.365 397.864 90.0735C397.415 90.7821 397.072 91.7112 396.835 92.861C396.597 94.0107 396.479 95.4078 396.479 97.0521V102.727C396.479 104.037 396.551 105.194 396.696 106.197C396.855 107.199 397.085 108.068 397.389 108.803C397.692 109.525 398.061 110.12 398.497 110.588C398.932 111.056 399.433 111.404 400 111.631C400.581 111.845 401.22 111.952 401.919 111.952C402.816 111.952 403.601 111.778 404.274 111.43C404.946 111.083 405.507 110.541 405.955 109.806C406.417 109.057 406.76 108.102 406.984 106.939C407.208 105.762 407.32 104.358 407.32 102.727Z" fill="black"/></svg>
