<svg xmlns="http://www.w3.org/2000/svg" width="515" height="260" fill="none"><path fill="#F3F2F1" d="M0 0h515v260H0z"/><path fill="#000" d="m176.509 125.465-2.89-.742 1.426-14.161h14.589v3.34h-11.523l-.859 7.735c.52-.3 1.178-.58 1.972-.84.808-.261 1.732-.391 2.774-.391 1.315 0 2.493.228 3.535.684a7.255 7.255 0 0 1 2.656 1.914c.742.833 1.309 1.836 1.699 3.008.391 1.172.586 2.48.586 3.926 0 1.367-.189 2.623-.566 3.769a8.488 8.488 0 0 1-1.66 3.008c-.743.846-1.68 1.504-2.813 1.973-1.12.468-2.441.703-3.965.703a11.17 11.17 0 0 1-3.261-.469 8.413 8.413 0 0 1-2.735-1.465 7.937 7.937 0 0 1-1.953-2.461c-.495-.989-.807-2.148-.937-3.476h3.437c.156 1.067.469 1.966.938 2.695a4.588 4.588 0 0 0 1.836 1.66c.768.365 1.66.547 2.675.547.86 0 1.621-.15 2.285-.449.665-.3 1.224-.73 1.68-1.289.456-.56.801-1.237 1.035-2.032.248-.794.371-1.686.371-2.675 0-.899-.123-1.732-.371-2.5a5.707 5.707 0 0 0-1.113-2.012 4.87 4.87 0 0 0-1.777-1.328c-.703-.326-1.511-.489-2.422-.489-1.211 0-2.129.163-2.754.489-.612.325-1.244.768-1.895 1.328Zm29.805-15.059V139h-3.613v-24.082l-7.285 2.656v-3.262l10.332-3.906h.566Zm15.195 15.059-2.89-.742 1.426-14.161h14.589v3.34h-11.523l-.859 7.735c.52-.3 1.178-.58 1.972-.84.808-.261 1.732-.391 2.774-.391 1.315 0 2.493.228 3.535.684a7.255 7.255 0 0 1 2.656 1.914c.742.833 1.309 1.836 1.699 3.008.391 1.172.586 2.48.586 3.926 0 1.367-.189 2.623-.566 3.769a8.488 8.488 0 0 1-1.66 3.008c-.743.846-1.68 1.504-2.813 1.973-1.12.468-2.441.703-3.965.703a11.17 11.17 0 0 1-3.261-.469 8.413 8.413 0 0 1-2.735-1.465 7.937 7.937 0 0 1-1.953-2.461c-.495-.989-.807-2.148-.937-3.476h3.437c.156 1.067.469 1.966.938 2.695a4.588 4.588 0 0 0 1.836 1.66c.768.365 1.66.547 2.675.547.86 0 1.621-.15 2.285-.449.665-.3 1.224-.73 1.68-1.289.456-.56.801-1.237 1.035-2.032.248-.794.371-1.686.371-2.675 0-.899-.123-1.732-.371-2.5a5.707 5.707 0 0 0-1.113-2.012 4.87 4.87 0 0 0-1.777-1.328c-.703-.326-1.511-.489-2.422-.489-1.211 0-2.129.163-2.754.489-.612.325-1.244.768-1.895 1.328Zm30.684-7.598 4.629 7.695 4.687-7.695h4.239l-6.914 10.43L265.963 139h-4.18l-4.883-7.93-4.883 7.93h-4.199l7.109-10.703-6.894-10.43h4.16Zm45.566 18.164V139h-18.613v-2.598l9.317-10.371c1.145-1.276 2.031-2.357 2.656-3.242.638-.898 1.08-1.699 1.328-2.402a6.37 6.37 0 0 0 .391-2.188c0-.937-.196-1.784-.586-2.539a4.398 4.398 0 0 0-1.68-1.836c-.742-.456-1.641-.683-2.695-.683-1.263 0-2.318.247-3.164.742a4.562 4.562 0 0 0-1.875 2.031c-.417.872-.625 1.875-.625 3.008h-3.614c0-1.602.352-3.067 1.055-4.395.703-1.328 1.745-2.382 3.125-3.164 1.38-.794 3.079-1.191 5.098-1.191 1.796 0 3.333.319 4.609.957 1.276.625 2.253 1.51 2.93 2.656.69 1.133 1.035 2.461 1.035 3.985 0 .833-.143 1.679-.43 2.539a12.874 12.874 0 0 1-1.152 2.539 19.82 19.82 0 0 1-1.699 2.5 39.236 39.236 0 0 1-2.051 2.422l-7.617 8.261h14.257Zm17.735-25.508h.312v3.067h-.312c-1.914 0-3.516.312-4.805.937-1.289.612-2.311 1.439-3.066 2.481a10.172 10.172 0 0 0-1.641 3.476 16 16 0 0 0-.488 3.926v4.18c0 1.263.149 2.383.449 3.359.299.964.71 1.778 1.23 2.442.521.664 1.107 1.165 1.758 1.504a4.509 4.509 0 0 0 2.071.507c.833 0 1.575-.156 2.226-.468a4.716 4.716 0 0 0 1.641-1.348 6.192 6.192 0 0 0 1.035-2.07c.234-.795.351-1.667.351-2.618 0-.846-.104-1.66-.312-2.441a6.494 6.494 0 0 0-.957-2.109 4.593 4.593 0 0 0-1.621-1.465c-.638-.365-1.4-.547-2.285-.547-1.003 0-1.94.247-2.813.742a6.406 6.406 0 0 0-2.129 1.914 5.144 5.144 0 0 0-.937 2.559l-1.914-.02c.182-1.458.521-2.702 1.015-3.73.508-1.042 1.133-1.888 1.875-2.539a7.112 7.112 0 0 1 2.52-1.446 9.338 9.338 0 0 1 2.969-.468c1.419 0 2.643.267 3.672.8a7.275 7.275 0 0 1 2.539 2.149 8.973 8.973 0 0 1 1.464 3.008 12.03 12.03 0 0 1 .489 3.418c0 1.341-.189 2.597-.567 3.769a8.896 8.896 0 0 1-1.699 3.086 7.636 7.636 0 0 1-2.754 2.07c-1.094.495-2.363.743-3.808.743-1.537 0-2.878-.313-4.024-.938a8.609 8.609 0 0 1-2.851-2.539 11.569 11.569 0 0 1-1.7-3.516 13.913 13.913 0 0 1-.566-3.925v-1.7c0-2.005.202-3.971.605-5.898.404-1.927 1.101-3.672 2.09-5.234 1.003-1.563 2.39-2.806 4.16-3.731 1.771-.924 4.03-1.387 6.778-1.387Zm26.484 11.993v4.336c0 2.33-.208 4.296-.625 5.898-.417 1.602-1.015 2.891-1.797 3.867-.781.977-1.725 1.686-2.832 2.129-1.094.43-2.331.645-3.711.645-1.093 0-2.103-.137-3.027-.411a7.171 7.171 0 0 1-2.5-1.308c-.729-.612-1.354-1.406-1.875-2.383-.521-.977-.918-2.161-1.191-3.555-.274-1.393-.411-3.02-.411-4.882v-4.336c0-2.331.209-4.284.625-5.86.43-1.575 1.036-2.838 1.817-3.789.781-.963 1.719-1.653 2.812-2.07 1.107-.417 2.344-.625 3.711-.625 1.107 0 2.123.137 3.047.41.938.26 1.771.684 2.5 1.27.729.572 1.348 1.341 1.856 2.304.52.951.918 2.116 1.191 3.496.273 1.381.41 3.002.41 4.864Zm-3.633 4.922v-5.528c0-1.276-.078-2.396-.234-3.359-.143-.977-.358-1.81-.645-2.5-.286-.69-.651-1.25-1.093-1.68a3.857 3.857 0 0 0-1.504-.937c-.56-.209-1.192-.313-1.895-.313-.859 0-1.621.163-2.285.488-.664.313-1.224.814-1.68 1.504-.442.69-.781 1.595-1.015 2.715-.235 1.12-.352 2.481-.352 4.082v5.528c0 1.276.072 2.402.215 3.378.156.977.384 1.823.684 2.539.299.704.664 1.283 1.093 1.739.43.455.925.794 1.485 1.015a5.49 5.49 0 0 0 1.894.313c.886 0 1.66-.169 2.325-.508.664-.338 1.217-.866 1.66-1.582.455-.729.794-1.66 1.015-2.793.222-1.146.332-2.513.332-4.101Z"/></svg>