<svg xmlns="http://www.w3.org/2000/svg" width="435" height="220" fill="none"><path fill="#F3F2F1" d="M0 0h435v220H0z"/><path fill="#000" d="M146.582 113.43v2.968h-20.547v-2.128l12.735-19.707h2.949l-3.164 5.703-8.418 13.164h16.445Zm-3.965-18.868V123h-3.613V94.562h3.613Zm12.52 12.442h2.578c1.263 0 2.305-.208 3.125-.625.833-.43 1.452-1.009 1.855-1.738.417-.743.625-1.576.625-2.5 0-1.094-.182-2.012-.547-2.754a3.658 3.658 0 0 0-1.64-1.68c-.729-.378-1.654-.566-2.774-.566-1.015 0-1.914.201-2.695.605-.768.39-1.374.95-1.816 1.68-.43.729-.645 1.588-.645 2.578h-3.613c0-1.445.364-2.76 1.094-3.945.729-1.185 1.751-2.13 3.066-2.832 1.328-.704 2.865-1.055 4.609-1.055 1.719 0 3.223.306 4.512.918 1.289.599 2.292 1.497 3.008 2.695.716 1.185 1.074 2.663 1.074 4.434 0 .716-.169 1.484-.508 2.304-.325.808-.84 1.563-1.543 2.266-.69.703-1.588 1.283-2.695 1.738-1.107.443-2.435.664-3.984.664h-3.086v-2.187Zm0 2.969v-2.168h3.086c1.81 0 3.307.215 4.492.644 1.185.43 2.116 1.003 2.793 1.719.69.716 1.172 1.504 1.445 2.363.287.847.43 1.693.43 2.539 0 1.328-.228 2.507-.684 3.535a7.198 7.198 0 0 1-1.894 2.618 8.116 8.116 0 0 1-2.852 1.621c-1.094.364-2.285.547-3.574.547-1.237 0-2.402-.176-3.496-.528a9.036 9.036 0 0 1-2.871-1.523 7.112 7.112 0 0 1-1.953-2.481c-.469-.989-.704-2.116-.704-3.379h3.614c0 .99.215 1.856.644 2.598a4.569 4.569 0 0 0 1.875 1.738c.821.404 1.784.606 2.891.606s2.057-.189 2.851-.567a4.106 4.106 0 0 0 1.856-1.757c.443-.782.664-1.765.664-2.95 0-1.184-.247-2.155-.742-2.91-.495-.768-1.198-1.334-2.11-1.699-.898-.378-1.959-.566-3.183-.566h-2.578Zm21.797-.508-2.891-.742 1.426-14.16h14.59v3.34h-11.524l-.859 7.734c.521-.3 1.178-.58 1.972-.84.808-.261 1.732-.391 2.774-.391 1.315 0 2.493.228 3.535.684a7.247 7.247 0 0 1 2.656 1.914c.742.833 1.309 1.836 1.699 3.008.391 1.172.586 2.48.586 3.926 0 1.367-.188 2.623-.566 3.769a8.488 8.488 0 0 1-1.66 3.008c-.742.846-1.68 1.504-2.813 1.973-1.119.468-2.441.703-3.964.703-1.146 0-2.234-.157-3.262-.469a8.413 8.413 0 0 1-2.735-1.465 7.937 7.937 0 0 1-1.953-2.461c-.494-.989-.807-2.148-.937-3.476h3.437c.157 1.067.469 1.966.938 2.695a4.6 4.6 0 0 0 1.836 1.66c.768.365 1.66.547 2.676.547.859 0 1.621-.15 2.285-.449.664-.3 1.224-.73 1.679-1.289.456-.56.801-1.237 1.036-2.032.247-.794.371-1.686.371-2.675 0-.899-.124-1.732-.371-2.5a5.725 5.725 0 0 0-1.114-2.012 4.87 4.87 0 0 0-1.777-1.328c-.703-.326-1.511-.489-2.422-.489-1.211 0-2.129.163-2.754.489-.612.325-1.243.768-1.894 1.328Zm30.683-7.598 4.629 7.695 4.688-7.695h4.238l-6.914 10.43L221.387 123h-4.18l-4.883-7.93-4.883 7.93h-4.199l7.11-10.703-6.895-10.43h4.16Zm45.567 18.164V123H234.57v-2.598l9.317-10.371c1.146-1.276 2.031-2.357 2.656-3.242.638-.898 1.081-1.699 1.328-2.402a6.346 6.346 0 0 0 .391-2.188c0-.937-.196-1.784-.586-2.539a4.395 4.395 0 0 0-1.68-1.836c-.742-.456-1.641-.683-2.695-.683-1.263 0-2.318.247-3.164.742a4.56 4.56 0 0 0-1.875 2.031c-.417.872-.625 1.875-.625 3.008h-3.614c0-1.602.352-3.066 1.055-4.395.703-1.328 1.745-2.383 3.125-3.164 1.38-.794 3.08-1.191 5.098-1.191 1.797 0 3.333.319 4.609.957 1.276.625 2.253 1.51 2.93 2.656.69 1.133 1.035 2.461 1.035 3.985 0 .833-.143 1.679-.43 2.539a12.874 12.874 0 0 1-1.152 2.539 19.82 19.82 0 0 1-1.699 2.5 39.236 39.236 0 0 1-2.051 2.422l-7.617 8.261h14.258Zm22.5 0V123H257.07v-2.598l9.317-10.371c1.146-1.276 2.031-2.357 2.656-3.242.638-.898 1.081-1.699 1.328-2.402a6.346 6.346 0 0 0 .391-2.188c0-.937-.196-1.784-.586-2.539a4.395 4.395 0 0 0-1.68-1.836c-.742-.456-1.641-.683-2.695-.683-1.263 0-2.318.247-3.164.742a4.56 4.56 0 0 0-1.875 2.031c-.417.872-.625 1.875-.625 3.008h-3.614c0-1.602.352-3.066 1.055-4.395.703-1.328 1.745-2.383 3.125-3.164 1.38-.794 3.08-1.191 5.098-1.191 1.797 0 3.333.319 4.609.957 1.276.625 2.253 1.51 2.93 2.656.69 1.133 1.035 2.461 1.035 3.985 0 .833-.143 1.679-.43 2.539a12.874 12.874 0 0 1-1.152 2.539 19.82 19.82 0 0 1-1.699 2.5 39.236 39.236 0 0 1-2.051 2.422l-7.617 8.261h14.258Zm21.718-13.515v4.336c0 2.33-.208 4.296-.625 5.898-.416 1.602-1.015 2.891-1.797 3.867-.781.977-1.725 1.686-2.832 2.129-1.093.43-2.33.645-3.71.645-1.094 0-2.103-.137-3.028-.411a7.18 7.18 0 0 1-2.5-1.308c-.729-.612-1.354-1.406-1.875-2.383-.521-.977-.918-2.161-1.191-3.555-.274-1.393-.41-3.02-.41-4.882v-4.336c0-2.331.208-4.284.625-5.86.429-1.575 1.035-2.838 1.816-3.789.781-.963 1.719-1.654 2.813-2.07 1.106-.417 2.343-.625 3.71-.625 1.107 0 2.123.137 3.047.41a6.88 6.88 0 0 1 2.5 1.27c.729.572 1.348 1.34 1.856 2.304.521.95.918 2.116 1.191 3.496.274 1.381.41 3.002.41 4.864Zm-3.632 4.922v-5.528c0-1.276-.079-2.396-.235-3.359-.143-.977-.358-1.81-.644-2.5-.287-.69-.651-1.25-1.094-1.68a3.865 3.865 0 0 0-1.504-.937c-.56-.209-1.191-.313-1.895-.313-.859 0-1.621.163-2.285.488-.664.313-1.224.814-1.679 1.504-.443.69-.782 1.595-1.016 2.715-.234 1.12-.352 2.481-.352 4.082v5.528c0 1.276.072 2.402.215 3.378.157.977.384 1.823.684 2.539.299.704.664 1.283 1.094 1.739.429.455.924.794 1.484 1.015a5.491 5.491 0 0 0 1.895.313c.885 0 1.66-.169 2.324-.508.664-.338 1.217-.866 1.66-1.582.456-.729.794-1.66 1.016-2.793.221-1.146.332-2.513.332-4.101Z"/></svg>