<svg xmlns="http://www.w3.org/2000/svg" width="400" height="200" viewBox="0 0 400 200" fill="none"><path d="M0 0H400V200H0V0Z" fill="#F3F2F1"/><path d="M131.582 104.432V107.582H110V105.323L123.376 84.4144H126.474L123.15 90.4652L114.308 104.432H131.582ZM127.417 84.4144V114.586H123.622V84.4144H127.417Z" fill="black"/><path d="M153.779 97.0963V101.697C153.779 104.169 153.561 106.255 153.123 107.955C152.685 109.654 152.056 111.021 151.235 112.057C150.415 113.094 149.423 113.846 148.261 114.316C147.112 114.772 145.813 115 144.363 115C143.214 115 142.154 114.855 141.183 114.565C140.212 114.275 139.337 113.812 138.557 113.176C137.791 112.527 137.135 111.684 136.588 110.648C136.041 109.612 135.623 108.355 135.336 106.877C135.049 105.399 134.905 103.672 134.905 101.697V97.0963C134.905 94.6234 135.124 92.5512 135.562 90.8797C136.013 89.2081 136.649 87.8681 137.47 86.8596C138.29 85.8373 139.275 85.1052 140.424 84.6631C141.587 84.221 142.886 84 144.322 84C145.484 84 146.551 84.1451 147.522 84.4352C148.507 84.7115 149.382 85.1604 150.148 85.7821C150.914 86.3899 151.564 87.205 152.097 88.2273C152.644 89.2357 153.061 90.4721 153.349 91.9365C153.636 93.4008 153.779 95.1208 153.779 97.0963ZM149.964 102.318V96.4539C149.964 95.1 149.881 93.912 149.717 92.8897C149.567 91.8536 149.341 90.9695 149.04 90.2373C148.739 89.5051 148.357 88.9111 147.891 88.4552C147.44 87.9993 146.914 87.6678 146.312 87.4606C145.724 87.2395 145.06 87.129 144.322 87.129C143.419 87.129 142.619 87.3017 141.922 87.6471C141.224 87.9786 140.636 88.5105 140.157 89.2426C139.692 89.9748 139.337 90.9349 139.09 92.123C138.844 93.3111 138.721 94.7547 138.721 96.4539V102.318C138.721 103.672 138.796 104.867 138.947 105.903C139.111 106.939 139.35 107.837 139.665 108.597C139.979 109.343 140.362 109.958 140.814 110.441C141.265 110.925 141.785 111.284 142.373 111.519C142.975 111.74 143.638 111.85 144.363 111.85C145.293 111.85 146.107 111.671 146.804 111.311C147.502 110.952 148.083 110.393 148.548 109.633C149.027 108.859 149.382 107.872 149.615 106.67C149.847 105.454 149.964 104.004 149.964 102.318Z" fill="black"/><path d="M177.413 97.0963V101.697C177.413 104.169 177.194 106.255 176.756 107.955C176.319 109.654 175.69 111.021 174.869 112.057C174.048 113.094 173.057 113.846 171.894 114.316C170.745 114.772 169.446 115 167.996 115C166.848 115 165.788 114.855 164.817 114.565C163.845 114.275 162.97 113.812 162.191 113.176C161.425 112.527 160.768 111.684 160.221 110.648C159.674 109.612 159.257 108.355 158.97 106.877C158.682 105.399 158.539 103.672 158.539 101.697V97.0963C158.539 94.6234 158.758 92.5512 159.195 90.8797C159.647 89.2081 160.283 87.8681 161.103 86.8596C161.924 85.8373 162.909 85.1052 164.057 84.6631C165.22 84.221 166.519 84 167.955 84C169.118 84 170.185 84.1451 171.156 84.4352C172.14 84.7115 173.016 85.1604 173.782 85.7821C174.548 86.3899 175.197 87.205 175.731 88.2273C176.278 89.2357 176.695 90.4721 176.982 91.9365C177.269 93.4008 177.413 95.1208 177.413 97.0963ZM173.597 102.318V96.4539C173.597 95.1 173.515 93.912 173.351 92.8897C173.2 91.8536 172.975 90.9695 172.674 90.2373C172.373 89.5051 171.99 88.9111 171.525 88.4552C171.074 87.9993 170.547 87.6678 169.945 87.4606C169.357 87.2395 168.694 87.129 167.955 87.129C167.053 87.129 166.253 87.3017 165.555 87.6471C164.858 87.9786 164.269 88.5105 163.791 89.2426C163.326 89.9748 162.97 90.9349 162.724 92.123C162.478 93.3111 162.355 94.7547 162.355 96.4539V102.318C162.355 103.672 162.43 104.867 162.58 105.903C162.744 106.939 162.984 107.837 163.298 108.597C163.613 109.343 163.996 109.958 164.447 110.441C164.899 110.925 165.418 111.284 166.006 111.519C166.608 111.74 167.271 111.85 167.996 111.85C168.926 111.85 169.74 111.671 170.438 111.311C171.135 110.952 171.716 110.393 172.181 109.633C172.66 108.859 173.016 107.872 173.248 106.67C173.481 105.454 173.597 104.004 173.597 102.318Z" fill="black"/><path d="M195.692 92.1644L200.554 100.329L205.478 92.1644H209.929L202.667 103.23L210.155 114.586H205.765L200.636 106.172L195.507 114.586H191.096L198.564 103.23L191.322 92.1644H195.692Z" fill="black"/><path d="M243.554 111.436V114.586H224.003V111.83L233.788 100.826C234.992 99.4724 235.922 98.3258 236.579 97.3864C237.249 96.4332 237.714 95.5836 237.974 94.8376C238.247 94.0778 238.384 93.3041 238.384 92.5167C238.384 91.5221 238.179 90.6241 237.768 89.8229C237.372 89.0078 236.784 88.3585 236.004 87.875C235.225 87.3915 234.281 87.1497 233.173 87.1497C231.846 87.1497 230.739 87.4122 229.85 87.9372C228.974 88.4483 228.318 89.1667 227.88 90.0922C227.442 91.0178 227.224 92.0816 227.224 93.2834H223.428C223.428 91.5842 223.798 90.0301 224.536 88.621C225.275 87.2119 226.369 86.0929 227.819 85.264C229.268 84.4213 231.053 84 233.173 84C235.06 84 236.674 84.3385 238.015 85.0154C239.355 85.6785 240.381 86.6179 241.092 87.8336C241.817 89.0354 242.179 90.4445 242.179 92.0608C242.179 92.945 242.029 93.8429 241.728 94.7547C241.441 95.6526 241.037 96.5506 240.517 97.4485C240.011 98.3465 239.416 99.2306 238.733 100.101C238.062 100.971 237.344 101.828 236.579 102.67L228.578 111.436H243.554Z" fill="black"/><path d="M266.367 97.0963V101.697C266.367 104.169 266.148 106.255 265.71 107.955C265.272 109.654 264.643 111.021 263.823 112.057C263.002 113.094 262.01 113.846 260.848 114.316C259.699 114.772 258.4 115 256.95 115C255.801 115 254.741 114.855 253.77 114.565C252.799 114.275 251.924 113.812 251.144 113.176C250.378 112.527 249.722 111.684 249.175 110.648C248.628 109.612 248.211 108.355 247.923 106.877C247.636 105.399 247.493 103.672 247.493 101.697V97.0963C247.493 94.6234 247.711 92.5512 248.149 90.8797C248.6 89.2081 249.236 87.8681 250.057 86.8596C250.878 85.8373 251.862 85.1052 253.011 84.6631C254.174 84.221 255.473 84 256.909 84C258.072 84 259.138 84.1451 260.109 84.4352C261.094 84.7115 261.969 85.1604 262.735 85.7821C263.501 86.3899 264.151 87.205 264.684 88.2273C265.231 89.2357 265.649 90.4721 265.936 91.9365C266.223 93.4008 266.367 95.1208 266.367 97.0963ZM262.551 102.318V96.4539C262.551 95.1 262.469 93.912 262.305 92.8897C262.154 91.8536 261.928 90.9695 261.628 90.2373C261.327 89.5051 260.944 88.9111 260.479 88.4552C260.027 87.9993 259.501 87.6678 258.899 87.4606C258.311 87.2395 257.648 87.129 256.909 87.129C256.006 87.129 255.206 87.3017 254.509 87.6471C253.811 87.9786 253.223 88.5105 252.744 89.2426C252.279 89.9748 251.924 90.9349 251.678 92.123C251.431 93.3111 251.308 94.7547 251.308 96.4539V102.318C251.308 103.672 251.384 104.867 251.534 105.903C251.698 106.939 251.938 107.837 252.252 108.597C252.567 109.343 252.95 109.958 253.401 110.441C253.852 110.925 254.372 111.284 254.96 111.519C255.562 111.74 256.225 111.85 256.95 111.85C257.88 111.85 258.694 111.671 259.391 111.311C260.089 110.952 260.67 110.393 261.135 109.633C261.614 108.859 261.969 107.872 262.202 106.67C262.434 105.454 262.551 104.004 262.551 102.318Z" fill="black"/><path d="M290 97.0963V101.697C290 104.169 289.781 106.255 289.344 107.955C288.906 109.654 288.277 111.021 287.456 112.057C286.636 113.094 285.644 113.846 284.481 114.316C283.333 114.772 282.033 115 280.584 115C279.435 115 278.375 114.855 277.404 114.565C276.433 114.275 275.557 113.812 274.778 113.176C274.012 112.527 273.355 111.684 272.808 110.648C272.261 109.612 271.844 108.355 271.557 106.877C271.27 105.399 271.126 103.672 271.126 101.697V97.0963C271.126 94.6234 271.345 92.5512 271.783 90.8797C272.234 89.2081 272.87 87.8681 273.69 86.8596C274.511 85.8373 275.496 85.1052 276.645 84.6631C277.807 84.221 279.106 84 280.543 84C281.705 84 282.772 84.1451 283.743 84.4352C284.728 84.7115 285.603 85.1604 286.369 85.7821C287.135 86.3899 287.784 87.205 288.318 88.2273C288.865 89.2357 289.282 90.4721 289.569 91.9365C289.856 93.4008 290 95.1208 290 97.0963ZM286.184 102.318V96.4539C286.184 95.1 286.102 93.912 285.938 92.8897C285.788 91.8536 285.562 90.9695 285.261 90.2373C284.96 89.5051 284.577 88.9111 284.112 88.4552C283.661 87.9993 283.134 87.6678 282.532 87.4606C281.944 87.2395 281.281 87.129 280.543 87.129C279.64 87.129 278.84 87.3017 278.142 87.6471C277.445 87.9786 276.857 88.5105 276.378 89.2426C275.913 89.9748 275.557 90.9349 275.311 92.123C275.065 93.3111 274.942 94.7547 274.942 96.4539V102.318C274.942 103.672 275.017 104.867 275.168 105.903C275.332 106.939 275.571 107.837 275.886 108.597C276.2 109.343 276.583 109.958 277.034 110.441C277.486 110.925 278.005 111.284 278.594 111.519C279.195 111.74 279.859 111.85 280.584 111.85C281.514 111.85 282.327 111.671 283.025 111.311C283.722 110.952 284.304 110.393 284.769 109.633C285.247 108.859 285.603 107.872 285.835 106.67C286.068 105.454 286.184 104.004 286.184 102.318Z" fill="black"/></svg>