<svg xmlns="http://www.w3.org/2000/svg" width="930" height="220" fill="none"><path fill="#F3F2F1" d="M0 0h930v220H0z"/><path fill="#000" d="M383.957 120.973h.371c2.083 0 3.776-.293 5.078-.879 1.302-.586 2.305-1.374 3.008-2.364a8.83 8.83 0 0 0 1.445-3.339 18.78 18.78 0 0 0 .391-3.848v-4.355c0-1.29-.15-2.435-.449-3.438-.287-1.003-.69-1.842-1.211-2.52-.508-.677-1.087-1.19-1.738-1.543a4.297 4.297 0 0 0-2.071-.527c-.833 0-1.582.17-2.246.508a4.717 4.717 0 0 0-1.66 1.387c-.443.599-.781 1.302-1.016 2.109a9.438 9.438 0 0 0-.351 2.637c0 .846.104 1.666.312 2.461.209.794.528 1.51.957 2.148.43.638.964 1.146 1.602 1.524.651.364 1.413.546 2.285.546.807 0 1.563-.156 2.266-.468a6.549 6.549 0 0 0 3.222-3.203 5.97 5.97 0 0 0 .586-2.207h1.719c0 1.08-.215 2.148-.645 3.203a9.805 9.805 0 0 1-1.757 2.851 8.935 8.935 0 0 1-2.657 2.071c-1.015.507-2.122.761-3.32.761-1.406 0-2.624-.273-3.652-.82a7.37 7.37 0 0 1-2.539-2.188 9.99 9.99 0 0 1-1.465-3.046 12.854 12.854 0 0 1-.469-3.438c0-1.354.189-2.624.567-3.808a9.261 9.261 0 0 1 1.679-3.126 7.654 7.654 0 0 1 2.754-2.128c1.107-.508 2.383-.762 3.828-.762 1.628 0 3.015.325 4.16.976a8.03 8.03 0 0 1 2.793 2.618c.73 1.093 1.263 2.324 1.602 3.691a17.51 17.51 0 0 1 .508 4.219v1.308c0 1.472-.098 2.969-.293 4.493a17.99 17.99 0 0 1-1.074 4.335 11.384 11.384 0 0 1-2.286 3.711c-1.002 1.081-2.311 1.941-3.925 2.579-1.602.625-3.581.937-5.938.937h-.371v-3.066Zm24.18-12.969h2.578c1.263 0 2.305-.208 3.125-.625.833-.43 1.452-1.009 1.855-1.738.417-.743.625-1.576.625-2.5 0-1.094-.182-2.012-.547-2.754a3.657 3.657 0 0 0-1.64-1.68c-.729-.378-1.654-.566-2.774-.566-1.015 0-1.914.201-2.695.605-.768.39-1.374.95-1.816 1.68-.43.729-.645 1.588-.645 2.578h-3.613c0-1.445.364-2.761 1.094-3.945.729-1.185 1.751-2.13 3.066-2.832 1.328-.704 2.865-1.055 4.609-1.055 1.719 0 3.223.306 4.512.918 1.289.599 2.292 1.497 3.008 2.695.716 1.185 1.074 2.663 1.074 4.434 0 .716-.169 1.484-.508 2.304-.325.808-.84 1.563-1.543 2.266-.69.703-1.588 1.283-2.695 1.738-1.107.443-2.435.664-3.984.664h-3.086v-2.187Zm0 2.969v-2.168h3.086c1.81 0 3.307.215 4.492.644 1.185.43 2.116 1.003 2.793 1.719.69.716 1.172 1.504 1.445 2.363.287.847.43 1.693.43 2.539 0 1.328-.228 2.507-.684 3.535a7.198 7.198 0 0 1-1.894 2.618 8.116 8.116 0 0 1-2.852 1.621c-1.094.364-2.285.547-3.574.547-1.237 0-2.402-.176-3.496-.528a9.036 9.036 0 0 1-2.871-1.523 7.112 7.112 0 0 1-1.953-2.481c-.469-.989-.704-2.116-.704-3.379h3.614c0 .99.215 1.856.644 2.598a4.569 4.569 0 0 0 1.875 1.738c.821.404 1.784.606 2.891.606s2.057-.189 2.851-.567a4.106 4.106 0 0 0 1.856-1.757c.443-.782.664-1.765.664-2.95 0-1.184-.247-2.155-.742-2.91-.495-.768-1.198-1.334-2.11-1.699-.898-.378-1.959-.566-3.183-.566h-2.578Zm35.078-3.457v4.336c0 2.33-.208 4.296-.625 5.898-.417 1.602-1.016 2.891-1.797 3.867-.781.977-1.725 1.686-2.832 2.129-1.094.43-2.331.645-3.711.645-1.094 0-2.103-.137-3.027-.411a7.171 7.171 0 0 1-2.5-1.308c-.73-.612-1.355-1.406-1.875-2.383-.521-.977-.918-2.161-1.192-3.555-.273-1.393-.41-3.02-.41-4.882v-4.336c0-2.331.208-4.284.625-5.86.43-1.575 1.035-2.838 1.817-3.789.781-.963 1.718-1.654 2.812-2.07 1.107-.417 2.344-.625 3.711-.625 1.107 0 2.122.137 3.047.41.937.26 1.771.684 2.5 1.27.729.572 1.347 1.34 1.855 2.304.521.951.918 2.116 1.192 3.496.273 1.381.41 3.002.41 4.864Zm-3.633 4.922v-5.528c0-1.276-.078-2.396-.234-3.359-.144-.977-.358-1.81-.645-2.5-.286-.69-.651-1.25-1.094-1.68a3.857 3.857 0 0 0-1.504-.937c-.559-.209-1.191-.313-1.894-.313-.859 0-1.621.163-2.285.488-.664.313-1.224.814-1.68 1.504-.443.69-.781 1.595-1.016 2.715-.234 1.12-.351 2.481-.351 4.082v5.528c0 1.276.072 2.402.215 3.378.156.977.384 1.823.683 2.539.3.704.664 1.283 1.094 1.739a4.1 4.1 0 0 0 1.484 1.015 5.495 5.495 0 0 0 1.895.313c.885 0 1.66-.169 2.324-.508.664-.338 1.218-.866 1.66-1.582.456-.729.795-1.66 1.016-2.793.221-1.146.332-2.513.332-4.101Zm21.035-9.571 4.629 7.695 4.688-7.695h4.238l-6.914 10.43L474.387 124h-4.18l-4.883-7.93-4.883 7.93h-4.199l7.11-10.703-6.895-10.43h4.16Zm45.567 18.164V124H487.57v-2.598l9.317-10.371c1.146-1.276 2.031-2.357 2.656-3.242.638-.898 1.081-1.699 1.328-2.402a6.346 6.346 0 0 0 .391-2.188c0-.937-.196-1.784-.586-2.539a4.395 4.395 0 0 0-1.68-1.836c-.742-.456-1.641-.683-2.695-.683-1.263 0-2.318.247-3.164.742a4.562 4.562 0 0 0-1.875 2.031c-.417.872-.625 1.875-.625 3.008h-3.614c0-1.602.352-3.067 1.055-4.395.703-1.328 1.745-2.383 3.125-3.164 1.38-.794 3.08-1.191 5.098-1.191 1.797 0 3.333.319 4.609.957 1.276.625 2.253 1.51 2.93 2.656.69 1.133 1.035 2.461 1.035 3.985 0 .833-.143 1.679-.43 2.539a12.874 12.874 0 0 1-1.152 2.539 19.82 19.82 0 0 1-1.699 2.5 39.236 39.236 0 0 1-2.051 2.422l-7.617 8.261h14.258Zm22.5 0V124H510.07v-2.598l9.317-10.371c1.146-1.276 2.031-2.357 2.656-3.242.638-.898 1.081-1.699 1.328-2.402a6.346 6.346 0 0 0 .391-2.188c0-.937-.196-1.784-.586-2.539a4.395 4.395 0 0 0-1.68-1.836c-.742-.456-1.641-.683-2.695-.683-1.263 0-2.318.247-3.164.742a4.562 4.562 0 0 0-1.875 2.031c-.417.872-.625 1.875-.625 3.008h-3.614c0-1.602.352-3.067 1.055-4.395.703-1.328 1.745-2.383 3.125-3.164 1.38-.794 3.08-1.191 5.098-1.191 1.797 0 3.333.319 4.609.957 1.276.625 2.253 1.51 2.93 2.656.69 1.133 1.035 2.461 1.035 3.985 0 .833-.143 1.679-.43 2.539a12.874 12.874 0 0 1-1.152 2.539 19.82 19.82 0 0 1-1.699 2.5 39.236 39.236 0 0 1-2.051 2.422l-7.617 8.261h14.258Zm21.718-13.515v4.336c0 2.33-.208 4.296-.625 5.898-.416 1.602-1.015 2.891-1.797 3.867-.781.977-1.725 1.686-2.832 2.129-1.093.43-2.33.645-3.71.645-1.094 0-2.103-.137-3.028-.411a7.18 7.18 0 0 1-2.5-1.308c-.729-.612-1.354-1.406-1.875-2.383-.521-.977-.918-2.161-1.191-3.555-.274-1.393-.41-3.02-.41-4.882v-4.336c0-2.331.208-4.284.625-5.86.429-1.575 1.035-2.838 1.816-3.789.781-.963 1.719-1.654 2.813-2.07 1.106-.417 2.343-.625 3.71-.625 1.107 0 2.123.137 3.047.41a6.88 6.88 0 0 1 2.5 1.27c.729.572 1.348 1.34 1.856 2.304.521.951.918 2.116 1.191 3.496.274 1.381.41 3.002.41 4.864Zm-3.632 4.922v-5.528c0-1.276-.079-2.396-.235-3.359-.143-.977-.358-1.81-.644-2.5-.287-.69-.651-1.25-1.094-1.68a3.865 3.865 0 0 0-1.504-.937c-.56-.209-1.191-.313-1.895-.313-.859 0-1.621.163-2.285.488-.664.313-1.224.814-1.679 1.504-.443.69-.782 1.595-1.016 2.715-.234 1.12-.352 2.481-.352 4.082v5.528c0 1.276.072 2.402.215 3.378.157.977.384 1.823.684 2.539.299.704.664 1.283 1.094 1.739.429.455.924.794 1.484 1.015a5.491 5.491 0 0 0 1.895.313c.885 0 1.66-.169 2.324-.508.664-.338 1.217-.866 1.66-1.582.456-.729.794-1.66 1.016-2.793.221-1.146.332-2.513.332-4.101Z"/></svg>