<svg xmlns="http://www.w3.org/2000/svg" width="435" height="220" class="main-svg"><path fill="none" d="M0 0h435v220H0z" style="fill:#000;fill-opacity:0"/><defs><clipPath id="a" class="plotclip"><path d="M0 0h366v168H0z"/></clipPath></defs><g class="bglayer"><path fill="none" d="M32 0h366v168H32z" class="bg" style="fill:#000;fill-opacity:0;stroke-width:0"/></g><g class="cartesianlayer"><g class="subplot xy"><g class="zerolinelayer"><path d="M32 0h366" class="yzl zl crisp" style="stroke:#fff;stroke-opacity:1;stroke-width:2px" transform="translate(0 168)"/></g><g class="plot" clip-path="url(#a)" transform="translate(32)"><g class="barlayer mlayer"><g class="trace bars" style="opacity:1"><g class="points"><path d="M.2 168v-.12h1.58v.12ZM.2 167.88v-.12h1.58v.12ZM.2 167.76v-.13h1.58v.13ZM.2 167.63v-.12h1.58v.12ZM.2 167.51v-.11h1.58v.11Z" class="point" style="vector-effect:none;opacity:1;stroke-width:1px;fill:#5694ca;fill-opacity:1;stroke:#5694ca;stroke-opacity:1"/><path d="M.2 167.4v-.15h1.58v.15ZM.2 167.25v-.13h1.58v.13ZM.2 167.12v-.1h1.58v.1ZM.2 167.02v-.12h1.58v.12ZM2.18 168v-.36h1.58v.36ZM2.18 167.64v-.23h1.58v.23ZM2.18 167.41v-.43h1.58v.43ZM2.18 166.98v-.21h1.58v.21Z" class="point" style="vector-effect:none;opacity:1;stroke-width:1px;fill:#5694ca;fill-opacity:1;stroke:#5694ca;stroke-opacity:1"/><path d="M2.18 166.77v-.37h1.58v.37ZM2.18 166.4v-.46h1.58v.46ZM2.18 165.94v-.36h1.58v.36Z" class="point" style="vector-effect:none;opacity:1;stroke-width:1px;fill:#5694ca;fill-opacity:1;stroke:#5694ca;stroke-opacity:1"/><path d="M2.18 165.58v-.17h1.58v.17ZM2.18 165.41v-.2h1.58v.2ZM4.15 168v-.37h1.59v.37ZM4.15 167.63v-.31h1.59v.31ZM4.15 167.32v-.75h1.59v.75ZM4.15 166.57v-.64h1.59v.64ZM4.15 165.93v-.44h1.59v.44ZM4.15 165.49v-.64h1.59v.64ZM4.15 164.85v-.35h1.59v.35ZM4.15 164.5v-.27h1.59v.27ZM4.15 164.23v-.64h1.59v.64ZM6.13 168v-.41h1.59v.41ZM6.13 167.59v-.9h1.59v.9ZM6.13 166.69v-1h1.59v1ZM6.13 165.69v-.52h1.59v.52ZM6.13 165.17v-.45h1.59v.45ZM6.13 164.72v-.35h1.59v.35ZM6.13 164.37v-.92h1.59v.92ZM6.13 163.45v-1.11h1.59v1.11Z" class="point" style="vector-effect:none;opacity:1;stroke-width:1px;fill:#5694ca;fill-opacity:1;stroke:#5694ca;stroke-opacity:1"/><path d="M6.13 162.34v-.43h1.59v.43ZM8.11 168v-1.19h1.58V168ZM8.11 166.81v-1.14h1.58v1.14ZM8.11 165.67v-.88h1.58v.88ZM8.11 164.79v-.63h1.58v.63ZM8.11 164.16v-.38h1.58v.38ZM8.11 163.78v-.42h1.58v.42ZM8.11 163.36v-.32h1.58v.32ZM8.11 163.04v-.37h1.58v.37ZM8.11 162.67v-.78h1.58v.78ZM10.09 168v-.42h1.58v.42ZM10.09 167.58v-.71h1.58v.71ZM10.09 166.87v-.43h1.58v.43ZM10.09 166.44v-.79h1.58v.79ZM10.09 165.65v-1.36h1.58v1.36ZM10.09 164.29v-.4h1.58v.4ZM10.09 163.89v-1.8h1.58v1.8Z" class="point" style="vector-effect:none;opacity:1;stroke-width:1px;fill:#5694ca;fill-opacity:1;stroke:#5694ca;stroke-opacity:1"/><path d="M10.09 162.09v-.4h1.58v.4ZM10.09 161.69v-.31h1.58v.31ZM12.07 168v-.17h1.58v.17ZM12.07 167.83v-.34h1.58v.34ZM12.07 167.49v-.5h1.58v.5ZM12.07 166.99v-.64h1.58v.64ZM12.07 166.35v-.2h1.58v.2ZM12.07 166.15v-.26h1.58v.26ZM12.07 165.89v-.37h1.58v.37Z" class="point" style="vector-effect:none;opacity:1;stroke-width:1px;fill:#5694ca;fill-opacity:1;stroke:#5694ca;stroke-opacity:1"/><path d="M12.07 165.52v-.18h1.58v.18ZM12.07 165.34v-.9h1.58v.9ZM14.05 168v-2.13h1.58V168ZM14.05 165.87v-11.24h1.58v11.24ZM14.05 154.63v-2.77h1.58v2.77Z" class="point" style="vector-effect:none;opacity:1;stroke-width:1px;fill:#5694ca;fill-opacity:1;stroke:#5694ca;stroke-opacity:1"/><path d="M14.05 151.86v-14.64h1.58v14.64ZM14.05 137.22v-1.53h1.58v1.53ZM14.05 135.69v-6.3h1.58v6.3ZM14.05 129.39v-1.45h1.58v1.45Z" class="point" style="vector-effect:none;opacity:1;stroke-width:1px;fill:#5694ca;fill-opacity:1;stroke:#5694ca;stroke-opacity:1"/><path d="M14.05 127.94v-1.2h1.58v1.2ZM14.05 126.74v-1.49h1.58v1.49ZM16.02 168v-2.58h1.59V168ZM16.02 165.42V153.5h1.59v11.92ZM16.02 153.5v-3.39h1.59v3.39ZM16.02 150.11v-1.79h1.59v1.79ZM16.02 148.32V132.4h1.59v15.92ZM16.02 132.4v-3.31h1.59v3.31ZM16.02 129.09v-1.66h1.59v1.66ZM16.02 127.43v-1.26h1.59v1.26ZM16.02 126.17v-6.84h1.59v6.84ZM18 168v-1.48h1.59V168ZM18 166.52v-12.41h1.59v12.41ZM18 154.11v-3.44h1.59v3.44ZM18 150.67v-1.92h1.59v1.92ZM18 148.75v-7.2h1.59v7.2ZM18 141.55v-17.1h1.59v17.1ZM18 124.45v-2.07h1.59v2.07ZM18 122.38v-5.23h1.59v5.23Z" class="point" style="vector-effect:none;opacity:1;stroke-width:1px;fill:#5694ca;fill-opacity:1;stroke:#5694ca;stroke-opacity:1"/><path d="M18 117.15v-3.8h1.59v3.8ZM19.98 168v-8.48h1.58V168ZM19.98 159.52v-1.83h1.58v1.83ZM19.98 157.69v-17.01h1.58v17.01ZM19.98 140.68v-12.14h1.58v12.14ZM19.98 128.54v-5.84h1.58v5.84Z" class="point" style="vector-effect:none;opacity:1;stroke-width:1px;fill:#5694ca;fill-opacity:1;stroke:#5694ca;stroke-opacity:1"/><path d="M19.98 122.7v-3.58h1.58v3.58ZM19.98 119.12V112h1.58v7.12ZM19.98 112v-1.45h1.58V112ZM19.98 110.55v-2.16h1.58v2.16ZM21.96 168v-2.32h1.58V168ZM21.96 165.68v-3.11h1.58v3.11ZM21.96 162.57v-1.99h1.58v1.99Z" class="point" style="vector-effect:none;opacity:1;stroke-width:1px;fill:#5694ca;fill-opacity:1;stroke:#5694ca;stroke-opacity:1"/><path d="M21.96 160.58v-11.37h1.58v11.37ZM21.96 149.21v-10.59h1.58v10.59ZM21.96 138.62v-1.6h1.58v1.6ZM21.96 137.02v-15.96h1.58v15.96ZM21.96 121.06v-7.87h1.58v7.87ZM21.96 113.19v-6.21h1.58v6.21ZM23.94 168v-2.86h1.58V168ZM23.94 165.14v-3.52h1.58v3.52Z" class="point" style="vector-effect:none;opacity:1;stroke-width:1px;fill:#5694ca;fill-opacity:1;stroke:#5694ca;stroke-opacity:1"/><path d="M23.94 161.62v-22.38h1.58v22.38ZM23.94 139.24v-8.7h1.58v8.7ZM23.94 130.54v-11.19h1.58v11.19ZM23.94 119.35v-15.64h1.58v15.64ZM23.94 103.71v-3.62h1.58v3.62Z" class="point" style="vector-effect:none;opacity:1;stroke-width:1px;fill:#5694ca;fill-opacity:1;stroke:#5694ca;stroke-opacity:1"/><path d="M23.94 100.09v-2.28h1.58v2.28ZM23.94 97.81V82.48h1.58v15.33ZM25.92 168v-1.4h1.58v1.4ZM25.92 166.6v-1.17h1.58v1.17ZM25.92 165.43v-2.97h1.58v2.97ZM25.92 162.46v-5.63h1.58v5.63ZM25.92 156.83v-1.27h1.58v1.27ZM25.92 155.56v-5.21h1.58v5.21ZM25.92 150.35v-.91h1.58v.91ZM25.92 149.44v-8.94h1.58v8.94ZM25.92 140.5v-6.83h1.58v6.83ZM27.9 168v-1.07h1.58V168ZM27.9 166.93v-.56h1.58v.56ZM27.9 166.37v-.49h1.58v.49ZM27.9 165.88v-3.07h1.58v3.07ZM27.9 162.81v-3.17h1.58v3.17ZM27.9 159.64v-.31h1.58v.31Z" class="point" style="vector-effect:none;opacity:1;stroke-width:1px;fill:#5694ca;fill-opacity:1;stroke:#5694ca;stroke-opacity:1"/><path d="M27.9 159.33v-.37h1.58v.37ZM27.9 158.96v-1.84h1.58v1.84ZM27.9 157.12v-2.51h1.58v2.51ZM29.87 168v-3.23h1.59V168ZM29.87 164.77v-10.35h1.59v10.35ZM29.87 154.42v-5.96h1.59v5.96Z" class="point" style="vector-effect:none;opacity:1;stroke-width:1px;fill:#5694ca;fill-opacity:1;stroke:#5694ca;stroke-opacity:1"/><path d="M29.87 148.46v-1.74h1.59v1.74ZM29.87 146.72v-14.34h1.59v14.34ZM29.87 132.38V116.7h1.59v15.68ZM29.87 116.7v-9.98h1.59v9.98ZM29.87 106.72v-2.73h1.59v2.73ZM29.87 103.99v-2.21h1.59v2.21ZM31.85 168v-9.8h1.58v9.8ZM31.85 158.2v-3.31h1.58v3.31ZM31.85 154.89v-2.86h1.58v2.86Z" class="point" style="vector-effect:none;opacity:1;stroke-width:1px;fill:#5694ca;fill-opacity:1;stroke:#5694ca;stroke-opacity:1"/><path d="M31.85 152.03v-15.76h1.58v15.76ZM31.85 136.27v-3.42h1.58v3.42ZM31.85 132.85v-16.48h1.58v16.48Z" class="point" style="vector-effect:none;opacity:1;stroke-width:1px;fill:#5694ca;fill-opacity:1;stroke:#5694ca;stroke-opacity:1"/><path d="M31.85 116.37v-11.65h1.58v11.65ZM31.85 104.72v-2.19h1.58v2.19ZM31.85 102.53v-5.87h1.58v5.87ZM33.83 168v-17.51h1.58V168ZM33.83 150.49v-2.99h1.58v2.99ZM33.83 147.5v-2.4h1.58v2.4ZM33.83 145.1v-12.44h1.58v12.44ZM33.83 132.66v-15.97h1.58v15.97ZM33.83 116.69v-3.51h1.58v3.51Z" class="point" style="vector-effect:none;opacity:1;stroke-width:1px;fill:#5694ca;fill-opacity:1;stroke:#5694ca;stroke-opacity:1"/><path d="M33.83 113.18v-3.73h1.58v3.73ZM33.83 109.45v-9.79h1.58v9.79ZM33.83 99.66v-6.07h1.58v6.07ZM35.81 168v-16.21h1.58V168ZM35.81 151.79V149h1.58v2.79ZM35.81 149v-3.56h1.58V149ZM35.81 145.44v-2.8h1.58v2.8ZM35.81 142.64v-8.02h1.58v8.02Z" class="point" style="vector-effect:none;opacity:1;stroke-width:1px;fill:#5694ca;fill-opacity:1;stroke:#5694ca;stroke-opacity:1"/><path d="M35.81 134.62v-4.93h1.58v4.93ZM35.81 129.69v-13.62h1.58v13.62ZM35.81 116.07v-4.23h1.58v4.23Z" class="point" style="vector-effect:none;opacity:1;stroke-width:1px;fill:#5694ca;fill-opacity:1;stroke:#5694ca;stroke-opacity:1"/><path d="M35.81 111.84V99.07h1.58v12.77ZM37.79 168v-5.48h1.58V168ZM37.79 162.52v-4.29h1.58v4.29ZM37.79 158.23v-25.16h1.58v25.16ZM37.79 133.07v-4.27h1.58v4.27Z" class="point" style="vector-effect:none;opacity:1;stroke-width:1px;fill:#5694ca;fill-opacity:1;stroke:#5694ca;stroke-opacity:1"/><path d="M37.79 128.8v-24.82h1.58v24.82ZM37.79 103.98V83.9h1.58v20.08ZM37.79 83.9V67.37h1.58V83.9ZM37.79 67.37v-9.83h1.58v9.83ZM37.79 57.54v-6.92h1.58v6.92ZM39.77 168v-1.6h1.58v1.6ZM39.77 166.4v-7.99h1.58v7.99ZM39.77 158.41v-2.68h1.58v2.68ZM39.77 155.73v-9.38h1.58v9.38ZM39.77 146.35v-7.13h1.58v7.13ZM39.77 139.22v-2.32h1.58v2.32ZM39.77 136.9v-2.1h1.58v2.1ZM39.77 134.8v-1.03h1.58v1.03ZM39.77 133.77v-3.94h1.58v3.94ZM41.74 168v-6.44h1.59V168ZM41.74 161.56v-11h1.59v11ZM41.74 150.56v-3.45h1.59v3.45ZM41.74 147.11v-11.88h1.59v11.88ZM41.74 135.23v-2.62h1.59v2.62Z" class="point" style="vector-effect:none;opacity:1;stroke-width:1px;fill:#5694ca;fill-opacity:1;stroke:#5694ca;stroke-opacity:1"/><path d="M41.74 132.61v-4.23h1.59v4.23ZM41.74 128.38v-13.67h1.59v13.67ZM41.74 114.71v-2.43h1.59v2.43Z" class="point" style="vector-effect:none;opacity:1;stroke-width:1px;fill:#5694ca;fill-opacity:1;stroke:#5694ca;stroke-opacity:1"/><path d="M41.74 112.28v-4h1.59v4ZM43.72 168v-5.49h1.58V168ZM43.72 162.51v-3.15h1.58v3.15Z" class="point" style="vector-effect:none;opacity:1;stroke-width:1px;fill:#5694ca;fill-opacity:1;stroke:#5694ca;stroke-opacity:1"/><path d="M43.72 159.36v-4.24h1.58v4.24ZM43.72 155.12v-7.91h1.58v7.91ZM43.72 147.21v-13.16h1.58v13.16ZM43.72 134.05v-3h1.58v3ZM43.72 131.05v-4.96h1.58v4.96ZM43.72 126.09v-14.47h1.58v14.47ZM43.72 111.62V95.14h1.58v16.48ZM45.7 168v-5.18h1.58V168ZM45.7 162.82v-4.01h1.58v4.01ZM45.7 158.81v-5.26h1.58v5.26ZM45.7 153.55v-6.67h1.58v6.67ZM45.7 146.88v-8.16h1.58v8.16ZM45.7 138.72v-3.13h1.58v3.13ZM45.7 135.59v-17.33h1.58v17.33ZM45.7 118.26v-15.84h1.58v15.84ZM45.7 102.42V88.71h1.58v13.71ZM47.68 168v-17.9h1.58V168ZM47.68 150.1v-5.61h1.58v5.61Z" class="point" style="vector-effect:none;opacity:1;stroke-width:1px;fill:#5694ca;fill-opacity:1;stroke:#5694ca;stroke-opacity:1"/><path d="M47.68 144.49v-7.22h1.58v7.22ZM47.68 137.27v-16.75h1.58v16.75ZM47.68 120.52v-5.2h1.58v5.2ZM47.68 115.32v-13.98h1.58v13.98Z" class="point" style="vector-effect:none;opacity:1;stroke-width:1px;fill:#5694ca;fill-opacity:1;stroke:#5694ca;stroke-opacity:1"/><path d="M47.68 101.34v-3.15h1.58v3.15ZM47.68 98.19v-4.12h1.58v4.12ZM47.68 94.07v-8.36h1.58v8.36ZM49.66 168v-2.51h1.58V168ZM49.66 165.49v-6.22h1.58v6.22Z" class="point" style="vector-effect:none;opacity:1;stroke-width:1px;fill:#5694ca;fill-opacity:1;stroke:#5694ca;stroke-opacity:1"/><path d="M49.66 159.27v-11.86h1.58v11.86ZM49.66 147.41v-4.73h1.58v4.73ZM49.66 142.68v-6.89h1.58v6.89ZM49.66 135.79v-16.22h1.58v16.22ZM49.66 119.57v-4.28h1.58v4.28Z" class="point" style="vector-effect:none;opacity:1;stroke-width:1px;fill:#5694ca;fill-opacity:1;stroke:#5694ca;stroke-opacity:1"/><path d="M49.66 115.29V99.02h1.58v16.27Z" class="point" style="vector-effect:none;opacity:1;stroke-width:1px;fill:#5694ca;fill-opacity:1;stroke:#5694ca;stroke-opacity:1"/><path d="M49.66 99.02v-7.43h1.58v7.43ZM51.64 168v-27.5h1.58V168ZM51.64 140.5v-13.11h1.58v13.11ZM51.64 127.39V99.46h1.58v27.93Z" class="point" style="vector-effect:none;opacity:1;stroke-width:1px;fill:#5694ca;fill-opacity:1;stroke:#5694ca;stroke-opacity:1"/><path d="M51.64 99.46V89.12h1.58v10.34ZM51.64 89.12v-10.1h1.58v10.1ZM51.64 79.02V48.8h1.58v30.22ZM51.64 48.8v-4.42h1.58v4.42Z" class="point" style="vector-effect:none;opacity:1;stroke-width:1px;fill:#5694ca;fill-opacity:1;stroke:#5694ca;stroke-opacity:1"/><path d="M51.64 44.38v-7.89h1.58v7.89ZM51.64 36.49V19.01h1.58v17.48ZM53.61 168v-1.92h1.59V168ZM53.61 166.08v-.91h1.59v.91ZM53.61 165.17v-6.09h1.59v6.09Z" class="point" style="vector-effect:none;opacity:1;stroke-width:1px;fill:#5694ca;fill-opacity:1;stroke:#5694ca;stroke-opacity:1"/><path d="M53.61 159.08v-8.7h1.59v8.7ZM53.61 150.38v-4.44h1.59v4.44ZM53.61 145.94v-2.65h1.59v2.65ZM53.61 143.29v-3.64h1.59v3.64ZM53.61 139.65v-3.29h1.59v3.29ZM53.61 136.36v-8.77h1.59v8.77ZM55.59 168v-2.08h1.59V168ZM55.59 165.92v-4.03h1.59v4.03ZM55.59 161.89v-3.36h1.59v3.36Z" class="point" style="vector-effect:none;opacity:1;stroke-width:1px;fill:#5694ca;fill-opacity:1;stroke:#5694ca;stroke-opacity:1"/><path d="M55.59 158.53v-5.36h1.59v5.36ZM55.59 153.17v-6.67h1.59v6.67ZM55.59 146.5v-13.17h1.59v13.17ZM55.59 133.33v-5.46h1.59v5.46ZM55.59 127.87v-12.64h1.59v12.64ZM55.59 115.23v-9.04h1.59v9.04ZM57.57 168v-15.17h1.58V168ZM57.57 152.83v-8.35h1.58v8.35ZM57.57 144.48v-6.59h1.58v6.59ZM57.57 137.89v-4.27h1.58v4.27Z" class="point" style="vector-effect:none;opacity:1;stroke-width:1px;fill:#5694ca;fill-opacity:1;stroke:#5694ca;stroke-opacity:1"/><path d="M57.57 133.62v-4.75h1.58v4.75ZM57.57 128.87v-6.63h1.58v6.63ZM57.57 122.24v-2.63h1.58v2.63ZM57.57 119.61v-11.24h1.58v11.24ZM57.57 108.37V93.26h1.58v15.11ZM59.55 168v-6.69h1.58V168ZM59.55 161.31v-15.77h1.58v15.77ZM59.55 145.54V134h1.58v11.54ZM59.55 134v-7.39h1.58V134ZM59.55 126.61v-16.24h1.58v16.24ZM59.55 110.37v-4.4h1.58v4.4ZM59.55 105.97V96.7h1.58v9.27ZM59.55 96.7v-2.77h1.58v2.77ZM59.55 93.93v-5.47h1.58v5.47ZM61.53 168v-11.98h1.58V168ZM61.53 156.02v-5.43h1.58v5.43ZM61.53 150.59v-16.52h1.58v16.52ZM61.53 134.07v-7.46h1.58v7.46ZM61.53 126.61v-2.81h1.58v2.81ZM61.53 123.8v-15.85h1.58v15.85ZM61.53 107.95v-9.44h1.58v9.44ZM61.53 98.51v-4.55h1.58v4.55ZM61.53 93.96v-6.93h1.58v6.93ZM63.51 168v-5.79h1.58V168ZM63.51 162.21v-10.02h1.58v10.02ZM63.51 152.19v-9.22h1.58v9.22ZM63.51 142.97v-3.87h1.58v3.87ZM63.51 139.1v-7.73h1.58v7.73ZM63.51 131.37v-13.15h1.58v13.15ZM63.51 118.22v-5.89h1.58v5.89ZM63.51 112.33v-2.36h1.58v2.36ZM63.51 109.97V95.83h1.58v14.14ZM65.48 168v-10.33h1.59V168Z" class="point" style="vector-effect:none;opacity:1;stroke-width:1px;fill:#5694ca;fill-opacity:1;stroke:#5694ca;stroke-opacity:1"/><path d="M65.48 157.67v-16.61h1.59v16.61ZM65.48 141.06v-9.55h1.59v9.55ZM65.48 131.51v-16.93h1.59v16.93Z" class="point" style="vector-effect:none;opacity:1;stroke-width:1px;fill:#5694ca;fill-opacity:1;stroke:#5694ca;stroke-opacity:1"/><path d="M65.48 114.58V86.72h1.59v27.86ZM65.48 86.72V59.59h1.59v27.13ZM65.48 59.59V30.04h1.59v29.55ZM65.48 30.04v-4.17h1.59v4.17Z" class="point" style="vector-effect:none;opacity:1;stroke-width:1px;fill:#5694ca;fill-opacity:1;stroke:#5694ca;stroke-opacity:1"/><path d="M65.48 25.87V12.46h1.59v13.41ZM67.46 168v-5h1.59v5ZM67.46 163v-3.53h1.59V163ZM67.46 159.47v-.77h1.59v.77ZM67.46 158.7v-8.47h1.59v8.47ZM67.46 150.23v-1.72h1.59v1.72ZM67.46 148.51v-2.84h1.59v2.84ZM67.46 145.67v-7.21h1.59v7.21Z" class="point" style="vector-effect:none;opacity:1;stroke-width:1px;fill:#5694ca;fill-opacity:1;stroke:#5694ca;stroke-opacity:1"/><path d="M67.46 138.46v-5.73h1.59v5.73ZM67.46 132.73v-4.77h1.59v4.77ZM69.44 168v-12.05h1.58V168ZM69.44 155.95v-7.91h1.58v7.91ZM69.44 148.04v-11.12h1.58v11.12ZM69.44 136.92v-2.04h1.58v2.04ZM69.44 134.88v-5.33h1.58v5.33Z" class="point" style="vector-effect:none;opacity:1;stroke-width:1px;fill:#5694ca;fill-opacity:1;stroke:#5694ca;stroke-opacity:1"/><path d="M69.44 129.55v-4.72h1.58v4.72ZM69.44 124.83v-8.8h1.58v8.8ZM69.44 116.03v-6.52h1.58v6.52ZM69.44 109.51v-3.39h1.58v3.39ZM71.42 168v-10.59H73V168ZM71.42 157.41v-5.39H73v5.39ZM71.42 152.02v-9.44H73v9.44ZM71.42 142.58v-7.43H73v7.43ZM71.42 135.15v-13.98H73v13.98Z" class="point" style="vector-effect:none;opacity:1;stroke-width:1px;fill:#5694ca;fill-opacity:1;stroke:#5694ca;stroke-opacity:1"/><path d="M71.42 121.17v-13.43H73v13.43ZM71.42 107.74v-6.43H73v6.43ZM71.42 101.31v-2.68H73v2.68ZM71.42 98.63v-4.26H73v4.26ZM73.4 168v-6.57h1.58V168ZM73.4 161.43v-10.08h1.58v10.08ZM73.4 151.35v-5.84h1.58v5.84ZM73.4 145.51v-4.34h1.58v4.34ZM73.4 141.17v-2.77h1.58v2.77Z" class="point" style="vector-effect:none;opacity:1;stroke-width:1px;fill:#5694ca;fill-opacity:1;stroke:#5694ca;stroke-opacity:1"/><path d="M73.4 138.4v-10.69h1.58v10.69ZM73.4 127.71v-14.09h1.58v14.09Z" class="point" style="vector-effect:none;opacity:1;stroke-width:1px;fill:#5694ca;fill-opacity:1;stroke:#5694ca;stroke-opacity:1"/><path d="M73.4 113.62v-13.53h1.58v13.53ZM73.4 100.09v-7.93h1.58v7.93ZM75.38 168v-6.05h1.58V168ZM75.38 161.95v-2.55h1.58v2.55Z" class="point" style="vector-effect:none;opacity:1;stroke-width:1px;fill:#5694ca;fill-opacity:1;stroke:#5694ca;stroke-opacity:1"/><path d="M75.38 159.4v-13.1h1.58v13.1ZM75.38 146.3v-4.16h1.58v4.16ZM75.38 142.14v-14.01h1.58v14.01ZM75.38 128.13v-8.24h1.58v8.24ZM75.38 119.89v-6.17h1.58v6.17ZM75.38 113.72v-10.4h1.58v10.4ZM75.38 103.32V92.71h1.58v10.61ZM77.35 168v-3.36h1.59V168ZM77.35 164.64v-9.84h1.59v9.84Z" class="point" style="vector-effect:none;opacity:1;stroke-width:1px;fill:#5694ca;fill-opacity:1;stroke:#5694ca;stroke-opacity:1"/><path d="M77.35 154.8v-10.96h1.59v10.96ZM77.35 143.84v-12.8h1.59v12.8ZM77.35 131.04v-11.61h1.59v11.61Z" class="point" style="vector-effect:none;opacity:1;stroke-width:1px;fill:#5694ca;fill-opacity:1;stroke:#5694ca;stroke-opacity:1"/><path d="M77.35 119.43v-2.02h1.59v2.02ZM77.35 117.41v-5.16h1.59v5.16ZM77.35 112.25v-8.69h1.59v8.69ZM77.35 103.56v-7.31h1.59v7.31ZM79.33 168v-7.46h1.59V168ZM79.33 160.54v-12.51h1.59v12.51ZM79.33 148.03v-21.4h1.59v21.4ZM79.33 126.63v-22.02h1.59v22.02ZM79.33 104.61V79.27h1.59v25.34Z" class="point" style="vector-effect:none;opacity:1;stroke-width:1px;fill:#5694ca;fill-opacity:1;stroke:#5694ca;stroke-opacity:1"/><path d="M79.33 79.27V63.06h1.59v16.21ZM79.33 63.06v-3.32h1.59v3.32ZM79.33 59.74v-25.9h1.59v25.9ZM79.33 33.84V8.4h1.59v25.44ZM81.31 168v-5.4h1.58v5.4ZM81.31 162.6v-1.37h1.58v1.37ZM81.31 161.23v-2.26h1.58v2.26ZM81.31 158.97v-8.74h1.58v8.74ZM81.31 150.23v-5.81h1.58v5.81ZM81.31 144.42v-4.18h1.58v4.18Z" class="point" style="vector-effect:none;opacity:1;stroke-width:1px;fill:#5694ca;fill-opacity:1;stroke:#5694ca;stroke-opacity:1"/><path d="M81.31 140.24v-7.81h1.58v7.81ZM81.31 132.43v-.65h1.58v.65ZM81.31 131.78v-6.76h1.58v6.76ZM83.29 168v-10.5h1.58V168ZM83.29 157.5v-12.72h1.58v12.72ZM83.29 144.78v-1.57h1.58v1.57ZM83.29 143.21v-10.07h1.58v10.07ZM83.29 133.14v-7.28h1.58v7.28Z" class="point" style="vector-effect:none;opacity:1;stroke-width:1px;fill:#5694ca;fill-opacity:1;stroke:#5694ca;stroke-opacity:1"/><path d="M83.29 125.86v-3.88h1.58v3.88ZM83.29 121.98v-6.45h1.58v6.45ZM83.29 115.53v-2.54h1.58v2.54ZM83.29 112.99v-8.34h1.58v8.34ZM85.27 168v-2.14h1.58V168ZM85.27 165.86v-12.63h1.58v12.63ZM85.27 153.23v-8.21h1.58v8.21Z" class="point" style="vector-effect:none;opacity:1;stroke-width:1px;fill:#5694ca;fill-opacity:1;stroke:#5694ca;stroke-opacity:1"/><path d="M85.27 145.02v-3.22h1.58v3.22ZM85.27 141.8v-9.79h1.58v9.79ZM85.27 132.01v-11.77h1.58v11.77ZM85.27 120.24v-15.29h1.58v15.29Z" class="point" style="vector-effect:none;opacity:1;stroke-width:1px;fill:#5694ca;fill-opacity:1;stroke:#5694ca;stroke-opacity:1"/><path d="M85.27 104.95v-4.75h1.58v4.75ZM85.27 100.2v-7.74h1.58v7.74ZM87.25 168v-3.25h1.58V168ZM87.25 164.75v-10.13h1.58v10.13ZM87.25 154.62v-2.09h1.58v2.09ZM87.25 152.53v-14.14h1.58v14.14ZM87.25 138.39v-4.86h1.58v4.86Z" class="point" style="vector-effect:none;opacity:1;stroke-width:1px;fill:#5694ca;fill-opacity:1;stroke:#5694ca;stroke-opacity:1"/><path d="M87.25 133.53v-7.94h1.58v7.94ZM87.25 125.59v-12.04h1.58v12.04ZM87.25 113.55v-17.3h1.58v17.3ZM87.25 96.25v-8.66h1.58v8.66ZM89.22 168v-11.58h1.59V168ZM89.22 156.42v-9.03h1.59v9.03ZM89.22 147.39v-4.42h1.59v4.42ZM89.22 142.97v-7.46h1.59v7.46ZM89.22 135.51v-15.33h1.59v15.33Z" class="point" style="vector-effect:none;opacity:1;stroke-width:1px;fill:#5694ca;fill-opacity:1;stroke:#5694ca;stroke-opacity:1"/><path d="M89.22 120.18v-18.97h1.59v18.97ZM89.22 101.21v-1.92h1.59v1.92Z" class="point" style="vector-effect:none;opacity:1;stroke-width:1px;fill:#5694ca;fill-opacity:1;stroke:#5694ca;stroke-opacity:1"/><path d="M89.22 99.29v-9.61h1.59v9.61ZM89.22 89.68V86.7h1.59v2.98ZM91.2 168v-3.36h1.59V168ZM91.2 164.64v-9.35h1.59v9.35ZM91.2 155.29v-2.3h1.59v2.3Z" class="point" style="vector-effect:none;opacity:1;stroke-width:1px;fill:#5694ca;fill-opacity:1;stroke:#5694ca;stroke-opacity:1"/><path d="M91.2 152.99v-6.96h1.59v6.96ZM91.2 146.03v-17.38h1.59v17.38ZM91.2 128.65v-1.44h1.59v1.44ZM91.2 127.21v-10.2h1.59v10.2Z" class="point" style="vector-effect:none;opacity:1;stroke-width:1px;fill:#5694ca;fill-opacity:1;stroke:#5694ca;stroke-opacity:1"/><path d="M91.2 117.01v-5.59h1.59v5.59ZM91.2 111.42V95.97h1.59v15.45ZM93.18 168v-29.14h1.58V168ZM93.18 138.86v-4.52h1.58v4.52ZM93.18 134.34v-7.54h1.58v7.54ZM93.18 126.8v-16.19h1.58v16.19ZM93.18 110.61V84.62h1.58v25.99ZM93.18 84.62V71.61h1.58v13.01ZM93.18 71.61v-18.7h1.58v18.7Z" class="point" style="vector-effect:none;opacity:1;stroke-width:1px;fill:#5694ca;fill-opacity:1;stroke:#5694ca;stroke-opacity:1"/><path d="M93.18 52.91V34.2h1.58v18.71ZM93.18 34.2v-2.1h1.58v2.1ZM95.16 168v-.41h1.58v.41ZM95.16 167.59v-1.26h1.58v1.26ZM95.16 166.33v-2.13h1.58v2.13ZM95.16 164.2v-.76h1.58v.76ZM95.16 163.44v-2.99h1.58v2.99ZM95.16 160.45v-8.97h1.58v8.97ZM95.16 151.48v-4.2h1.58v4.2ZM95.16 147.28v-6.09h1.58v6.09ZM95.16 141.19v-9.26h1.58v9.26ZM97.14 168v-8.39h1.58V168ZM97.14 159.61v-4.08h1.58v4.08ZM97.14 155.53v-6.77h1.58v6.77ZM97.14 148.76v-14h1.58v14ZM97.14 134.76v-.92h1.58v.92ZM97.14 133.84v-2.39h1.58v2.39ZM97.14 131.45v-12.39h1.58v12.39Z" class="point" style="vector-effect:none;opacity:1;stroke-width:1px;fill:#5694ca;fill-opacity:1;stroke:#5694ca;stroke-opacity:1"/><path d="M97.14 119.06v-1.56h1.58v1.56ZM97.14 117.5v-5.21h1.58v5.21ZM99.12 168v-15.49h1.58V168ZM99.12 152.51v-13.44h1.58v13.44ZM99.12 139.07v-1.23h1.58v1.23ZM99.12 137.84v-2.02h1.58v2.02ZM99.12 135.82v-3.1h1.58v3.1ZM99.12 132.72v-6.29h1.58v6.29Z" class="point" style="vector-effect:none;opacity:1;stroke-width:1px;fill:#5694ca;fill-opacity:1;stroke:#5694ca;stroke-opacity:1"/><path d="M99.12 126.43v-7.96h1.58v7.96ZM99.12 118.47v-9.3h1.58v9.3ZM99.12 109.17v-4.99h1.58v4.99ZM101.1 168v-7.39h1.58V168ZM101.1 160.61v-1.95h1.58v1.95ZM101.1 158.66v-2.82h1.58v2.82ZM101.1 155.84v-9.1h1.58v9.1ZM101.1 146.74v-5.86h1.58v5.86ZM101.1 140.88v-1.17h1.58v1.17ZM101.1 139.71v-13.25h1.58v13.25ZM101.1 126.46v-4.68h1.58v4.68ZM101.1 121.78v-14.29h1.58v14.29ZM103.07 168v-1.93h1.59V168ZM103.07 166.07v-5.93h1.59v5.93ZM103.07 160.14v-4.87h1.59v4.87Z" class="point" style="vector-effect:none;opacity:1;stroke-width:1px;fill:#5694ca;fill-opacity:1;stroke:#5694ca;stroke-opacity:1"/><path d="M103.07 155.27v-14.42h1.59v14.42ZM103.07 140.85v-2.93h1.59v2.93ZM103.07 137.92v-7.41h1.59v7.41ZM103.07 130.51v-9.98h1.59v9.98Z" class="point" style="vector-effect:none;opacity:1;stroke-width:1px;fill:#5694ca;fill-opacity:1;stroke:#5694ca;stroke-opacity:1"/><path d="M103.07 120.53v-1.15h1.59v1.15ZM103.07 119.38v-14.42h1.59v14.42ZM105.05 168v-4.51h1.58V168ZM105.05 163.49v-10.77h1.58v10.77ZM105.05 152.72v-3.85h1.58v3.85ZM105.05 148.87v-6.16h1.58v6.16ZM105.05 142.71v-2.29h1.58v2.29ZM105.05 140.42v-1.51h1.58v1.51ZM105.05 138.91V138h1.58v.91ZM105.05 138v-14.79h1.58V138ZM105.05 123.21v-13.6h1.58v13.6ZM107.03 168v-22.46h1.58V168ZM107.03 145.54v-1.33h1.58v1.33Z" class="point" style="vector-effect:none;opacity:1;stroke-width:1px;fill:#5694ca;fill-opacity:1;stroke:#5694ca;stroke-opacity:1"/><path d="M107.03 144.21v-11.95h1.58v11.95ZM107.03 132.26v-8.02h1.58v8.02Z" class="point" style="vector-effect:none;opacity:1;stroke-width:1px;fill:#5694ca;fill-opacity:1;stroke:#5694ca;stroke-opacity:1"/><path d="M107.03 124.24v-23.43h1.58v23.43ZM107.03 100.81V83.22h1.58v17.59ZM107.03 83.22v-4.76h1.58v4.76ZM107.03 78.46v-9.73h1.58v9.73Z" class="point" style="vector-effect:none;opacity:1;stroke-width:1px;fill:#5694ca;fill-opacity:1;stroke:#5694ca;stroke-opacity:1"/><path d="M107.03 68.73v-2.81h1.58v2.81ZM109.01 168v-7.12h1.58V168ZM109.01 160.88v-.62h1.58v.62ZM109.01 160.26v-2.1h1.58v2.1ZM109.01 158.16v-.34h1.58v.34ZM109.01 157.82v-2.95h1.58v2.95ZM109.01 154.87v-1h1.58v1ZM109.01 153.87v-6.26h1.58v6.26ZM109.01 147.61v-1.77h1.58v1.77ZM109.01 145.84v-8.22h1.58v8.22ZM110.99 168v-8.35h1.58V168ZM110.99 159.65v-11.51h1.58v11.51ZM110.99 148.14v-1.37h1.58v1.37Z" class="point" style="vector-effect:none;opacity:1;stroke-width:1px;fill:#5694ca;fill-opacity:1;stroke:#5694ca;stroke-opacity:1"/><path d="M110.99 146.77v-2.06h1.58v2.06ZM110.99 144.71v-5.01h1.58v5.01ZM110.99 139.7v-3.38h1.58v3.38ZM110.99 136.32v-11h1.58v11ZM110.99 125.32v-3.82h1.58v3.82ZM110.99 121.5v-.89h1.58v.89ZM112.97 168v-3.91h1.58V168ZM112.97 164.09v-4.33h1.58v4.33ZM112.97 159.76v-1.58h1.58v1.58Z" class="point" style="vector-effect:none;opacity:1;stroke-width:1px;fill:#5694ca;fill-opacity:1;stroke:#5694ca;stroke-opacity:1"/><path d="M112.97 158.18v-2.39h1.58v2.39ZM112.97 155.79V143.7h1.58v12.09ZM112.97 143.7v-.97h1.58v.97ZM112.97 142.73v-8.82h1.58v8.82ZM112.97 133.91v-5.54h1.58v5.54ZM112.97 128.37v-11.85h1.58v11.85ZM114.94 168v-11.26h1.59V168ZM114.94 156.74v-3.68h1.59v3.68ZM114.94 153.06v-4.13h1.59v4.13ZM114.94 148.93v-1.53h1.59v1.53ZM114.94 147.4v-11.42h1.59v11.42ZM114.94 135.98v-1h1.59v1ZM114.94 134.98v-9.21h1.59v9.21Z" class="point" style="vector-effect:none;opacity:1;stroke-width:1px;fill:#5694ca;fill-opacity:1;stroke:#5694ca;stroke-opacity:1"/><path d="M114.94 125.77v-2.25h1.59v2.25ZM114.94 123.52v-5.37h1.59v5.37ZM116.92 168v-2.19h1.58V168ZM116.92 165.81v-5.46h1.58v5.46ZM116.92 160.35v-12.3h1.58v12.3Z" class="point" style="vector-effect:none;opacity:1;stroke-width:1px;fill:#5694ca;fill-opacity:1;stroke:#5694ca;stroke-opacity:1"/><path d="M116.92 148.05v-1.51h1.58v1.51ZM116.92 146.54v-3.53h1.58v3.53Z" class="point" style="vector-effect:none;opacity:1;stroke-width:1px;fill:#5694ca;fill-opacity:1;stroke:#5694ca;stroke-opacity:1"/><path d="M116.92 143.01V132.8h1.58v10.21ZM116.92 132.8v-.98h1.58v.98ZM116.92 131.82v-4.11h1.58v4.11ZM116.92 127.71v-11.67h1.58v11.67ZM118.9 168v-4.65h1.58V168ZM118.9 163.35v-11.27h1.58v11.27Z" class="point" style="vector-effect:none;opacity:1;stroke-width:1px;fill:#5694ca;fill-opacity:1;stroke:#5694ca;stroke-opacity:1"/><path d="M118.9 152.08v-2.96h1.58v2.96ZM118.9 149.12v-11.2h1.58v11.2ZM118.9 137.92v-1.8h1.58v1.8Z" class="point" style="vector-effect:none;opacity:1;stroke-width:1px;fill:#5694ca;fill-opacity:1;stroke:#5694ca;stroke-opacity:1"/><path d="M118.9 136.12v-3.38h1.58v3.38ZM118.9 132.74v-.79h1.58v.79ZM118.9 131.95v-1.21h1.58v1.21Z" class="point" style="vector-effect:none;opacity:1;stroke-width:1px;fill:#5694ca;fill-opacity:1;stroke:#5694ca;stroke-opacity:1"/><path d="M118.9 130.74v-12.53h1.58v12.53ZM120.88 168v-9.73h1.58V168ZM120.88 158.27v-20.94h1.58v20.94ZM120.88 137.33v-.96h1.58v.96ZM120.88 136.37v-19.52h1.58v19.52ZM120.88 116.85v-5.94h1.58v5.94ZM120.88 110.91v-2.09h1.58v2.09ZM120.88 108.82v-7.32h1.58v7.32ZM120.88 101.5v-3.39h1.58v3.39ZM120.88 98.11V75.23h1.58v22.88ZM122.86 168v-1.72h1.58V168ZM122.86 166.28v-2.38h1.58v2.38ZM122.86 163.9v-6.8h1.58v6.8ZM122.86 157.1v-5.98h1.58v5.98ZM122.86 151.12v-1.45h1.58v1.45ZM122.86 149.67v-.24h1.58v.24Z" class="point" style="vector-effect:none;opacity:1;stroke-width:1px;fill:#5694ca;fill-opacity:1;stroke:#5694ca;stroke-opacity:1"/><path d="M122.86 149.43v-5.74h1.58v5.74ZM122.86 143.69v-.45h1.58v.45ZM122.86 143.24v-.71h1.58v.71ZM124.84 168v-1.29h1.58V168ZM124.84 166.71v-8.44h1.58v8.44ZM124.84 158.27v-3.51h1.58v3.51ZM124.84 154.76v-8.85h1.58v8.85ZM124.84 145.91v-2.54h1.58v2.54ZM124.84 143.37v-.61h1.58v.61ZM124.84 142.76v-7.6h1.58v7.6ZM124.84 135.16v-.92h1.58v.92ZM124.84 134.24v-2.21h1.58v2.21ZM126.81 168v-9.81h1.59V168ZM126.81 158.19v-.74h1.59v.74ZM126.81 157.45v-2.63h1.59v2.63ZM126.81 154.82v-1.56h1.59v1.56ZM126.81 153.26v-9.76h1.59v9.76ZM126.81 143.5v-1.06h1.59v1.06ZM126.81 142.44v-4.17h1.59v4.17ZM126.81 138.27v-8.21h1.59v8.21ZM126.81 130.06v-3.22h1.59v3.22ZM128.79 168v-2.62h1.59V168ZM128.79 165.38v-.75h1.59v.75ZM128.79 164.63v-7.51h1.59v7.51ZM128.79 157.12v-1.11h1.59v1.11ZM128.79 156.01v-8.92h1.59v8.92ZM128.79 147.09v-1.59h1.59v1.59ZM128.79 145.5v-8.61h1.59v8.61ZM128.79 136.89v-4.12h1.59v4.12Z" class="point" style="vector-effect:none;opacity:1;stroke-width:1px;fill:#5694ca;fill-opacity:1;stroke:#5694ca;stroke-opacity:1"/><path d="M128.79 132.77v-3.37h1.59v3.37ZM130.77 168v-8.79h1.58V168ZM130.77 159.21v-8.5h1.58v8.5ZM130.77 150.71v-1.1h1.58v1.1ZM130.77 149.61v-1.51h1.58v1.51ZM130.77 148.1v-7.62h1.58v7.62ZM130.77 140.48v-2.57h1.58v2.57ZM130.77 137.91v-3.27h1.58v3.27ZM130.77 134.64v-.77h1.58v.77Z" class="point" style="vector-effect:none;opacity:1;stroke-width:1px;fill:#5694ca;fill-opacity:1;stroke:#5694ca;stroke-opacity:1"/><path d="M130.77 133.87v-4.12h1.58v4.12ZM132.75 168v-2.15h1.58V168ZM132.75 165.85v-2.81h1.58v2.81ZM132.75 163.04v-.64h1.58v.64ZM132.75 162.4v-8.18h1.58v8.18ZM132.75 154.22v-7.74h1.58v7.74ZM132.75 146.48v-.9h1.58v.9Z" class="point" style="vector-effect:none;opacity:1;stroke-width:1px;fill:#5694ca;fill-opacity:1;stroke:#5694ca;stroke-opacity:1"/><path d="M132.75 145.58v-9.08h1.58v9.08ZM132.75 136.5v-1.28h1.58v1.28ZM132.75 135.22v-3.65h1.58v3.65ZM134.73 168v-3.8h1.58v3.8ZM134.73 164.2v-.64h1.58v.64ZM134.73 163.56v-5.1h1.58v5.1ZM134.73 158.46v-6.39h1.58v6.39ZM134.73 152.07v-2.21h1.58v2.21Z" class="point" style="vector-effect:none;opacity:1;stroke-width:1px;fill:#5694ca;fill-opacity:1;stroke:#5694ca;stroke-opacity:1"/><path d="M134.73 149.86v-13.3h1.58v13.3ZM134.73 136.56v-13.48h1.58v13.48ZM134.73 123.08v-1.37h1.58v1.37ZM134.73 121.71v-15.05h1.58v15.05ZM136.71 168v-.16h1.58v.16ZM136.71 167.84v-3.51h1.58v3.51ZM136.71 164.33v-.77h1.58v.77ZM136.71 163.56v-1.37h1.58v1.37ZM136.71 162.19v-.42h1.58v.42ZM136.71 161.77v-4.35h1.58v4.35ZM136.71 157.42v-.29h1.58v.29ZM136.71 157.13v-3.82h1.58v3.82ZM136.71 153.31v-.95h1.58v.95ZM138.68 168v-5.74h1.59V168ZM138.68 162.26v-2.12h1.59v2.12ZM138.68 160.14v-.97h1.59v.97ZM138.68 159.17v-.65h1.59v.65Z" class="point" style="vector-effect:none;opacity:1;stroke-width:1px;fill:#5694ca;fill-opacity:1;stroke:#5694ca;stroke-opacity:1"/><path d="M138.68 158.52v-5.22h1.59v5.22ZM138.68 153.3v-1.63h1.59v1.63ZM138.68 151.67v-2.69h1.59v2.69ZM138.68 148.98v-5.27h1.59v5.27Z" class="point" style="vector-effect:none;opacity:1;stroke-width:1px;fill:#5694ca;fill-opacity:1;stroke:#5694ca;stroke-opacity:1"/><path d="M138.68 143.71v-.48h1.59v.48ZM140.66 168v-.84h1.59v.84ZM140.66 167.16v-6.35h1.59v6.35ZM140.66 160.81v-1.15h1.59v1.15ZM140.66 159.66v-6.35h1.59v6.35ZM140.66 153.31v-5.64h1.59v5.64ZM140.66 147.67v-1.91h1.59v1.91ZM140.66 145.76v-.58h1.59v.58Z" class="point" style="vector-effect:none;opacity:1;stroke-width:1px;fill:#5694ca;fill-opacity:1;stroke:#5694ca;stroke-opacity:1"/><path d="M140.66 145.18v-2.91h1.59v2.91ZM140.66 142.27v-2.33h1.59v2.33ZM142.64 168v-.56h1.58v.56ZM142.64 167.44v-.83h1.58v.83Z" class="point" style="vector-effect:none;opacity:1;stroke-width:1px;fill:#5694ca;fill-opacity:1;stroke:#5694ca;stroke-opacity:1"/><path d="M142.64 166.61v-1.1h1.58v1.1ZM142.64 165.51v-5.57h1.58v5.57ZM142.64 159.94v-2.76h1.58v2.76ZM142.64 157.18v-2.25h1.58v2.25ZM142.64 154.93v-1.9h1.58v1.9ZM142.64 153.03v-5.65h1.58v5.65ZM142.64 147.38v-4.98h1.58v4.98ZM144.62 168v-2.14h1.58V168ZM144.62 165.86v-1.09h1.58v1.09ZM144.62 164.77v-5.84h1.58v5.84ZM144.62 158.93v-1.81h1.58v1.81ZM144.62 157.12v-.58h1.58v.58ZM144.62 156.54v-5.14h1.58v5.14ZM144.62 151.4v-.79h1.58v.79ZM144.62 150.61v-2.68h1.58v2.68ZM144.62 147.93v-5.95h1.58v5.95ZM146.6 168v-1.44h1.58V168ZM146.6 166.56v-.6h1.58v.6ZM146.6 165.96v-1.77h1.58v1.77ZM146.6 164.19v-6.23h1.58v6.23ZM146.6 157.96v-4.7h1.58v4.7ZM146.6 153.26v-5.99h1.58v5.99Z" class="point" style="vector-effect:none;opacity:1;stroke-width:1px;fill:#5694ca;fill-opacity:1;stroke:#5694ca;stroke-opacity:1"/><path d="M146.6 147.27v-.88h1.58v.88ZM146.6 146.39v-.45h1.58v.45ZM146.6 145.94v-2.49h1.58v2.49ZM148.58 168v-3.24h1.58V168ZM148.58 164.76v-.44h1.58v.44ZM148.58 164.32v-10.76h1.58v10.76ZM148.58 153.56v-2.63h1.58v2.63ZM148.58 150.93v-4.24h1.58v4.24ZM148.58 146.69v-.87h1.58v.87ZM148.58 145.82v-8.63h1.58v8.63ZM148.58 137.19v-1.52h1.58v1.52ZM148.58 135.67v-10.84h1.58v10.84ZM150.55 168v-.85h1.59v.85ZM150.55 167.15v-1.98h1.59v1.98ZM150.55 165.17v-2.51h1.59v2.51ZM150.55 162.66v-.47h1.59v.47ZM150.55 162.19v-.6h1.59v.6ZM150.55 161.59v-2.49h1.59v2.49ZM150.55 159.1v-.27h1.59v.27Z" class="point" style="vector-effect:none;opacity:1;stroke-width:1px;fill:#5694ca;fill-opacity:1;stroke:#5694ca;stroke-opacity:1"/><path d="M150.55 158.83v-.18h1.59v.18ZM150.55 158.65v-.11h1.59v.11ZM152.53 168v-.33h1.59v.33ZM152.53 167.67v-.48h1.59v.48ZM152.53 167.19v-4.12h1.59v4.12ZM152.53 163.07v-1.87h1.59v1.87ZM152.53 161.2v-.64h1.59v.64ZM152.53 160.56v-4.14h1.59v4.14ZM152.53 156.42v-3.59h1.59v3.59Z" class="point" style="vector-effect:none;opacity:1;stroke-width:1px;fill:#5694ca;fill-opacity:1;stroke:#5694ca;stroke-opacity:1"/><path d="M152.53 152.83v-1.27h1.59v1.27ZM152.53 151.56v-1.07h1.59v1.07ZM154.51 168v-.62h1.58v.62ZM154.51 167.38v-2.08h1.58v2.08Z" class="point" style="vector-effect:none;opacity:1;stroke-width:1px;fill:#5694ca;fill-opacity:1;stroke:#5694ca;stroke-opacity:1"/><path d="M154.51 165.3v-1.56h1.58v1.56ZM154.51 163.74v-4.01h1.58v4.01ZM154.51 159.73v-4.8h1.58v4.8Z" class="point" style="vector-effect:none;opacity:1;stroke-width:1px;fill:#5694ca;fill-opacity:1;stroke:#5694ca;stroke-opacity:1"/><path d="M154.51 154.93v-1.42h1.58v1.42ZM154.51 153.51v-4.82h1.58v4.82ZM154.51 148.69v-.45h1.58v.45ZM154.51 148.24v-.84h1.58v.84ZM156.49 168v-1.94h1.58V168ZM156.49 166.06v-1.45h1.58v1.45ZM156.49 164.61v-.79h1.58v.79ZM156.49 163.82v-4.31h1.58v4.31ZM156.49 159.51v-.43h1.58v.43Z" class="point" style="vector-effect:none;opacity:1;stroke-width:1px;fill:#5694ca;fill-opacity:1;stroke:#5694ca;stroke-opacity:1"/><path d="M156.49 159.08v-1.26h1.58v1.26ZM156.49 157.82v-.59h1.58v.59ZM156.49 157.23v-4.2h1.58v4.2ZM156.49 153.03v-3.49h1.58v3.49ZM158.47 168v-3.36h1.58V168ZM158.47 164.64v-4.29h1.58v4.29ZM158.47 160.35v-.42h1.58v.42ZM158.47 159.93v-.57h1.58v.57ZM158.47 159.36v-4.26h1.58v4.26ZM158.47 155.1v-1.75h1.58v1.75ZM158.47 153.35v-.74h1.58v.74Z" class="point" style="vector-effect:none;opacity:1;stroke-width:1px;fill:#5694ca;fill-opacity:1;stroke:#5694ca;stroke-opacity:1"/><path d="M158.47 152.61v-1.34h1.58v1.34ZM158.47 151.27v-1.21h1.58v1.21ZM160.45 168v-.49h1.58v.49ZM160.45 167.51v-1.65h1.58v1.65Z" class="point" style="vector-effect:none;opacity:1;stroke-width:1px;fill:#5694ca;fill-opacity:1;stroke:#5694ca;stroke-opacity:1"/><path d="M160.45 165.86v-3.38h1.58v3.38ZM160.45 162.48v-.37h1.58v.37Z" class="point" style="vector-effect:none;opacity:1;stroke-width:1px;fill:#5694ca;fill-opacity:1;stroke:#5694ca;stroke-opacity:1"/><path d="M160.45 162.11v-.64h1.58v.64ZM160.45 161.47v-1.05h1.58v1.05ZM160.45 160.42v-4.46h1.58v4.46Z" class="point" style="vector-effect:none;opacity:1;stroke-width:1px;fill:#5694ca;fill-opacity:1;stroke:#5694ca;stroke-opacity:1"/><path d="M160.45 155.96v-1.14h1.58v1.14ZM160.45 154.82v-4.61h1.58v4.61ZM162.42 168v-1.88h1.59V168ZM162.42 166.12v-.55h1.59v.55ZM162.42 165.57v-2.6h1.59v2.6ZM162.42 162.97v-.86h1.59v.86Z" class="point" style="vector-effect:none;opacity:1;stroke-width:1px;fill:#5694ca;fill-opacity:1;stroke:#5694ca;stroke-opacity:1"/><path d="M162.42 162.11v-.29h1.59v.29ZM162.42 161.82v-5.52h1.59v5.52Z" class="point" style="vector-effect:none;opacity:1;stroke-width:1px;fill:#5694ca;fill-opacity:1;stroke:#5694ca;stroke-opacity:1"/><path d="M162.42 156.3v-1.57h1.59v1.57ZM162.42 154.73v-7.32h1.59v7.32ZM162.42 147.41v-7.15h1.59v7.15ZM164.4 168v-.33h1.59v.33ZM164.4 167.67v-.08h1.59v.08Z" class="point" style="vector-effect:none;opacity:1;stroke-width:1px;fill:#5694ca;fill-opacity:1;stroke:#5694ca;stroke-opacity:1"/><path d="M164.4 167.59v-1.64h1.59v1.64ZM164.4 165.95v-.12h1.59v.12Z" class="point" style="vector-effect:none;opacity:1;stroke-width:1px;fill:#5694ca;fill-opacity:1;stroke:#5694ca;stroke-opacity:1"/><path d="M164.4 165.83v-.29h1.59v.29ZM164.4 165.54v-.17h1.59v.17ZM164.4 165.37v-.53h1.59v.53ZM164.4 164.84v-1.14h1.59v1.14ZM164.4 163.7v-1.53h1.59v1.53ZM166.38 168v-.47h1.58v.47ZM166.38 167.53v-.8h1.58v.8ZM166.38 166.73v-1.21h1.58v1.21Z" class="point" style="vector-effect:none;opacity:1;stroke-width:1px;fill:#5694ca;fill-opacity:1;stroke:#5694ca;stroke-opacity:1"/><path d="M166.38 165.52v-2.42h1.58v2.42ZM166.38 163.1v-3.02h1.58v3.02Z" class="point" style="vector-effect:none;opacity:1;stroke-width:1px;fill:#5694ca;fill-opacity:1;stroke:#5694ca;stroke-opacity:1"/><path d="M166.38 160.08v-.33h1.58v.33ZM166.38 159.75v-.89h1.58v.89ZM166.38 158.86v-3.09h1.58v3.09ZM166.38 155.77v-.24h1.58v.24ZM168.36 168v-1.01h1.58V168ZM168.36 166.99v-2.6h1.58v2.6ZM168.36 164.39v-3.27h1.58v3.27Z" class="point" style="vector-effect:none;opacity:1;stroke-width:1px;fill:#5694ca;fill-opacity:1;stroke:#5694ca;stroke-opacity:1"/><path d="M168.36 161.12V160h1.58v1.12ZM168.36 160v-3.79h1.58V160ZM168.36 156.21v-.43h1.58v.43ZM168.36 155.78v-.61h1.58v.61ZM168.36 155.17v-1.45h1.58v1.45ZM168.36 153.72v-.33h1.58v.33ZM170.34 168v-.63h1.58v.63ZM170.34 167.37v-2.41h1.58v2.41ZM170.34 164.96v-1.41h1.58v1.41ZM170.34 163.55v-3.41h1.58v3.41ZM170.34 160.14v-2.97h1.58v2.97ZM170.34 157.17v-1h1.58v1ZM170.34 156.17v-.46h1.58v.46Z" class="point" style="vector-effect:none;opacity:1;stroke-width:1px;fill:#5694ca;fill-opacity:1;stroke:#5694ca;stroke-opacity:1"/><path d="M170.34 155.71v-1.11h1.58v1.11ZM170.34 154.6v-.34h1.58v.34ZM172.32 168v-.9h1.58v.9ZM172.32 167.1v-2.95h1.58v2.95ZM172.32 164.15v-1.1h1.58v1.1ZM172.32 163.05v-.82h1.58v.82ZM172.32 162.23v-.29h1.58v.29ZM172.32 161.94v-.39h1.58v.39ZM172.32 161.55v-2.56h1.58v2.56ZM172.32 158.99V157h1.58v1.99ZM172.32 157v-.48h1.58v.48ZM174.3 168v-.71h1.58v.71ZM174.3 167.29v-.31h1.58v.31ZM174.3 166.98v-.23h1.58v.23ZM174.3 166.75v-1.85h1.58v1.85ZM174.3 164.9v-.45h1.58v.45ZM174.3 164.45v-.76h1.58v.76ZM174.3 163.69v-3.07h1.58v3.07ZM174.3 160.62v-2.47h1.58v2.47ZM174.3 158.15v-1h1.58v1ZM176.27 168v-4.26h1.59V168ZM176.27 163.74v-.28h1.59v.28ZM176.27 163.46v-.47h1.59v.47ZM176.27 162.99v-3.68h1.59v3.68ZM176.27 159.31v-.86h1.59v.86ZM176.27 158.45v-1.33h1.59v1.33Z" class="point" style="vector-effect:none;opacity:1;stroke-width:1px;fill:#5694ca;fill-opacity:1;stroke:#5694ca;stroke-opacity:1"/><path d="M176.27 157.12v-.99h1.59v.99ZM176.27 156.13v-2.62h1.59v2.62ZM176.27 153.51v-.15h1.59v.15ZM178.25 168v-.16h1.58v.16ZM178.25 167.84v-.94h1.58v.94ZM178.25 166.9v-.06h1.58v.06ZM178.25 166.84v-.08h1.58v.08ZM178.25 166.76v-.77h1.58v.77Z" class="point" style="vector-effect:none;opacity:1;stroke-width:1px;fill:#5694ca;fill-opacity:1;stroke:#5694ca;stroke-opacity:1"/><path d="M178.25 165.99v-.18h1.58v.18ZM178.25 165.81v-.57h1.58v.57ZM178.25 165.24v-.1h1.58v.1ZM178.25 165.14v-.25h1.58v.25ZM180.23 168v-.81h1.58v.81ZM180.23 167.19v-.58h1.58v.58Z" class="point" style="vector-effect:none;opacity:1;stroke-width:1px;fill:#5694ca;fill-opacity:1;stroke:#5694ca;stroke-opacity:1"/><path d="M180.23 166.61v-1.54h1.58v1.54ZM180.23 165.07v-.64h1.58v.64ZM180.23 164.43v-.26h1.58v.26ZM180.23 164.17v-1.9h1.58v1.9Z" class="point" style="vector-effect:none;opacity:1;stroke-width:1px;fill:#5694ca;fill-opacity:1;stroke:#5694ca;stroke-opacity:1"/><path d="M180.23 162.27v-2.32h1.58v2.32ZM180.23 159.95v-.34h1.58v.34Z" class="point" style="vector-effect:none;opacity:1;stroke-width:1px;fill:#5694ca;fill-opacity:1;stroke:#5694ca;stroke-opacity:1"/><path d="M180.23 159.61v-.19h1.58v.19ZM182.21 168v-.7h1.58v.7ZM182.21 167.3V165h1.58v2.3ZM182.21 165v-2.2h1.58v2.2ZM182.21 162.8v-1.88h1.58v1.88ZM182.21 160.92v-.93h1.58v.93Z" class="point" style="vector-effect:none;opacity:1;stroke-width:1px;fill:#5694ca;fill-opacity:1;stroke:#5694ca;stroke-opacity:1"/><path d="M182.21 159.99v-.7h1.58v.7ZM182.21 159.29v-.43h1.58v.43Z" class="point" style="vector-effect:none;opacity:1;stroke-width:1px;fill:#5694ca;fill-opacity:1;stroke:#5694ca;stroke-opacity:1"/><path d="M182.21 158.86v-.3h1.58v.3ZM182.21 158.56v-.22h1.58v.22ZM184.19 168v-.58h1.58v.58ZM184.19 167.42v-.29h1.58v.29ZM184.19 167.13v-.25h1.58v.25ZM184.19 166.88v-.4h1.58v.4ZM184.19 166.48v-1.86h1.58v1.86Z" class="point" style="vector-effect:none;opacity:1;stroke-width:1px;fill:#5694ca;fill-opacity:1;stroke:#5694ca;stroke-opacity:1"/><path d="M184.19 164.62V164h1.58v.62ZM184.19 164v-2.02h1.58V164ZM184.19 161.98v-1.97h1.58v1.97ZM184.19 160.01v-.87h1.58v.87ZM186.17 168v-2.09h1.58V168ZM186.17 165.91v-.24h1.58v.24ZM186.17 165.67v-.61h1.58v.61Z" class="point" style="vector-effect:none;opacity:1;stroke-width:1px;fill:#5694ca;fill-opacity:1;stroke:#5694ca;stroke-opacity:1"/><path d="M186.17 165.06v-.87h1.58v.87ZM186.17 164.19v-2.01h1.58v2.01ZM186.17 162.18v-.38h1.58v.38ZM186.17 161.8v-1.97h1.58v1.97ZM186.17 159.83v-.63h1.58v.63ZM186.17 159.2v-.3h1.58v.3ZM188.14 168v-.17h1.59v.17ZM188.14 167.83v-.25h1.59v.25ZM188.14 167.58v-.29h1.59v.29ZM188.14 167.29v-1.84h1.59v1.84ZM188.14 165.45v-1.94h1.59v1.94ZM188.14 163.51v-2.1h1.59v2.1ZM188.14 161.41v-.52h1.59v.52ZM188.14 160.89v-.53h1.59v.53Z" class="point" style="vector-effect:none;opacity:1;stroke-width:1px;fill:#5694ca;fill-opacity:1;stroke:#5694ca;stroke-opacity:1"/><path d="M188.14 160.36v-.76h1.59v.76ZM190.12 168v-.6h1.58v.6ZM190.12 167.4v-2.85h1.58v2.85ZM190.12 164.55v-2.34h1.58v2.34ZM190.12 162.21v-.33h1.58v.33ZM190.12 161.88v-.95h1.58v.95ZM190.12 160.93v-.12h1.58v.12ZM190.12 160.81v-.2h1.58v.2ZM190.12 160.61v-.66h1.58v.66ZM190.12 159.95v-2.88h1.58v2.88ZM192.1 168v-.04h1.58v.04ZM192.1 167.96v-.08h1.58v.08ZM192.1 167.88v-.5h1.58v.5ZM192.1 167.38v-.13h1.58v.13ZM192.1 167.25v-.12h1.58v.12ZM192.1 167.13v-.05h1.58v.05Z" class="point" style="vector-effect:none;opacity:1;stroke-width:1px;fill:#5694ca;fill-opacity:1;stroke:#5694ca;stroke-opacity:1"/><path d="M192.1 167.08v-.63h1.58v.63ZM192.1 166.45v-.66h1.58v.66ZM192.1 165.79v-.19h1.58v.19ZM194.08 168v-.54h1.58v.54ZM194.08 167.46v-1.62h1.58v1.62ZM194.08 165.84v-1.41h1.58v1.41ZM194.08 164.43v-.22h1.58v.22ZM194.08 164.21v-1.52h1.58v1.52ZM194.08 162.69v-.11h1.58v.11Z" class="point" style="vector-effect:none;opacity:1;stroke-width:1px;fill:#5694ca;fill-opacity:1;stroke:#5694ca;stroke-opacity:1"/><path d="M194.08 162.58v-.15h1.58v.15ZM194.08 162.43v-.38h1.58v.38ZM194.08 162.05v-.37h1.58v.37ZM196.06 168v-1.35h1.58V168ZM196.06 166.65v-.17h1.58v.17ZM196.06 166.48v-1.61h1.58v1.61Z" class="point" style="vector-effect:none;opacity:1;stroke-width:1px;fill:#5694ca;fill-opacity:1;stroke:#5694ca;stroke-opacity:1"/><path d="M196.06 164.87v-.61h1.58v.61ZM196.06 164.26v-.43h1.58v.43Z" class="point" style="vector-effect:none;opacity:1;stroke-width:1px;fill:#5694ca;fill-opacity:1;stroke:#5694ca;stroke-opacity:1"/><path d="M196.06 163.83v-.21h1.58v.21ZM196.06 163.62v-1.65h1.58v1.65ZM196.06 161.97v-.28h1.58v.28ZM196.06 161.69v-.45h1.58v.45ZM198.04 168v-.6h1.58v.6ZM198.04 167.4v-.19h1.58v.19ZM198.04 167.21v-1.34h1.58v1.34ZM198.04 165.87v-.17h1.58v.17ZM198.04 165.7v-.46h1.58v.46Z" class="point" style="vector-effect:none;opacity:1;stroke-width:1px;fill:#5694ca;fill-opacity:1;stroke:#5694ca;stroke-opacity:1"/><path d="M198.04 165.24v-.26h1.58v.26ZM198.04 164.98v-1.68h1.58v1.68Z" class="point" style="vector-effect:none;opacity:1;stroke-width:1px;fill:#5694ca;fill-opacity:1;stroke:#5694ca;stroke-opacity:1"/><path d="M198.04 163.3v-.44h1.58v.44ZM198.04 162.86v-1.87h1.58v1.87ZM200.01 168v-1.64h1.59V168ZM200.01 166.36v-.17h1.59v.17ZM200.01 166.19v-.56h1.59v.56ZM200.01 165.63v-1.51h1.59v1.51ZM200.01 164.12v-.18h1.59v.18ZM200.01 163.94v-.41h1.59v.41ZM200.01 163.53v-1.2h1.59v1.2ZM200.01 162.33v-.26h1.59v.26ZM200.01 162.07v-.42h1.59v.42ZM201.99 168v-.12h1.59v.12ZM201.99 167.88v-.36h1.59v.36Z" class="point" style="vector-effect:none;opacity:1;stroke-width:1px;fill:#5694ca;fill-opacity:1;stroke:#5694ca;stroke-opacity:1"/><path d="M201.99 167.52v-.36h1.59v.36ZM201.99 167.16V167h1.59v.16ZM201.99 167v-1.13h1.59V167ZM201.99 165.87v-.49h1.59v.49ZM201.99 165.38v-.22h1.59v.22ZM201.99 165.16v-1.76h1.59v1.76ZM201.99 163.4v-1.5h1.59v1.5ZM203.97 168v-.11h1.58v.11ZM203.97 167.89v-1.29h1.58v1.29ZM203.97 166.6v-.36h1.58v.36Z" class="point" style="vector-effect:none;opacity:1;stroke-width:1px;fill:#5694ca;fill-opacity:1;stroke:#5694ca;stroke-opacity:1"/><path d="M203.97 166.24v-1.82h1.58v1.82ZM203.97 164.42v-.36h1.58v.36Z" class="point" style="vector-effect:none;opacity:1;stroke-width:1px;fill:#5694ca;fill-opacity:1;stroke:#5694ca;stroke-opacity:1"/><path d="M203.97 164.06v-.07h1.58v.07ZM203.97 163.99v-.54h1.58v.54ZM203.97 163.45v-2.14h1.58v2.14ZM203.97 161.31v-.17h1.58v.17ZM205.95 168v-.06h1.58v.06ZM205.95 167.94v-.4h1.58v.4ZM205.95 167.54v-.51h1.58v.51ZM205.95 167.03v-.28h1.58v.28ZM205.95 166.75v-.07h1.58v.07ZM205.95 166.68v-.02h1.58v.02ZM205.95 166.66v-.03h1.58v.03ZM205.95 166.63v-.1h1.58v.1ZM205.95 166.53v-.04h1.58v.04ZM207.93 168v-.34h1.58v.34ZM207.93 167.66v-.2h1.58v.2ZM207.93 167.46v-.45h1.58v.45ZM207.93 167.01v-.09h1.58v.09ZM207.93 166.92v-1.77h1.58v1.77Z" class="point" style="vector-effect:none;opacity:1;stroke-width:1px;fill:#5694ca;fill-opacity:1;stroke:#5694ca;stroke-opacity:1"/><path d="M207.93 165.15v-.13h1.58v.13ZM207.93 165.02v-1.37h1.58v1.37ZM207.93 163.65v-.35h1.58v.35ZM207.93 163.3v-1.03h1.58v1.03ZM209.91 168v-1.43h1.58V168ZM209.91 166.57v-.41h1.58v.41ZM209.91 166.16V165h1.58v1.16ZM209.91 165v-.12h1.58v.12ZM209.91 164.88v-.2h1.58v.2ZM209.91 164.68v-.88h1.58v.88ZM209.91 163.8v-.34h1.58v.34ZM209.91 163.46v-.35h1.58v.35ZM209.91 163.11v-.15h1.58v.15ZM211.88 168v-.13h1.59v.13ZM211.88 167.87v-1.3h1.59v1.3ZM211.88 166.57v-.38h1.59v.38ZM211.88 166.19v-.11h1.59v.11Z" class="point" style="vector-effect:none;opacity:1;stroke-width:1px;fill:#5694ca;fill-opacity:1;stroke:#5694ca;stroke-opacity:1"/><path d="M211.88 166.08v-1.01h1.59v1.01ZM211.88 165.07v-.27h1.59v.27Z" class="point" style="vector-effect:none;opacity:1;stroke-width:1px;fill:#5694ca;fill-opacity:1;stroke:#5694ca;stroke-opacity:1"/><path d="M211.88 164.8v-.28h1.59v.28ZM211.88 164.52v-.19h1.59v.19ZM211.88 164.33v-.75h1.59v.75ZM213.86 168v-.14h1.59v.14ZM213.86 167.86v-.09h1.59v.09ZM213.86 167.77v-.22h1.59v.22ZM213.86 167.55v-.11h1.59v.11ZM213.86 167.44v-1h1.59v1ZM213.86 166.44v-.28h1.59v.28ZM213.86 166.16v-.55h1.59v.55Z" class="point" style="vector-effect:none;opacity:1;stroke-width:1px;fill:#5694ca;fill-opacity:1;stroke:#5694ca;stroke-opacity:1"/><path d="M213.86 165.61v-.79h1.59v.79ZM213.86 164.82v-.21h1.59v.21ZM215.84 168v-.11h1.58v.11ZM215.84 167.89v-.52h1.58v.52Z" class="point" style="vector-effect:none;opacity:1;stroke-width:1px;fill:#5694ca;fill-opacity:1;stroke:#5694ca;stroke-opacity:1"/><path d="M215.84 167.37v-.34h1.58v.34ZM215.84 167.03v-.16h1.58v.16ZM215.84 166.87v-.07h1.58v.07ZM215.84 166.8v-.65h1.58v.65ZM215.84 166.15v-.12h1.58v.12ZM215.84 166.03v-.05h1.58v.05ZM215.84 165.98v-.04h1.58v.04ZM217.82 168v-.03h1.58v.03ZM217.82 167.97h1.58ZM217.82 167.97v-.01h1.58v.01ZM217.82 167.96v-.04h1.58v.04ZM217.82 167.92v-.01h1.58v.01ZM217.82 167.91v-.09h1.58v.09ZM217.82 167.82v-.11h1.58v.11Z" class="point" style="vector-effect:none;opacity:1;stroke-width:1px;fill:#5694ca;fill-opacity:1;stroke:#5694ca;stroke-opacity:1"/><path d="M217.82 167.71v-.02h1.58v.02ZM217.82 167.69v-.16h1.58v.16ZM219.8 168h1.58ZM219.8 168h1.58ZM219.8 168h1.58ZM219.8 168v-.01h1.58v.01ZM219.8 167.99h1.58ZM219.8 167.99h1.58ZM219.8 167.99h1.58ZM219.8 167.99h1.58ZM219.8 167.99v-.01h1.58v.01ZM221.78 168h1.58ZM221.78 168h1.58ZM221.78 168h1.58ZM221.78 168h1.58ZM221.78 168v-.01h1.58v.01ZM221.78 167.99h1.58ZM221.78 167.99h1.58ZM221.78 167.99h1.58ZM221.78 167.99h1.58ZM223.75 168v-.01h1.59v.01ZM223.75 167.99v-.02h1.59v.02ZM223.75 167.97h1.59ZM223.75 167.97v-.04h1.59v.04ZM223.75 167.93h1.59ZM223.75 167.93v-.05h1.59v.05ZM223.75 167.88v-.01h1.59v.01ZM223.75 167.87h1.59ZM223.75 167.87h1.59ZM225.73 168v-.06h1.59v.06ZM225.73 167.94v-.1h1.59v.1ZM225.73 167.84v-.39h1.59v.39ZM225.73 167.45v-.17h1.59v.17ZM225.73 167.28v-.1h1.59v.1ZM225.73 167.18v-.04h1.59v.04ZM225.73 167.14v-.56h1.59v.56Z" class="point" style="vector-effect:none;opacity:1;stroke-width:1px;fill:#5694ca;fill-opacity:1;stroke:#5694ca;stroke-opacity:1"/><path d="M225.73 166.58v-.03h1.59v.03ZM225.73 166.55v-.76h1.59v.76ZM227.71 168v-.7h1.58v.7ZM227.71 167.3v-.03h1.58v.03ZM227.71 167.27v-.49h1.58v.49ZM227.71 166.78v-.07h1.58v.07ZM227.71 166.71v-.9h1.58v.9ZM227.71 165.81v-.21h1.58v.21ZM227.71 165.6v-.14h1.58v.14ZM227.71 165.46v-.05h1.58v.05ZM227.71 165.41v-.15h1.58v.15ZM229.69 168v-.6h1.58v.6ZM229.69 167.4v-.74h1.58v.74ZM229.69 166.66v-.41h1.58v.41ZM229.69 166.25v-.08h1.58v.08ZM229.69 166.17v-.02h1.58v.02Z" class="point" style="vector-effect:none;opacity:1;stroke-width:1px;fill:#5694ca;fill-opacity:1;stroke:#5694ca;stroke-opacity:1"/><path d="M229.69 166.15v-.12h1.58v.12ZM229.69 166.03v-.05h1.58v.05ZM229.69 165.98v-.18h1.58v.18Z" class="point" style="vector-effect:none;opacity:1;stroke-width:1px;fill:#5694ca;fill-opacity:1;stroke:#5694ca;stroke-opacity:1"/><path d="M229.69 165.8v-.12h1.58v.12ZM231.67 168v-.08h1.58v.08ZM231.67 167.92v-.04h1.58v.04ZM231.67 167.88v-.04h1.58v.04ZM231.67 167.84v-.02h1.58v.02ZM231.67 167.82v-.18h1.58v.18ZM231.67 167.64v-.02h1.58v.02Z" class="point" style="vector-effect:none;opacity:1;stroke-width:1px;fill:#5694ca;fill-opacity:1;stroke:#5694ca;stroke-opacity:1"/><path d="M231.67 167.62v-.27h1.58v.27ZM231.67 167.35h1.58ZM231.67 167.35v-.33h1.58v.33ZM233.65 168h1.58ZM233.65 168v-.01h1.58v.01ZM233.65 167.99h1.58ZM233.65 167.99v-.01h1.58v.01ZM233.65 167.98h1.58ZM233.65 167.98v-.01h1.58v.01ZM233.65 167.97h1.58ZM233.65 167.97v-.01h1.58v.01ZM233.65 167.96h1.58ZM235.62 168v-.02h1.59v.02ZM235.62 167.98v-.03h1.59v.03ZM235.62 167.95h1.59ZM235.62 167.95h1.59ZM235.62 167.95v-.01h1.59v.01ZM235.62 167.94h1.59ZM235.62 167.94v-.01h1.59v.01ZM235.62 167.93v-.01h1.59v.01ZM235.62 167.92h1.59ZM237.6 168v-.71h1.59v.71ZM237.6 167.29v-.17h1.59v.17ZM237.6 167.12v-.23h1.59v.23ZM237.6 166.89v-.85h1.59v.85ZM237.6 166.04v-.5h1.59v.5ZM237.6 165.54v-.07h1.59v.07ZM237.6 165.47v-.06h1.59v.06ZM237.6 165.41v-.04h1.59v.04ZM237.6 165.37v-.16h1.59v.16ZM239.58 168v-.23h1.58v.23ZM239.58 167.77v-.34h1.58v.34ZM239.58 167.43v-.23h1.58v.23ZM239.58 167.2v-.13h1.58v.13ZM239.58 167.07v-.09h1.58v.09ZM239.58 166.98v-.84h1.58v.84ZM239.58 166.14v-.05h1.58v.05Z" class="point" style="vector-effect:none;opacity:1;stroke-width:1px;fill:#5694ca;fill-opacity:1;stroke:#5694ca;stroke-opacity:1"/><path d="M239.58 166.09v-1.04h1.58v1.04ZM239.58 165.05v-.62h1.58v.62ZM241.56 168v-.97h1.58v.97ZM241.56 167.03v-.22h1.58v.22ZM241.56 166.81v-.31h1.58v.31ZM241.56 166.5v-.62h1.58v.62ZM241.56 165.88v-.06h1.58v.06ZM241.56 165.82v-.09h1.58v.09ZM241.56 165.73v-.22h1.58v.22ZM241.56 165.51v-.83h1.58v.83Z" class="point" style="vector-effect:none;opacity:1;stroke-width:1px;fill:#5694ca;fill-opacity:1;stroke:#5694ca;stroke-opacity:1"/><path d="M241.56 164.68v-.14h1.58v.14ZM243.54 168v-1.21h1.58V168ZM243.54 166.79v-.09h1.58v.09ZM243.54 166.7v-.22h1.58v.22ZM243.54 166.48v-.7h1.58v.7ZM243.54 165.78v-.12h1.58v.12ZM243.54 165.66v-.23h1.58v.23ZM243.54 165.43v-.05h1.58v.05ZM243.54 165.38v-.98h1.58v.98ZM243.54 164.4v-.35h1.58v.35ZM245.52 168v-.36h1.58v.36ZM245.52 167.64v-1.58h1.58v1.58Z" class="point" style="vector-effect:none;opacity:1;stroke-width:1px;fill:#5694ca;fill-opacity:1;stroke:#5694ca;stroke-opacity:1"/><path d="M245.52 166.06v-.23h1.58v.23ZM245.52 165.83v-.03h1.58v.03ZM245.52 165.8v-1.21h1.58v1.21ZM245.52 164.59v-.06h1.58v.06ZM245.52 164.53v-.12h1.58v.12ZM245.52 164.41v-.2h1.58v.2ZM245.52 164.21v-.82h1.58v.82ZM247.5 168v-.01h1.58v.01ZM247.5 167.99v-.05h1.58v.05ZM247.5 167.94v-.01h1.58v.01ZM247.5 167.93v-.21h1.58v.21ZM247.5 167.72v-.15h1.58v.15ZM247.5 167.57v-.03h1.58v.03ZM247.5 167.54v-.07h1.58v.07ZM247.5 167.47v-.05h1.58v.05ZM247.5 167.42v-.27h1.58v.27ZM249.47 168v-.48h1.59v.48ZM249.47 167.52v-.24h1.59v.24ZM249.47 167.28v-.18h1.59v.18ZM249.47 167.1v-.11h1.59v.11Z" class="point" style="vector-effect:none;opacity:1;stroke-width:1px;fill:#5694ca;fill-opacity:1;stroke:#5694ca;stroke-opacity:1"/><path d="M249.47 166.99v-.05h1.59v.05ZM249.47 166.94v-.17h1.59v.17ZM249.47 166.77v-.61h1.59v.61ZM249.47 166.16v-.07h1.59v.07ZM249.47 166.09v-.8h1.59v.8ZM251.45 168v-.56h1.58v.56ZM251.45 167.44v-.18h1.58v.18ZM251.45 167.26v-.46h1.58v.46Z" class="point" style="vector-effect:none;opacity:1;stroke-width:1px;fill:#5694ca;fill-opacity:1;stroke:#5694ca;stroke-opacity:1"/><path d="M251.45 166.8v-.06h1.58v.06ZM251.45 166.74v-.17h1.58v.17ZM251.45 166.57v-.07h1.58v.07ZM251.45 166.5v-.71h1.58v.71ZM251.45 165.79v-.23h1.58v.23ZM251.45 165.56v-.11h1.58v.11ZM253.43 168v-.05h1.58v.05ZM253.43 167.95v-.23h1.58v.23ZM253.43 167.72v-.71h1.58v.71ZM253.43 167.01v-.56h1.58v.56ZM253.43 166.45v-.44h1.58v.44ZM253.43 166.01v-.18h1.58v.18Z" class="point" style="vector-effect:none;opacity:1;stroke-width:1px;fill:#5694ca;fill-opacity:1;stroke:#5694ca;stroke-opacity:1"/><path d="M253.43 165.83v-.18h1.58v.18ZM253.43 165.65v-.11h1.58v.11ZM253.43 165.54v-.09h1.58v.09ZM255.41 168v-.18h1.58v.18ZM255.41 167.82v-.06h1.58v.06ZM255.41 167.76v-.17h1.58v.17ZM255.41 167.59v-.4h1.58v.4ZM255.41 167.19v-.08h1.58v.08Z" class="point" style="vector-effect:none;opacity:1;stroke-width:1px;fill:#5694ca;fill-opacity:1;stroke:#5694ca;stroke-opacity:1"/><path d="M255.41 167.11v-.22h1.58v.22ZM255.41 166.89v-.52h1.58v.52Z" class="point" style="vector-effect:none;opacity:1;stroke-width:1px;fill:#5694ca;fill-opacity:1;stroke:#5694ca;stroke-opacity:1"/><path d="M255.41 166.37v-.09h1.58v.09ZM255.41 166.28v-.66h1.58v.66ZM257.39 168v-.04h1.58v.04ZM257.39 167.96v-.57h1.58v.57ZM257.39 167.39v-.06h1.58v.06Z" class="point" style="vector-effect:none;opacity:1;stroke-width:1px;fill:#5694ca;fill-opacity:1;stroke:#5694ca;stroke-opacity:1"/><path d="M257.39 167.33v-.1h1.58v.1ZM257.39 167.23v-.16h1.58v.16ZM257.39 167.07v-.77h1.58v.77Z" class="point" style="vector-effect:none;opacity:1;stroke-width:1px;fill:#5694ca;fill-opacity:1;stroke:#5694ca;stroke-opacity:1"/><path d="M257.39 166.3v-.22h1.58v.22ZM257.39 166.08v-.16h1.58v.16ZM257.39 165.92v-.41h1.58v.41ZM259.37 168v-.09h1.58v.09ZM259.37 167.91v-.14h1.58v.14ZM259.37 167.77v-.72h1.58v.72ZM259.37 167.05v-.03h1.58v.03ZM259.37 167.02v-.23h1.58v.23ZM259.37 166.79v-.96h1.58v.96Z" class="point" style="vector-effect:none;opacity:1;stroke-width:1px;fill:#5694ca;fill-opacity:1;stroke:#5694ca;stroke-opacity:1"/><path d="M259.37 165.83v-.17h1.58v.17ZM259.37 165.66v-.48h1.58v.48ZM259.37 165.18v-.06h1.58v.06ZM261.34 168v-.16h1.59v.16ZM261.34 167.84v-.04h1.59v.04ZM261.34 167.8v-.01h1.59v.01ZM261.34 167.79v-.2h1.59v.2ZM261.34 167.59v-.01h1.59v.01ZM261.34 167.58v-.06h1.59v.06ZM261.34 167.52v-.04h1.59v.04ZM261.34 167.48v-.11h1.59v.11Z" class="point" style="vector-effect:none;opacity:1;stroke-width:1px;fill:#5694ca;fill-opacity:1;stroke:#5694ca;stroke-opacity:1"/><path d="M261.34 167.37v-.02h1.59v.02ZM263.32 168v-.06h1.58v.06ZM263.32 167.94v-.25h1.58v.25ZM263.32 167.69v-.1h1.58v.1ZM263.32 167.59v-.14h1.58v.14ZM263.32 167.45v-.32h1.58v.32ZM263.32 167.13v-.1h1.58v.1ZM263.32 167.03v-.4h1.58v.4ZM263.32 166.63v-.05h1.58v.05Z" class="point" style="vector-effect:none;opacity:1;stroke-width:1px;fill:#5694ca;fill-opacity:1;stroke:#5694ca;stroke-opacity:1"/><path d="M263.32 166.58v-.03h1.58v.03ZM265.3 168v-.31h1.58v.31ZM265.3 167.69v-.07h1.58v.07ZM265.3 167.62v-.04h1.58v.04ZM265.3 167.58v-.24h1.58v.24ZM265.3 167.34v-.4h1.58v.4ZM265.3 166.94v-.12h1.58v.12ZM265.3 166.82v-.11h1.58v.11Z" class="point" style="vector-effect:none;opacity:1;stroke-width:1px;fill:#5694ca;fill-opacity:1;stroke:#5694ca;stroke-opacity:1"/><path d="M265.3 166.71v-.16h1.58v.16ZM265.3 166.55v-.03h1.58v.03ZM267.28 168v-.1h1.58v.1ZM267.28 167.9v-.27h1.58v.27ZM267.28 167.63v-.35h1.58v.35ZM267.28 167.28v-.22h1.58v.22ZM267.28 167.06v-.07h1.58v.07ZM267.28 166.99v-.03h1.58v.03ZM267.28 166.96v-.13h1.58v.13ZM267.28 166.83v-.03h1.58v.03ZM267.28 166.8v-.1h1.58v.1ZM269.26 168v-.14h1.58v.14ZM269.26 167.86v-.07h1.58v.07ZM269.26 167.79v-.12h1.58v.12ZM269.26 167.67v-.25h1.58v.25ZM269.26 167.42v-.04h1.58v.04ZM269.26 167.38v-.33h1.58v.33Z" class="point" style="vector-effect:none;opacity:1;stroke-width:1px;fill:#5694ca;fill-opacity:1;stroke:#5694ca;stroke-opacity:1"/><path d="M269.26 167.05v-.04h1.58v.04ZM269.26 167.01v-.12h1.58v.12ZM269.26 166.89v-.41h1.58v.41ZM271.24 168v-.11h1.58v.11ZM271.24 167.89v-.03h1.58v.03Z" class="point" style="vector-effect:none;opacity:1;stroke-width:1px;fill:#5694ca;fill-opacity:1;stroke:#5694ca;stroke-opacity:1"/><path d="M271.24 167.86v-.06h1.58v.06ZM271.24 167.8v-.35h1.58v.35ZM271.24 167.45v-.15h1.58v.15Z" class="point" style="vector-effect:none;opacity:1;stroke-width:1px;fill:#5694ca;fill-opacity:1;stroke:#5694ca;stroke-opacity:1"/><path d="M271.24 167.3v-.48h1.58v.48ZM271.24 166.82v-.28h1.58v.28ZM271.24 166.54v-.08h1.58v.08Z" class="point" style="vector-effect:none;opacity:1;stroke-width:1px;fill:#5694ca;fill-opacity:1;stroke:#5694ca;stroke-opacity:1"/><path d="M271.24 166.46v-.1h1.58v.1ZM273.21 168v-.12h1.59v.12ZM273.21 167.88v-.06h1.59v.06ZM273.21 167.82v-.05h1.59v.05Z" class="point" style="vector-effect:none;opacity:1;stroke-width:1px;fill:#5694ca;fill-opacity:1;stroke:#5694ca;stroke-opacity:1"/><path d="M273.21 167.77v-.17h1.59v.17ZM273.21 167.6v-.03h1.59v.03ZM273.21 167.57v-.12h1.59v.12ZM273.21 167.45v-.54h1.59v.54ZM273.21 166.91v-.38h1.59v.38ZM273.21 166.53v-.71h1.59v.71ZM275.19 168h1.59ZM275.19 168v-.03h1.59v.03ZM275.19 167.97v-.01h1.59v.01ZM275.19 167.96v-.06h1.59v.06ZM275.19 167.9v-.01h1.59v.01ZM275.19 167.89v-.12h1.59v.12Z" class="point" style="vector-effect:none;opacity:1;stroke-width:1px;fill:#5694ca;fill-opacity:1;stroke:#5694ca;stroke-opacity:1"/><path d="M275.19 167.77v-.08h1.59v.08ZM275.19 167.69v-.03h1.59v.03ZM275.19 167.66v-.04h1.59v.04ZM277.17 168v-.03h1.58v.03ZM277.17 167.97v-.08h1.58v.08ZM277.17 167.89v-.08h1.58v.08Z" class="point" style="vector-effect:none;opacity:1;stroke-width:1px;fill:#5694ca;fill-opacity:1;stroke:#5694ca;stroke-opacity:1"/><path d="M277.17 167.81v-.27h1.58v.27ZM277.17 167.54v-.03h1.58v.03ZM277.17 167.51v-.17h1.58v.17ZM277.17 167.34v-.21h1.58v.21ZM277.17 167.13v-.09h1.58v.09ZM277.17 167.04v-.05h1.58v.05ZM279.15 168v-.08h1.58v.08ZM279.15 167.92v-.12h1.58v.12Z" class="point" style="vector-effect:none;opacity:1;stroke-width:1px;fill:#5694ca;fill-opacity:1;stroke:#5694ca;stroke-opacity:1"/><path d="M279.15 167.8v-.08h1.58v.08ZM279.15 167.72v-.19h1.58v.19ZM279.15 167.53v-.04h1.58v.04ZM279.15 167.49v-.06h1.58v.06ZM279.15 167.43v-.29h1.58v.29ZM279.15 167.14v-.23h1.58v.23ZM279.15 166.91v-.06h1.58v.06ZM281.13 168v-.05h1.58v.05ZM281.13 167.95v-.06h1.58v.06ZM281.13 167.89v-.3h1.58v.3Z" class="point" style="vector-effect:none;opacity:1;stroke-width:1px;fill:#5694ca;fill-opacity:1;stroke:#5694ca;stroke-opacity:1"/><path d="M281.13 167.59v-.12h1.58v.12ZM281.13 167.47v-.05h1.58v.05ZM281.13 167.42v-.08h1.58v.08Z" class="point" style="vector-effect:none;opacity:1;stroke-width:1px;fill:#5694ca;fill-opacity:1;stroke:#5694ca;stroke-opacity:1"/><path d="M281.13 167.34v-.09h1.58v.09ZM281.13 167.25v-.23h1.58v.23ZM281.13 167.02v-.2h1.58v.2ZM283.11 168v-.27h1.58v.27ZM283.11 167.73v-.1h1.58v.1ZM283.11 167.63v-.11h1.58v.11Z" class="point" style="vector-effect:none;opacity:1;stroke-width:1px;fill:#5694ca;fill-opacity:1;stroke:#5694ca;stroke-opacity:1"/><path d="M283.11 167.52v-.35h1.58v.35ZM283.11 167.17v-.22h1.58v.22ZM283.11 166.95v-.05h1.58v.05Z" class="point" style="vector-effect:none;opacity:1;stroke-width:1px;fill:#5694ca;fill-opacity:1;stroke:#5694ca;stroke-opacity:1"/><path d="M283.11 166.9v-.07h1.58v.07ZM283.11 166.83v-.04h1.58v.04ZM283.11 166.79v-.11h1.58v.11ZM285.08 168v-.03h1.59v.03ZM285.08 167.97v-.27h1.59v.27ZM285.08 167.7v-.45h1.59v.45ZM285.08 167.25v-.14h1.59v.14ZM285.08 167.11V167h1.59v.11ZM285.08 167v-.34h1.59v.34ZM285.08 166.66v-.06h1.59v.06ZM285.08 166.6v-.11h1.59v.11Z" class="point" style="vector-effect:none;opacity:1;stroke-width:1px;fill:#5694ca;fill-opacity:1;stroke:#5694ca;stroke-opacity:1"/><path d="M285.08 166.49v-.05h1.59v.05ZM287.06 168v-.09h1.59v.09ZM287.06 167.91v-.27h1.59v.27ZM287.06 167.64v-.12h1.59v.12Z" class="point" style="vector-effect:none;opacity:1;stroke-width:1px;fill:#5694ca;fill-opacity:1;stroke:#5694ca;stroke-opacity:1"/><path d="M287.06 167.52v-.02h1.59v.02ZM287.06 167.5v-.38h1.59v.38ZM287.06 167.12v-.04h1.59v.04ZM287.06 167.08v-.04h1.59v.04ZM287.06 167.04v-.54h1.59v.54ZM287.06 166.5v-.09h1.59v.09ZM289.04 168v-.02h1.58v.02ZM289.04 167.98v-.01h1.58v.01ZM289.04 167.97h1.58ZM289.04 167.97v-.02h1.58v.02ZM289.04 167.95v-.09h1.58v.09Z" class="point" style="vector-effect:none;opacity:1;stroke-width:1px;fill:#5694ca;fill-opacity:1;stroke:#5694ca;stroke-opacity:1"/><path d="M289.04 167.86v-.03h1.58v.03ZM289.04 167.83v-.01h1.58v.01ZM289.04 167.82v-.11h1.58v.11Z" class="point" style="vector-effect:none;opacity:1;stroke-width:1px;fill:#5694ca;fill-opacity:1;stroke:#5694ca;stroke-opacity:1"/><path d="M289.04 167.71v-.07h1.58v.07ZM291.02 168v-.09h1.58v.09ZM291.02 167.91v-.03h1.58v.03ZM291.02 167.88v-.08h1.58v.08Z" class="point" style="vector-effect:none;opacity:1;stroke-width:1px;fill:#5694ca;fill-opacity:1;stroke:#5694ca;stroke-opacity:1"/><path d="M291.02 167.8v-.07h1.58v.07ZM291.02 167.73v-.22h1.58v.22ZM291.02 167.51v-.18h1.58v.18Z" class="point" style="vector-effect:none;opacity:1;stroke-width:1px;fill:#5694ca;fill-opacity:1;stroke:#5694ca;stroke-opacity:1"/><path d="M291.02 167.33v-.03h1.58v.03ZM291.02 167.3v-.05h1.58v.05ZM291.02 167.25v-.28h1.58v.28ZM293 168v-.03h1.58v.03ZM293 167.97v-.08h1.58v.08ZM293 167.89v-.1h1.58v.1ZM293 167.79v-.06h1.58v.06ZM293 167.73v-.26h1.58v.26ZM293 167.47v-.17h1.58v.17ZM293 167.3v-.09h1.58v.09ZM293 167.21v-.04h1.58v.04ZM293 167.17v-.22h1.58v.22ZM294.98 168v-.09h1.58v.09ZM294.98 167.91v-.18h1.58v.18ZM294.98 167.73v-.06h1.58v.06ZM294.98 167.67v-.05h1.58v.05Z" class="point" style="vector-effect:none;opacity:1;stroke-width:1px;fill:#5694ca;fill-opacity:1;stroke:#5694ca;stroke-opacity:1"/><path d="M294.98 167.62v-.22h1.58v.22ZM294.98 167.4v-.04h1.58v.04ZM294.98 167.36v-.08h1.58v.08ZM294.98 167.28v-.27h1.58v.27ZM294.98 167.01v-.09h1.58v.09ZM296.95 168v-.2h1.59v.2ZM296.95 167.8v-.04h1.59v.04ZM296.95 167.76v-.05h1.59v.05Z" class="point" style="vector-effect:none;opacity:1;stroke-width:1px;fill:#5694ca;fill-opacity:1;stroke:#5694ca;stroke-opacity:1"/><path d="M296.95 167.71v-.22h1.59v.22ZM296.95 167.49v-.12h1.59v.12ZM296.95 167.37v-.29h1.59v.29ZM296.95 167.08v-.03h1.59v.03ZM296.95 167.05v-.09h1.59v.09ZM296.95 166.96v-.09h1.59v.09ZM298.93 168v-.08h1.59v.08ZM298.93 167.92v-.08h1.59v.08Z" class="point" style="vector-effect:none;opacity:1;stroke-width:1px;fill:#5694ca;fill-opacity:1;stroke:#5694ca;stroke-opacity:1"/><path d="M298.93 167.84v-.18h1.59v.18ZM298.93 167.66v-.03h1.59v.03ZM298.93 167.63v-.29h1.59v.29ZM298.93 167.34v-.05h1.59v.05ZM298.93 167.29v-.04h1.59v.04ZM298.93 167.25v-.1h1.59v.1ZM298.93 167.15v-.22h1.59v.22ZM300.91 168v-.08h1.58v.08ZM300.91 167.92v-.03h1.58v.03ZM300.91 167.89v-.04h1.58v.04ZM300.91 167.85v-.37h1.58v.37ZM300.91 167.48v-.49h1.58v.49Z" class="point" style="vector-effect:none;opacity:1;stroke-width:1px;fill:#5694ca;fill-opacity:1;stroke:#5694ca;stroke-opacity:1"/><path d="M300.91 166.99v-.13h1.58v.13ZM300.91 166.86v-.09h1.58v.09ZM300.91 166.77v-.28h1.58v.28ZM300.91 166.49v-.01h1.58v.01ZM302.89 168v-.09h1.58v.09ZM302.89 167.91v-.01h1.58v.01ZM302.89 167.9v-.03h1.58v.03ZM302.89 167.87h1.58ZM302.89 167.87v-.01h1.58v.01ZM302.89 167.86v-.13h1.58v.13ZM302.89 167.73v-.06h1.58v.06ZM302.89 167.67v-.02h1.58v.02Z" class="point" style="vector-effect:none;opacity:1;stroke-width:1px;fill:#5694ca;fill-opacity:1;stroke:#5694ca;stroke-opacity:1"/><path d="M302.89 167.65v-.03h1.58v.03ZM304.87 168v-.04h1.58v.04ZM304.87 167.96v-.08h1.58v.08ZM304.87 167.88v-.03h1.58v.03ZM304.87 167.85v-.07h1.58v.07ZM304.87 167.78v-.25h1.58v.25ZM304.87 167.53v-.32h1.58v.32ZM304.87 167.21v-.11h1.58v.11ZM304.87 167.1v-.03h1.58v.03ZM304.87 167.07v-.18h1.58v.18ZM306.85 168v-.37h1.58v.37ZM306.85 167.63v-.05h1.58v.05Z" class="point" style="vector-effect:none;opacity:1;stroke-width:1px;fill:#5694ca;fill-opacity:1;stroke:#5694ca;stroke-opacity:1"/><path d="M306.85 167.58v-.04h1.58v.04ZM306.85 167.54v-.09h1.58v.09ZM306.85 167.45v-.22h1.58v.22ZM306.85 167.23v-.26h1.58v.26ZM306.85 166.97v-.04h1.58v.04ZM306.85 166.93v-.09h1.58v.09ZM306.85 166.84v-.14h1.58v.14ZM308.82 168v-.33h1.59v.33ZM308.82 167.67v-.06h1.59v.06Z" class="point" style="vector-effect:none;opacity:1;stroke-width:1px;fill:#5694ca;fill-opacity:1;stroke:#5694ca;stroke-opacity:1"/><path d="M308.82 167.61v-.45h1.59v.45ZM308.82 167.16v-.29h1.59v.29ZM308.82 166.87v-.04h1.59v.04ZM308.82 166.83v-.17h1.59v.17ZM308.82 166.66v-.06h1.59v.06ZM308.82 166.6v-.11h1.59v.11Z" class="point" style="vector-effect:none;opacity:1;stroke-width:1px;fill:#5694ca;fill-opacity:1;stroke:#5694ca;stroke-opacity:1"/><path d="M308.82 166.49v-.12h1.59v.12ZM310.8 168v-.42h1.59v.42ZM310.8 167.58v-.16h1.59v.16ZM310.8 167.42v-.5h1.59v.5ZM310.8 166.92v-.33h1.59v.33Z" class="point" style="vector-effect:none;opacity:1;stroke-width:1px;fill:#5694ca;fill-opacity:1;stroke:#5694ca;stroke-opacity:1"/><path d="M310.8 166.59v-.07h1.59v.07ZM310.8 166.52v-.07h1.59v.07ZM310.8 166.45v-.13h1.59v.13ZM310.8 166.32v-.19h1.59v.19ZM310.8 166.13v-.05h1.59v.05ZM312.78 168v-.04h1.58v.04ZM312.78 167.96v-.08h1.58v.08ZM312.78 167.88v-.13h1.58v.13ZM312.78 167.75v-.19h1.58v.19ZM312.78 167.56v-.36h1.58v.36ZM312.78 167.2v-.46h1.58v.46Z" class="point" style="vector-effect:none;opacity:1;stroke-width:1px;fill:#5694ca;fill-opacity:1;stroke:#5694ca;stroke-opacity:1"/><path d="M312.78 166.74v-.56h1.58v.56ZM312.78 166.18v-.06h1.58v.06ZM312.78 166.12v-.16h1.58v.16ZM314.76 168v-.74h1.58v.74ZM314.76 167.26v-.02h1.58v.02Z" class="point" style="vector-effect:none;opacity:1;stroke-width:1px;fill:#5694ca;fill-opacity:1;stroke:#5694ca;stroke-opacity:1"/><path d="M314.76 167.24v-.05h1.58v.05ZM314.76 167.19v-.14h1.58v.14ZM314.76 167.05v-.21h1.58v.21ZM314.76 166.84v-.07h1.58v.07ZM314.76 166.77v-.12h1.58v.12ZM314.76 166.65v-.58h1.58v.58ZM314.76 166.07v-.43h1.58v.43ZM316.74 168v-.04h1.58v.04ZM316.74 167.96v-.01h1.58v.01ZM316.74 167.95v-.03h1.58v.03ZM316.74 167.92v-.01h1.58v.01ZM316.74 167.91v-.03h1.58v.03ZM316.74 167.88v-.19h1.58v.19ZM316.74 167.69v-.11h1.58v.11Z" class="point" style="vector-effect:none;opacity:1;stroke-width:1px;fill:#5694ca;fill-opacity:1;stroke:#5694ca;stroke-opacity:1"/><path d="M316.74 167.58v-.05h1.58v.05ZM316.74 167.53v-.16h1.58v.16ZM318.72 168v-.02h1.58v.02ZM318.72 167.98v-.01h1.58v.01ZM318.72 167.97v-.01h1.58v.01ZM318.72 167.96v-.02h1.58v.02ZM318.72 167.94v-.01h1.58v.01ZM318.72 167.93v-.03h1.58v.03ZM318.72 167.9v-.01h1.58v.01ZM318.72 167.89v-.01h1.58v.01ZM318.72 167.88h1.58ZM320.7 168v-.01h1.58v.01ZM320.7 167.99v-.01h1.58v.01ZM320.7 167.98h1.58ZM320.7 167.98v-.01h1.58v.01ZM320.7 167.97v-.01h1.58v.01ZM320.7 167.96v-.01h1.58v.01ZM320.7 167.95v-.01h1.58v.01ZM320.7 167.94v-.01h1.58v.01ZM320.7 167.93v-.02h1.58v.02ZM322.67 168v-.01h1.59v.01ZM322.67 167.99h1.59ZM322.67 167.99v-.01h1.59v.01ZM322.67 167.98v-.01h1.59v.01ZM322.67 167.97v-.01h1.59v.01ZM322.67 167.96v-.01h1.59v.01ZM322.67 167.95v-.01h1.59v.01ZM322.67 167.94v-.01h1.59v.01ZM322.67 167.93v-.02h1.59v.02ZM324.65 168v-.01h1.58v.01ZM324.65 167.99v-.02h1.58v.02ZM324.65 167.97h1.58ZM324.65 167.97v-.01h1.58v.01ZM324.65 167.96v-.02h1.58v.02ZM324.65 167.94v-.01h1.58v.01ZM324.65 167.93v-.01h1.58v.01ZM324.65 167.92h1.58ZM324.65 167.92v-.01h1.58v.01ZM326.63 168v-.01h1.58v.01ZM326.63 167.99h1.58ZM326.63 167.99v-.01h1.58v.01ZM326.63 167.98v-.01h1.58v.01ZM326.63 167.97h1.58ZM326.63 167.97v-.01h1.58v.01ZM326.63 167.96v-.01h1.58v.01ZM326.63 167.95v-.01h1.58v.01ZM326.63 167.94h1.58ZM328.61 168v-.01h1.58v.01ZM328.61 167.99h1.58ZM328.61 167.99v-.01h1.58v.01ZM328.61 167.98v-.01h1.58v.01ZM328.61 167.97h1.58ZM328.61 167.97v-.02h1.58v.02ZM328.61 167.95h1.58ZM328.61 167.95v-.01h1.58v.01ZM328.61 167.94h1.58ZM330.59 168h1.58ZM330.59 168h1.58ZM330.59 168h1.58ZM330.59 168h1.58ZM330.59 168v-.01h1.58v.01ZM330.59 167.99h1.58ZM330.59 167.99h1.58ZM330.59 167.99h1.58ZM330.59 167.99h1.58ZM332.57 168h1.58ZM332.57 168v-.01h1.58v.01ZM332.57 167.99h1.58ZM332.57 167.99h1.58ZM332.57 167.99h1.58ZM332.57 167.99v-.01h1.58v.01ZM332.57 167.98h1.58ZM332.57 167.98h1.58ZM332.57 167.98h1.58ZM334.54 168h1.59ZM334.54 168v-.01h1.59v.01ZM334.54 167.99h1.59ZM334.54 167.99v-.01h1.59v.01ZM334.54 167.98h1.59ZM334.54 167.98v-.01h1.59v.01ZM334.54 167.97h1.59ZM334.54 167.97v-.01h1.59v.01ZM334.54 167.96h1.59ZM336.52 168h1.58ZM336.52 168v-.01h1.58v.01ZM336.52 167.99h1.58ZM336.52 167.99v-.01h1.58v.01ZM336.52 167.98h1.58ZM336.52 167.98v-.01h1.58v.01ZM336.52 167.97h1.58ZM336.52 167.97v-.01h1.58v.01ZM336.52 167.96v-.01h1.58v.01ZM338.5 168h1.58ZM338.5 168v-.01h1.58v.01ZM338.5 167.99v-.01h1.58v.01ZM338.5 167.98h1.58ZM338.5 167.98h1.58ZM338.5 167.98h1.58ZM338.5 167.98v-.01h1.58v.01ZM338.5 167.97h1.58ZM338.5 167.97h1.58ZM340.48 168v-.01h1.58v.01ZM340.48 167.99h1.58ZM340.48 167.99v-.01h1.58v.01ZM340.48 167.98h1.58ZM340.48 167.98h1.58ZM340.48 167.98v-.01h1.58v.01ZM340.48 167.97h1.58ZM340.48 167.97v-.01h1.58v.01ZM340.48 167.96h1.58ZM342.46 168h1.58ZM342.46 168h1.58ZM342.46 168v-.01h1.58v.01ZM342.46 167.99h1.58ZM342.46 167.99v-.01h1.58v.01ZM342.46 167.98h1.58ZM342.46 167.98h1.58ZM342.46 167.98h1.58ZM342.46 167.98v-.01h1.58v.01ZM344.44 168h1.58ZM344.44 168h1.58ZM344.44 168h1.58ZM344.44 168h1.58ZM344.44 168h1.58ZM344.44 168h1.58ZM344.44 168h1.58ZM344.44 168h1.58ZM344.44 168v-.01h1.58v.01ZM346.41 168H348ZM346.41 168H348ZM346.41 168v-.01H348v.01ZM346.41 167.99H348ZM346.41 167.99H348ZM346.41 167.99H348ZM346.41 167.99H348ZM346.41 167.99v-.01H348v.01ZM346.41 167.98H348ZM348.39 168h1.59ZM348.39 168v-.01h1.59v.01ZM348.39 167.99h1.59ZM348.39 167.99v-.01h1.59v.01ZM348.39 167.98h1.59ZM348.39 167.98h1.59ZM348.39 167.98v-.01h1.59v.01ZM348.39 167.97h1.59ZM348.39 167.97v-.01h1.59v.01ZM350.37 168h1.58ZM350.37 168h1.58ZM350.37 168h1.58ZM350.37 168h1.58ZM350.37 168v-.01h1.58v.01ZM350.37 167.99h1.58ZM350.37 167.99h1.58ZM350.37 167.99h1.58ZM350.37 167.99h1.58ZM352.35 168h1.58ZM352.35 168v-.01h1.58v.01ZM352.35 167.99h1.58ZM352.35 167.99h1.58ZM352.35 167.99h1.58ZM352.35 167.99h1.58ZM352.35 167.99h1.58ZM352.35 167.99h1.58ZM352.35 167.99v-.01h1.58v.01ZM354.33 168h1.58ZM354.33 168h1.58ZM354.33 168h1.58ZM354.33 168v-.01h1.58v.01ZM354.33 167.99h1.58ZM354.33 167.99h1.58ZM354.33 167.99h1.58ZM354.33 167.99h1.58ZM354.33 167.99h1.58ZM356.31 168h1.58ZM356.31 168h1.58ZM356.31 168h1.58ZM356.31 168h1.58ZM356.31 168v-.01h1.58v.01ZM356.31 167.99h1.58ZM356.31 167.99h1.58ZM356.31 167.99h1.58ZM356.31 167.99h1.58ZM358.28 168h1.59ZM358.28 168h1.59ZM358.28 168h1.59ZM358.28 168h1.59ZM358.28 168h1.59ZM358.28 168h1.59ZM358.28 168h1.59ZM358.28 168h1.59ZM358.28 168h1.59ZM360.26 168h1.59ZM360.26 168h1.59ZM360.26 168h1.59ZM360.26 168v-.01h1.59v.01ZM360.26 167.99h1.59ZM360.26 167.99h1.59ZM360.26 167.99h1.59ZM360.26 167.99h1.59ZM360.26 167.99h1.59ZM362.24 168h1.58ZM362.24 168h1.58ZM362.24 168h1.58ZM362.24 168v-.01h1.58v.01ZM362.24 167.99h1.58ZM362.24 167.99h1.58ZM362.24 167.99h1.58ZM362.24 167.99h1.58ZM362.24 167.99v-.01h1.58v.01ZM364.22 168h1.58ZM364.22 168h1.58ZM364.22 168h1.58ZM364.22 168v-.01h1.58v.01ZM364.22 167.99h1.58ZM364.22 167.99h1.58ZM364.22 167.99h1.58ZM364.22 167.99h1.58ZM364.22 167.99h1.58Z" class="point" style="vector-effect:none;opacity:1;stroke-width:1px;fill:#5694ca;fill-opacity:1;stroke:#5694ca;stroke-opacity:1"/></g></g></g></g><g class="xaxislayer-above"><path d="M0 169v5" class="xtick ticks crisp" style="stroke:#444;stroke-opacity:1;stroke-width:1px" transform="translate(84.43)"/><path d="M0 169v5" class="xtick ticks crisp" style="stroke:#444;stroke-opacity:1;stroke-width:1px" transform="translate(145.76)"/><path d="M0 169v5" class="xtick ticks crisp" style="stroke:#444;stroke-opacity:1;stroke-width:1px" transform="translate(205.11)"/><path d="M0 169v5" class="xtick ticks crisp" style="stroke:#444;stroke-opacity:1;stroke-width:1px" transform="translate(266.44)"/><path d="M0 169v5" class="xtick ticks crisp" style="stroke:#444;stroke-opacity:1;stroke-width:1px" transform="translate(327.77)"/><path d="M0 169v5" class="xtick ticks crisp" style="stroke:#444;stroke-opacity:1;stroke-width:1px" transform="translate(383.16)"/><text y="188.4" class="xtick" style="font-family:Arial;font-size:12px;fill:#6b7276;fill-opacity:1;white-space:pre;opacity:1" transform="rotate(30 42.215 339.949)">Oct 2022</text><text y="188.4" class="xtick" style="font-family:Arial;font-size:12px;fill:#6b7276;fill-opacity:1;white-space:pre;opacity:1" transform="rotate(30 72.88 454.392)">Nov 2022</text><text y="188.4" class="xtick" style="font-family:Arial;font-size:12px;fill:#6b7276;fill-opacity:1;white-space:pre;opacity:1" transform="rotate(30 102.555 565.14)">Dec 2022</text><text y="188.4" class="xtick" style="font-family:Arial;font-size:12px;fill:#6b7276;fill-opacity:1;white-space:pre;opacity:1" transform="rotate(30 133.22 679.584)">Jan 2023</text><text y="188.4" class="xtick" style="font-family:Arial;font-size:12px;fill:#6b7276;fill-opacity:1;white-space:pre;opacity:1" transform="rotate(30 163.885 794.027)">Feb 2023</text></g><g class="yaxislayer-above"><text x="31" y="4.2" class="ytick" style="font-family:Arial;font-size:12px;fill:#6b7276;fill-opacity:1;white-space:pre;opacity:1" text-anchor="end" transform="translate(0 168)">0</text><text x="31" y="4.2" class="ytick" style="font-family:Arial;font-size:12px;fill:#6b7276;fill-opacity:1;white-space:pre;opacity:1" text-anchor="end" transform="translate(0 105.09)">200k</text><text x="31" y="4.2" class="ytick" style="font-family:Arial;font-size:12px;fill:#6b7276;fill-opacity:1;white-space:pre;opacity:1" text-anchor="end" transform="translate(0 42.19)">400k</text></g></g></g></svg>