<svg xmlns="http://www.w3.org/2000/svg" width="930" height="220" class="main-svg"><path fill="none" d="M0 0h930v220H0z" style="fill:#000;fill-opacity:0"/><defs><clipPath id="a" class="plotclip"><path d="M0 0h902v197H0z"/></clipPath></defs><g class="bglayer"><path fill="none" d="M28 0h902v197H28z" class="bg" style="fill:#000;fill-opacity:0;stroke-width:0"/></g><g class="cartesianlayer"><g class="subplot xy"><g class="zerolinelayer"><path d="M28 0h902" class="yzl zl crisp" style="stroke:#fff;stroke-opacity:1;stroke-width:2px" transform="translate(0 197)"/></g><g class="plot" clip-path="url(#a)" transform="translate(28)"><g class="barlayer mlayer"><g class="trace bars" style="opacity:1"><g class="points"><path d="M.31 197v-70.57h2.5V197ZM3.43 197v-67.33h2.5V197ZM6.55 197v-67.15h2.5V197ZM9.68 197v-66.79h2.49V197ZM12.8 197v-66.31h2.49V197ZM15.92 197v-65.83h2.49V197ZM19.04 197v-65.29h2.5V197ZM22.16 197v-65.23h2.5V197ZM25.28 197v-63.66h2.5V197ZM28.4 197v-60.48h2.5V197ZM31.52 197v-57.84h2.5V197ZM34.64 197v-55.44h2.5V197ZM37.77 197v-53.63h2.49V197ZM40.89 197v-52.31h2.49V197ZM44.01 197v-51.35h2.49V197ZM47.13 197v-50.27h2.5V197ZM50.25 197v-48.89h2.5V197ZM53.37 197v-47.93h2.5V197ZM56.49 197v-47.33h2.5V197ZM59.61 197v-46.55h2.5V197ZM62.73 197v-45.59h2.5V197ZM65.86 197v-43.9h2.49V197ZM68.98 197v-42.16h2.49V197ZM72.1 197v-40.84h2.49V197ZM75.22 197v-39.58h2.5V197ZM78.34 197v-38.56h2.5V197ZM81.46 197v-37.96h2.5V197ZM84.58 197v-37.84h2.5V197ZM87.7 197v-37.36h2.5V197ZM90.82 197v-37.06h2.5V197ZM93.95 197v-37.18h2.49V197ZM97.07 197v-37.72h2.49V197ZM100.19 197v-38.02h2.49V197ZM103.31 197v-39.16h2.5V197ZM106.43 197v-41.44h2.5V197ZM109.55 197v-45.29h2.5V197ZM112.67 197v-49.43h2.5V197ZM115.79 197v-53.39h2.5V197ZM118.91 197v-57.9h2.5V197ZM122.04 197v-62.7h2.49V197ZM125.16 197v-66.49h2.49V197ZM128.28 197v-68.83h2.49V197ZM131.4 197v-71.35h2.5V197ZM134.52 197v-74.72h2.5V197ZM137.64 197v-78.08h2.5V197ZM140.76 197v-80.66h2.5V197ZM143.88 197v-83.12h2.5V197ZM147 197v-85.77h2.5V197ZM150.13 197v-89.13h2.49V197ZM153.25 197v-93.15h2.49V197ZM156.37 197V99.64h2.49V197ZM159.49 197V94.48h2.5V197ZM162.61 197V88.77h2.5V197ZM165.73 197V83.66h2.5V197ZM168.85 197V79.4h2.5V197ZM171.97 197V76.4h2.5V197ZM175.09 197V72.67h2.5V197ZM178.22 197V67.39h2.49V197ZM181.34 197V62.76h2.49V197ZM184.46 197V58.56h2.49V197ZM187.58 197V53.45h2.5V197ZM190.7 197V47.69h2.5V197ZM193.82 197V42.28h2.5V197ZM196.94 197V34.66h2.5V197ZM200.06 197V25.65h2.5V197ZM203.18 197V19.04h2.5V197ZM206.31 197V13.69h2.49V197ZM209.43 197V10.99h2.49V197ZM212.55 197V9.85h2.49V197ZM215.67 197V10.09h2.5V197ZM218.79 197V12.31h2.5V197ZM221.91 197V15.74h2.5V197ZM225.03 197V19.7h2.5V197ZM228.15 197V25.11h2.5V197ZM231.27 197V30.09h2.5V197ZM234.4 197V36.04h2.49V197ZM237.52 197V42.04h2.49V197ZM240.64 197V49.85h2.49V197ZM243.76 197V60.78h2.5V197ZM246.88 197V70.87h2.5V197ZM250 197V78.38h2.5V197ZM253.12 197V85.35h2.5V197ZM256.24 197V91.17h2.5V197ZM259.36 197V96.22h2.5V197ZM262.49 197v-94.96h2.49V197ZM265.61 197v-89.67h2.49V197ZM268.73 197v-84.99h2.49V197ZM271.85 197v-79.58h2.5V197ZM274.97 197v-74.84h2.5V197ZM278.09 197v-71.05h2.5V197ZM281.21 197v-68.59h2.5V197ZM284.33 197v-65.89h2.5V197ZM287.45 197v-62.58h2.5V197ZM290.58 197v-60.12h2.49V197ZM293.7 197v-58.02h2.49V197ZM296.82 197v-56.1h2.49V197ZM299.94 197v-54.24h2.5V197ZM303.06 197v-52.37h2.5V197ZM306.18 197v-50.51h2.5V197ZM309.3 197v-48.77h2.5V197ZM312.42 197v-46.97h2.5V197ZM315.54 197v-45.47h2.5V197ZM318.67 197v-44.32h2.49V197ZM321.79 197v-43.18h2.49V197ZM324.91 197v-42.28h2.49V197ZM328.03 197v-41.08h2.5V197ZM331.15 197v-39.34h2.5V197ZM334.27 197v-37.6h2.5V197ZM337.39 197v-35.92h2.5V197ZM340.51 197v-34.23h2.5V197ZM343.63 197v-32.67h2.5V197ZM346.76 197v-31.47h2.49V197ZM349.88 197v-30.15h2.49V197ZM353 197v-29.07h2.49V197ZM356.12 197v-28.29h2.5V197ZM359.24 197v-27.75h2.5V197ZM362.36 197v-27.15h2.5V197ZM365.48 197v-26.79h2.5V197ZM368.6 197v-26.55h2.5V197ZM371.72 197v-25.83h2.5V197ZM374.84 197v-25.17h2.5V197ZM377.97 197v-25.59h2.49V197ZM381.09 197v-25.65h2.49V197ZM384.21 197v-26.19h2.5V197ZM387.33 197v-26.43h2.5V197ZM390.45 197v-26.79h2.5V197ZM393.57 197v-27.75h2.5V197ZM396.69 197v-28.23h2.5V197ZM399.81 197v-27.63h2.5V197ZM402.93 197v-27.39h2.5V197ZM406.06 197v-26.85h2.49V197ZM409.18 197v-26.73h2.49V197ZM412.3 197v-26.61h2.5V197ZM415.42 197v-26.73h2.5V197ZM418.54 197v-27.15h2.5V197ZM421.66 197v-27.81h2.5V197ZM424.78 197v-28.59h2.5V197ZM427.9 197v-29.61h2.5V197ZM431.02 197v-30.27h2.5V197ZM434.15 197v-30.57h2.49V197ZM437.27 197v-30.63h2.49V197ZM440.39 197v-31.65h2.5V197ZM443.51 197v-34.41h2.5V197ZM446.63 197v-37.06h2.5V197ZM449.75 197v-39.28h2.5V197ZM452.87 197v-41.68h2.5V197ZM455.99 197v-43.96h2.5V197ZM459.11 197v-46.91h2.5V197ZM462.24 197v-49.43h2.49V197ZM465.36 197v-49.91h2.49V197ZM468.48 197v-50.81h2.5V197ZM471.6 197v-51.95h2.5V197ZM474.72 197v-53.09h2.5V197ZM477.84 197v-54.42h2.5V197ZM480.96 197v-56.4h2.5V197ZM484.08 197v-59.46h2.5V197ZM487.2 197v-62.22h2.5V197ZM490.33 197v-64.02h2.49V197ZM493.45 197v-65.59h2.49V197ZM496.57 197v-66.91h2.5V197ZM499.69 197v-66.91h2.5V197ZM502.81 197v-66.31h2.5V197ZM505.93 197v-65.17h2.5V197ZM509.05 197v-63.6h2.5V197ZM512.17 197v-62.1h2.5V197ZM515.29 197v-60.78h2.5V197ZM518.42 197v-59.7h2.49V197ZM521.54 197v-59.1h2.49V197ZM524.66 197v-58.32h2.5V197ZM527.78 197v-57.72h2.5V197ZM530.9 197v-56.58h2.5V197ZM534.02 197v-55.38h2.5V197ZM537.14 197v-53.81h2.5V197ZM540.26 197v-52.13h2.5V197ZM543.38 197v-50.57h2.5V197ZM546.51 197v-48.17H549V197ZM549.63 197v-44.87h2.49V197ZM552.75 197v-42.22h2.49V197ZM555.87 197v-39.94h2.5V197ZM558.99 197v-38.14h2.5V197ZM562.11 197v-36.22h2.5V197ZM565.23 197v-34.84h2.5V197ZM568.35 197v-33.57h2.5V197ZM571.47 197v-31.95h2.5V197ZM574.6 197v-30.81h2.49V197ZM577.72 197v-29.37h2.49V197ZM580.84 197v-28.23h2.49V197ZM583.96 197v-26.97h2.5V197ZM587.08 197v-26.07h2.5V197ZM590.2 197v-25.11h2.5V197ZM593.32 197v-24.32h2.5V197ZM596.44 197v-23.54h2.5V197ZM599.56 197v-23.12h2.5V197ZM602.69 197v-22.64h2.49V197ZM605.81 197v-22.4h2.49V197ZM608.93 197v-22.22h2.49V197ZM612.05 197v-21.92h2.5V197ZM615.17 197v-21.5h2.5V197ZM618.29 197v-21.26h2.5V197ZM621.41 197v-21.02h2.5V197ZM624.53 197v-20.9h2.5V197ZM627.65 197v-20.84h2.5V197ZM630.78 197v-20.84h2.49V197ZM633.9 197v-20.84h2.49V197ZM637.02 197v-20.9h2.49V197ZM640.14 197v-21.2h2.5V197ZM643.26 197v-21.5h2.5V197ZM646.38 197v-21.86h2.5V197ZM649.5 197v-21.98h2.5V197ZM652.62 197v-22.1h2.5V197ZM655.74 197v-22.64h2.5V197ZM658.87 197v-23.42h2.49V197ZM661.99 197v-23.96h2.49V197ZM665.11 197v-24.32h2.49V197ZM668.23 197v-24.56h2.5V197ZM671.35 197v-25.23h2.5V197ZM674.47 197v-25.41h2.5V197ZM677.59 197v-25.71h2.5V197ZM680.71 197v-26.37h2.5V197ZM683.83 197v-27.21h2.5V197ZM686.96 197v-28.29h2.49V197ZM690.08 197v-29.19h2.49V197ZM693.2 197v-29.79h2.49V197ZM696.32 197v-30.63h2.5V197ZM699.44 197v-31.53h2.5V197ZM702.56 197v-33.09h2.5V197ZM705.68 197v-34.96h2.5V197ZM708.8 197v-36.34h2.5V197ZM711.92 197v-37.9h2.5V197ZM715.05 197v-39.7h2.49V197ZM718.17 197v-40.72h2.49V197ZM721.29 197v-41.8h2.49V197ZM724.41 197v-43.78h2.5V197ZM727.53 197v-45.23h2.5V197ZM730.65 197v-46.37h2.5V197ZM733.77 197v-47.09h2.5V197ZM736.89 197v-46.79h2.5V197ZM740.01 197v-46.25h2.5V197ZM743.14 197v-44.32h2.49V197ZM746.26 197v-40.3h2.49V197ZM749.38 197v-38.38h2.49V197ZM752.5 197v-38.98h2.5V197ZM755.62 197v-39.7h2.5V197ZM758.74 197v-40h2.5v40ZM761.86 197v-40.12h2.5V197ZM764.98 197v-40.06h2.5V197ZM768.1 197v-40.24h2.5V197ZM771.23 197v-40h2.49v40ZM774.35 197v-37.24h2.49V197ZM777.47 197v-34.29h2.49V197ZM780.59 197v-32.01h2.5V197ZM783.71 197v-30.45h2.5V197ZM786.83 197v-29.61h2.5V197ZM789.95 197v-28.05h2.5V197ZM793.07 197v-24.93h2.5V197ZM796.19 197v-22.16h2.5V197ZM799.32 197v-20.06h2.49V197ZM802.44 197v-18.44h2.49V197ZM805.56 197v-17.3h2.49V197ZM808.68 197v-16.46h2.5V197ZM811.8 197v-15.5h2.5V197ZM814.92 197v-14.59h2.5V197ZM818.04 197v-14.11h2.5V197ZM821.16 197v-13.69h2.5V197ZM824.28 197v-13.45h2.5V197ZM827.41 197v-13.57h2.49V197ZM830.53 197v-13.63h2.49V197ZM833.65 197v-13.69h2.49V197ZM836.77 197v-14.29h2.5V197ZM839.89 197v-14.9h2.5V197ZM843.01 197v-15.44h2.5V197ZM846.13 197v-16.04h2.5V197ZM849.25 197v-16.46h2.5V197ZM852.37 197v-17h2.5v17ZM855.5 197v-17.96h2.49V197ZM858.62 197v-18.74h2.49V197ZM861.74 197v-19.58h2.49V197ZM864.86 197v-20.18h2.5V197ZM867.98 197v-20.72h2.5V197ZM871.1 197v-21.14h2.5V197ZM874.22 197v-21.56h2.5V197ZM877.34 197v-21.92h2.5V197ZM880.46 197v-22.04h2.5V197ZM883.59 197v-22.16h2.49V197ZM886.71 197v-22.28h2.49V197ZM889.83 197v-22.58h2.49V197ZM892.95 197v-22.76h2.5V197ZM896.07 197v-23.06h2.5V197ZM899.19 197v-24.08h2.5V197Z" class="point" style="vector-effect:none;opacity:1;stroke-width:1px;fill:#5694ca;fill-opacity:1;stroke:#5694ca;stroke-opacity:1"/></g></g></g></g><g class="xaxislayer-above"><path d="M0 198v5" class="xtick ticks crisp" style="stroke:#444;stroke-opacity:1;stroke-width:1px" transform="translate(29.56)"/><path d="M0 198v5" class="xtick ticks crisp" style="stroke:#444;stroke-opacity:1;stroke-width:1px" transform="translate(126.31)"/><path d="M0 198v5" class="xtick ticks crisp" style="stroke:#444;stroke-opacity:1;stroke-width:1px" transform="translate(219.95)"/><path d="M0 198v5" class="xtick ticks crisp" style="stroke:#444;stroke-opacity:1;stroke-width:1px" transform="translate(316.7)"/><path d="M0 198v5" class="xtick ticks crisp" style="stroke:#444;stroke-opacity:1;stroke-width:1px" transform="translate(413.46)"/><path d="M0 198v5" class="xtick ticks crisp" style="stroke:#444;stroke-opacity:1;stroke-width:1px" transform="translate(507.09)"/><path d="M0 198v5" class="xtick ticks crisp" style="stroke:#444;stroke-opacity:1;stroke-width:1px" transform="translate(603.84)"/><path d="M0 198v5" class="xtick ticks crisp" style="stroke:#444;stroke-opacity:1;stroke-width:1px" transform="translate(697.48)"/><path d="M0 198v5" class="xtick ticks crisp" style="stroke:#444;stroke-opacity:1;stroke-width:1px" transform="translate(794.23)"/><path d="M0 198v5" class="xtick ticks crisp" style="stroke:#444;stroke-opacity:1;stroke-width:1px" transform="translate(890.99)"/><text y="217.4" class="xtick" style="font-family:Arial;font-size:12px;fill:#6b7276;fill-opacity:1;white-space:pre;opacity:1" text-anchor="middle" transform="translate(126.31)">Jun 2022</text><text y="217.4" class="xtick" style="font-family:Arial;font-size:12px;fill:#6b7276;fill-opacity:1;white-space:pre;opacity:1" text-anchor="middle" transform="translate(219.95)">Jul 2022</text><text y="217.4" class="xtick" style="font-family:Arial;font-size:12px;fill:#6b7276;fill-opacity:1;white-space:pre;opacity:1" text-anchor="middle" transform="translate(316.7)">Aug 2022</text><text y="217.4" class="xtick" style="font-family:Arial;font-size:12px;fill:#6b7276;fill-opacity:1;white-space:pre;opacity:1" text-anchor="middle" transform="translate(413.46)">Sep 2022</text><text y="217.4" class="xtick" style="font-family:Arial;font-size:12px;fill:#6b7276;fill-opacity:1;white-space:pre;opacity:1" text-anchor="middle" transform="translate(507.09)">Oct 2022</text><text y="217.4" class="xtick" style="font-family:Arial;font-size:12px;fill:#6b7276;fill-opacity:1;white-space:pre;opacity:1" text-anchor="middle" transform="translate(603.84)">Nov 2022</text><text y="217.4" class="xtick" style="font-family:Arial;font-size:12px;fill:#6b7276;fill-opacity:1;white-space:pre;opacity:1" text-anchor="middle" transform="translate(697.48)">Dec 2022</text><text y="217.4" class="xtick" style="font-family:Arial;font-size:12px;fill:#6b7276;fill-opacity:1;white-space:pre;opacity:1" text-anchor="middle" transform="translate(794.23)">Jan 2023</text><text y="217.4" class="xtick" style="font-family:Arial;font-size:12px;fill:#6b7276;fill-opacity:1;white-space:pre;opacity:1" text-anchor="middle" transform="translate(890.99)">Feb 2023</text></g><g class="yaxislayer-above"><text x="27" y="4.2" class="ytick" style="font-family:Arial;font-size:12px;fill:#6b7276;fill-opacity:1;white-space:pre;opacity:1" text-anchor="end" transform="translate(0 197)">0</text><text x="27" y="4.2" class="ytick" style="font-family:Arial;font-size:12px;fill:#6b7276;fill-opacity:1;white-space:pre;opacity:1" text-anchor="end" transform="translate(0 136.94)">100</text><text x="27" y="4.2" class="ytick" style="font-family:Arial;font-size:12px;fill:#6b7276;fill-opacity:1;white-space:pre;opacity:1" text-anchor="end" transform="translate(0 76.88)">200</text><text x="27" y="4.2" class="ytick" style="font-family:Arial;font-size:12px;fill:#6b7276;fill-opacity:1;white-space:pre;opacity:1" text-anchor="end" transform="translate(0 16.82)">300</text></g></g></g></svg>